<?xml version="1.0" encoding="UTF-8"?>
<svg width="1024px" height="768px" viewBox="0 0 1024 768" version="1.1" xmlns="http://www.w3.org/2000/svg" xmlns:xlink="http://www.w3.org/1999/xlink">
    <title>video-paused</title>
    <defs>
        <polygon id="path-1" points="0 0 541.136 0 541.136 617.926 0 617.926"></polygon>
        <polygon id="path-3" points="0 0 106.968389 0 106.968389 106.967921 0 106.967921"></polygon>
    </defs>
    <g id="video-paused" stroke="none" stroke-width="1" fill="none" fill-rule="evenodd">
        <g id="logo" transform="translate(241.060000, 52.961000)">
            <g id="Group-4" transform="translate(0.000000, 45.113000)">
                <mask id="mask-2" fill="white">
                    <use xlink:href="#path-1"></use>
                </mask>
                <g id="Clip-2"></g>
                <path d="M270.533,611.303 C302.618,611.303 328.63,612.785 328.63,614.615 C328.63,616.441 302.618,617.926 270.533,617.926 C238.446,617.926 212.435,616.441 212.435,614.615 C212.435,612.785 238.446,611.303 270.533,611.303" id="Fill-1" fill="#1B1038" mask="url(#mask-2)"></path>
                <path d="M455.286,85.848 C408.007,38.569 342.687,9.324 270.536,9.324 C198.389,9.324 133.068,38.569 85.789,85.848 C38.509,133.13 9.264,198.45 9.264,270.598 C9.264,342.746 38.509,408.066 85.789,455.345 C133.068,502.625 198.389,531.871 270.536,531.871 C342.685,531.871 408.005,502.625 455.286,455.345 C502.567,408.066 531.812,342.746 531.812,270.598 C531.812,198.449 502.567,133.128 455.286,85.848 Z M270.536,0 C345.263,0 412.915,30.288 461.882,79.254 C510.847,128.22 541.136,195.873 541.136,270.598 C541.136,345.32 510.847,412.974 461.882,461.939 C412.913,510.906 345.261,541.195 270.536,541.195 C195.814,541.195 128.16,510.906 79.195,461.939 C30.229,412.974 -0.06,345.32 -0.06,270.598 C-0.06,195.875 30.229,128.222 79.195,79.254 C128.16,30.288 195.814,0 270.536,0 L270.536,0 Z" id="Fill-3" fill="#1B1038" mask="url(#mask-2)"></path>
            </g>
            <path d="M148.27,330.173 C150.582,331.74 151.186,334.886 149.62,337.197 C148.053,339.509 144.907,340.113 142.596,338.546 C134.421,332.988 128.89,331.916 125.509,333.529 C122.592,334.921 120.94,338.697 120.427,343.355 C119.822,348.845 120.856,355.298 123.302,360.966 C124.472,363.679 125.97,366.187 127.762,368.261 L119.459,374.197 C117.26,371.47 115.425,368.332 113.976,364.974 C110.87,357.777 109.565,349.478 110.34,342.312 C108.027,340.396 106.043,338.394 104.372,336.332 C99.443,330.248 97.18,323.625 97.217,317.033 C97.251,310.478 99.568,304.072 103.798,298.357 C107.581,293.247 112.919,288.675 119.521,285.066 C80.257,229.557 91.918,188.052 128.324,160.715 C161.619,135.714 216.161,123.214 270.537,123.214 C324.915,123.214 379.456,135.714 412.751,160.713 C449.157,188.051 460.817,229.555 421.554,285.065 C428.155,288.674 433.493,293.246 437.276,298.357 C441.507,304.072 443.821,310.479 443.858,317.033 C443.896,323.625 441.63,330.246 436.704,336.332 C435.032,338.394 433.048,340.396 430.735,342.31 C431.509,349.478 430.206,357.777 427.099,364.974 C425.778,368.035 424.138,370.914 422.192,373.462 L414.04,367.375 C415.513,365.488 416.765,363.304 417.773,360.966 C420.22,355.298 421.253,348.845 420.648,343.355 C420.136,338.697 418.483,334.921 415.565,333.529 C412.185,331.917 406.653,332.988 398.48,338.546 C396.169,340.113 393.023,339.509 391.454,337.197 C389.89,334.886 390.493,331.74 392.804,330.173 C404.446,322.259 413.46,321.274 419.931,324.361 C423.177,325.912 425.671,328.41 427.458,331.533 C427.95,331.005 428.413,330.476 428.847,329.941 C432.214,325.781 433.763,321.373 433.739,317.074 C433.716,312.738 432.099,308.384 429.14,304.391 C425.382,299.309 419.491,294.844 411.942,291.683 L405.935,289.166 L409.839,283.965 C449.007,231.804 439.524,193.471 406.679,168.809 C375.218,145.185 322.958,133.373 270.537,133.373 C218.117,133.373 165.857,145.186 134.395,168.809 C101.549,193.472 92.069,231.805 131.235,283.965 L135.141,289.166 L129.132,291.683 C121.583,294.844 115.695,299.309 111.933,304.391 C108.978,308.384 107.358,312.738 107.335,317.074 C107.312,321.373 108.858,325.781 112.229,329.941 C112.661,330.476 113.124,331.007 113.615,331.533 C115.402,328.412 117.898,325.912 121.145,324.361 C127.615,321.274 136.629,322.259 148.27,330.173" id="Fill-5" fill="#1B1038"></path>
            <path d="M206.263,526.31 C215.166,645.617 322.794,645.617 331.698,526.31 L206.263,526.31" id="Fill-6" fill="#FFFFFF"></path>
            <path d="M240.068,611.585 C220.298,598.121 204.419,569.777 201.204,526.687 L200.797,521.23 L337.163,521.23 L336.757,526.687 C333.54,569.777 317.661,598.121 297.892,611.585 C288.806,617.773 278.905,620.869 268.98,620.869 C259.056,620.869 249.155,617.775 240.068,611.585 Z M211.808,531.39 C215.6,567.982 229.157,591.888 245.784,603.212 C253.122,608.21 261.065,610.71 268.98,610.71 C276.896,610.71 284.839,608.21 292.177,603.212 C308.804,591.888 322.36,567.982 326.153,531.39 L211.808,531.39 L211.808,531.39 Z" id="Fill-7" fill="#1B1038"></path>
            <path d="M268.98,531.39 L194.111,531.39 C191.358,531.39 189.117,529.199 189.035,526.464 C187.796,514.187 187.958,501.714 189.388,489.281 C190.851,476.55 193.652,463.806 197.643,451.304 L205.546,453.72 L222.547,457.007 C215.603,457.083 209.974,457.179 206.386,457.294 C203.089,468.195 200.748,479.302 199.467,490.431 C198.281,500.759 198.013,511.076 198.75,521.23 L339.21,521.23 C339.948,511.076 339.679,500.759 338.493,490.431 C337.212,479.302 334.87,468.195 331.575,457.294 L340.925,453.242 C344.595,465.123 347.185,477.208 348.573,489.281 C350.017,501.837 350.167,514.431 348.888,526.826 C348.62,529.435 346.417,531.378 343.849,531.376 L343.849,531.39 L268.98,531.39" id="Fill-8" fill="#1B1038"></path>
            <path d="M365.017,560.396 C362.646,552.798 362.276,543.433 364.917,532.281 C359.056,506.625 354.55,481.027 358.634,469.341 C364.11,453.671 378.899,455.849 410.819,494.025 C419.663,504.601 425.532,515.636 428.821,526.173 C432.171,536.914 432.858,547.177 431.292,555.972 C429.646,565.201 425.528,572.904 419.386,578.041 C416.503,580.451 413.189,582.285 409.495,583.439 C403.245,585.388 396.314,585.576 389.773,583.921 C384.382,582.556 379.218,579.931 374.872,576 C370.526,572.072 367.042,566.878 365.017,560.396 Z M375.05,533.556 C372.585,543.292 372.771,551.197 374.7,557.38 C376.161,562.056 378.62,565.753 381.659,568.501 C384.698,571.25 388.366,573.099 392.233,574.08 C396.985,575.281 401.993,575.156 406.48,573.755 C408.87,573.009 411.013,571.822 412.878,570.263 C417.159,566.683 420.069,561.085 421.29,554.226 C422.589,546.937 421.985,538.318 419.138,529.187 C416.224,519.857 410.98,510.025 403.042,500.533 C379.642,472.546 370.202,466.937 368.198,472.675 C364.862,482.216 369.415,506.625 375.069,531.195 L375.345,532.392 L375.05,533.556 L375.05,533.556 Z" id="Fill-9" fill="#1B1038"></path>
            <path d="M419.72,512.8 C429.948,514.402 436.942,523.992 435.341,534.218 C433.741,544.447 424.151,551.441 413.923,549.839 C403.696,548.24 396.702,538.65 398.302,528.421 C399.903,518.195 409.493,511.201 419.72,512.8" id="Fill-10" fill="#6DE1FF"></path>
            <path d="M427.88,523.251 C425.817,520.425 422.677,518.384 418.944,517.8 C415.204,517.216 411.581,518.201 408.751,520.263 C405.927,522.324 403.884,525.466 403.302,529.197 C402.716,532.937 403.7,536.562 405.765,539.39 C407.815,542.201 410.939,544.238 414.646,544.832 L414.698,544.839 C418.439,545.425 422.064,544.441 424.89,542.378 C427.702,540.328 429.737,537.205 430.333,533.498 L430.341,533.445 C430.925,529.703 429.942,526.08 427.88,523.251 Z M420.493,507.8 C426.989,508.816 432.46,512.375 436.054,517.298 C439.542,522.082 441.257,528.154 440.421,534.445 L440.341,534.996 C439.325,541.49 435.767,546.96 430.843,550.552 C426.062,554.041 419.989,555.757 413.698,554.919 L413.149,554.839 C406.653,553.826 401.183,550.269 397.591,545.343 C394.001,540.421 392.286,534.132 393.302,527.648 C394.317,521.154 397.874,515.681 402.798,512.089 C407.722,508.5 414.009,506.785 420.493,507.8 L420.493,507.8 Z" id="Fill-11" fill="#1B1038"></path>
            <path d="M167.832,532.326 C177.475,570.427 149.68,584.75 129.974,578.597 C106.881,571.388 102.035,531.957 131.03,497.279 C186.353,431.115 179.479,481.707 167.832,532.326" id="Fill-12" fill="#D1D4E3"></path>
            <path d="M163.261,557.38 C165.19,551.197 165.376,543.292 162.911,533.556 L162.617,532.392 L162.892,531.195 C168.544,506.623 173.097,482.218 169.763,472.675 C167.758,466.939 158.317,472.546 134.919,500.533 C126.981,510.025 121.736,519.857 118.824,529.187 C115.975,538.318 115.372,546.937 116.67,554.226 C117.892,561.085 120.803,566.683 125.084,570.263 C126.948,571.822 129.091,573.009 131.482,573.755 C135.967,575.156 140.975,575.281 145.728,574.08 C149.594,573.099 153.264,571.25 156.302,568.501 C159.341,565.753 161.8,562.056 163.261,557.38 Z M173.043,532.281 C175.684,543.433 175.315,552.798 172.944,560.396 C170.919,566.878 167.434,572.072 163.088,576 C158.743,579.931 153.578,582.556 148.188,583.921 C141.648,585.576 134.715,585.388 128.466,583.439 C124.772,582.285 121.458,580.451 118.576,578.041 C112.432,572.904 108.315,565.201 106.669,555.972 C105.103,547.177 105.79,536.914 109.14,526.173 C112.429,515.636 118.298,504.601 127.141,494.025 C159.06,455.849 173.85,453.671 179.326,469.341 C183.41,481.027 178.904,506.625 173.043,532.281 L173.043,532.281 Z" id="Fill-13" fill="#1B1038"></path>
            <path d="M118.242,512.8 C108.014,514.402 101.019,523.992 102.619,534.218 C104.22,544.447 113.81,551.441 124.038,549.839 C134.265,548.24 141.26,538.65 139.66,528.421 C138.059,518.195 128.469,511.201 118.242,512.8" id="Fill-14" fill="#6DE1FF"></path>
            <path d="M101.908,517.298 C105.5,512.375 110.972,508.816 117.468,507.8 C123.952,506.785 130.239,508.5 135.162,512.089 C140.086,515.681 143.644,521.154 144.66,527.648 C145.675,534.132 143.96,540.421 140.371,545.343 C136.778,550.269 131.307,553.826 124.813,554.839 C118.328,555.855 112.039,554.142 107.118,550.552 C102.192,546.96 98.636,541.49 97.619,534.994 C96.604,528.507 98.318,522.22 101.908,517.298 Z M119.016,517.8 C115.285,518.384 112.143,520.425 110.082,523.251 C108.019,526.08 107.034,529.703 107.619,533.445 C108.202,537.175 110.245,540.318 113.071,542.378 C115.899,544.441 119.523,545.425 123.264,544.839 C126.995,544.257 130.137,542.214 132.197,539.39 C134.26,536.562 135.244,532.937 134.659,529.197 C134.076,525.466 132.034,522.324 129.209,520.263 C126.38,518.201 122.757,517.216 119.016,517.8 L119.016,517.8 Z" id="Fill-15" fill="#1B1038"></path>
            <path d="M118.794,367.933 C122.013,364.716 126.461,362.722 131.373,362.722 C135.176,362.722 138.702,363.917 141.594,365.953 L140.71,379.789 L143.671,393.345 C140.466,396.416 136.131,398.304 131.373,398.304 C126.5,398.304 122.068,396.324 118.844,393.121 L118.794,393.072 C115.574,389.845 113.583,385.402 113.583,380.513 C113.583,375.779 115.45,371.464 118.493,368.263 L118.794,367.933 Z M131.373,372.882 C129.266,372.882 127.357,373.738 125.977,375.117 L125.764,375.316 C124.51,376.667 123.742,378.494 123.742,380.513 C123.742,382.632 124.588,384.541 125.957,385.91 L125.977,385.929 C127.345,387.298 129.253,388.144 131.373,388.144 C133.493,388.144 135.402,387.296 136.77,385.929 L136.77,385.91 C138.149,384.531 139.004,382.621 139.004,380.513 C139.004,378.406 138.149,376.496 136.77,375.117 C135.39,373.738 133.48,372.882 131.373,372.882 L131.373,372.882 Z" id="Fill-16" fill="#1B1038"></path>
            <path d="M415.099,375.117 C413.718,373.738 411.808,372.882 409.702,372.882 C407.595,372.882 405.685,373.738 404.306,375.117 L404.286,375.117 C402.917,376.484 402.071,378.392 402.071,380.513 C402.071,382.632 402.917,384.541 404.286,385.91 L404.306,385.929 C405.673,387.298 407.581,388.144 409.702,388.144 C411.72,388.144 413.548,387.376 414.898,386.123 L415.099,385.91 C416.478,384.531 417.333,382.621 417.333,380.513 C417.333,378.406 416.478,376.496 415.099,375.117 Z M409.702,362.722 C414.614,362.722 419.062,364.716 422.28,367.933 C425.499,371.152 427.491,375.601 427.491,380.513 C427.491,385.425 425.499,389.873 422.28,393.091 L421.952,393.394 C418.751,396.437 414.435,398.304 409.702,398.304 C405.013,398.304 400.735,396.472 397.546,393.482 L401.327,377.544 L399.464,365.962 C402.358,363.923 405.892,362.722 409.702,362.722 L409.702,362.722 Z" id="Fill-17" fill="#1B1038"></path>
            <path d="M238.838,464.875 C144.24,455.804 132.664,404.232 136.495,360.14 C137.58,347.646 139.93,335.892 141.916,325.955 C142.671,322.173 143.376,318.65 143.905,315.627 C144.351,313.068 146.643,311.295 149.174,311.432 L144.642,331.828 L148.137,348.423 C147.518,352.519 146.984,356.736 146.613,361.013 C143.28,399.39 153.253,444.128 233.325,454.056 C232.083,450.24 231.411,446.166 231.411,441.935 C231.411,439.13 233.686,436.857 236.49,436.857 C239.295,436.857 241.57,439.13 241.57,441.935 C241.57,449.935 244.813,457.179 250.054,462.419 C255.294,467.66 262.538,470.904 270.537,470.904 C278.536,470.904 285.78,467.66 291.021,462.419 C296.263,457.179 299.505,449.935 299.505,441.935 C299.505,439.13 301.778,436.857 304.583,436.857 C307.39,436.857 309.663,439.13 309.663,441.935 C309.663,446.166 308.991,450.24 307.749,454.056 C387.821,444.128 397.794,399.39 394.462,361.013 C393.98,355.458 393.226,350.005 392.362,344.787 L394.689,339.326 L399.579,328.064 C401.466,337.539 403.571,348.521 404.579,360.14 C408.411,404.232 396.835,455.804 302.237,464.875 C301.017,466.556 299.669,468.136 298.202,469.601 C291.124,476.681 281.339,481.062 270.537,481.062 C259.733,481.062 249.951,476.681 242.871,469.601 C241.406,468.136 240.057,466.556 238.838,464.875" id="Fill-18" fill="#1B1038"></path>
            <path d="M238.754,294.043 C229.423,284.713 216.528,278.939 202.288,278.939 C188.046,278.939 175.153,284.713 165.822,294.043 C156.49,303.375 150.718,316.268 150.718,330.509 C150.718,344.75 156.49,357.644 165.822,366.974 C175.153,376.306 188.046,382.078 202.288,382.078 C216.528,382.078 229.423,376.304 238.754,366.974 C248.085,357.644 253.858,344.75 253.858,330.509 C253.858,316.268 248.085,303.375 238.754,294.043 Z M202.288,268.781 C219.333,268.781 234.767,275.691 245.936,286.861 C257.106,298.031 264.017,313.465 264.017,330.509 C264.017,347.552 257.106,362.986 245.936,374.156 C234.767,385.326 219.333,392.238 202.288,392.238 C185.242,392.238 169.809,385.328 158.64,374.156 C147.469,362.986 140.559,347.554 140.559,330.509 C140.559,313.465 147.469,298.031 158.64,286.861 C169.809,275.691 185.242,268.781 202.288,268.781 L202.288,268.781 Z" id="Fill-19" fill="#1B1038"></path>
            <path d="M295.138,286.861 C306.308,275.691 321.741,268.781 338.788,268.781 C355.831,268.781 371.265,275.691 382.435,286.861 C393.605,298.031 400.517,313.465 400.517,330.509 C400.517,347.554 393.605,362.986 382.435,374.156 C371.265,385.328 355.831,392.238 338.788,392.238 C321.741,392.238 306.308,385.326 295.138,374.156 C283.968,362.986 277.058,347.552 277.058,330.509 C277.058,313.465 283.968,298.031 295.138,286.861 Z M338.788,278.939 C324.546,278.939 311.651,284.713 302.321,294.043 C292.989,303.375 287.216,316.268 287.216,330.509 C287.216,344.75 292.989,357.644 302.321,366.974 C311.651,376.304 324.546,382.078 338.788,382.078 C353.028,382.078 365.921,376.306 375.253,366.974 C384.583,357.644 390.357,344.75 390.357,330.509 C390.357,316.268 384.583,303.375 375.253,294.043 C365.921,284.713 353.028,278.939 338.788,278.939 L338.788,278.939 Z" id="Fill-20" fill="#1B1038"></path>
            <path d="M176.744,280.625 C178.687,273.26 179.614,264.334 179.308,253.521 C179.297,253.323 179.294,253.122 179.307,252.918 C179.47,250.125 181.87,247.993 184.664,248.157 L186.553,248.251 L188.439,248.265 C195.349,248.265 201.976,247.127 208.137,245.036 C212.563,243.534 216.756,241.542 220.652,239.127 C217.252,235.8 214.182,232.135 211.496,228.186 C209.929,225.875 210.533,222.729 212.845,221.163 C215.156,219.596 218.302,220.2 219.869,222.511 C223.198,227.408 227.227,231.799 231.809,235.542 C231.94,235.636 232.065,235.737 232.186,235.846 C235.205,238.273 238.461,240.419 241.912,242.248 C250.441,246.765 260.184,249.325 270.538,249.325 C280.894,249.325 290.634,246.765 299.163,242.248 C302.614,240.419 305.87,238.273 308.888,235.846 C309.009,235.737 309.136,235.636 309.265,235.542 C313.849,231.799 317.876,227.408 321.206,222.511 C322.773,220.2 325.919,219.596 328.23,221.163 C330.542,222.729 331.146,225.875 329.579,228.186 C326.892,232.135 323.821,235.801 320.423,239.127 C324.319,241.542 328.513,243.534 332.937,245.036 C339.099,247.127 345.726,248.265 352.636,248.265 L354.521,248.251 L356.411,248.157 C359.204,247.993 361.605,250.125 361.769,252.918 C361.78,253.12 361.778,253.317 361.769,253.513 C361.448,264.811 362.47,274.05 364.597,281.6 L353.265,277.516 C352.214,271.833 351.636,265.492 351.589,258.416 C343.952,258.305 336.587,256.985 329.683,254.64 C323.483,252.535 317.657,249.591 312.341,245.946 C309.657,247.891 306.831,249.655 303.884,251.216 C293.921,256.493 282.571,259.484 270.538,259.484 C258.506,259.484 247.155,256.494 237.19,251.216 C234.243,249.656 231.418,247.891 228.733,245.946 C223.417,249.591 217.591,252.535 211.392,254.64 C204.487,256.985 197.122,258.305 189.484,258.416 C189.443,264.813 188.967,270.605 188.1,275.855 L176.744,280.625" id="Fill-21" fill="#1B1038"></path>
            <path d="M270.536,495.796 C273.347,495.796 275.624,493.519 275.624,490.71 C275.624,487.902 273.347,485.625 270.536,485.625 C267.729,485.625 265.451,487.902 265.451,490.71 C265.451,493.519 267.729,495.796 270.536,495.796" id="Fill-22" fill="#1B1038"></path>
            <path d="M270.536,516.144 C273.347,516.144 275.624,513.865 275.624,511.056 C275.624,508.248 273.347,505.972 270.536,505.972 C267.729,505.972 265.451,508.248 265.451,511.056 C265.451,513.865 267.729,516.144 270.536,516.144" id="Fill-23" fill="#1B1038"></path>
            <path d="M270.537,133.373 C218.117,133.373 165.857,145.186 134.395,168.809 C101.549,193.472 92.069,231.805 131.235,283.965 L135.141,289.166 L129.132,291.683 C121.583,294.844 115.695,299.309 111.933,304.391 C108.978,308.384 107.358,312.738 107.335,317.074 C107.312,321.373 108.858,325.781 112.229,329.941 L113.615,331.533 C115.402,328.412 117.898,325.912 121.145,324.361 C126.144,321.977 132.661,322.021 140.734,325.816 C141.875,310.643 148.504,296.996 158.64,286.861 C164.209,281.292 170.837,276.781 178.197,273.658 C179.128,267.805 179.523,261.13 179.308,253.521 C179.297,253.323 179.294,253.122 179.307,252.918 C179.47,250.125 181.87,247.993 184.664,248.157 L186.553,248.251 L188.439,248.265 C195.349,248.265 201.976,247.127 208.137,245.036 C212.563,243.534 216.756,241.542 220.652,239.127 C217.252,235.8 214.182,232.135 211.496,228.186 C209.929,225.875 210.533,222.729 212.845,221.163 C215.156,219.596 218.302,220.2 219.869,222.511 C223.198,227.408 227.227,231.799 231.809,235.542 L232.186,235.846 C235.205,238.273 238.461,240.419 241.912,242.248 C250.441,246.765 260.184,249.325 270.538,249.325 C280.894,249.325 290.634,246.765 299.163,242.248 C302.614,240.419 305.87,238.273 308.888,235.846 L309.265,235.542 C313.849,231.799 317.876,227.408 321.206,222.511 C322.773,220.2 325.919,219.596 328.23,221.163 C330.542,222.729 331.146,225.875 329.579,228.186 C326.892,232.135 323.821,235.801 320.423,239.127 C324.319,241.542 328.513,243.534 332.937,245.036 C339.099,247.127 345.726,248.265 352.636,248.265 L354.521,248.251 L356.411,248.157 C359.204,247.993 361.605,250.125 361.769,252.918 C361.78,253.12 361.778,253.317 361.769,253.513 C361.552,261.125 361.946,267.803 362.876,273.658 C370.235,276.781 376.866,281.292 382.435,286.861 C392.569,296.996 399.2,310.641 400.341,325.816 C408.413,322.021 414.931,321.977 419.931,324.361 C423.177,325.912 425.671,328.41 427.458,331.533 L428.847,329.941 C432.214,325.781 433.763,321.373 433.739,317.074 C433.716,312.738 432.099,308.384 429.14,304.391 C425.382,299.309 419.491,294.844 411.942,291.683 L405.935,289.166 L409.839,283.965 C449.007,231.804 439.524,193.471 406.679,168.809 C375.218,145.185 322.958,133.373 270.537,133.373" id="Fill-24" fill="#D1D4E3"></path>
            <path d="M303.884,251.216 C293.921,256.493 282.571,259.484 270.538,259.484 C258.506,259.484 247.155,256.494 237.19,251.216 C234.243,249.656 231.418,247.891 228.733,245.946 C223.417,249.591 217.591,252.535 211.392,254.64 C204.487,256.985 197.122,258.305 189.484,258.416 C189.458,262.613 189.243,266.552 188.854,270.246 C193.178,269.286 197.673,268.781 202.288,268.781 C219.333,268.781 234.767,275.691 245.936,286.861 C257.106,298.031 264.017,313.465 264.017,330.509 C264.017,347.552 257.106,362.986 245.936,374.156 C234.767,385.326 219.333,392.238 202.288,392.238 C185.242,392.238 169.809,385.328 158.64,374.156 C153.898,369.416 149.923,363.906 146.919,357.83 C146.809,358.886 146.706,359.949 146.613,361.013 C143.28,399.39 153.253,444.128 233.325,454.056 C232.083,450.24 231.411,446.166 231.411,441.935 C231.411,439.13 233.686,436.857 236.49,436.857 C239.295,436.857 241.57,439.13 241.57,441.935 C241.57,449.935 244.813,457.179 250.054,462.419 C255.294,467.66 262.538,470.904 270.537,470.904 C278.536,470.904 285.78,467.66 291.021,462.419 C296.263,457.179 299.505,449.935 299.505,441.935 C299.505,439.13 301.778,436.857 304.583,436.857 C307.39,436.857 309.663,439.13 309.663,441.935 C309.663,446.166 308.991,450.24 307.749,454.056 C387.821,444.128 397.794,399.39 394.462,361.013 C394.368,359.949 394.267,358.886 394.153,357.83 C391.149,363.906 387.177,369.416 382.435,374.156 C371.265,385.328 355.831,392.238 338.788,392.238 C321.741,392.238 306.308,385.326 295.138,374.156 C283.968,362.986 277.058,347.552 277.058,330.509 C277.058,313.465 283.968,298.031 295.138,286.861 C306.308,275.691 321.741,268.781 338.788,268.781 C343.401,268.781 347.896,269.286 352.22,270.246 C351.831,266.551 351.616,262.613 351.589,258.416 C343.952,258.305 336.587,256.985 329.683,254.64 C323.483,252.535 317.657,249.591 312.341,245.946 C309.657,247.891 306.831,249.655 303.884,251.216" id="Fill-25" fill="#FBD0A1"></path>
            <path d="M338.788,278.939 C324.546,278.939 311.651,284.713 302.321,294.043 C292.989,303.375 287.216,316.268 287.216,330.509 C287.216,344.75 292.989,357.644 302.321,366.974 C311.651,376.304 324.546,382.078 338.788,382.078 C353.028,382.078 365.921,376.306 375.253,366.974 C384.583,357.644 390.357,344.75 390.357,330.509 C390.357,316.268 384.583,303.375 375.253,294.043 C365.921,284.713 353.028,278.939 338.788,278.939" id="Fill-26" fill="#FFFFFF"></path>
            <path d="M253.858,330.509 C253.858,316.268 248.085,303.375 238.754,294.043 C229.423,284.713 216.528,278.939 202.288,278.939 C188.046,278.939 175.153,284.713 165.822,294.043 C156.49,303.375 150.718,316.268 150.718,330.509 C150.718,344.75 156.49,357.644 165.822,366.974 C175.153,376.306 188.046,382.078 202.288,382.078 C216.528,382.078 229.423,376.304 238.754,366.974 C248.085,357.644 253.858,344.75 253.858,330.509" id="Fill-27" fill="#FFFFFF"></path>
            <path d="M401.261,336.765 C402.605,344.033 403.866,351.927 404.579,360.14 C404.673,361.222 404.759,362.308 404.833,363.398 C406.38,362.958 408.013,362.722 409.702,362.722 C412.026,362.722 414.249,363.169 416.284,363.982 C416.827,363.015 417.323,362.005 417.773,360.966 C420.22,355.298 421.253,348.845 420.648,343.355 C420.136,338.697 418.483,334.921 415.565,333.529 C412.583,332.107 407.929,332.773 401.261,336.765" id="Fill-28" fill="#FBD0A1"></path>
            <path d="M136.495,360.14 C137.208,351.927 138.468,344.033 139.812,336.763 C133.146,332.773 128.491,332.105 125.509,333.529 C122.592,334.921 120.94,338.697 120.427,343.355 C119.822,348.845 120.856,355.298 123.302,360.966 C123.75,362.005 124.247,363.015 124.789,363.982 C126.826,363.169 129.048,362.722 131.373,362.722 C133.062,362.722 134.695,362.958 136.242,363.398 C136.316,362.308 136.4,361.222 136.495,360.14" id="Fill-29" fill="#FBD0A1"></path>
            <path d="M135.877,374.351 C134.614,373.427 133.057,372.882 131.373,372.882 C129.266,372.882 127.357,373.738 125.977,375.117 L125.764,375.316 C124.51,376.667 123.742,378.494 123.742,380.513 C123.742,382.632 124.588,384.541 125.957,385.91 L125.977,385.929 C127.345,387.298 129.253,388.144 131.373,388.144 C133.352,388.144 135.147,387.406 136.49,386.195 C136.083,382.251 135.894,378.294 135.877,374.351" id="Fill-30" fill="#6DE1FF"></path>
            <path d="M405.198,374.351 C405.181,378.292 404.991,382.251 404.585,386.195 C405.927,387.408 407.722,388.144 409.702,388.144 C411.72,388.144 413.548,387.376 414.898,386.123 L415.099,385.91 C416.478,384.531 417.333,382.621 417.333,380.513 C417.333,378.406 416.478,376.496 415.099,375.117 C413.718,373.738 411.808,372.882 409.702,372.882 C408.019,372.882 406.46,373.427 405.198,374.351" id="Fill-31" fill="#6DE1FF"></path>
            <path d="M223.204,457.134 C222.768,461.917 223.049,466.214 224.061,469.804 C225.107,473.519 226.941,476.423 229.565,478.214 C232.233,480.035 235.902,480.832 240.61,480.32 C245.818,479.753 252.132,477.621 259.591,473.589 L266.757,476.904 L268.98,476.421 L268.98,479.914 C258.35,486.287 249.245,489.578 241.681,490.398 C234.438,491.187 228.49,489.751 223.85,486.587 C219.166,483.392 215.99,478.55 214.298,472.544 C212.878,467.501 212.516,461.609 213.196,455.201 L223.204,457.134" id="Fill-32" fill="#1B1038"></path>
            <path d="M314.757,457.134 C315.192,461.917 314.911,466.214 313.899,469.804 C312.855,473.519 311.019,476.423 308.396,478.214 C305.728,480.035 302.058,480.832 297.351,480.32 C292.142,479.753 285.827,477.621 278.368,473.589 L271.202,476.904 L268.98,476.421 L268.98,479.914 C279.61,486.287 288.714,489.578 296.278,490.398 C303.523,491.187 309.47,489.751 314.11,486.587 C318.794,483.392 321.97,478.55 323.661,472.544 C325.081,467.501 325.442,461.609 324.765,455.201 L314.757,457.134" id="Fill-33" fill="#1B1038"></path>
            <path d="M229.565,478.214 C232.233,480.035 235.902,480.832 240.61,480.32 C244.174,479.933 248.253,478.812 252.865,476.853 C249.155,474.97 245.784,472.515 242.871,469.601 C241.406,468.136 240.057,466.556 238.838,464.875 C233.288,464.343 228.025,463.664 223.034,462.851 C223.129,465.378 223.471,467.71 224.061,469.804 C225.107,473.519 226.941,476.423 229.565,478.214" id="Fill-34" fill="#FFFFFF"></path>
            <path d="M243.114,479.941 C246.051,479.38 249.3,478.367 252.865,476.853 C249.155,474.97 245.784,472.515 242.871,469.601 C241.406,468.136 240.057,466.556 238.838,464.875 C234.496,464.458 230.329,463.951 226.33,463.361 C226.469,465.521 226.794,467.531 227.309,469.357 C228.354,473.072 230.189,475.976 232.813,477.767 C235.338,479.49 238.762,480.294 243.114,479.941" id="Fill-35" fill="#FF917D"></path>
            <path d="M298.202,469.601 C294.921,472.884 291.058,475.585 286.78,477.541 C290.706,479.078 294.228,479.98 297.351,480.32 C302.058,480.832 305.728,480.035 308.396,478.214 C311.019,476.423 312.855,473.519 313.899,469.804 C314.45,467.847 314.784,465.679 314.905,463.337 C310.857,463.939 306.636,464.453 302.237,464.875 C301.017,466.556 299.669,468.136 298.202,469.601" id="Fill-36" fill="#FF917D"></path>
            <path d="M326.153,531.39 L316.255,531.39 C315.575,536.917 314.661,542.451 313.536,547.982 C312.101,555.041 310.331,562.068 308.273,569.06 C307.708,570.978 306.108,572.31 304.265,572.632 C278.198,577.113 259.762,577.113 233.696,572.632 C231.851,572.31 230.251,570.978 229.688,569.06 C227.63,562.068 225.859,555.041 224.424,547.982 C223.298,542.451 222.384,536.917 221.704,531.39 L211.808,531.39 C215.6,567.982 229.157,591.888 245.784,603.212 C253.122,608.21 261.065,610.71 268.98,610.71 C276.896,610.71 284.839,608.21 292.177,603.212 C308.804,591.888 322.36,567.982 326.153,531.39" id="Fill-37" fill="#6DE1FF"></path>
            <path d="M141.982,574.748 C133.524,571.869 127.601,564.591 125.009,554.808 C124.943,554.82 124.878,554.83 124.813,554.839 C122.065,555.269 119.351,555.21 116.763,554.726 C118.034,561.357 120.907,566.771 125.084,570.263 C126.948,571.822 129.091,573.009 131.482,573.755 C134.801,574.791 138.406,575.13 141.982,574.748" id="Fill-38" fill="#FFFFFF"></path>
            <path d="M128.747,508.761 C129.986,509.181 131.185,509.701 132.332,510.314 C135.288,504.728 139.033,499.115 143.626,493.623 C151.905,483.72 158.791,476.433 164.477,471.371 C159.24,473.792 149.965,482.537 134.919,500.533 C132.643,503.253 130.589,506.003 128.747,508.761" id="Fill-39" fill="#FFFFFF"></path>
            <path d="M368.198,472.675 C364.862,482.216 369.415,506.625 375.069,531.195 L375.345,532.392 L375.05,533.556 C372.585,543.292 372.771,551.197 374.7,557.38 C376.161,562.056 378.62,565.753 381.659,568.501 C384.698,571.25 388.366,573.099 392.233,574.08 C396.985,575.281 401.993,575.156 406.48,573.755 C408.87,573.009 411.013,571.822 412.878,570.263 C417.054,566.771 419.927,561.357 421.198,554.726 C418.782,555.177 416.259,555.259 413.698,554.919 L413.149,554.839 C406.653,553.826 401.183,550.269 397.591,545.343 C394.001,540.421 392.286,534.132 393.302,527.648 C394.317,521.154 397.874,515.681 402.798,512.089 C404.747,510.667 406.909,509.542 409.214,508.761 C407.372,506.003 405.317,503.253 403.042,500.533 C379.642,472.546 370.202,466.937 368.198,472.675" id="Fill-40" fill="#D1D4E3"></path>
            <path d="M375.345,532.392 L375.05,533.556 C372.585,543.292 372.771,551.197 374.7,557.38 C376.161,562.056 378.62,565.753 381.659,568.501 C384.698,571.25 388.366,573.099 392.233,574.08 C396.985,575.281 401.993,575.156 406.48,573.755 C406.894,573.626 407.302,573.482 407.702,573.328 C405.894,573.386 404.067,573.265 402.263,572.953 C398.331,572.277 394.53,570.716 391.288,568.21 C388.044,565.707 385.306,562.212 383.487,557.664 C381.085,551.648 380.288,543.783 381.989,533.884 L382.194,532.701 L381.827,531.529 C374.286,507.468 367.857,483.49 370.44,473.716 C370.874,472.083 371.946,471.281 373.819,471.533 C370.704,469.982 368.94,470.55 368.198,472.675 C364.862,482.216 369.415,506.625 375.069,531.195 L375.345,532.392" id="Fill-41" fill="#FFFFFF"></path>
            <path d="M221.194,526.806 C220.921,524.023 222.956,521.542 225.738,521.269 C228.521,520.998 231.001,523.031 231.273,525.814 C231.94,532.533 232.981,539.248 234.345,545.958 C235.505,551.662 236.909,557.392 238.529,563.146 C260.232,566.56 277.728,566.56 299.431,563.146 C301.052,557.392 302.454,551.662 303.614,545.958 C304.98,539.248 306.019,532.533 306.687,525.814 C306.96,523.031 309.439,520.998 312.222,521.269 C315.005,521.542 317.038,524.023 316.765,526.806 C316.065,533.861 314.972,540.921 313.536,547.982 C312.101,555.041 310.331,562.068 308.273,569.06 C307.708,570.978 306.108,572.31 304.265,572.632 C278.198,577.113 259.762,577.113 233.696,572.632 C231.851,572.31 230.251,570.978 229.688,569.06 C227.63,562.068 225.859,555.041 224.424,547.982 C222.987,540.921 221.894,533.861 221.194,526.806" id="Fill-42" fill="#1B1038"></path>
            <path d="M234.345,545.958 C235.505,551.662 236.909,557.392 238.529,563.146 C260.232,566.56 277.728,566.56 299.431,563.146 C301.052,557.392 302.454,551.662 303.614,545.958 C304.601,541.105 305.419,536.248 306.048,531.39 L231.912,531.39 C232.541,536.248 233.358,541.105 234.345,545.958" id="Fill-43" fill="#FF917D"></path>
            <path d="M306.048,531.39 L301.337,531.39 C301.026,535.56 300.581,539.738 300.013,543.923 C299.228,549.689 298.202,555.5 296.96,561.347 C287.183,563.55 278.232,564.986 269.311,565.707 C279.001,565.687 288.702,564.833 299.431,563.146 C301.052,557.392 302.454,551.662 303.614,545.958 C304.601,541.105 305.419,536.248 306.048,531.39" id="Fill-44" fill="#FFFFFF"></path>
            <path d="M153.228,293.041 C110.005,245.785 99.092,201.57 152.325,165.139 C184.792,142.918 237.521,133.41 289.89,135.708 C316.687,136.885 343.308,141.148 366.987,148.38 C338.696,138.375 304.651,133.373 270.537,133.373 C218.117,133.373 165.857,145.186 134.395,168.809 C101.549,193.472 92.069,231.805 131.235,283.965 L135.141,289.166 L129.132,291.683 C121.583,294.844 115.695,299.309 111.933,304.391 C108.978,308.384 107.358,312.738 107.335,317.074 C107.312,321.373 108.858,325.781 112.229,329.941 L113.615,331.533 C115.402,328.412 117.898,325.912 121.145,324.361 C121.369,324.255 121.597,324.152 121.828,324.054 C108.148,311.412 132.769,295.236 153.228,293.041" id="Fill-45" fill="#FFFFFF"></path>
            <g id="Group-49" transform="translate(217.053444, -0.000000)">
                <mask id="mask-4" fill="white">
                    <use xlink:href="#path-3"></use>
                </mask>
                <g id="Clip-47"></g>
                <path d="M45.9975556,5.65 C19.5805556,9.785 1.51455558,34.554 5.64955558,60.97 C9.78255558,87.388 34.5535556,105.454 60.9705556,101.318 C87.3865556,97.185 105.453556,72.415 101.318556,45.998 C97.1835556,19.582 72.4145556,1.515 45.9975556,5.65" id="Fill-46" fill="#6DE1FF" mask="url(#mask-4)"></path>
                <path d="M10.2795556,21.979 C18.3445556,10.919 30.6325556,2.933 45.2235556,0.65 C59.8015556,-1.632 73.9335556,2.216 84.9905556,10.28 C96.0495556,18.347 104.035556,30.633 106.318556,45.224 L106.398556,45.753 C108.506556,60.144 104.654556,74.067 96.6875556,84.991 C88.6215556,96.05 76.3365556,104.036 61.7465556,106.319 L61.2155556,106.398 C46.8245556,108.506 32.8995556,104.655 21.9765556,96.688 C10.9175556,88.622 2.93155558,76.336 0.649555582,61.747 L0.569555582,61.217 C-1.53744442,46.825 2.31255558,32.902 10.2795556,21.979 Z M46.7715556,10.65 C34.9455556,12.501 24.9885556,18.97 18.4535556,27.931 C11.9155556,36.894 8.79755558,48.36 10.6495556,60.196 L10.6565556,60.244 C12.5155556,72.047 18.9805556,81.987 27.9295556,88.514 C36.8935556,95.052 48.3585556,98.17 60.1935556,96.318 L60.2855556,96.304 C72.0725556,94.436 81.9945556,87.976 88.5135556,79.038 C95.0535556,70.074 98.1705556,58.609 96.3185556,46.774 L96.3105556,46.729 C94.4515556,34.923 87.9865556,24.982 79.0375556,18.454 C70.0745556,11.916 58.6075556,8.798 46.7715556,10.65 L46.7715556,10.65 Z" id="Fill-48" fill="#1B1038" mask="url(#mask-4)"></path>
            </g>
            <path d="M308.183,42.131 C311.978,66.384 295.392,89.126 271.137,92.921 C262.782,94.229 254.606,93.117 247.322,90.106 C255.898,95.546 266.418,98.013 277.247,96.318 L277.339,96.304 C289.126,94.436 299.048,87.976 305.567,79.038 C312.107,70.074 315.224,58.609 313.372,46.774 L313.364,46.729 C311.614,35.619 305.786,26.161 297.646,19.644 C303.048,25.773 306.825,33.463 308.183,42.131" id="Fill-50" fill="#FFFFFF"></path>
            <polygon id="Fill-51" fill="#1B1038" points="265.457 127.772 275.616 127.772 275.616 102.847 265.457 102.847"></polygon>
            <path d="M202.286,286.861 C214.339,286.861 225.253,291.748 233.151,299.646 C241.049,307.543 245.936,318.455 245.936,330.509 C245.936,342.562 241.049,353.476 233.151,361.371 C225.253,369.269 214.339,374.156 202.286,374.156 C190.233,374.156 179.322,369.271 171.424,361.371 C163.526,353.476 158.639,342.562 158.639,330.509 C158.639,318.455 163.526,307.543 171.424,299.646 C179.322,291.748 190.233,286.861 202.286,286.861" id="Fill-52" fill="#6DE1FF"></path>
            <polygon id="Fill-53" fill="#1B1038" points="260.381 335.589 282.175 335.589 282.175 325.429 260.381 325.429"></polygon>
            <path d="M249.743,401.49 C247.399,399.921 246.771,396.744 248.341,394.4 C249.912,392.056 253.087,391.427 255.432,392.998 C257.632,394.474 260.058,395.64 262.632,396.419 C265.082,397.164 267.737,397.568 270.535,397.568 C273.333,397.568 275.987,397.164 278.439,396.419 C281.013,395.64 283.439,394.474 285.638,392.998 C287.983,391.427 291.159,392.056 292.73,394.4 C294.3,396.744 293.671,399.921 291.327,401.49 C288.314,403.515 284.972,405.115 281.403,406.195 C277.923,407.253 274.269,407.824 270.535,407.824 C266.801,407.824 263.148,407.253 259.667,406.195 C256.099,405.115 252.757,403.515 249.743,401.49" id="Fill-54" fill="#1B1038"></path>
            <path d="M338.788,286.861 C326.735,286.861 315.821,291.748 307.923,299.646 C300.024,307.543 295.138,318.455 295.138,330.509 C295.138,342.562 300.024,353.476 307.923,361.371 C315.821,369.269 326.735,374.156 338.788,374.156 C350.841,374.156 361.753,369.271 369.649,361.371 C377.548,353.476 382.435,342.562 382.435,330.509 C382.435,318.455 377.548,307.543 369.649,299.646 C361.753,291.748 350.841,286.861 338.788,286.861" id="Fill-55" fill="#6DE1FF"></path>
            <path d="M374.673,284.585 C375.079,285.043 375.454,285.534 375.798,286.055 L375.814,286.043 C376.88,287.652 377.564,289.411 377.853,291.314 C378.093,292.898 378.03,294.565 377.669,296.322 L377.534,296.904 C377.163,298.451 376.607,299.813 375.88,300.996 C374.882,302.62 373.569,303.976 371.944,305.049 C370.335,306.117 368.564,306.795 366.661,307.082 C365.079,307.328 363.409,307.268 361.657,306.905 L344.839,303.449 C343.339,303.086 341.985,302.532 340.786,301.797 L340.083,301.326 C338.722,300.377 337.593,299.223 336.694,297.861 C336.47,297.521 336.271,297.172 336.093,296.816 C335.362,295.471 334.88,294.043 334.659,292.543 C334.427,290.974 334.485,289.311 334.843,287.572 C335.144,286.114 335.614,284.79 336.253,283.609 C337.011,282.203 337.98,280.975 339.128,279.951 L341.685,277.697 C341.284,277.242 340.911,276.758 340.565,276.238 L340.55,276.249 C338.776,273.576 338.118,270.527 338.571,267.117 C338.634,266.279 338.802,265.473 339.064,264.705 C339.983,261.401 341.782,258.867 344.45,257.106 C344.808,256.872 345.171,256.661 345.546,256.478 C347.956,255.191 350.642,254.738 353.585,255.129 C354.284,255.182 354.964,255.31 355.614,255.502 L371.021,258.65 L371.669,258.805 C373.132,259.169 374.472,259.724 375.679,260.468 L375.694,260.442 C377.323,261.444 378.683,262.766 379.747,264.379 C380.808,265.979 381.489,267.736 381.778,269.65 C382.023,271.227 381.96,272.905 381.601,274.662 L381.458,275.266 C381.157,276.5 380.732,277.623 380.192,278.625 C379.45,279.996 378.48,281.221 377.276,282.285 L374.673,284.585" id="Fill-56" fill="#1B1038"></path>
            <path d="M365.136,289.871 C366.292,290.107 367.138,290.629 367.667,291.434 C368.2,292.232 368.347,293.213 368.11,294.373 C367.874,295.526 367.355,296.371 366.552,296.902 C365.741,297.436 364.761,297.582 363.608,297.346 L347.374,294.027 C346.216,293.791 345.37,293.271 344.841,292.469 C344.314,291.665 344.165,290.682 344.401,289.525 C344.599,288.564 345.009,287.807 345.63,287.256 L360.433,274.23 L351.308,272.366 C348.817,271.857 347.825,270.355 348.333,267.863 C348.843,265.373 350.345,264.382 352.837,264.891 L369.069,268.209 C370.224,268.445 371.069,268.967 371.601,269.771 C372.134,270.57 372.278,271.552 372.042,272.711 C371.845,273.672 371.435,274.43 370.814,274.98 L356.052,288.014 L365.136,289.871" id="Fill-57" fill="#FFFFFF"></path>
            <path d="M181.495,350.679 C179.151,349.109 178.523,345.933 180.093,343.589 C181.663,341.244 184.839,340.617 187.183,342.187 C189.384,343.664 191.81,344.83 194.383,345.609 C196.834,346.353 199.489,346.755 202.287,346.755 C205.084,346.755 207.738,346.353 210.19,345.609 C212.764,344.83 215.19,343.664 217.39,342.187 C219.734,340.617 222.91,341.244 224.481,343.589 C226.051,345.933 225.422,349.109 223.078,350.679 C220.065,352.703 216.722,354.302 213.155,355.384 C209.673,356.441 206.02,357.011 202.287,357.011 C198.553,357.011 194.9,356.441 191.419,355.384 C187.851,354.302 184.509,352.703 181.495,350.679" id="Fill-58" fill="#1B1038"></path>
            <path d="M317.995,350.679 C315.649,349.109 315.021,345.933 316.593,343.589 C318.161,341.244 321.339,340.617 323.683,342.187 C325.882,343.664 328.308,344.83 330.882,345.609 C333.333,346.353 335.987,346.755 338.786,346.755 C341.583,346.755 344.237,346.353 346.689,345.609 C349.263,344.83 351.689,343.664 353.89,342.187 C356.233,340.617 359.409,341.244 360.98,343.589 C362.55,345.933 361.921,349.109 359.577,350.679 C356.564,352.703 353.222,354.302 349.653,355.384 C346.173,356.441 342.519,357.011 338.786,357.011 C335.052,357.011 331.399,356.441 327.917,355.384 C324.349,354.302 321.007,352.703 317.995,350.679" id="Fill-59" fill="#1B1038"></path>
            <path d="M361.319,149.462 C362.726,149.701 364.038,150.085 365.249,150.608 C367.366,151.516 369.222,152.86 370.798,154.617 L370.815,154.601 C372.398,156.361 373.532,158.37 374.214,160.625 C374.804,162.571 375.028,164.682 374.901,166.955 C374.776,169.206 374.306,171.271 373.501,173.145 L373.489,173.176 C372.589,175.3 371.249,177.156 369.476,178.745 L369.454,178.761 L369.476,178.784 C367.769,180.302 365.769,181.41 363.474,182.109 L363.474,182.148 C361.53,182.735 359.425,182.965 357.153,182.838 L326.167,181.085 C323.997,180.932 322.013,180.473 320.232,179.707 L319.439,179.323 C317.624,178.422 316.034,177.206 314.669,175.679 L314.653,175.659 L314.63,175.679 C313.075,173.931 311.956,171.927 311.276,169.685 C310.689,167.742 310.46,165.633 310.587,163.36 C310.689,161.495 311.046,159.73 311.648,158.084 L311.661,158.05 C312.298,156.273 313.261,154.632 314.526,153.129 L314.526,153.092 L325.585,140.058 C321.612,139.428 318.396,137.734 315.937,134.984 C313.023,131.722 311.7,127.573 311.982,122.549 C312.263,117.508 314.038,113.531 317.296,110.62 C320.564,107.701 324.714,106.384 329.732,106.666 L360.413,108.393 C362.626,108.521 364.706,109 366.634,109.833 L366.648,109.799 C368.763,110.709 370.614,112.048 372.192,113.807 L372.212,113.79 C373.79,115.548 374.925,117.559 375.607,119.813 C376.192,121.75 376.425,123.868 376.298,126.145 C376.194,128.009 375.839,129.772 375.235,131.42 L375.224,131.454 C374.585,133.231 373.622,134.872 372.358,136.375 L372.358,136.413 L361.319,149.462" id="Fill-60" fill="#1B1038"></path>
            <path d="M358.483,158.957 C360.669,159.08 362.362,159.81 363.55,161.142 C364.743,162.466 365.274,164.228 365.151,166.419 C365.028,168.599 364.302,170.288 362.972,171.479 C361.628,172.677 359.868,173.208 357.689,173.086 L327.005,171.358 C324.814,171.235 323.122,170.509 321.935,169.179 C320.751,167.845 320.216,166.081 320.339,163.896 C320.44,162.079 320.989,160.578 321.982,159.4 L345.648,131.518 L328.401,130.547 C323.692,130.282 321.468,127.794 321.733,123.084 C321.997,118.375 324.487,116.152 329.196,116.417 L359.878,118.145 C362.064,118.268 363.757,118.999 364.944,120.331 C366.138,121.654 366.669,123.416 366.546,125.607 C366.442,127.425 365.894,128.925 364.901,130.103 L341.314,157.99 L358.483,158.957" id="Fill-61" fill="#FFFFFF"></path>
            <path d="M400.171,224.745 C401.493,225.57 402.636,226.598 403.595,227.826 L403.911,228.257 C404.958,229.702 405.685,231.289 406.089,233.017 L406.097,233.015 C406.489,234.687 406.573,236.416 406.357,238.197 L406.351,238.232 C406.134,240.039 405.636,241.703 404.86,243.221 C404.651,243.633 404.415,244.023 404.155,244.389 C403.347,245.651 402.349,246.747 401.161,247.677 C399.587,248.909 397.853,249.744 395.96,250.184 C394.278,250.578 392.54,250.661 390.749,250.442 L370.528,247.968 L370.073,247.901 C368.427,247.654 366.915,247.176 365.534,246.473 C363.802,245.591 362.312,244.357 361.077,242.774 L361.044,242.733 C359.849,241.201 359.024,239.464 358.577,237.538 C358.189,235.864 358.103,234.137 358.319,232.363 C358.503,230.87 358.888,229.453 359.48,228.115 C360.13,226.644 361.021,225.317 362.151,224.142 L367.126,219.005 C365.812,218.198 364.663,217.167 363.681,215.91 C361.403,212.998 360.515,209.503 361.013,205.428 C361.511,201.347 363.22,198.166 366.138,195.886 C369.048,193.611 372.544,192.719 376.62,193.219 L396.839,195.692 C398.583,195.905 400.251,196.418 401.829,197.225 C403.597,198.129 405.087,199.354 406.288,200.89 L406.595,201.309 C407.657,202.771 408.392,204.363 408.79,206.081 C409.181,207.762 409.269,209.504 409.048,211.299 C408.866,212.791 408.478,214.21 407.89,215.544 C407.235,217.02 406.343,218.345 405.216,219.519 L400.171,224.745" id="Fill-62" fill="#1B1038"></path>
            <path d="M393.019,231.879 C394.458,232.055 395.546,232.612 396.274,233.544 C397.005,234.472 397.28,235.66 397.105,237.104 C396.929,238.541 396.374,239.626 395.444,240.356 C394.503,241.091 393.315,241.366 391.878,241.191 L371.657,238.717 C370.214,238.54 369.126,237.987 368.398,237.055 C367.673,236.122 367.396,234.931 367.571,233.492 C367.718,232.293 368.146,231.325 368.853,230.589 L385.718,213.172 L374.351,211.782 C371.247,211.402 369.884,209.661 370.265,206.557 C370.644,203.453 372.388,202.091 375.491,202.47 L395.71,204.944 C397.149,205.121 398.239,205.677 398.966,206.61 C399.698,207.537 399.974,208.725 399.796,210.169 C399.649,211.367 399.222,212.336 398.515,213.072 L381.702,230.495 L393.019,231.879" id="Fill-63" fill="#FFFFFF"></path>
            <path d="M85.789,130.961 C38.509,178.243 9.265,243.563 9.265,315.711 C9.265,387.859 38.509,453.179 85.789,500.458 C91.243,505.914 96.938,511.126 102.855,516.083 C106.409,511.816 111.463,508.765 117.37,507.816 C120.1,503.185 123.347,498.562 127.141,494.025 C159.061,455.849 173.85,453.671 179.326,469.341 C183.41,481.027 178.904,506.625 173.043,532.281 C175.455,542.466 175.357,551.16 173.516,558.376 C185.301,563.093 197.511,566.976 210.07,569.951 C205.997,558.896 203.052,546.039 201.609,531.388 L194.111,531.388 C191.359,531.388 189.118,529.199 189.035,526.464 C187.796,514.185 187.958,501.716 189.387,489.281 C190.654,478.263 192.923,467.234 196.098,456.361 C159.041,443.968 143.487,421.39 138.186,396.941 C136.085,397.818 133.783,398.302 131.373,398.302 C126.5,398.302 122.068,396.324 118.844,393.121 L118.794,393.072 C115.573,389.845 113.583,385.402 113.583,380.513 C113.583,376.753 114.761,373.257 116.77,370.375 C115.72,368.666 114.787,366.855 113.976,364.976 C110.87,357.777 109.565,349.478 110.34,342.312 C108.027,340.396 106.043,338.394 104.371,336.332 C99.443,330.246 97.18,323.625 97.217,317.033 C97.252,310.478 99.568,304.072 103.798,298.357 C107.581,293.247 112.919,288.675 119.521,285.066 C80.257,229.556 91.918,188.053 128.324,160.715 C160.583,136.493 212.784,124.005 265.457,123.25 L265.457,106.73 C255.759,105.812 246.662,102.254 239.03,96.688 C227.972,88.623 219.985,76.335 217.703,61.747 L217.623,61.217 C217.556,60.756 217.494,60.295 217.44,59.836 C166.593,70.334 121.146,95.604 85.789,130.961" id="Fill-64" fill="#FF917D"></path>
            <path d="M412.751,160.713 C449.157,188.051 460.817,229.555 421.554,285.065 C428.155,288.674 433.493,293.246 437.276,298.357 C441.507,304.072 443.821,310.479 443.858,317.033 C443.896,323.625 441.63,330.246 436.704,336.332 C435.032,338.394 433.048,340.396 430.735,342.31 C431.509,349.478 430.206,357.777 427.099,364.976 C426.29,366.851 425.36,368.658 424.314,370.363 C426.317,373.242 427.491,376.742 427.491,380.513 C427.491,385.425 425.499,389.873 422.28,393.091 L421.95,393.394 C418.751,396.437 414.435,398.302 409.702,398.302 C407.292,398.302 404.989,397.82 402.89,396.943 C397.454,422.007 381.241,445.109 342.128,457.281 C345.165,467.855 347.343,478.572 348.573,489.281 C350.015,501.837 350.167,514.431 348.888,526.826 C348.622,529.435 346.417,531.378 343.849,531.376 L343.849,531.388 L336.351,531.388 C334.874,546.386 331.821,559.503 327.599,570.734 C340.357,567.89 352.763,564.117 364.745,559.484 C362.622,552.054 362.382,542.992 364.917,532.281 C359.056,506.625 354.55,481.027 358.634,469.341 C364.11,453.671 378.898,455.849 410.819,494.025 C414.614,498.562 417.86,503.185 420.591,507.816 C427.044,508.851 432.48,512.398 436.054,517.298 C436.142,517.419 436.23,517.542 436.315,517.666 C442.919,512.24 449.249,506.496 455.288,500.458 C502.567,453.179 531.812,387.859 531.812,315.711 C531.812,243.562 502.567,178.241 455.288,130.961 C419.933,95.607 374.489,70.337 323.648,59.838 C322.548,69.058 319.064,77.694 313.741,84.991 C305.675,96.05 293.39,104.036 278.8,106.318 L278.269,106.398 C277.384,106.528 276.499,106.634 275.618,106.72 L275.618,123.25 C287.86,123.426 300.077,124.235 312.024,125.678 C311.935,124.676 311.921,123.633 311.982,122.549 C312.263,117.508 314.038,113.53 317.296,110.62 C320.564,107.701 324.714,106.384 329.732,106.666 L360.413,108.393 C362.626,108.522 364.704,109 366.634,109.833 L366.649,109.798 C368.763,110.709 370.614,112.048 372.192,113.807 L372.212,113.79 C373.79,115.548 374.925,117.559 375.607,119.813 C376.192,121.751 376.425,123.868 376.298,126.144 C376.194,128.009 375.839,129.771 375.235,131.42 L375.224,131.454 C374.585,133.231 373.624,134.872 372.358,136.375 L372.358,136.412 L370.302,138.845 C386.485,144.564 400.952,151.854 412.751,160.713" id="Fill-65" fill="#FF917D"></path>
        </g>
    </g>
</svg>