<svg width="542" height="664" xmlns="http://www.w3.org/2000/svg" xmlns:xlink="http://www.w3.org/1999/xlink"><defs><path id="a" d="M.06.074h541.136V618H.06z"/><path id="c" d="M.114.961H107.08v106.968H.114z"/></defs><g fill="none" fill-rule="evenodd"><g transform="translate(0 46)"><mask id="b" fill="#fff"><use xlink:href="#a"/></mask><path d="M270.593 611.378c32.086 0 58.095 1.483 58.095 3.313 0 1.826-26.009 3.311-58.095 3.311s-58.098-1.485-58.098-3.311c0-1.83 26.012-3.313 58.098-3.313M455.347 85.922c-47.28-47.279-112.6-76.524-184.75-76.524-72.148 0-137.468 29.245-184.748 76.524-47.28 47.282-76.525 112.602-76.525 184.75S38.569 408.14 85.849 455.421c47.28 47.28 112.6 76.526 184.748 76.526s137.468-29.246 184.75-76.526c47.28-47.281 76.524-112.601 76.524-184.749 0-72.149-29.244-137.47-76.524-184.75zM270.597.074c74.724 0 142.379 30.288 191.344 79.254 48.965 48.966 79.255 116.619 79.255 191.344 0 74.722-30.29 142.376-79.255 191.343-48.967 48.967-116.621 79.256-191.344 79.256s-142.376-30.289-191.342-79.256C30.289 413.048 0 345.394 0 270.672c0-74.723 30.289-142.376 79.255-191.344C128.221 30.362 195.874.074 270.597.074z" fill="#1B1038" mask="url(#b)"/></g><path d="M148.331 331.135a5.058 5.058 0 01-5.676 8.373c-8.174-5.559-13.705-6.631-17.086-5.018-2.918 1.393-4.569 5.168-5.082 9.826-.604 5.491.429 11.944 2.875 17.611 1.17 2.713 2.668 5.221 4.459 7.295l-8.302 5.936c-2.199-2.727-4.034-5.865-5.483-9.223-3.105-7.197-4.411-15.495-3.636-22.661-2.313-1.917-4.297-3.918-5.968-5.981-4.928-6.085-7.192-12.707-7.155-19.299.035-6.555 2.352-12.961 6.581-18.675 3.784-5.111 9.121-9.683 15.723-13.292-39.264-55.509-27.603-97.014 8.804-124.351 33.294-25.001 87.836-37.501 142.213-37.501 54.376 0 108.919 12.5 142.213 37.499 36.406 27.338 48.067 68.842 8.803 124.352 6.601 3.608 11.939 8.181 15.722 13.293 4.229 5.714 6.546 12.121 6.582 18.675.036 6.592-2.229 13.213-7.155 19.299-1.671 2.063-3.656 4.064-5.969 5.979.775 7.168-.529 15.466-3.635 22.663-1.32 3.061-2.962 5.94-4.906 8.488l-8.152-6.087c1.471-1.887 2.723-4.071 3.732-6.409 2.446-5.667 3.48-12.12 2.875-17.611-.514-4.658-2.166-8.433-5.083-9.826-3.38-1.611-8.911-.541-17.087 5.018a5.057 5.057 0 01-5.674-8.373c11.641-7.915 20.655-8.9 27.125-5.812 3.248 1.55 5.741 4.047 7.53 7.171.491-.527.955-1.056 1.387-1.592 3.368-4.16 4.917-8.568 4.894-12.867-.024-4.335-1.642-8.69-4.6-12.683-3.76-5.082-9.648-9.547-17.197-12.708l-6.008-2.516 3.904-5.202c39.167-52.161 29.685-90.494-3.16-115.156-31.461-23.624-83.722-35.436-136.141-35.436-52.421 0-104.681 11.813-136.143 35.436-32.845 24.663-42.325 62.996-3.16 115.156l3.906 5.202-6.009 2.516c-7.548 3.161-13.437 7.626-17.199 12.708-2.955 3.993-4.574 8.348-4.597 12.683-.024 4.299 1.523 8.707 4.893 12.867.433.535.895 1.067 1.387 1.592 1.786-3.122 4.282-5.621 7.529-7.171 6.471-3.088 15.484-2.103 27.126 5.812" fill="#1B1038"/><path d="M206.323 527.273c8.903 119.307 116.531 119.307 125.434 0H206.323" fill="#FFF"/><path d="M240.129 612.548c-19.771-13.464-35.65-41.808-38.865-84.898l-.407-5.457h136.367l-.409 5.457c-3.214 43.09-19.093 71.434-38.864 84.898-9.085 6.188-18.985 9.284-28.911 9.284-9.924 0-19.825-3.094-28.911-9.284zm-28.261-80.195c3.792 36.592 17.349 60.498 33.977 71.822 7.337 4.998 15.28 7.498 23.195 7.498 7.916 0 15.859-2.5 23.196-7.498 16.626-11.324 30.184-35.23 33.976-71.822H211.868z" fill="#1B1038"/><path d="M269.04 532.353h-74.868a5.08 5.08 0 01-5.077-4.926c-1.239-12.277-1.076-24.75.353-37.183 1.463-12.731 4.264-25.477 8.254-37.979l7.904 2.416 17.001 3.287c-6.944.076-12.573.172-16.161.287-3.297 10.901-5.638 22.01-6.919 33.139-1.186 10.328-1.454 20.645-.717 30.799h140.46c.737-10.154.469-20.471-.717-30.799-1.281-11.129-3.622-22.238-6.919-33.139l9.351-4.052c3.669 11.881 6.26 23.968 7.647 36.041 1.443 12.556 1.596 25.15.316 37.545a5.068 5.068 0 01-5.04 4.55v.014H269.04m96.036 29.006c-2.371-7.598-2.739-16.963-.098-28.115-5.863-25.657-10.369-51.254-6.284-62.942 5.476-15.67 20.264-13.492 52.186 24.686 8.842 10.576 14.713 21.611 18.001 32.148 3.35 10.741 4.037 21.004 2.47 29.799-1.645 9.229-5.762 16.932-11.907 22.068a28.618 28.618 0 01-9.89 5.399c-6.248 1.949-13.181 2.137-19.721.482-5.391-1.365-10.556-3.99-14.9-7.922-4.346-3.927-7.832-9.121-9.857-15.603zm10.033-26.84c-2.464 9.736-2.278 17.641-.349 23.824 1.461 4.676 3.919 8.373 6.959 11.121 3.038 2.748 6.708 4.598 10.574 5.579 4.753 1.201 9.761 1.076 14.246-.325a18.525 18.525 0 006.399-3.492c4.28-3.58 7.191-9.178 8.413-16.037 1.298-7.289.695-15.908-2.154-25.039-2.913-9.33-8.158-19.162-16.094-28.654-23.402-27.987-32.84-33.598-34.845-27.858-3.335 9.541 1.218 33.949 6.871 58.52l.276 1.197-.296 1.164z" fill="#1B1038"/><path d="M419.779 513.763c10.228 1.602 17.222 11.192 15.621 21.418-1.6 10.229-11.189 17.223-21.418 15.621-10.226-1.599-17.221-11.189-15.621-21.418 1.601-10.226 11.191-17.22 21.418-15.621" fill="#6DE1FF"/><path d="M427.938 524.214a13.629 13.629 0 00-8.933-5.451 13.674 13.674 0 00-10.193 2.463 13.638 13.638 0 00-5.452 8.934 13.67 13.67 0 002.464 10.193 13.631 13.631 0 008.88 5.441l.055.008c3.74.586 7.363-.398 10.191-2.461a13.624 13.624 0 005.442-8.88l.008-.053a13.662 13.662 0 00-2.462-10.194zm-7.384-15.451a23.744 23.744 0 0115.558 9.498c3.489 4.783 5.205 10.856 4.367 17.147l-.079.551c-1.015 6.494-4.573 11.964-9.497 15.556-4.782 3.488-10.855 5.205-17.144 4.367l-.551-.08c-6.494-1.013-11.966-4.57-15.559-9.496-3.588-4.922-5.303-11.211-4.289-17.695a23.755 23.755 0 019.498-15.559c4.923-3.59 11.211-5.304 17.696-4.289z" fill="#1B1038"/><path d="M167.893 533.289c9.641 38.101-18.154 52.423-37.859 46.271-23.093-7.209-27.939-46.641 1.056-81.318 55.323-66.166 48.449-15.573 36.803 35.047" fill="#D1D4E3"/><path d="M163.321 558.343c1.93-6.183 2.116-14.088-.349-23.824l-.295-1.164.275-1.197c5.652-24.572 10.205-48.977 6.871-58.52-2.005-5.738-11.445-.129-34.844 27.858-7.937 9.492-13.183 19.324-16.095 28.654-2.849 9.131-3.452 17.75-2.154 25.039 1.222 6.859 4.133 12.457 8.414 16.037a18.511 18.511 0 006.398 3.492c4.485 1.401 9.493 1.526 14.246.325 3.866-.981 7.535-2.831 10.574-5.579 3.039-2.748 5.498-6.445 6.959-11.121zm9.783-25.099c2.641 11.152 2.272 20.517-.099 28.115-2.026 6.482-5.511 11.676-9.857 15.603-4.344 3.932-9.509 6.557-14.9 7.922-6.54 1.655-13.473 1.467-19.722-.482a28.645 28.645 0 01-9.89-5.399c-6.144-5.136-10.26-12.839-11.907-22.068-1.566-8.795-.878-19.058 2.471-29.799 3.289-10.537 9.158-21.572 18.001-32.148 31.919-38.178 46.708-40.356 52.185-24.686 4.084 11.688-.422 37.285-6.282 62.942z" fill="#1B1038"/><path d="M118.302 513.763c-10.228 1.602-17.223 11.192-15.623 21.418 1.601 10.229 11.191 17.223 21.42 15.621 10.226-1.599 17.221-11.189 15.621-21.418-1.601-10.226-11.192-17.22-21.418-15.621" fill="#6DE1FF"/><path d="M101.968 518.261c3.593-4.924 9.064-8.482 15.56-9.498 6.485-1.015 12.772.699 17.695 4.289a23.754 23.754 0 019.497 15.559c1.015 6.484-.699 12.773-4.289 17.695-3.592 4.926-9.064 8.483-15.559 9.496-6.484 1.016-12.773-.697-17.694-4.287a23.745 23.745 0 01-9.499-15.558c-1.015-6.487.699-12.774 4.289-17.696zm17.108.502a13.636 13.636 0 00-8.934 5.451 13.666 13.666 0 00-2.462 10.194 13.631 13.631 0 005.451 8.933 13.659 13.659 0 0010.193 2.461 13.629 13.629 0 008.933-5.449 13.665 13.665 0 002.463-10.193 13.632 13.632 0 00-5.45-8.934 13.677 13.677 0 00-10.194-2.463zm-.222-149.869a17.744 17.744 0 0112.58-5.211c3.802 0 7.328 1.195 10.22 3.231l-.883 13.836 2.96 13.556c-3.205 3.071-7.54 4.959-12.297 4.959-4.874 0-9.305-1.98-12.53-5.183l-.05-.049c-3.22-3.227-5.211-7.67-5.211-12.559 0-4.734 1.867-9.049 4.91-12.25l.301-.33zm12.58 4.949a7.615 7.615 0 00-5.397 2.235l-.213.199a7.603 7.603 0 00-2.022 5.197c0 2.119.845 4.028 2.216 5.397l.019.019a7.595 7.595 0 005.397 2.215c2.12 0 4.028-.848 5.395-2.215v-.019a7.609 7.609 0 002.235-5.397 7.608 7.608 0 00-2.235-5.396 7.612 7.612 0 00-5.395-2.235zm283.724 2.235a7.616 7.616 0 00-5.396-2.235 7.615 7.615 0 00-5.397 2.235h-.019a7.596 7.596 0 00-2.216 5.396c0 2.119.847 4.028 2.216 5.397l.019.019a7.597 7.597 0 005.397 2.215 7.611 7.611 0 005.196-2.021l.2-.213a7.61 7.61 0 002.236-5.397 7.609 7.609 0 00-2.236-5.396zm-5.396-12.395c4.911 0 9.36 1.994 12.579 5.211a17.742 17.742 0 015.211 12.58c0 4.912-1.993 9.36-5.211 12.578l-.33.303c-3.199 3.043-7.516 4.91-12.249 4.91-4.689 0-8.967-1.832-12.157-4.822l3.783-15.938-1.865-11.582a17.726 17.726 0 0110.239-3.24z" fill="#1B1038"/><path d="M238.898 465.836c-94.597-9.071-106.173-60.643-102.342-104.735 1.085-12.494 3.434-24.247 5.421-34.185.753-3.782 1.46-7.305 1.989-10.328a5.073 5.073 0 015.268-4.195l-4.532 20.396 3.495 16.596c-.619 4.096-1.153 8.312-1.523 12.589-3.333 38.377 6.639 83.115 86.711 93.043a39.099 39.099 0 01-1.913-12.121 5.079 5.079 0 0110.158 0c0 8 3.243 15.244 8.484 20.484 5.24 5.241 12.485 8.487 20.484 8.487 7.999 0 15.242-3.246 20.483-8.487a28.881 28.881 0 008.483-20.484 5.08 5.08 0 0110.16 0 39.1 39.1 0 01-1.914 12.121c80.072-9.928 90.044-54.666 86.711-93.043-.483-5.554-1.235-11.007-2.1-16.226l2.326-5.461 4.892-11.261c1.886 9.474 3.991 20.456 5.001 32.075 3.83 44.092-7.745 95.664-102.344 104.735a39.544 39.544 0 01-4.033 4.728c-7.079 7.08-16.866 11.461-27.665 11.461-10.805 0-20.586-4.381-27.666-11.461a39.552 39.552 0 01-4.034-4.728" fill="#1B1038"/><path d="M238.813 295.004c-9.33-9.331-22.224-15.104-36.465-15.104-14.242 0-27.135 5.773-36.466 15.104-9.332 9.332-15.104 22.225-15.104 36.466s5.772 27.135 15.104 36.465c9.331 9.332 22.224 15.104 36.466 15.104 14.241 0 27.135-5.774 36.465-15.104 9.333-9.33 15.106-22.224 15.106-36.465 0-14.241-5.773-27.134-15.106-36.466zm-36.465-25.262c17.046 0 32.479 6.91 43.648 18.08 11.17 11.17 18.081 26.603 18.081 43.648 0 17.044-6.911 32.477-18.081 43.647-11.169 11.17-26.602 18.082-43.648 18.082-17.046 0-32.479-6.91-43.648-18.082-11.171-11.17-18.081-26.601-18.081-43.647 0-17.044 6.91-32.478 18.081-43.648 11.169-11.17 26.602-18.08 43.648-18.08zm92.85 18.08c11.17-11.17 26.604-18.08 43.649-18.08s32.478 6.91 43.648 18.08c11.17 11.17 18.081 26.603 18.081 43.648 0 17.046-6.911 32.477-18.081 43.647-11.17 11.172-26.604 18.082-43.648 18.082-17.045 0-32.479-6.912-43.649-18.082-11.17-11.17-18.081-26.603-18.081-43.647 0-17.045 6.911-32.478 18.081-43.648zm43.649-7.922c-14.241 0-27.135 5.773-36.467 15.104-9.33 9.332-15.104 22.225-15.104 36.466s5.774 27.135 15.104 36.465c9.332 9.33 22.226 15.104 36.467 15.104s27.134-5.772 36.466-15.104c9.331-9.33 15.104-22.224 15.104-36.465 0-14.241-5.773-27.134-15.104-36.466-9.332-9.331-22.225-15.104-36.466-15.104z" fill="#1B1038"/><path d="M176.804 281.586c1.943-7.365 2.87-16.291 2.564-27.104a5.069 5.069 0 015.356-5.364l1.889.094 1.886.014a61.19 61.19 0 0019.698-3.229 60.943 60.943 0 0012.515-5.909 71.782 71.782 0 01-9.156-10.941 5.057 5.057 0 018.373-5.675 61.445 61.445 0 0011.94 13.031c.13.094.255.195.377.304a61.466 61.466 0 009.727 6.402c8.529 4.517 18.271 7.077 28.626 7.077 10.353 0 20.094-2.56 28.623-7.077a61.366 61.366 0 009.726-6.402c.121-.109.246-.21.377-.304a61.476 61.476 0 0011.941-13.031 5.059 5.059 0 018.373 5.675 71.856 71.856 0 01-9.157 10.941 60.943 60.943 0 0012.515 5.909 61.2 61.2 0 0019.698 3.229l1.886-.014 1.89-.094a5.067 5.067 0 015.356 5.356c-.32 11.297.703 20.537 2.828 28.087l-11.33-4.084c-1.053-5.683-1.63-12.023-1.676-19.1a71.243 71.243 0 01-21.906-3.776 71.125 71.125 0 01-17.342-8.694 71.041 71.041 0 01-41.802 13.538 71.044 71.044 0 01-41.806-13.538 71.082 71.082 0 01-17.341 8.694 71.25 71.25 0 01-21.908 3.776c-.04 6.396-.517 12.19-1.385 17.44l-11.355 4.769m92.236 215.173a5.086 5.086 0 10.002-10.172 5.086 5.086 0 00-.002 10.172zm0 20.348a5.086 5.086 0 10.002-10.172 5.086 5.086 0 00-.002 10.172z" fill="#1B1038"/><path d="M270.598 134.333c-52.42 0-104.681 11.812-136.142 35.436-32.846 24.663-42.326 62.995-3.16 115.155l3.906 5.202-6.01 2.516c-7.548 3.161-13.436 7.626-17.198 12.708-2.956 3.993-4.575 8.348-4.598 12.683-.024 4.3 1.524 8.708 4.894 12.868l1.387 1.591c1.786-3.121 4.281-5.62 7.529-7.171 4.999-2.385 11.516-2.339 19.59 1.454 1.141-15.173 7.769-28.82 17.904-38.954a61.842 61.842 0 0119.559-13.203c.93-5.854 1.325-12.529 1.109-20.138a5.069 5.069 0 015.357-5.364l1.889.095 1.886.013c6.91 0 13.536-1.137 19.698-3.228a60.974 60.974 0 0012.515-5.91 71.726 71.726 0 01-9.156-10.94 5.059 5.059 0 018.373-5.675 61.44 61.44 0 0011.94 13.03l.377.304a61.472 61.472 0 009.727 6.403c8.529 4.516 18.271 7.077 28.625 7.077s20.095-2.561 28.624-7.077a61.363 61.363 0 009.725-6.403l.378-.304a61.47 61.47 0 0011.941-13.03 5.057 5.057 0 018.373 5.675 71.857 71.857 0 01-9.157 10.94 60.998 60.998 0 0012.515 5.91 61.19 61.19 0 0019.698 3.228l1.886-.013 1.89-.095a5.068 5.068 0 015.356 5.357c-.216 7.611.179 14.288 1.109 20.145a61.826 61.826 0 0119.558 13.203c10.135 10.134 16.765 23.78 17.905 38.954 8.074-3.793 14.591-3.839 19.59-1.454 3.248 1.551 5.741 4.048 7.529 7.171l1.388-1.591c3.368-4.16 4.916-8.569 4.893-12.868-.024-4.335-1.641-8.69-4.599-12.683-3.76-5.082-9.648-9.547-17.198-12.708l-6.008-2.516 3.905-5.202c39.167-52.161 29.685-90.494-3.16-115.156-31.462-23.624-83.721-35.435-136.142-35.435" fill="#D1D4E3"/><path d="M303.944 252.178a71.055 71.055 0 01-33.345 8.267c-12.032 0-23.383-2.989-33.348-8.267a71.453 71.453 0 01-8.459-5.27 71.105 71.105 0 01-17.339 8.694 71.292 71.292 0 01-21.909 3.775c-.025 4.197-.24 8.136-.63 11.83a61.927 61.927 0 0113.433-1.466c17.047 0 32.48 6.911 43.648 18.082 11.171 11.169 18.082 26.602 18.082 43.647 0 17.044-6.911 32.479-18.082 43.647-11.168 11.17-26.601 18.082-43.648 18.082-17.045 0-32.477-6.91-43.647-18.082a61.895 61.895 0 01-11.721-16.326c-.11 1.056-.212 2.119-.306 3.183-3.332 38.375 6.64 83.115 86.713 93.045a39.123 39.123 0 01-1.916-12.123 5.08 5.08 0 0110.16 0 28.885 28.885 0 008.483 20.484c5.242 5.241 12.486 8.485 20.484 8.485 8 0 15.244-3.244 20.484-8.485a28.884 28.884 0 008.482-20.484 5.082 5.082 0 0110.161 0 39.15 39.15 0 01-1.913 12.123c80.071-9.93 90.044-54.67 86.71-93.045a164.868 164.868 0 00-.306-3.183 61.917 61.917 0 01-11.721 16.326c-11.169 11.172-26.604 18.082-43.647 18.082-17.046 0-32.479-6.912-43.649-18.082-11.17-11.168-18.082-26.603-18.082-43.647 0-17.045 6.912-32.478 18.082-43.647 11.17-11.171 26.603-18.082 43.649-18.082 4.614 0 9.108.506 13.433 1.466-.388-3.696-.602-7.633-.631-11.83a71.278 71.278 0 01-21.906-3.775 71.16 71.16 0 01-17.342-8.694 71.347 71.347 0 01-8.457 5.27" fill="#FBD0A1"/><path d="M338.847 279.9c-14.241 0-27.135 5.773-36.467 15.104-9.33 9.332-15.104 22.225-15.104 36.466s5.774 27.135 15.104 36.465c9.332 9.33 22.226 15.104 36.467 15.104s27.134-5.772 36.466-15.104c9.331-9.33 15.104-22.224 15.104-36.465 0-14.241-5.773-27.134-15.104-36.466-9.332-9.331-22.225-15.104-36.466-15.104m-84.928 51.57c0-14.241-5.773-27.134-15.106-36.466-9.33-9.331-22.224-15.104-36.465-15.104-14.242 0-27.135 5.773-36.466 15.104-9.332 9.332-15.104 22.225-15.104 36.466s5.772 27.135 15.104 36.465c9.331 9.332 22.224 15.104 36.466 15.104 14.241 0 27.135-5.774 36.465-15.104 9.333-9.33 15.106-22.224 15.106-36.465" fill="#FFF"/><path d="M401.321 337.727c1.344 7.267 2.605 15.162 3.319 23.374.093 1.082.178 2.168.252 3.258a17.78 17.78 0 014.87-.676c2.325 0 4.547.447 6.583 1.26a32.731 32.731 0 001.488-3.016c2.446-5.667 3.48-12.12 2.875-17.611-.514-4.658-2.166-8.433-5.083-9.826-2.981-1.422-7.636-.756-14.304 3.237m-264.765 23.374c.713-8.212 1.972-16.107 3.316-23.376-6.666-3.991-11.321-4.659-14.303-3.235-2.918 1.393-4.569 5.168-5.082 9.826-.604 5.491.429 11.944 2.875 17.611a32.23 32.23 0 001.488 3.016 17.716 17.716 0 016.584-1.26c1.688 0 3.321.236 4.869.676.074-1.09.158-2.176.253-3.258" fill="#FBD0A1"/><path d="M135.937 375.312a7.6 7.6 0 00-4.503-1.469 7.615 7.615 0 00-5.397 2.235l-.213.199a7.603 7.603 0 00-2.022 5.197c0 2.119.845 4.028 2.216 5.397l.019.019a7.595 7.595 0 005.397 2.215 7.608 7.608 0 005.116-1.949 120.469 120.469 0 01-.613-11.844m269.321 0a120.5 120.5 0 01-.613 11.844 7.597 7.597 0 005.117 1.949 7.611 7.611 0 005.196-2.021l.2-.213a7.61 7.61 0 002.236-5.397 7.609 7.609 0 00-2.236-5.396 7.616 7.616 0 00-5.396-2.235 7.6 7.6 0 00-4.504 1.469" fill="#FFF"/><path d="M223.264 458.095c-.436 4.783-.155 9.08.857 12.672 1.046 3.715 2.88 6.619 5.505 8.41 2.667 1.821 6.337 2.617 11.044 2.106 5.208-.567 11.522-2.699 18.981-6.731l7.166 3.315 2.223-.483v3.493c-10.631 6.373-19.734 9.664-27.299 10.484-7.244.789-13.19-.647-17.831-3.811-4.684-3.195-7.86-8.037-9.552-14.043-1.42-5.045-1.781-10.937-1.101-17.345l10.007 1.933" fill="#1B1038"/><path d="M314.816 458.095c.436 4.783.155 9.08-.858 12.672-1.045 3.715-2.879 6.619-5.503 8.41-2.668 1.821-6.337 2.617-11.045 2.106-5.209-.567-11.522-2.699-18.981-6.731l-7.166 3.315-2.223-.483v3.493c10.631 6.373 19.734 9.664 27.299 10.484 7.243.789 13.19-.647 17.831-3.811 4.684-3.195 7.86-8.037 9.552-14.043 1.42-5.045 1.781-10.937 1.101-17.345l-10.007 1.933" fill="#1B1038"/><path d="M229.626 479.177c2.667 1.821 6.337 2.617 11.044 2.106 3.563-.387 7.643-1.508 12.255-3.467a39.258 39.258 0 01-9.993-7.252 39.552 39.552 0 01-4.034-4.728 241.847 241.847 0 01-15.803-2.024c.094 2.527.435 4.859 1.026 6.955 1.046 3.715 2.88 6.619 5.505 8.41" fill="#FFF"/><path d="M243.175 480.904c2.936-.561 6.185-1.574 9.75-3.088a39.258 39.258 0 01-9.993-7.252 39.552 39.552 0 01-4.034-4.728 248.514 248.514 0 01-12.507-1.514c.137 2.16.463 4.17.978 5.996 1.046 3.717 2.88 6.621 5.504 8.412 2.525 1.723 5.949 2.527 10.302 2.174m55.088-10.34a39.23 39.23 0 01-11.422 7.939c3.926 1.538 7.446 2.44 10.569 2.78 4.708.511 8.377-.285 11.045-2.106 2.624-1.791 4.458-4.695 5.503-8.41.553-1.959.887-4.127 1.006-6.469a245.308 245.308 0 01-12.668 1.538 39.544 39.544 0 01-4.033 4.728" fill="#FF917D"/><path d="M326.212 532.353h-9.897a214.01 214.01 0 01-2.719 16.592c-1.436 7.058-3.206 14.086-5.264 21.078a5.082 5.082 0 01-4.008 3.572c-26.066 4.481-44.503 4.481-70.568 0a5.083 5.083 0 01-4.008-3.572c-2.058-6.992-3.829-14.02-5.265-21.078a214.483 214.483 0 01-2.718-16.592h-9.897c3.792 36.592 17.349 60.498 33.977 71.822 7.337 4.998 15.28 7.498 23.195 7.498 7.916 0 15.859-2.5 23.196-7.498 16.626-11.324 30.184-35.23 33.976-71.822" fill="#6DE1FF"/><path d="M142.042 575.711c-8.457-2.879-14.381-10.157-16.974-19.94a23.744 23.744 0 01-8.245-.082c1.272 6.631 4.145 12.045 8.321 15.537a18.511 18.511 0 006.398 3.492c3.318 1.035 6.924 1.375 10.5.993m-13.234-65.987c1.239.42 2.437.94 3.585 1.553 2.956-5.586 6.7-11.199 11.293-16.691 8.28-9.903 15.165-17.19 20.851-22.252-5.237 2.421-14.513 11.166-29.558 29.162a95.135 95.135 0 00-6.171 8.228" fill="#FFF"/><path d="M368.258 473.638c-3.335 9.541 1.218 33.949 6.871 58.52l.276 1.197-.296 1.164c-2.464 9.736-2.278 17.641-.349 23.824 1.461 4.676 3.919 8.373 6.959 11.121 3.038 2.748 6.708 4.598 10.574 5.579 4.753 1.201 9.761 1.076 14.246-.325a18.525 18.525 0 006.399-3.492c4.175-3.492 7.048-8.906 8.321-15.537-2.416.451-4.94.533-7.5.193l-.551-.08c-6.494-1.013-11.966-4.57-15.559-9.496-3.588-4.922-5.303-11.211-4.289-17.695a23.755 23.755 0 019.498-15.559 23.92 23.92 0 016.415-3.328 95.12 95.12 0 00-6.17-8.228c-23.402-27.987-32.84-33.598-34.845-27.858" fill="#D1D4E3"/><path d="M375.405 533.355l-.296 1.164c-2.464 9.736-2.278 17.641-.349 23.824 1.461 4.676 3.919 8.373 6.959 11.121 3.038 2.748 6.708 4.598 10.574 5.579 4.753 1.201 9.761 1.076 14.246-.325.415-.129.821-.273 1.222-.427a26.905 26.905 0 01-5.439-.375c-3.93-.676-7.733-2.237-10.974-4.743-3.244-2.504-5.982-5.998-7.8-10.546-2.403-6.016-3.201-13.881-1.498-23.78l.204-1.183-.368-1.172c-7.541-24.061-13.97-48.039-11.385-57.813.432-1.633 1.506-2.435 3.378-2.183-3.115-1.551-4.878-.983-5.621 1.142-3.335 9.541 1.218 33.949 6.871 58.52l.276 1.197" fill="#FFF"/><path d="M221.255 527.769a5.065 5.065 0 014.543-5.537 5.067 5.067 0 015.536 4.545c.667 6.719 1.706 13.434 3.071 20.144a240.335 240.335 0 004.184 17.188c21.703 3.414 39.199 3.414 60.901 0a239.81 239.81 0 004.185-17.188c1.364-6.71 2.404-13.425 3.071-20.144a5.068 5.068 0 015.535-4.545 5.066 5.066 0 014.544 5.537c-.699 7.055-1.793 14.115-3.229 21.176-1.436 7.058-3.206 14.086-5.264 21.078a5.082 5.082 0 01-4.008 3.572c-26.066 4.481-44.503 4.481-70.568 0a5.083 5.083 0 01-4.008-3.572c-2.058-6.992-3.829-14.02-5.265-21.078-1.435-7.061-2.529-14.121-3.228-21.176" fill="#1B1038"/><path d="M234.405 546.921a240.335 240.335 0 004.184 17.188c21.703 3.414 39.199 3.414 60.901 0a239.81 239.81 0 004.185-17.188c.986-4.853 1.804-9.71 2.433-14.568h-74.136a206.088 206.088 0 002.433 14.568" fill="#FF917D"/><path d="M306.108 532.353h-4.711c-.31 4.17-.757 8.348-1.326 12.533a239.822 239.822 0 01-3.05 17.424c-9.778 2.203-18.729 3.639-27.65 4.359 9.69-.019 19.391-.873 30.119-2.56a239.81 239.81 0 004.185-17.188c.986-4.853 1.804-9.71 2.433-14.568m-152.82-238.351c-43.223-47.256-54.136-91.471-.903-127.902 32.468-22.221 85.196-31.729 137.565-29.431 26.797 1.177 53.416 5.44 77.097 12.672-28.29-10.005-62.336-15.007-96.449-15.007-52.421 0-104.681 11.813-136.143 35.436-32.845 24.663-42.325 62.996-3.16 115.156l3.906 5.202-6.009 2.516c-7.548 3.161-13.437 7.626-17.199 12.708-2.955 3.993-4.574 8.348-4.597 12.683-.024 4.299 1.523 8.707 4.893 12.867l1.387 1.592c1.786-3.122 4.282-5.621 7.529-7.171.225-.107.452-.209.683-.307-13.679-12.642 10.941-28.819 31.4-31.014" fill="#FFF"/><g transform="translate(217)"><mask id="d" fill="#fff"><use xlink:href="#c"/></mask><path d="M46.11 6.611C19.694 10.746 1.628 35.515 5.763 61.931c4.133 26.418 28.904 44.484 55.32 40.348 26.417-4.133 44.483-28.903 40.349-55.32C97.297 20.543 72.527 2.476 46.11 6.611" fill="#6DE1FF" mask="url(#d)"/><path d="M10.394 22.94C18.458 11.88 30.746 3.894 45.337 1.611c14.578-2.282 28.71 1.566 39.766 9.63 11.06 8.067 19.044 20.353 21.329 34.944l.079.529c2.108 14.391-1.743 28.314-9.71 39.238-8.066 11.059-20.352 19.045-34.942 21.328l-.531.079c-14.39 2.108-28.314-1.743-39.237-9.71C11.031 89.583 3.046 77.297.763 62.708l-.079-.53c-2.109-14.392 1.742-28.315 9.71-39.238zm36.492-11.329c-11.826 1.851-21.783 8.32-28.319 17.281-6.538 8.963-9.656 20.429-7.804 32.265l.008.048c1.859 11.803 8.324 21.743 17.273 28.27 8.963 6.538 20.428 9.656 32.264 7.804l.09-.014c11.787-1.868 21.71-8.328 28.23-17.266 6.537-8.964 9.655-20.429 7.803-32.264l-.006-.045c-1.86-11.806-8.324-21.747-17.275-28.275-8.963-6.538-20.428-9.656-32.264-7.804z" fill="#1B1038" mask="url(#d)"/></g><path d="M308.242 43.092c3.796 24.253-12.791 46.995-37.044 50.79a44.237 44.237 0 01-23.816-2.815 43.212 43.212 0 0029.926 6.212l.09-.014c11.787-1.868 21.71-8.328 28.23-17.266 6.537-8.964 9.655-20.429 7.803-32.264l-.006-.045c-1.75-11.11-7.578-20.568-15.719-27.085a44.233 44.233 0 0110.536 22.487" fill="#FFF"/><path fill="#1B1038" d="M265.517 128.733h10.16v-24.925h-10.16z"/><path d="M338.848 287.823c-12.054 0-22.967 4.887-30.865 12.785-7.898 7.895-12.785 18.809-12.785 30.862 0 12.054 4.887 22.968 12.785 30.862 7.898 7.898 18.811 12.785 30.865 12.785 12.052 0 22.964-4.885 30.862-12.785 7.897-7.894 12.785-18.808 12.785-30.862 0-12.053-4.888-22.967-12.785-30.862-7.898-7.898-18.81-12.785-30.862-12.785m-136.501 0c12.052 0 22.966 4.887 30.864 12.785 7.897 7.895 12.784 18.809 12.784 30.862 0 12.054-4.887 22.968-12.784 30.862-7.898 7.898-18.812 12.785-30.864 12.785-12.053 0-22.965-4.885-30.863-12.785-7.897-7.894-12.785-18.808-12.785-30.862 0-12.053 4.888-22.967 12.785-30.862 7.898-7.898 18.81-12.785 30.863-12.785" fill="#6DE1FF"/><path fill="#1B1038" d="M260.44 336.551h21.793V326.39H260.44z"/><path d="M256.145 392.343h28.905c4.223 0 7.678 3.455 7.678 7.678v7.379c0 4.223-3.455 7.678-7.678 7.678h-28.905c-4.224 0-7.678-3.455-7.678-7.678v-7.379c0-4.223 3.454-7.678 7.678-7.678" fill="#FF917D"/><path d="M285.05 397.472h-28.905c-.697 0-1.335.289-1.798.752a2.545 2.545 0 00-.752 1.797v7.379c0 .697.289 1.334.752 1.797a2.543 2.543 0 001.798.752h28.905a2.54 2.54 0 001.797-.752c.463-.463.752-1.1.752-1.797v-7.379c0-.695-.289-1.334-.752-1.797a2.54 2.54 0 00-1.797-.752zm-28.905-10.256h28.905c3.526 0 6.73 1.44 9.049 3.758a12.776 12.776 0 013.756 9.047v7.379c0 3.525-1.439 6.728-3.756 9.047a12.776 12.776 0 01-9.049 3.758h-28.905c-3.525 0-6.731-1.44-9.049-3.758a12.772 12.772 0 01-3.757-9.047v-7.379c0-3.523 1.439-6.73 3.757-9.047a12.776 12.776 0 019.049-3.758zm-47.459-55.638a5.116 5.116 0 01-9.134-4.606c.357-.713.423-1.473.238-2.126-.162-.535-.5-.992-.972-1.231-.479-.24-1.051-.242-1.579-.05-.631.229-1.203.729-1.561 1.438-1.327 2.629-1.538 5.496-.806 7.995.699 2.385 2.272 4.438 4.541 5.584 2.275 1.149 4.863 1.195 7.202.342 2.35-.858 4.457-2.621 5.794-5.094l.295-.582c2.165-4.462 2.484-9.31 1.242-13.568-1.217-4.129-3.916-7.705-7.819-9.783l-.573-.289c-4.005-1.926-8.5-1.98-12.557-.5-4.254 1.55-8.035 4.784-10.328 9.323-3.264 6.462-3.771 13.532-1.953 19.729 1.785 6.086 5.824 11.338 11.683 14.297 5.868 2.963 12.496 3.102 18.457.926 6.065-2.213 11.45-6.813 14.711-13.27a5.116 5.116 0 019.135 4.608c-4.479 8.865-11.933 15.204-20.359 18.277-8.524 3.109-18.049 2.886-26.549-1.407-8.504-4.295-14.34-11.835-16.895-20.546-2.521-8.6-1.841-18.355 2.635-27.22 3.512-6.951 9.362-11.923 15.975-14.332 6.689-2.439 14.17-2.273 20.855 1.08l.073.035c6.706 3.391 11.308 9.332 13.32 16.191 1.97 6.74 1.449 14.358-2.028 21.281l-.036.072c-2.544 5.036-6.79 8.637-11.59 10.387-4.901 1.789-10.387 1.656-15.291-.82-4.915-2.483-8.285-6.826-9.756-11.838-1.436-4.898-1.054-10.452 1.488-15.485 1.576-3.12 4.221-5.357 7.208-6.446 3.088-1.125 6.563-1.037 9.673.531 3.116 1.576 5.25 4.325 6.177 7.484a13.16 13.16 0 01-.916 9.613m123.823 0a5.115 5.115 0 009.134-4.606c-.359-.713-.423-1.473-.24-2.126.163-.535.5-.992.973-1.231.478-.24 1.051-.242 1.579-.05.63.229 1.203.729 1.562 1.438 1.327 2.629 1.538 5.496.804 7.995-.699 2.385-2.271 4.438-4.541 5.584-2.275 1.149-4.863 1.195-7.201.342-2.35-.858-4.457-2.621-5.795-5.094l-.295-.582c-2.164-4.462-2.484-9.31-1.242-13.568 1.219-4.129 3.917-7.705 7.82-9.783l.573-.289c4.006-1.926 8.5-1.98 12.557-.5 4.254 1.55 8.034 4.784 10.327 9.323 3.264 6.462 3.772 13.532 1.954 19.729-1.785 6.086-5.825 11.338-11.684 14.297-5.867 2.963-12.494 3.102-18.456.926-6.065-2.213-11.45-6.813-14.712-13.27a5.116 5.116 0 00-9.135 4.608c4.481 8.865 11.934 15.204 20.36 18.277 8.523 3.109 18.049 2.886 26.549-1.407 8.504-4.295 14.339-11.835 16.894-20.546 2.521-8.6 1.843-18.355-2.635-27.22-3.512-6.951-9.361-11.923-15.974-14.332-6.69-2.439-14.169-2.273-20.855 1.08l-.073.035c-6.705 3.391-11.309 9.332-13.32 16.191-1.969 6.74-1.45 14.358 2.029 21.281l.035.072c2.544 5.036 6.79 8.637 11.59 10.387 4.901 1.789 10.388 1.656 15.292-.82 4.914-2.483 8.284-6.826 9.755-11.838 1.436-4.898 1.054-10.452-1.488-15.485-1.576-3.12-4.22-5.357-7.208-6.446-3.088-1.125-6.564-1.037-9.672.531-3.117 1.576-5.25 4.325-6.177 7.484a13.154 13.154 0 00.916 9.613" fill="#1B1038"/><path d="M265.517 107.691c-9.698-.918-18.795-4.476-26.426-10.042-11.06-8.065-19.045-20.353-21.328-34.941l-.079-.53a51.262 51.262 0 01-.184-1.381c-50.847 10.498-96.294 35.768-131.65 71.125-47.281 47.282-76.526 112.602-76.526 184.75S38.569 454.14 85.85 501.421a262.028 262.028 0 0017.065 15.625 23.73 23.73 0 0114.515-8.267c2.73-4.631 5.977-9.254 9.771-13.791 31.92-38.178 46.709-40.356 52.185-24.686 4.085 11.688-.42 37.285-6.282 62.942 2.411 10.185 2.313 18.879.472 26.095a259.26 259.26 0 0036.554 11.575c-4.073-11.055-7.017-23.912-8.46-38.563h-7.498a5.08 5.08 0 01-5.077-4.924c-1.239-12.279-1.076-24.748.353-37.183 1.266-11.018 3.535-22.049 6.709-32.922-37.056-12.393-52.609-34.971-57.911-59.42a17.64 17.64 0 01-6.813 1.361c-4.873 0-9.304-1.978-12.529-5.181l-.05-.049c-3.22-3.227-5.21-7.67-5.21-12.559 0-3.76 1.176-7.256 3.186-10.138a42.473 42.473 0 01-2.794-5.399c-3.105-7.199-4.411-15.497-3.636-22.663-2.313-1.917-4.297-3.918-5.968-5.981-4.928-6.085-7.192-12.707-7.156-19.299.036-6.555 2.352-12.961 6.581-18.675 3.784-5.111 9.122-9.683 15.724-13.292-39.264-55.51-27.603-97.013 8.804-124.351 32.257-24.222 84.459-36.71 137.132-37.465v-16.52m48.284-21.739c-8.066 11.059-20.353 19.045-34.942 21.327l-.531.08c-.886.13-1.77.236-2.651.322v16.53c52.674.754 104.875 13.243 137.133 37.463 36.407 27.338 48.068 68.842 8.804 124.352 6.601 3.609 11.939 8.181 15.722 13.293 4.23 5.714 6.545 12.121 6.582 18.675.036 6.592-2.229 13.213-7.155 19.299-1.671 2.063-3.656 4.064-5.968 5.979.774 7.168-.53 15.466-3.637 22.665a42.399 42.399 0 01-2.785 5.387 17.712 17.712 0 013.179 10.15c0 4.912-1.992 9.36-5.211 12.578l-.33.303c-3.2 3.043-7.516 4.908-12.249 4.908-2.41 0-4.712-.482-6.813-1.359-5.436 25.064-21.647 48.166-60.761 60.338 3.036 10.574 5.213 21.293 6.444 32.002 1.443 12.556 1.596 25.15.316 37.545a5.069 5.069 0 01-5.04 4.55v.012h-7.498c-1.477 14.998-4.528 28.115-8.751 39.346a259.572 259.572 0 0037.146-11.25c-2.124-7.43-2.365-16.492.173-27.203-5.863-25.657-10.369-51.254-6.284-62.942 5.476-15.67 20.264-13.492 52.186 24.686 3.793 4.537 7.04 9.16 9.771 13.791a23.735 23.735 0 0115.724 9.849 262.468 262.468 0 0018.972-17.207c47.279-47.281 76.524-112.601 76.524-184.749 0-72.149-29.245-137.47-76.524-184.75-35.355-35.354-80.797-60.624-131.64-71.123a53.446 53.446 0 01-9.906 25.153" fill="#FF917D"/><path d="M274.127 491.673a5.086 5.086 0 11-10.172 0 5.086 5.086 0 0110.172 0zm0 20.348a5.087 5.087 0 01-10.173 0 5.086 5.086 0 1110.173 0zm49.595-38.514c-1.692 6.006-4.868 10.848-9.553 14.043-4.64 3.164-10.587 4.6-17.83 3.811-7.096-.77-15.549-3.715-25.346-9.338l-.396.002c-1.105 0-2.198-.045-3.28-.135-9.894 5.711-18.423 8.696-25.576 9.471-7.243.789-13.191-.647-17.832-3.811-4.683-3.195-7.859-8.037-9.551-14.043-.986-3.504-1.462-7.414-1.433-11.621a173.213 173.213 0 01-7.057-1.685c-2.993 10.277-5.137 20.726-6.341 31.193-1.186 10.328-1.454 20.647-.717 30.799h140.46c.737-10.152.469-20.471-.717-30.799-1.176-10.219-3.246-20.42-6.13-30.463a177.119 177.119 0 01-7.268 1.602c-.022 3.963-.499 7.652-1.433 10.974z" fill="#FFF"/></g></svg>