<svg width="542" height="664" xmlns="http://www.w3.org/2000/svg" xmlns:xlink="http://www.w3.org/1999/xlink"><defs><path id="a" d="M.06.074h541.135V618H.06z"/><path id="c" d="M.113.961H107.08v106.968H.113z"/></defs><g fill="none" fill-rule="evenodd"><g transform="translate(0 46)"><mask id="b" fill="#fff"><use xlink:href="#a"/></mask><path d="M270.593 611.377c32.085 0 58.096 1.482 58.096 3.312 0 1.826-26.011 3.311-58.096 3.311-32.087 0-58.098-1.485-58.098-3.311 0-1.83 26.011-3.312 58.098-3.312M455.346 85.922c-47.28-47.279-112.6-76.524-184.749-76.524-72.148 0-137.469 29.245-184.748 76.524-47.28 47.282-76.525 112.602-76.525 184.75S38.569 408.14 85.849 455.419c47.279 47.28 112.6 76.526 184.748 76.526 72.147 0 137.467-29.246 184.749-76.526 47.281-47.279 76.525-112.599 76.525-184.747 0-72.149-29.244-137.47-76.525-184.75zM270.597.074c74.725 0 142.378 30.288 191.344 79.254 48.965 48.966 79.254 116.619 79.254 191.344 0 74.722-30.289 142.376-79.254 191.341-48.968 48.967-116.621 79.256-191.344 79.256S128.22 510.98 79.255 462.013C30.289 413.048 0 345.394 0 270.672c0-74.723 30.289-142.376 79.255-191.344C128.22 30.362 195.874.074 270.597.074z" fill="#1B1038" mask="url(#b)"/></g><path d="M148.33 331.134a5.058 5.058 0 11-5.674 8.373c-8.175-5.558-13.706-6.63-17.087-5.017-2.918 1.392-4.569 5.168-5.082 9.826-.605 5.49.429 11.943 2.875 17.611 1.17 2.713 2.668 5.221 4.46 7.295l-8.303 5.936c-2.199-2.727-4.035-5.865-5.483-9.223-3.106-7.197-4.411-15.496-3.636-22.662-2.313-1.916-4.297-3.918-5.968-5.98-4.929-6.084-7.192-12.707-7.155-19.299.034-6.555 2.351-12.961 6.58-18.675 3.784-5.111 9.122-9.683 15.724-13.292-39.264-55.509-27.603-97.014 8.803-124.351 33.295-25.001 87.836-37.501 142.213-37.501 54.376 0 108.919 12.5 142.214 37.499 36.406 27.338 48.066 68.842 8.802 124.352 6.602 3.608 11.94 8.181 15.723 13.293 4.23 5.714 6.545 12.121 6.582 18.675.035 6.592-2.229 13.213-7.156 19.299-1.67 2.062-3.655 4.064-5.967 5.978.775 7.168-.529 15.467-3.637 22.664-1.32 3.061-2.961 5.94-4.906 8.488l-8.152-6.087c1.472-1.887 2.724-4.071 3.732-6.409 2.447-5.668 3.481-12.121 2.875-17.611-.514-4.658-2.164-8.434-5.082-9.826-3.381-1.612-8.912-.541-17.086 5.017a5.056 5.056 0 01-7.023-1.349 5.06 5.06 0 011.347-7.024c11.643-7.914 20.657-8.898 27.127-5.811 3.246 1.55 5.74 4.048 7.528 7.171.492-.528.955-1.057 1.388-1.592 3.367-4.16 4.916-8.568 4.893-12.867-.024-4.335-1.641-8.69-4.598-12.683-3.762-5.082-9.65-9.547-17.199-12.708l-6.008-2.516 3.904-5.202c39.168-52.161 29.686-90.494-3.16-115.156-31.461-23.624-83.72-35.436-136.141-35.436-52.42 0-104.68 11.813-136.142 35.436-32.846 24.663-42.326 62.996-3.16 115.156l3.906 5.202-6.009 2.516c-7.549 3.161-13.437 7.626-17.199 12.708-2.955 3.993-4.575 8.348-4.598 12.683-.023 4.299 1.523 8.707 4.894 12.867.432.535.895 1.066 1.386 1.592 1.787-3.121 4.283-5.621 7.53-7.171 6.47-3.087 15.484-2.103 27.125 5.811" fill="#1B1038"/><path d="M206.323 527.271c8.903 119.307 116.531 119.307 125.433 0H206.323" fill="#FFF"/><path d="M240.128 612.546c-19.77-13.464-35.649-41.808-38.865-84.898l-.406-5.457h136.366l-.407 5.457c-3.216 43.09-19.095 71.434-38.865 84.898-9.086 6.188-18.986 9.284-28.911 9.284-9.924 0-19.825-3.094-28.912-9.284zm-28.261-80.195c3.793 36.592 17.35 60.498 33.977 71.822 7.338 4.998 15.281 7.498 23.196 7.498 7.915 0 15.858-2.5 23.196-7.498 16.627-11.324 30.184-35.23 33.977-71.822H211.867z" fill="#1B1038"/><path d="M269.04 532.351h-74.869a5.08 5.08 0 01-5.076-4.926c-1.24-12.277-1.077-24.75.353-37.183 1.463-12.731 4.264-25.475 8.255-37.977l7.903 2.416 17.001 3.287c-6.944.076-12.573.172-16.161.287-3.297 10.901-5.639 22.008-6.919 33.137-1.186 10.328-1.454 20.645-.717 30.799h140.46c.738-10.154.468-20.471-.717-30.799-1.282-11.129-3.623-22.236-6.918-33.137l9.349-4.052c3.67 11.881 6.26 23.966 7.649 36.039 1.443 12.556 1.594 25.15.314 37.545a5.067 5.067 0 01-5.039 4.55v.014H269.04m96.036 29.006c-2.371-7.598-2.74-16.963-.097-28.115-5.864-25.656-10.37-51.254-6.286-62.94 5.477-15.67 20.266-13.492 52.186 24.684 8.844 10.576 14.713 21.611 18.002 32.148 3.349 10.741 4.037 21.004 2.471 29.799-1.647 9.229-5.764 16.932-11.907 22.069a28.66 28.66 0 01-9.89 5.398c-6.25 1.949-13.182 2.137-19.723.482-5.391-1.365-10.555-3.99-14.9-7.921-4.346-3.928-7.83-9.122-9.856-15.604zm10.033-26.84c-2.464 9.736-2.279 17.641-.349 23.824 1.461 4.676 3.92 8.373 6.959 11.121 3.039 2.749 6.707 4.598 10.574 5.579 4.752 1.201 9.76 1.076 14.246-.325a18.534 18.534 0 006.399-3.492c4.281-3.58 7.191-9.178 8.412-16.037 1.298-7.289.695-15.908-2.153-25.039-2.914-9.33-8.158-19.162-16.095-28.654-23.401-27.987-32.84-33.596-34.844-27.858-3.336 9.541 1.217 33.95 6.871 58.52l.275 1.197-.295 1.164z" fill="#1B1038"/><path d="M419.779 513.761c10.229 1.602 17.223 11.192 15.621 21.418-1.599 10.229-11.189 17.223-21.418 15.621-10.226-1.599-17.22-11.189-15.621-21.418 1.602-10.226 11.192-17.22 21.418-15.621" fill="#6DE1FF"/><path d="M427.939 524.212a13.636 13.636 0 00-8.935-5.451 13.676 13.676 0 00-10.193 2.463 13.628 13.628 0 00-5.45 8.934 13.656 13.656 0 002.463 10.193 13.636 13.636 0 008.881 5.442l.053.007c3.74.586 7.365-.398 10.191-2.461a13.634 13.634 0 005.444-8.88l.007-.053a13.67 13.67 0 00-2.461-10.194zm-7.386-15.451c6.496 1.016 11.967 4.575 15.56 9.498a23.72 23.72 0 014.367 17.147l-.08.551c-1.015 6.494-4.574 11.964-9.498 15.556a23.7 23.7 0 01-17.144 4.367l-.551-.08c-6.494-1.013-11.965-4.57-15.557-9.496-3.589-4.922-5.304-11.211-4.289-17.695a23.753 23.753 0 019.496-15.559c4.924-3.589 11.211-5.304 17.696-4.289z" fill="#1B1038"/><path d="M167.892 533.287c9.643 38.101-18.153 52.424-37.858 46.271-23.093-7.209-27.939-46.64 1.056-81.318 55.322-66.164 48.449-15.572 36.802 35.047" fill="#D1D4E3"/><path d="M163.321 558.341c1.929-6.183 2.115-14.088-.35-23.824l-.294-1.164.275-1.197c5.652-24.572 10.205-48.977 6.871-58.52-2.005-5.736-11.446-.129-34.844 27.858-7.938 9.492-13.183 19.324-16.095 28.654-2.849 9.131-3.452 17.75-2.154 25.039 1.222 6.859 4.133 12.457 8.414 16.037a18.511 18.511 0 006.398 3.492c4.485 1.401 9.493 1.526 14.246.325 3.866-.981 7.536-2.83 10.574-5.579 3.039-2.748 5.498-6.445 6.959-11.121zm9.782-25.099c2.641 11.152 2.272 20.517-.099 28.115-2.025 6.482-5.51 11.676-9.856 15.604-4.345 3.931-9.51 6.556-14.9 7.921-6.54 1.655-13.473 1.467-19.722-.482a28.65 28.65 0 01-9.89-5.398c-6.144-5.137-10.261-12.84-11.907-22.069-1.566-8.795-.879-19.058 2.471-29.799 3.289-10.537 9.158-21.572 18.001-32.148 31.919-38.176 46.709-40.354 52.185-24.684 4.084 11.686-.422 37.284-6.283 62.94z" fill="#1B1038"/><path d="M118.301 513.761c-10.228 1.602-17.222 11.192-15.622 21.418 1.601 10.229 11.192 17.223 21.419 15.621 10.227-1.599 17.222-11.189 15.622-21.418-1.601-10.226-11.192-17.22-21.419-15.621" fill="#6DE1FF"/><path d="M101.968 518.259a23.752 23.752 0 0115.56-9.498c6.484-1.015 12.771.7 17.694 4.289a23.751 23.751 0 019.498 15.559c1.015 6.484-.7 12.773-4.289 17.695-3.593 4.926-9.064 8.483-15.558 9.496-6.485 1.016-12.775-.697-17.696-4.287a23.744 23.744 0 01-9.498-15.558c-1.015-6.487.699-12.774 4.289-17.696zm17.108.502a13.633 13.633 0 00-8.934 5.451 13.666 13.666 0 00-2.463 10.194 13.632 13.632 0 005.452 8.933 13.659 13.659 0 0010.193 2.461 13.626 13.626 0 008.933-5.449 13.665 13.665 0 002.462-10.193 13.632 13.632 0 00-5.45-8.934 13.674 13.674 0 00-10.193-2.463zm-.222-149.867a17.744 17.744 0 0112.579-5.211c3.803 0 7.329 1.195 10.221 3.231l-.884 13.836 2.961 13.556c-3.205 3.071-7.54 4.959-12.298 4.959-4.873 0-9.305-1.98-12.529-5.183l-.05-.049c-3.22-3.227-5.211-7.67-5.211-12.559 0-4.734 1.867-9.049 4.91-12.25l.301-.33zm12.579 4.949a7.612 7.612 0 00-5.396 2.235l-.213.199a7.609 7.609 0 00-2.023 5.197c0 2.119.847 4.028 2.216 5.397l.02.019a7.595 7.595 0 005.396 2.215c2.12 0 4.029-.848 5.397-2.215v-.019a7.612 7.612 0 002.234-5.397 7.611 7.611 0 00-2.234-5.396 7.616 7.616 0 00-5.397-2.235zm283.725 2.235a7.62 7.62 0 00-5.396-2.235 7.613 7.613 0 00-5.397 2.235h-.019a7.591 7.591 0 00-2.215 5.396 7.6 7.6 0 002.215 5.397l.019.019a7.594 7.594 0 005.397 2.215 7.609 7.609 0 005.195-2.021l.201-.213a7.613 7.613 0 002.235-5.397 7.612 7.612 0 00-2.235-5.396zm-5.396-12.395c4.912 0 9.359 1.994 12.578 5.211a17.738 17.738 0 015.211 12.58c0 4.912-1.992 9.36-5.211 12.578l-.33.303c-3.199 3.043-7.514 4.91-12.248 4.91-4.69 0-8.967-1.832-12.157-4.822l3.782-15.938-1.864-11.582a17.726 17.726 0 0110.239-3.24z" fill="#1B1038"/><path d="M238.898 465.836c-94.598-9.071-106.174-60.643-102.343-104.735 1.085-12.494 3.435-24.248 5.421-34.185.755-3.782 1.46-7.305 1.989-10.328a5.075 5.075 0 015.269-4.195l-4.532 20.396 3.495 16.595c-.619 4.096-1.153 8.313-1.524 12.59-3.333 38.377 6.639 83.115 86.712 93.043a39.1 39.1 0 01-1.914-12.121 5.08 5.08 0 0110.159 0c0 8 3.243 15.244 8.484 20.484a28.878 28.878 0 0020.483 8.485 28.878 28.878 0 0020.483-8.485 28.874 28.874 0 008.484-20.484 5.078 5.078 0 015.079-5.078 5.078 5.078 0 015.08 5.078c0 4.231-.67 8.305-1.914 12.121 80.072-9.928 90.045-54.666 86.712-93.043-.482-5.555-1.236-11.008-2.099-16.226l2.326-5.461 4.891-11.261c1.886 9.474 3.992 20.456 5 32.075 3.832 44.092-7.744 95.664-102.342 104.735a39.552 39.552 0 01-4.033 4.726c-7.08 7.08-16.866 11.461-27.667 11.461-10.804 0-20.586-4.381-27.666-11.461a39.368 39.368 0 01-4.033-4.726" fill="#1B1038"/><path d="M238.814 295.004c-9.331-9.331-22.226-15.104-36.467-15.104s-27.134 5.773-36.465 15.104c-9.332 9.332-15.104 22.225-15.104 36.466s5.772 27.135 15.104 36.465c9.331 9.332 22.224 15.104 36.465 15.104 14.241 0 27.136-5.774 36.467-15.104 9.331-9.33 15.104-22.224 15.104-36.465 0-14.241-5.773-27.134-15.104-36.466zm-36.467-25.262c17.046 0 32.48 6.91 43.649 18.08 11.17 11.17 18.081 26.603 18.081 43.648 0 17.043-6.911 32.477-18.081 43.647-11.169 11.17-26.603 18.082-43.649 18.082-17.045 0-32.478-6.91-43.647-18.082-11.171-11.17-18.081-26.602-18.081-43.647 0-17.044 6.91-32.478 18.081-43.648 11.169-11.17 26.602-18.08 43.647-18.08zm92.85 18.08c11.17-11.17 26.604-18.08 43.651-18.08 17.043 0 32.476 6.91 43.646 18.08 11.17 11.17 18.082 26.603 18.082 43.648s-6.912 32.477-18.082 43.647c-11.17 11.172-26.603 18.082-43.646 18.082-17.047 0-32.481-6.912-43.651-18.082-11.17-11.17-18.08-26.604-18.08-43.647 0-17.045 6.91-32.478 18.08-43.648zm43.651-7.922c-14.243 0-27.137 5.773-36.467 15.104-9.332 9.332-15.106 22.225-15.106 36.466s5.774 27.135 15.106 36.465c9.33 9.33 22.224 15.104 36.467 15.104 14.24 0 27.132-5.772 36.465-15.104 9.33-9.33 15.103-22.224 15.103-36.465 0-14.241-5.773-27.134-15.103-36.466-9.333-9.331-22.225-15.104-36.465-15.104z" fill="#1B1038"/><path d="M176.804 281.586c1.943-7.365 2.87-16.291 2.564-27.104a5.068 5.068 0 015.356-5.364l1.889.094 1.886.014a61.19 61.19 0 0019.698-3.229 60.918 60.918 0 0012.515-5.909 71.904 71.904 0 01-9.157-10.941 5.058 5.058 0 018.373-5.675 61.476 61.476 0 0011.941 13.031c.131.094.256.195.377.304a61.457 61.457 0 009.726 6.402c8.529 4.517 18.272 7.077 28.626 7.077 10.353 0 20.095-2.56 28.625-7.077a61.348 61.348 0 009.724-6.402c.121-.109.248-.21.377-.304a61.428 61.428 0 0011.942-13.031 5.057 5.057 0 018.373 5.675 71.972 71.972 0 01-9.157 10.941 60.926 60.926 0 0012.516 5.909 61.18 61.18 0 0019.697 3.229l1.885-.014 1.891-.094a5.07 5.07 0 015.357 5.356c-.32 11.297.701 20.537 2.828 28.087l-11.332-4.084c-1.051-5.683-1.629-12.023-1.676-19.1a71.243 71.243 0 01-21.906-3.776 71.125 71.125 0 01-17.342-8.694 71.038 71.038 0 01-41.802 13.538 71.047 71.047 0 01-41.805-13.538 71.1 71.1 0 01-17.341 8.694 71.256 71.256 0 01-21.908 3.776c-.041 6.396-.517 12.19-1.385 17.44l-11.355 4.769m93.793 215.171a5.087 5.087 0 100-10.169 5.087 5.087 0 000 10.169m0 20.348a5.086 5.086 0 100-10.172 5.085 5.085 0 00-5.086 5.084 5.088 5.088 0 005.086 5.088" fill="#1B1038"/><path d="M270.597 134.334c-52.42 0-104.68 11.813-136.142 35.436-32.846 24.663-42.326 62.996-3.16 115.156l3.906 5.202-6.009 2.516c-7.549 3.161-13.437 7.626-17.199 12.708-2.955 3.993-4.575 8.348-4.598 12.683-.023 4.299 1.523 8.707 4.894 12.867l1.386 1.592c1.787-3.121 4.283-5.621 7.53-7.171 4.999-2.386 11.516-2.34 19.589 1.454 1.141-15.174 7.77-28.82 17.906-38.955a61.83 61.83 0 0119.557-13.202c.931-5.854 1.326-12.529 1.111-20.138a5.068 5.068 0 015.356-5.364l1.889.094 1.886.014a61.19 61.19 0 0019.698-3.229 60.918 60.918 0 0012.515-5.909 71.904 71.904 0 01-9.157-10.941 5.058 5.058 0 018.373-5.675 61.476 61.476 0 0011.941 13.031l.377.304a61.457 61.457 0 009.726 6.402c8.529 4.517 18.272 7.077 28.626 7.077 10.353 0 20.095-2.56 28.625-7.077a61.348 61.348 0 009.724-6.402l.377-.304a61.428 61.428 0 0011.942-13.031 5.057 5.057 0 018.373 5.675 71.972 71.972 0 01-9.157 10.941 60.926 60.926 0 0012.516 5.909 61.18 61.18 0 0019.697 3.229l1.885-.014 1.891-.094a5.07 5.07 0 015.357 5.356c-.217 7.612.178 14.289 1.108 20.146a61.835 61.835 0 0119.558 13.202c10.135 10.135 16.766 23.78 17.906 38.955 8.073-3.794 14.59-3.84 19.59-1.454 3.246 1.55 5.74 4.048 7.528 7.171l1.388-1.592c3.367-4.16 4.916-8.568 4.893-12.867-.024-4.335-1.641-8.69-4.598-12.683-3.762-5.082-9.65-9.547-17.199-12.708l-6.008-2.516 3.904-5.202c39.168-52.161 29.686-90.494-3.16-115.156-31.461-23.624-83.72-35.436-136.141-35.436" fill="#D1D4E3"/><path d="M303.943 252.177a71.038 71.038 0 01-33.345 8.268 71.047 71.047 0 01-41.805-13.538 71.1 71.1 0 01-17.341 8.694 71.256 71.256 0 01-21.908 3.776c-.026 4.197-.241 8.136-.631 11.831a61.874 61.874 0 0113.434-1.466c17.046 0 32.48 6.91 43.649 18.08 11.17 11.17 18.081 26.603 18.081 43.648 0 17.043-6.911 32.477-18.081 43.647-11.169 11.17-26.603 18.082-43.649 18.082-17.045 0-32.478-6.91-43.647-18.082a61.862 61.862 0 01-11.721-16.326c-.11 1.056-.213 2.119-.306 3.183-3.333 38.377 6.639 83.115 86.712 93.043a39.1 39.1 0 01-1.914-12.121 5.08 5.08 0 0110.159 0c0 8 3.243 15.244 8.484 20.484a28.878 28.878 0 0020.483 8.485 28.878 28.878 0 0020.483-8.485 28.874 28.874 0 008.484-20.484 5.078 5.078 0 015.079-5.078 5.078 5.078 0 015.08 5.078c0 4.231-.67 8.305-1.914 12.121 80.072-9.928 90.045-54.666 86.712-93.043a182.435 182.435 0 00-.306-3.183 61.908 61.908 0 01-11.721 16.326c-11.17 11.172-26.603 18.082-43.646 18.082-17.047 0-32.481-6.912-43.651-18.082-11.17-11.17-18.08-26.604-18.08-43.647 0-17.045 6.91-32.478 18.08-43.648 11.17-11.17 26.604-18.08 43.651-18.08 4.611 0 9.107.505 13.431 1.466-.388-3.697-.603-7.634-.631-11.831a71.243 71.243 0 01-21.906-3.776 71.125 71.125 0 01-17.342-8.694 71.105 71.105 0 01-8.457 5.27" fill="#FBD0A1"/><path d="M338.848 279.9c-14.243 0-27.137 5.773-36.467 15.104-9.332 9.332-15.106 22.225-15.106 36.466s5.774 27.135 15.106 36.465c9.33 9.33 22.224 15.104 36.467 15.104 14.24 0 27.132-5.772 36.465-15.104 9.33-9.33 15.103-22.224 15.103-36.465 0-14.241-5.773-27.134-15.103-36.466-9.333-9.331-22.225-15.104-36.465-15.104m-84.93 51.57c0-14.241-5.773-27.134-15.104-36.466-9.331-9.331-22.226-15.104-36.467-15.104s-27.134 5.773-36.465 15.104c-9.332 9.332-15.104 22.225-15.104 36.466s5.772 27.135 15.104 36.465c9.331 9.332 22.224 15.104 36.465 15.104 14.241 0 27.136-5.774 36.467-15.104 9.331-9.33 15.104-22.224 15.104-36.465" fill="#FFF"/><path d="M401.32 337.726c1.344 7.268 2.606 15.162 3.319 23.375.095 1.082.179 2.168.254 3.258a17.761 17.761 0 014.869-.676c2.324 0 4.547.447 6.582 1.26a32.479 32.479 0 001.488-3.016c2.447-5.668 3.481-12.121 2.875-17.611-.514-4.658-2.164-8.434-5.082-9.826-2.982-1.422-7.637-.756-14.305 3.236m-264.765 23.375c.713-8.213 1.973-16.107 3.317-23.377-6.666-3.99-11.321-4.658-14.303-3.234-2.918 1.392-4.569 5.168-5.082 9.826-.605 5.49.429 11.943 2.875 17.611a32.472 32.472 0 001.487 3.016 17.724 17.724 0 016.584-1.26c1.689 0 3.322.236 4.869.676.074-1.09.158-2.176.253-3.258" fill="#FBD0A1"/><path d="M135.936 375.312a7.598 7.598 0 00-4.503-1.469 7.612 7.612 0 00-5.396 2.235l-.213.199a7.609 7.609 0 00-2.023 5.197c0 2.119.847 4.028 2.216 5.397l.02.019a7.595 7.595 0 005.396 2.215 7.61 7.61 0 005.117-1.949 120.78 120.78 0 01-.614-11.844m269.322 0c-.018 3.941-.207 7.9-.613 11.844a7.593 7.593 0 005.117 1.949 7.609 7.609 0 005.195-2.021l.201-.213a7.613 7.613 0 002.235-5.397 7.612 7.612 0 00-2.235-5.396 7.62 7.62 0 00-5.396-2.235 7.6 7.6 0 00-4.504 1.469" fill="#6DE1FF"/><path d="M223.264 458.095c-.436 4.783-.155 9.08.857 12.67 1.046 3.715 2.88 6.619 5.504 8.41 2.667 1.821 6.337 2.618 11.045 2.106 5.208-.567 11.522-2.699 18.981-6.731l7.166 3.315 2.223-.483v3.493c-10.63 6.373-19.735 9.664-27.299 10.484-7.244.789-13.191-.647-17.831-3.811-4.685-3.195-7.86-8.037-9.552-14.043-1.42-5.043-1.782-10.935-1.102-17.343l10.008 1.933" fill="#1B1038"/><path d="M314.816 458.095c.436 4.783.155 9.08-.857 12.67-1.045 3.715-2.881 6.619-5.504 8.41-2.668 1.821-6.338 2.618-11.045 2.106-5.209-.567-11.523-2.699-18.982-6.731l-7.166 3.315-2.222-.483v3.493c10.63 6.373 19.735 9.664 27.298 10.484 7.244.789 13.191-.647 17.832-3.811 4.684-3.195 7.859-8.037 9.551-14.043 1.42-5.043 1.781-10.935 1.103-17.343l-10.008 1.933" fill="#1B1038"/><path d="M229.625 479.175c2.667 1.821 6.337 2.618 11.045 2.106 3.564-.387 7.643-1.508 12.255-3.467a39.368 39.368 0 01-14.027-11.978 241.88 241.88 0 01-15.804-2.024c.095 2.527.437 4.859 1.027 6.953 1.046 3.715 2.88 6.619 5.504 8.41" fill="#FFF"/><path d="M243.174 480.902c2.937-.561 6.186-1.574 9.751-3.088a39.368 39.368 0 01-14.027-11.978 248.416 248.416 0 01-12.508-1.514c.139 2.16.464 4.17.979 5.996 1.045 3.715 2.88 6.619 5.504 8.41 2.525 1.723 5.949 2.527 10.301 2.174m55.09-10.34a39.26 39.26 0 01-11.424 7.94c3.926 1.537 7.447 2.439 10.57 2.779 4.707.512 8.377-.285 11.045-2.106 2.623-1.791 4.459-4.695 5.504-8.41.551-1.957.885-4.125 1.006-6.467-4.049.602-8.27 1.116-12.668 1.538a39.552 39.552 0 01-4.033 4.726" fill="#FF917D"/><path d="M326.213 532.351h-9.899a214.483 214.483 0 01-2.718 16.592c-1.436 7.059-3.207 14.086-5.264 21.078a5.085 5.085 0 01-4.008 3.572c-26.066 4.481-44.503 4.481-70.568 0a5.082 5.082 0 01-4.008-3.572c-2.058-6.992-3.829-14.019-5.265-21.078a214.972 214.972 0 01-2.719-16.592h-9.897c3.793 36.592 17.35 60.498 33.977 71.822 7.338 4.998 15.281 7.498 23.196 7.498 7.915 0 15.858-2.5 23.196-7.498 16.627-11.324 30.184-35.23 33.977-71.822" fill="#6DE1FF"/><path d="M142.042 575.709c-8.458-2.879-14.381-10.157-16.974-19.94a23.756 23.756 0 01-8.246-.082c1.272 6.631 4.145 12.045 8.322 15.537a18.511 18.511 0 006.398 3.492c3.319 1.036 6.924 1.375 10.5.993m-13.235-65.987c1.239.42 2.438.94 3.585 1.553 2.956-5.586 6.701-11.199 11.294-16.691 8.279-9.903 15.165-17.19 20.851-22.252-5.237 2.421-14.512 11.166-29.558 29.162a95.151 95.151 0 00-6.172 8.228" fill="#FFF"/><path d="M368.258 473.636c-3.336 9.541 1.217 33.95 6.871 58.52l.275 1.197-.295 1.164c-2.464 9.736-2.279 17.641-.349 23.824 1.461 4.676 3.92 8.373 6.959 11.121 3.039 2.749 6.707 4.598 10.574 5.579 4.752 1.201 9.76 1.076 14.246-.325a18.534 18.534 0 006.399-3.492c4.175-3.492 7.048-8.906 8.32-15.537-2.416.451-4.94.533-7.5.193l-.551-.08c-6.494-1.013-11.965-4.57-15.557-9.496-3.589-4.922-5.304-11.211-4.289-17.695a23.753 23.753 0 019.496-15.559 23.926 23.926 0 016.416-3.328 95.341 95.341 0 00-6.171-8.228c-23.401-27.987-32.84-33.596-34.844-27.858" fill="#D1D4E3"/><path d="M375.404 533.353l-.295 1.164c-2.464 9.736-2.279 17.641-.349 23.824 1.461 4.676 3.92 8.373 6.959 11.121 3.039 2.749 6.707 4.598 10.574 5.579 4.752 1.201 9.76 1.076 14.246-.325.414-.129.822-.273 1.223-.427a26.9 26.9 0 01-5.44-.375c-3.931-.676-7.732-2.237-10.974-4.743-3.244-2.503-5.983-5.998-7.801-10.546-2.402-6.016-3.199-13.881-1.498-23.78l.205-1.183-.367-1.172c-7.541-24.061-13.971-48.039-11.387-57.813.434-1.633 1.506-2.435 3.379-2.183-3.115-1.551-4.879-.983-5.621 1.142-3.336 9.541 1.217 33.95 6.871 58.52l.275 1.197" fill="#FFF"/><path d="M221.254 527.767a5.067 5.067 0 014.544-5.537 5.066 5.066 0 015.535 4.545c.667 6.719 1.708 13.434 3.072 20.144a239.799 239.799 0 004.184 17.188c21.703 3.414 39.198 3.414 60.901 0a239.265 239.265 0 004.184-17.188c1.365-6.71 2.404-13.425 3.072-20.144a5.067 5.067 0 015.535-4.545 5.065 5.065 0 014.543 5.537c-.699 7.055-1.791 14.115-3.228 21.176-1.436 7.059-3.207 14.086-5.264 21.078a5.085 5.085 0 01-4.008 3.572c-26.066 4.481-44.503 4.481-70.568 0a5.082 5.082 0 01-4.008-3.572c-2.058-6.992-3.829-14.019-5.265-21.078-1.436-7.061-2.529-14.121-3.229-21.176" fill="#1B1038"/><path d="M234.405 546.919a239.799 239.799 0 004.184 17.188c21.703 3.414 39.198 3.414 60.901 0a239.265 239.265 0 004.184-17.188c.986-4.853 1.805-9.71 2.433-14.568h-74.135a205.514 205.514 0 002.433 14.568" fill="#FF917D"/><path d="M306.107 532.351h-4.711a205.28 205.28 0 01-1.326 12.533 238.111 238.111 0 01-3.05 17.424c-9.778 2.203-18.729 3.639-27.649 4.36 9.69-.02 19.391-.874 30.119-2.561a239.265 239.265 0 004.184-17.188c.986-4.853 1.805-9.71 2.433-14.568M153.288 294.002c-43.223-47.256-54.136-91.471-.903-127.902 32.467-22.221 85.196-31.729 137.564-29.431 26.797 1.177 53.418 5.44 77.098 12.672-28.291-10.005-62.336-15.007-96.45-15.007-52.42 0-104.68 11.813-136.142 35.436-32.846 24.663-42.326 62.996-3.16 115.156l3.906 5.202-6.009 2.516c-7.549 3.161-13.437 7.626-17.199 12.708-2.955 3.993-4.575 8.348-4.598 12.683-.023 4.299 1.523 8.707 4.894 12.867l1.386 1.592c1.787-3.121 4.283-5.621 7.53-7.171.224-.107.452-.209.683-.307-13.68-12.642 10.941-28.819 31.4-31.014" fill="#FFF"/><g transform="translate(217)"><mask id="d" fill="#fff"><use xlink:href="#c"/></mask><path d="M46.111 6.611C19.694 10.746 1.628 35.515 5.763 61.931c4.133 26.418 28.904 44.484 55.321 40.348 26.416-4.133 44.482-28.903 40.348-55.32C97.297 20.543 72.527 2.476 46.111 6.611" fill="#6DE1FF" mask="url(#d)"/><path d="M10.393 22.94C18.458 11.88 30.746 3.894 45.337 1.611c14.577-2.282 28.71 1.566 39.767 9.63 11.058 8.067 19.044 20.353 21.328 34.944l.078.529c2.109 14.391-1.742 28.314-9.709 39.238-8.067 11.059-20.352 19.045-34.942 21.328l-.531.079c-14.39 2.108-28.315-1.743-39.238-9.71C11.031 89.583 3.045 77.297.763 62.708l-.08-.53c-2.108-14.392 1.742-28.315 9.71-39.238zm36.492-11.329c-11.826 1.851-21.783 8.32-28.318 17.281-6.538 8.963-9.656 20.429-7.804 32.265l.007.048c1.859 11.803 8.324 21.743 17.273 28.27 8.964 6.538 20.429 9.656 32.264 7.804l.091-.014c11.788-1.868 21.709-8.328 28.229-17.266 6.539-8.964 9.656-20.429 7.805-32.264l-.008-.045C94.564 35.884 88.1 25.943 79.15 19.415c-8.964-6.538-20.429-9.656-32.265-7.804z" fill="#1B1038" mask="url(#d)"/></g><path d="M308.242 43.092c3.795 24.253-12.791 46.995-37.045 50.79a44.235 44.235 0 01-23.815-2.815 43.21 43.21 0 0029.925 6.212l.091-.014c11.788-1.868 21.709-8.328 28.229-17.266 6.539-8.964 9.656-20.429 7.805-32.264l-.008-.045c-1.75-11.11-7.578-20.568-15.719-27.085a44.243 44.243 0 0110.537 22.487" fill="#FFF"/><path fill="#1B1038" d="M265.517 128.733h10.159v-24.925h-10.159z"/><path d="M202.346 287.823c12.053 0 22.967 4.887 30.865 12.785 7.898 7.895 12.785 18.809 12.785 30.862 0 12.053-4.887 22.967-12.785 30.862-7.898 7.898-18.812 12.785-30.865 12.785-12.053 0-22.964-4.885-30.862-12.785-7.898-7.895-12.785-18.809-12.785-30.862 0-12.053 4.887-22.967 12.785-30.862 7.898-7.898 18.809-12.785 30.862-12.785" fill="#6DE1FF"/><path fill="#1B1038" d="M260.441 336.55h21.793v-10.16h-21.793zm-4.949 71.354a5.112 5.112 0 01-7.091-1.402 5.112 5.112 0 011.402-7.09 37.14 37.14 0 019.924-4.705 37.382 37.382 0 0110.868-1.627c3.733 0 7.387.57 10.868 1.627a37.14 37.14 0 019.924 4.705 5.111 5.111 0 01-5.688 8.492 26.95 26.95 0 00-7.201-3.422c-2.453-.744-5.105-1.146-7.903-1.146-2.798 0-5.453.402-7.903 1.146a26.93 26.93 0 00-7.2 3.422"/><path d="M338.848 287.823c-12.053 0-22.967 4.887-30.866 12.785-7.898 7.895-12.785 18.809-12.785 30.862 0 12.053 4.887 22.967 12.785 30.862 7.899 7.898 18.813 12.785 30.866 12.785 12.052 0 22.963-4.885 30.861-12.785 7.898-7.895 12.785-18.809 12.785-30.862 0-12.053-4.887-22.967-12.785-30.862-7.898-7.898-18.809-12.785-30.861-12.785" fill="#6DE1FF"/><path d="M353.594 385.912c-6.262-6.262-6.262-16.414 0-22.678l11.338-11.34 11.339 11.34c6.262 6.264 6.262 16.416 0 22.678-6.263 6.261-16.416 6.261-22.677 0" fill="#FFF"/><path d="M354.027 374.574c0 2.791 1.065 5.586 3.192 7.713a10.88 10.88 0 007.713 3.195c2.793 0 5.586-1.066 7.714-3.195a10.881 10.881 0 003.194-7.713c0-2.789-1.067-5.586-3.194-7.713l-7.714-7.715-7.713 7.715a10.879 10.879 0 00-3.192 7.713zm-4.058 14.963a21.089 21.089 0 01-6.199-14.963 21.1 21.1 0 016.199-14.963l11.338-11.34a5.129 5.129 0 017.252 0l11.337 11.34a21.099 21.099 0 016.202 14.963 21.092 21.092 0 01-6.202 14.963 21.1 21.1 0 01-14.964 6.201 21.105 21.105 0 01-14.963-6.201zm21.824-56.553a5.066 5.066 0 01-7.301 7.023 35.725 35.725 0 00-11.728-8.073c-4.254-1.807-8.957-2.807-13.918-2.807-4.961 0-9.664 1-13.918 2.807a35.69 35.69 0 00-11.727 8.073 5.067 5.067 0 01-7.303-7.023 45.863 45.863 0 0115.063-10.375 45.618 45.618 0 0117.885-3.642 45.62 45.62 0 0117.884 3.642 45.843 45.843 0 0115.063 10.375" fill="#1B1038"/><path d="M376.42 321.345a5.066 5.066 0 00-8.315-5.785 26.282 26.282 0 01-5.437 5.715 26.053 26.053 0 01-6.852 3.828c-.32.119-.623.27-.904.444l8.576 7.185a36.097 36.097 0 005.393-3.459 36.532 36.532 0 007.539-7.928m-15.219-9.762a5.066 5.066 0 00-3.033-6.489 5.066 5.066 0 00-6.488 3.034 26.343 26.343 0 01-3.787 6.918 25.981 25.981 0 01-5.639 5.459c-.279.2-.531.421-.76.663l10.135 4.74a35.93 35.93 0 004.322-4.727 36.533 36.533 0 005.25-9.598" fill="#1B1038"/><path d="M187.599 385.912c6.262-6.262 6.262-16.414 0-22.678l-11.338-11.34-11.339 11.34c-6.262 6.264-6.262 16.416 0 22.678 6.263 6.261 16.415 6.261 22.677 0" fill="#FFF"/><path d="M197.425 374.574a21.094 21.094 0 01-6.2 14.963 21.103 21.103 0 01-14.964 6.201 21.104 21.104 0 01-14.964-6.201 21.092 21.092 0 01-6.198-14.963c0-5.412 2.066-10.83 6.198-14.963l11.339-11.34a5.127 5.127 0 017.25 0l11.339 11.34a21.101 21.101 0 016.2 14.963zm-13.451 7.713a10.877 10.877 0 003.194-7.713 10.88 10.88 0 00-3.194-7.713l-7.713-7.715-7.713 7.715a10.876 10.876 0 00-3.193 7.713c0 2.791 1.065 5.586 3.193 7.713a10.877 10.877 0 007.713 3.195c2.792 0 5.585-1.066 7.713-3.195zM169.4 332.984a5.065 5.065 0 107.302 7.023 35.698 35.698 0 0111.729-8.073c4.253-1.807 8.956-2.807 13.917-2.807s9.665 1 13.917 2.807a35.69 35.69 0 0111.727 8.073 5.066 5.066 0 007.302-7.023 45.845 45.845 0 00-15.061-10.375 45.618 45.618 0 00-17.885-3.642 45.634 45.634 0 00-17.886 3.642 45.87 45.87 0 00-15.062 10.375" fill="#1B1038"/><path d="M164.774 321.345a5.065 5.065 0 018.314-5.785 26.373 26.373 0 005.436 5.715 26.101 26.101 0 006.852 3.828c.322.119.624.27.905.444l-8.576 7.185a36.036 36.036 0 01-5.392-3.459 36.508 36.508 0 01-7.539-7.928m15.218-9.762a5.065 5.065 0 019.521-3.455 26.343 26.343 0 003.787 6.918 26.066 26.066 0 005.638 5.459c.28.2.533.421.761.663l-10.135 4.74a35.999 35.999 0 01-4.322-4.727 36.561 36.561 0 01-5.25-9.598" fill="#1B1038"/><path d="M275.684 491.671a5.087 5.087 0 01-10.173 0 5.087 5.087 0 0110.173 0zm0 20.348a5.087 5.087 0 11-5.087-5.086 5.087 5.087 0 015.087 5.086zm-76.157-20.627c-1.187 10.328-1.454 20.647-.717 30.799h140.46c.736-10.152.468-20.471-.717-30.799-1.176-10.219-3.246-20.42-6.131-30.461a176.39 176.39 0 01-7.268 1.602c-.021 3.963-.498 7.652-1.433 10.972-1.692 6.006-4.867 10.848-9.551 14.043-4.641 3.164-10.588 4.6-17.832 3.811-7.096-.77-15.549-3.715-25.344-9.338l-.397.002c-1.104 0-2.198-.045-3.279-.135-9.895 5.711-18.425 8.696-25.577 9.471-7.243.789-13.191-.647-17.831-3.811-4.685-3.195-7.861-8.037-9.552-14.043-.986-3.502-1.462-7.412-1.433-11.619a172.817 172.817 0 01-7.057-1.685c-2.993 10.275-5.137 20.724-6.341 31.191z" fill="#FFF"/><path d="M358.695 470.302c5.475-15.67 20.264-13.492 52.184 24.684 3.795 4.537 7.041 9.16 9.771 13.791a23.73 23.73 0 0115.725 9.85 262.7 262.7 0 0018.971-17.208c47.279-47.279 76.525-112.599 76.525-184.747 0-72.149-29.246-137.47-76.525-184.75-35.354-35.354-80.797-60.624-131.639-71.123a53.446 53.446 0 01-9.906 25.153c-8.067 11.059-20.352 19.045-34.942 21.327l-.531.08a55.08 55.08 0 01-2.652.322v16.53c52.674.754 104.877 13.243 137.133 37.463 36.408 27.338 48.068 68.842 8.804 124.352 6.602 3.609 11.94 8.181 15.723 13.293 4.23 5.714 6.545 12.121 6.582 18.675.035 6.592-2.229 13.213-7.156 19.299-1.67 2.062-3.655 4.064-5.967 5.978.775 7.168-.529 15.467-3.637 22.666a42.27 42.27 0 01-2.785 5.387 17.705 17.705 0 013.18 10.15c0 4.912-1.994 9.36-5.213 12.578l-.33.303c-3.199 3.043-7.514 4.908-12.248 4.908-2.41 0-4.713-.482-6.813-1.359-5.435 25.064-21.648 48.166-60.761 60.338 3.037 10.574 5.212 21.291 6.443 32 1.445 12.556 1.596 25.15.316 37.545a5.067 5.067 0 01-5.039 4.55v.012h-7.498c-1.476 14.998-4.527 28.115-8.752 39.346a259.624 259.624 0 0037.147-11.25c-2.125-7.43-2.364-16.492.174-27.203-5.864-25.656-10.37-51.254-6.284-62.94m-239.841-76.269c-3.22-3.227-5.211-7.67-5.211-12.559 0-3.76 1.178-7.256 3.187-10.138a42.473 42.473 0 01-2.794-5.399c-3.106-7.199-4.411-15.498-3.636-22.664-2.313-1.916-4.297-3.918-5.968-5.98-4.928-6.085-7.192-12.707-7.155-19.299.035-6.555 2.352-12.961 6.58-18.675 3.784-5.111 9.122-9.683 15.724-13.292-39.264-55.51-27.603-97.013 8.803-124.351 32.258-24.222 84.46-36.71 137.133-37.465v-16.52c-9.698-.918-18.795-4.476-26.427-10.042-11.059-8.065-19.045-20.353-21.327-34.941l-.079-.53a51.262 51.262 0 01-.184-1.381c-50.847 10.498-96.294 35.768-131.651 71.125-47.28 47.282-76.525 112.602-76.525 184.75S38.569 454.14 85.849 501.419a262.304 262.304 0 0017.066 15.625 23.73 23.73 0 0114.514-8.267c2.731-4.631 5.978-9.254 9.772-13.791 31.919-38.176 46.709-40.354 52.185-24.684 4.084 11.686-.421 37.284-6.283 62.94 2.412 10.185 2.314 18.879.474 26.095a259.234 259.234 0 0036.552 11.575c-4.073-11.055-7.016-23.912-8.459-38.563h-7.499a5.078 5.078 0 01-5.076-4.924c-1.24-12.279-1.077-24.748.353-37.183 1.265-11.018 3.535-22.047 6.709-32.92-37.057-12.393-52.61-34.971-57.911-59.42a17.648 17.648 0 01-6.813 1.361c-4.873 0-9.305-1.978-12.529-5.181l-.05-.049" fill="#FF917D"/></g></svg>