<svg width="542" height="664" xmlns="http://www.w3.org/2000/svg" xmlns:xlink="http://www.w3.org/1999/xlink"><defs><path id="a" d="M.06.074h541.136V618H.06z"/><path id="c" d="M.114.961h106.967v106.968H.114z"/></defs><g fill="none" fill-rule="evenodd"><g transform="translate(0 46)"><mask id="b" fill="#fff"><use xlink:href="#a"/></mask><path d="M270.594 611.377c32.084 0 58.096 1.482 58.096 3.313 0 1.826-26.012 3.31-58.096 3.31-32.087 0-58.098-1.484-58.098-3.31 0-1.831 26.011-3.313 58.098-3.313M455.346 85.922C408.067 38.643 342.747 9.398 270.597 9.398c-72.148 0-137.468 29.245-184.748 76.524-47.28 47.282-76.524 112.602-76.524 184.75S38.569 408.141 85.849 455.42c47.28 47.279 112.6 76.525 184.748 76.525s137.468-29.246 184.749-76.525c47.281-47.279 76.526-112.6 76.526-184.748s-29.245-137.47-76.526-184.75zM270.597.074c74.726 0 142.378 30.288 191.345 79.254 48.965 48.966 79.254 116.619 79.254 191.344 0 74.723-30.289 142.377-79.254 191.342-48.969 48.967-116.621 79.256-191.345 79.256-74.723 0-142.376-30.289-191.342-79.256C30.29 413.049 0 345.395 0 270.672c0-74.723 30.29-142.376 79.255-191.344C128.221 30.362 195.874.074 270.597.074z" fill="#1B1038" mask="url(#b)"/></g><path d="M148.331 331.135a5.058 5.058 0 01-5.675 8.373c-8.175-5.559-13.705-6.631-17.087-5.018-2.917 1.393-4.569 5.168-5.082 9.826-.604 5.491.429 11.944 2.875 17.612 1.17 2.713 2.669 5.221 4.46 7.295l-8.303 5.935c-2.199-2.726-4.034-5.865-5.483-9.222-3.105-7.198-4.411-15.496-3.636-22.662-2.313-1.917-4.297-3.918-5.968-5.981-4.928-6.085-7.192-12.707-7.155-19.299.035-6.555 2.352-12.961 6.581-18.676 3.783-5.11 9.122-9.682 15.723-13.291-39.264-55.509-27.602-97.014 8.804-124.351 33.295-25.001 87.836-37.501 142.213-37.501 54.377 0 108.918 12.5 142.213 37.499 36.406 27.338 48.066 68.842 8.803 124.352 6.601 3.609 11.939 8.181 15.722 13.292 4.231 5.715 6.545 12.122 6.582 18.676.036 6.592-2.228 13.213-7.156 19.299-1.67 2.063-3.654 4.064-5.967 5.979.774 7.168-.529 15.466-3.636 22.664-1.321 3.06-2.961 5.939-4.907 8.488l-8.152-6.088c1.473-1.887 2.725-4.07 3.733-6.408 2.447-5.668 3.48-12.121 2.875-17.612-.514-4.658-2.165-8.433-5.083-9.826-3.38-1.611-8.912-.541-17.085 5.018a5.058 5.058 0 01-5.676-8.373c11.64-7.915 20.656-8.9 27.125-5.813 3.248 1.551 5.742 4.048 7.529 7.172.492-.527.955-1.056 1.389-1.592 3.367-4.16 4.916-8.568 4.892-12.867-.023-4.336-1.64-8.69-4.599-12.683-3.76-5.082-9.649-9.547-17.198-12.708l-6.007-2.517 3.904-5.201c39.168-52.16 29.685-90.494-3.16-115.156-31.461-23.624-83.721-35.436-136.141-35.436-52.42 0-104.681 11.813-136.142 35.436-32.846 24.663-42.327 62.996-3.161 115.156l3.907 5.201-6.01 2.517c-7.548 3.161-13.437 7.626-17.199 12.708-2.955 3.993-4.574 8.347-4.597 12.683-.024 4.299 1.523 8.707 4.893 12.867.433.535.895 1.067 1.386 1.592 1.787-3.122 4.283-5.621 7.531-7.172 6.469-3.087 15.483-2.102 27.125 5.813" fill="#1B1038"/><path d="M206.323 527.272c8.904 119.306 116.531 119.306 125.433 0H206.323" fill="#FFF"/><path d="M240.129 612.547c-19.771-13.465-35.65-41.809-38.865-84.898l-.407-5.458h136.366l-.406 5.458c-3.217 43.089-19.096 71.433-38.865 84.898-9.086 6.187-18.987 9.283-28.912 9.283-9.924 0-19.825-3.094-28.911-9.283zm-28.261-80.195c3.792 36.591 17.349 60.498 33.976 71.822 7.338 4.998 15.281 7.498 23.196 7.498 7.916 0 15.859-2.5 23.197-7.498 16.627-11.324 30.183-35.231 33.976-71.822H211.868z" fill="#1B1038"/><path d="M269.04 532.352h-74.868a5.08 5.08 0 01-5.076-4.926c-1.24-12.277-1.077-24.75.352-37.184 1.463-12.73 4.265-25.474 8.255-37.976l7.903 2.416 17.002 3.287c-6.945.076-12.574.172-16.162.287-3.297 10.9-5.638 22.008-6.918 33.137-1.187 10.328-1.455 20.644-.717 30.798H339.27c.738-10.154.469-20.47-.717-30.798-1.281-11.129-3.623-22.237-6.918-33.137l9.35-4.053c3.67 11.881 6.26 23.967 7.648 36.039 1.444 12.557 1.594 25.151.315 37.545a5.068 5.068 0 01-5.039 4.551v.014H269.04m96.037 29.005c-2.371-7.597-2.741-16.962-.098-28.115-5.863-25.656-10.369-51.254-6.285-62.939 5.476-15.67 20.265-13.492 52.185 24.683 8.844 10.577 14.713 21.612 18.002 32.149 3.35 10.74 4.037 21.004 2.471 29.799-1.646 9.228-5.764 16.931-11.906 22.068a28.664 28.664 0 01-9.891 5.398c-6.25 1.95-13.181 2.137-19.722.483-5.391-1.365-10.555-3.99-14.901-7.922-4.346-3.928-7.83-9.121-9.855-15.604zm10.033-26.839c-2.465 9.736-2.279 17.64-.35 23.824 1.461 4.676 3.92 8.373 6.959 11.121 3.039 2.748 6.707 4.598 10.574 5.578 4.752 1.201 9.76 1.076 14.247-.324a18.546 18.546 0 006.398-3.492c4.281-3.58 7.191-9.178 8.412-16.037 1.299-7.289.695-15.909-2.152-25.039-2.914-9.331-8.158-19.163-16.096-28.655-23.4-27.986-32.84-33.595-34.844-27.857-3.336 9.541 1.217 33.949 6.871 58.519l.276 1.198-.295 1.164z" fill="#1B1038"/><path d="M419.78 513.762c10.228 1.601 17.222 11.191 15.621 21.418-1.6 10.228-11.19 17.222-21.418 15.621-10.227-1.6-17.221-11.19-15.621-21.418 1.599-10.227 11.191-17.221 21.418-15.621" fill="#6DE1FF"/><path d="M427.938 524.213a13.629 13.629 0 00-8.934-5.451c-3.74-.584-7.363.4-10.193 2.463a13.629 13.629 0 00-5.449 8.933 13.653 13.653 0 002.463 10.194 13.636 13.636 0 008.881 5.441l.052.008a13.658 13.658 0 0010.192-2.461 13.641 13.641 0 005.443-8.881l.008-.053a13.663 13.663 0 00-2.463-10.193zm-7.385-15.451c6.496 1.015 11.967 4.574 15.561 9.498 3.488 4.783 5.203 10.855 4.365 17.146l-.078.551c-1.016 6.494-4.574 11.965-9.498 15.557-4.781 3.488-10.854 5.205-17.145 4.367l-.55-.08c-6.495-1.014-11.965-4.57-15.557-9.496-3.59-4.922-5.305-11.211-4.289-17.696a23.743 23.743 0 019.496-15.558c4.924-3.59 11.211-5.305 17.695-4.289z" fill="#1B1038"/><path d="M167.893 533.287c9.642 38.102-18.153 52.424-37.859 46.272-23.093-7.209-27.939-46.641 1.056-81.319 55.323-66.164 48.45-15.572 36.803 35.047" fill="#D1D4E3"/><path d="M163.321 558.342c1.929-6.184 2.116-14.088-.349-23.824l-.295-1.164.275-1.198c5.653-24.572 10.205-48.976 6.871-58.519-2.005-5.737-11.445-.129-34.844 27.857-7.937 9.492-13.182 19.324-16.095 28.655-2.848 9.13-3.452 17.75-2.154 25.039 1.222 6.859 4.133 12.457 8.414 16.037a18.537 18.537 0 006.398 3.492c4.485 1.4 9.494 1.525 14.246.324 3.866-.98 7.536-2.83 10.574-5.578 3.04-2.748 5.498-6.445 6.959-11.121zm9.783-25.1c2.641 11.153 2.272 20.518-.099 28.115-2.025 6.483-5.51 11.676-9.857 15.604-4.344 3.932-9.509 6.557-14.899 7.922-6.541 1.654-13.473 1.467-19.722-.483a28.655 28.655 0 01-9.891-5.398c-6.144-5.137-10.26-12.84-11.906-22.068-1.567-8.795-.88-19.059 2.471-29.799 3.288-10.537 9.158-21.572 18-32.149 31.92-38.175 46.709-40.353 52.186-24.683 4.083 11.685-.422 37.283-6.283 62.939z" fill="#1B1038"/><path d="M118.302 513.762c-10.228 1.601-17.222 11.191-15.622 21.418 1.601 10.228 11.191 17.222 21.419 15.621 10.227-1.6 17.221-11.19 15.621-21.418-1.601-10.227-11.191-17.221-21.418-15.621" fill="#6DE1FF"/><path d="M101.968 518.26c3.593-4.924 9.064-8.483 15.56-9.498 6.484-1.016 12.771.699 17.695 4.289a23.748 23.748 0 019.497 15.558c1.015 6.485-.699 12.774-4.289 17.696a23.731 23.731 0 01-15.558 9.496 23.714 23.714 0 01-17.695-4.287 23.748 23.748 0 01-9.499-15.559c-1.014-6.486.699-12.773 4.289-17.695zm17.108.502a13.634 13.634 0 00-8.933 5.451 13.658 13.658 0 00-2.463 10.193 13.633 13.633 0 005.451 8.934 13.664 13.664 0 0010.194 2.461 13.627 13.627 0 008.932-5.449 13.666 13.666 0 002.463-10.194 13.63 13.63 0 00-5.45-8.933 13.673 13.673 0 00-10.194-2.463zm-.222-149.867a17.744 17.744 0 0112.58-5.211c3.803 0 7.328 1.195 10.22 3.23l-.883 13.836 2.961 13.557c-3.206 3.07-7.54 4.959-12.298 4.959-4.874 0-9.305-1.981-12.53-5.184l-.05-.049c-3.22-3.226-5.211-7.67-5.211-12.558 0-4.735 1.867-9.049 4.91-12.25l.301-.33zm12.58 4.949a7.614 7.614 0 00-5.397 2.234l-.212.199a7.607 7.607 0 00-2.023 5.198c0 2.119.846 4.027 2.216 5.396l.019.02a7.595 7.595 0 005.397 2.215c2.12 0 4.028-.848 5.396-2.215v-.02a7.612 7.612 0 002.235-5.396 7.613 7.613 0 00-2.235-5.397 7.613 7.613 0 00-5.396-2.234zm283.725 2.234a7.62 7.62 0 00-5.397-2.234 7.611 7.611 0 00-5.396 2.234h-.02a7.595 7.595 0 00-2.217 5.397 7.6 7.6 0 002.217 5.396l.02.02a7.591 7.591 0 005.396 2.215 7.606 7.606 0 005.196-2.022l.201-.213a7.611 7.611 0 002.234-5.396 7.612 7.612 0 00-2.234-5.397zm-5.397-12.394a17.74 17.74 0 0112.578 5.211 17.736 17.736 0 015.211 12.58c0 4.912-1.992 9.359-5.211 12.578l-.33.303c-3.199 3.043-7.513 4.91-12.248 4.91-4.689 0-8.967-1.832-12.156-4.823l3.781-15.937-1.863-11.582a17.723 17.723 0 0110.238-3.24z" fill="#1B1038"/><path d="M238.898 465.836c-94.597-9.07-106.173-60.643-102.342-104.734 1.085-12.495 3.434-24.248 5.42-34.186.755-3.782 1.46-7.305 1.989-10.328a5.077 5.077 0 015.27-4.195l-4.533 20.396 3.496 16.596c-.62 4.096-1.154 8.312-1.524 12.59-3.333 38.377 6.639 83.115 86.711 93.043a39.108 39.108 0 01-1.913-12.121 5.08 5.08 0 0110.158 0c0 8 3.243 15.244 8.484 20.484 5.241 5.24 12.485 8.484 20.484 8.484 7.998 0 15.242-3.244 20.483-8.484a28.874 28.874 0 008.484-20.484 5.079 5.079 0 1110.158 0c0 4.23-.672 8.304-1.914 12.121 80.072-9.928 90.045-54.666 86.713-93.043-.484-5.555-1.236-11.008-2.1-16.227l2.327-5.461 4.89-11.262c1.887 9.475 3.992 20.457 5 32.077 3.832 44.091-7.744 95.664-102.344 104.734a39.194 39.194 0 01-4.031 4.727c-7.08 7.08-16.865 11.461-27.666 11.461-10.805 0-20.587-4.381-27.666-11.461a39.4 39.4 0 01-4.034-4.727" fill="#1B1038"/><path d="M238.814 295.004c-9.331-9.33-22.225-15.104-36.466-15.104s-27.135 5.774-36.466 15.104c-9.332 9.332-15.104 22.225-15.104 36.467 0 14.24 5.772 27.135 15.104 36.465 9.331 9.332 22.225 15.103 36.466 15.103s27.135-5.773 36.466-15.103c9.332-9.33 15.105-22.225 15.105-36.465 0-14.242-5.773-27.135-15.105-36.467zm-36.466-25.262c17.046 0 32.479 6.91 43.649 18.08 11.17 11.17 18.081 26.604 18.081 43.649 0 17.043-6.911 32.476-18.081 43.646-11.17 11.17-26.603 18.082-43.649 18.082s-32.478-6.91-43.648-18.082c-11.171-11.17-18.081-26.601-18.081-43.646s6.91-32.479 18.081-43.649c11.17-11.17 26.602-18.08 43.648-18.08zm92.85 18.08c11.17-11.17 26.603-18.08 43.648-18.08s32.479 6.91 43.649 18.08c11.17 11.17 18.082 26.604 18.082 43.649s-6.912 32.476-18.082 43.646c-11.17 11.172-26.604 18.082-43.649 18.082s-32.478-6.912-43.648-18.082c-11.17-11.17-18.08-26.603-18.08-43.646 0-17.045 6.91-32.479 18.08-43.649zm43.648-7.922c-14.24 0-27.135 5.774-36.465 15.104-9.332 9.332-15.105 22.225-15.105 36.467 0 14.24 5.773 27.135 15.105 36.465 9.33 9.33 22.225 15.103 36.465 15.103 14.242 0 27.135-5.771 36.467-15.103 9.33-9.33 15.104-22.225 15.104-36.465 0-14.242-5.774-27.135-15.104-36.467-9.332-9.33-22.225-15.104-36.467-15.104z" fill="#1B1038"/><path d="M176.804 281.586c1.944-7.365 2.87-16.291 2.564-27.104a5.07 5.07 0 015.356-5.365l1.89.095 1.885.014c6.91 0 13.537-1.138 19.698-3.23a60.942 60.942 0 0012.515-5.908 71.791 71.791 0 01-9.156-10.941 5.059 5.059 0 011.349-7.024 5.059 5.059 0 017.024 1.35 61.44 61.44 0 0011.941 13.029c.13.095.255.196.377.305a61.342 61.342 0 009.726 6.402c8.529 4.518 18.272 7.076 28.626 7.076 10.353 0 20.095-2.558 28.624-7.076a61.333 61.333 0 009.725-6.402c.121-.109.248-.21.377-.305a61.413 61.413 0 0011.941-13.029 5.058 5.058 0 118.373 5.674 71.965 71.965 0 01-9.156 10.941 60.95 60.95 0 0012.516 5.908 61.153 61.153 0 0019.697 3.23l1.885-.014 1.89-.095a5.068 5.068 0 015.356 5.358c-.319 11.297.703 20.536 2.83 28.086l-11.332-4.084c-1.051-5.683-1.629-12.024-1.676-19.1a71.297 71.297 0 01-21.906-3.775 71.06 71.06 0 01-17.342-8.696 71.052 71.052 0 01-41.802 13.539 71.062 71.062 0 01-41.806-13.539 71.053 71.053 0 01-17.341 8.696 71.31 71.31 0 01-21.908 3.775c-.04 6.397-.517 12.189-1.384 17.439l-11.356 4.77m93.793 215.172a5.086 5.086 0 10.002-10.172 5.086 5.086 0 00-.002 10.172m0 20.348c2.81 0 5.087-2.28 5.087-5.088a5.084 5.084 0 00-5.087-5.084 5.084 5.084 0 00-5.085 5.084 5.088 5.088 0 005.085 5.088" fill="#1B1038"/><path d="M270.598 134.334c-52.42 0-104.681 11.813-136.142 35.436-32.846 24.663-42.327 62.996-3.161 115.156l3.907 5.201-6.01 2.517c-7.548 3.161-13.437 7.626-17.199 12.708-2.955 3.993-4.574 8.347-4.597 12.683-.024 4.299 1.523 8.707 4.893 12.867l1.386 1.592c1.787-3.122 4.283-5.621 7.531-7.172 4.999-2.384 11.516-2.34 19.589 1.454 1.141-15.172 7.769-28.819 17.905-38.954a61.838 61.838 0 0119.558-13.203c.93-5.853 1.326-12.528 1.11-20.137a5.07 5.07 0 015.356-5.365l1.89.095 1.885.014c6.91 0 13.537-1.138 19.698-3.23a60.942 60.942 0 0012.515-5.908 71.791 71.791 0 01-9.156-10.941 5.059 5.059 0 011.349-7.024 5.059 5.059 0 017.024 1.35 61.44 61.44 0 0011.941 13.029l.377.305a61.342 61.342 0 009.726 6.402c8.529 4.518 18.272 7.076 28.626 7.076 10.353 0 20.095-2.558 28.624-7.076a61.333 61.333 0 009.725-6.402l.377-.305a61.413 61.413 0 0011.941-13.029 5.058 5.058 0 118.373 5.674 71.965 71.965 0 01-9.156 10.941 60.95 60.95 0 0012.516 5.908 61.153 61.153 0 0019.697 3.23l1.885-.014 1.89-.095a5.068 5.068 0 015.356 5.358c-.215 7.611.179 14.289 1.109 20.144a61.853 61.853 0 0119.559 13.203c10.134 10.135 16.763 23.78 17.906 38.954 8.072-3.794 14.59-3.838 19.588-1.454 3.248 1.551 5.742 4.048 7.529 7.172l1.389-1.592c3.367-4.16 4.916-8.568 4.892-12.867-.023-4.336-1.64-8.69-4.599-12.683-3.76-5.082-9.649-9.547-17.198-12.708l-6.007-2.517 3.904-5.201c39.168-52.16 29.685-90.494-3.16-115.156-31.461-23.624-83.721-35.436-136.141-35.436" fill="#D1D4E3"/><path d="M303.944 252.178a71.052 71.052 0 01-33.345 8.267 71.062 71.062 0 01-41.806-13.539 71.053 71.053 0 01-17.341 8.696 71.31 71.31 0 01-21.908 3.775c-.026 4.197-.24 8.136-.63 11.83a61.922 61.922 0 0113.434-1.465c17.046 0 32.479 6.91 43.649 18.08 11.17 11.17 18.081 26.604 18.081 43.649 0 17.043-6.911 32.476-18.081 43.646-11.17 11.17-26.603 18.082-43.649 18.082s-32.478-6.91-43.648-18.082a61.862 61.862 0 01-11.721-16.326c-.11 1.057-.213 2.119-.305 3.184-3.333 38.377 6.639 83.115 86.711 93.043a39.108 39.108 0 01-1.913-12.121 5.08 5.08 0 0110.158 0c0 8 3.243 15.244 8.484 20.484 5.241 5.24 12.485 8.484 20.484 8.484 7.998 0 15.242-3.244 20.483-8.484a28.874 28.874 0 008.484-20.484 5.079 5.079 0 1110.158 0c0 4.23-.672 8.304-1.914 12.121 80.072-9.928 90.045-54.666 86.713-93.043a164.957 164.957 0 00-.309-3.184 61.852 61.852 0 01-11.718 16.326c-11.17 11.172-26.604 18.082-43.649 18.082s-32.478-6.912-43.648-18.082c-11.17-11.17-18.08-26.603-18.08-43.646 0-17.045 6.91-32.479 18.08-43.649 11.17-11.17 26.603-18.08 43.648-18.08 4.613 0 9.11.505 13.434 1.465-.389-3.695-.604-7.633-.631-11.83a71.297 71.297 0 01-21.906-3.775 71.06 71.06 0 01-17.342-8.696 71.41 71.41 0 01-8.457 5.272" fill="#FBD0A1"/><path d="M338.846 279.9c-14.24 0-27.135 5.774-36.465 15.104-9.332 9.332-15.105 22.225-15.105 36.467 0 14.24 5.773 27.135 15.105 36.465 9.33 9.33 22.225 15.103 36.465 15.103 14.242 0 27.135-5.771 36.467-15.103 9.33-9.33 15.104-22.225 15.104-36.465 0-14.242-5.774-27.135-15.104-36.467-9.332-9.33-22.225-15.104-36.467-15.104m-84.927 51.571c0-14.242-5.773-27.135-15.105-36.467-9.331-9.33-22.225-15.104-36.466-15.104s-27.135 5.774-36.466 15.104c-9.332 9.332-15.104 22.225-15.104 36.467 0 14.24 5.772 27.135 15.104 36.465 9.331 9.332 22.225 15.103 36.466 15.103s27.135-5.773 36.466-15.103c9.332-9.33 15.105-22.225 15.105-36.465" fill="#FFF"/><path d="M401.321 337.727c1.344 7.267 2.605 15.162 3.318 23.375.096 1.082.18 2.168.254 3.257a17.81 17.81 0 014.869-.675c2.324 0 4.547.447 6.582 1.259a32.594 32.594 0 001.489-3.015c2.447-5.668 3.48-12.121 2.875-17.612-.514-4.658-2.165-8.433-5.083-9.826-2.982-1.422-7.636-.756-14.304 3.237m-264.765 23.375c.713-8.213 1.972-16.108 3.317-23.377-6.667-3.991-11.322-4.659-14.304-3.235-2.917 1.393-4.569 5.168-5.082 9.826-.604 5.491.429 11.944 2.875 17.612a32.091 32.091 0 001.488 3.015 17.735 17.735 0 016.584-1.259c1.688 0 3.321.236 4.868.675.075-1.089.159-2.175.254-3.257" fill="#FBD0A1"/><path d="M135.937 375.313a7.598 7.598 0 00-4.503-1.469 7.614 7.614 0 00-5.397 2.234l-.212.199a7.607 7.607 0 00-2.023 5.198c0 2.119.846 4.027 2.216 5.396l.019.02a7.595 7.595 0 005.397 2.215 7.609 7.609 0 005.116-1.95c-.407-3.943-.596-7.9-.613-11.843m269.321 0c-.017 3.941-.207 7.9-.613 11.843a7.598 7.598 0 005.117 1.95 7.606 7.606 0 005.196-2.022l.201-.213a7.611 7.611 0 002.234-5.396 7.612 7.612 0 00-2.234-5.397 7.62 7.62 0 00-5.397-2.234 7.601 7.601 0 00-4.504 1.469" fill="#6DE1FF"/><path d="M223.264 458.096c-.436 4.783-.155 9.08.858 12.67 1.045 3.715 2.879 6.619 5.503 8.41 2.668 1.82 6.338 2.617 11.045 2.105 5.209-.566 11.523-2.699 18.981-6.73l7.166 3.314 2.223-.482v3.492c-10.63 6.373-19.735 9.664-27.299 10.484-7.243.79-13.19-.646-17.831-3.81-4.684-3.195-7.86-8.037-9.552-14.043-1.42-5.043-1.781-10.936-1.102-17.344l10.008 1.934" fill="#1B1038"/><path d="M314.817 458.096c.435 4.783.154 9.08-.858 12.67-1.046 3.715-2.88 6.619-5.503 8.41-2.668 1.82-6.338 2.617-11.045 2.105-5.209-.566-11.524-2.699-18.983-6.73l-7.165 3.314-2.223-.482v3.492c10.63 6.373 19.734 9.664 27.298 10.484 7.245.79 13.192-.646 17.832-3.81 4.684-3.195 7.86-8.037 9.551-14.043 1.42-5.043 1.781-10.936 1.104-17.344l-10.008 1.934" fill="#1B1038"/><path d="M229.625 479.176c2.668 1.82 6.338 2.617 11.045 2.105 3.564-.386 7.643-1.507 12.255-3.466a39.24 39.24 0 01-9.993-7.252 39.4 39.4 0 01-4.034-4.727 241.865 241.865 0 01-15.803-2.023c.094 2.527.436 4.859 1.027 6.953 1.045 3.715 2.879 6.619 5.503 8.41" fill="#FFF"/><path d="M243.174 480.902c2.937-.56 6.186-1.574 9.751-3.087a39.24 39.24 0 01-9.993-7.252 39.4 39.4 0 01-4.034-4.727 247.36 247.36 0 01-12.507-1.514c.138 2.16.463 4.17.978 5.996 1.046 3.715 2.881 6.62 5.505 8.411 2.525 1.722 5.948 2.527 10.3 2.173m55.09-10.339a39.212 39.212 0 01-11.424 7.939c3.926 1.537 7.448 2.439 10.571 2.779 4.707.512 8.377-.285 11.045-2.105 2.623-1.791 4.457-4.695 5.503-8.41.551-1.957.885-4.125 1.006-6.467a246.52 246.52 0 01-12.67 1.537 39.194 39.194 0 01-4.031 4.727" fill="#FF917D"/><path d="M326.213 532.352h-9.898a214.947 214.947 0 01-2.719 16.591c-1.435 7.059-3.207 14.086-5.263 21.079a5.087 5.087 0 01-4.008 3.572c-26.067 4.48-44.503 4.48-70.569 0a5.08 5.08 0 01-4.007-3.572c-2.059-6.993-3.83-14.02-5.265-21.079a213.984 213.984 0 01-2.719-16.591h-9.897c3.792 36.591 17.349 60.498 33.976 71.822 7.338 4.998 15.281 7.498 23.196 7.498 7.916 0 15.859-2.5 23.197-7.498 16.627-11.324 30.183-35.231 33.976-71.822" fill="#6DE1FF"/><path d="M142.042 575.709c-8.457-2.879-14.381-10.156-16.973-19.939l-.196.031a23.75 23.75 0 01-8.05-.113c1.272 6.63 4.145 12.044 8.321 15.537a18.537 18.537 0 006.398 3.492c3.319 1.035 6.924 1.375 10.5.992m-13.234-65.986c1.239.42 2.438.939 3.584 1.552 2.957-5.585 6.701-11.199 11.294-16.691 8.279-9.902 15.165-17.189 20.851-22.252-5.237 2.422-14.512 11.166-29.558 29.162a95.3 95.3 0 00-6.171 8.229" fill="#FFF"/><path d="M368.258 473.637c-3.336 9.541 1.217 33.949 6.871 58.519l.276 1.198-.295 1.164c-2.465 9.736-2.279 17.64-.35 23.824 1.461 4.676 3.92 8.373 6.959 11.121 3.039 2.748 6.707 4.598 10.574 5.578 4.752 1.201 9.76 1.076 14.247-.324a18.546 18.546 0 006.398-3.492c4.176-3.493 7.049-8.907 8.32-15.537a23.762 23.762 0 01-7.5.193l-.55-.08c-6.495-1.014-11.965-4.57-15.557-9.496-3.59-4.922-5.305-11.211-4.289-17.696a23.743 23.743 0 019.496-15.558 23.896 23.896 0 016.416-3.328 95.73 95.73 0 00-6.172-8.229c-23.4-27.986-32.84-33.595-34.844-27.857" fill="#D1D4E3"/><path d="M375.405 533.354l-.295 1.164c-2.465 9.736-2.279 17.64-.35 23.824 1.461 4.676 3.92 8.373 6.959 11.121 3.039 2.748 6.707 4.598 10.574 5.578 4.752 1.201 9.76 1.076 14.247-.324.414-.129.822-.274 1.222-.428a26.747 26.747 0 01-5.439-.375c-3.932-.676-7.735-2.236-10.975-4.742-3.244-2.504-5.982-5.998-7.801-10.547-2.402-6.016-3.199-13.881-1.498-23.779l.205-1.184-.367-1.172c-7.541-24.06-13.97-48.039-11.387-57.812.432-1.633 1.506-2.436 3.379-2.184-3.115-1.551-4.879-.982-5.621 1.143-3.336 9.541 1.217 33.949 6.871 58.519l.276 1.198" fill="#FFF"/><path d="M221.254 527.768a5.065 5.065 0 0110.08-.993c.666 6.719 1.707 13.434 3.071 20.145a239.785 239.785 0 004.185 17.187c21.702 3.415 39.198 3.415 60.901 0a240.299 240.299 0 004.183-17.187c1.366-6.711 2.405-13.426 3.073-20.145a5.065 5.065 0 015.535-4.544 5.065 5.065 0 014.543 5.537c-.7 7.054-1.793 14.115-3.229 21.175-1.435 7.059-3.207 14.086-5.263 21.079a5.087 5.087 0 01-4.008 3.572c-26.067 4.48-44.503 4.48-70.569 0a5.08 5.08 0 01-4.007-3.572c-2.059-6.993-3.83-14.02-5.265-21.079-1.436-7.06-2.53-14.121-3.23-21.175" fill="#1B1038"/><path d="M234.405 546.92a239.785 239.785 0 004.185 17.187c21.702 3.415 39.198 3.415 60.901 0a240.299 240.299 0 004.183-17.187 205.712 205.712 0 002.434-14.568h-74.136a206.28 206.28 0 002.433 14.568" fill="#FF917D"/><path d="M306.108 532.352h-4.711a206.96 206.96 0 01-1.326 12.533 238.308 238.308 0 01-3.051 17.424c-9.777 2.203-18.728 3.638-27.649 4.359 9.69-.019 19.391-.873 30.12-2.561a240.299 240.299 0 004.183-17.187 205.712 205.712 0 002.434-14.568m-152.82-238.35c-43.223-47.256-54.136-91.471-.903-127.902 32.467-22.221 85.196-31.729 137.565-29.431 26.797 1.177 53.418 5.44 77.097 12.672-28.291-10.005-62.336-15.007-96.449-15.007-52.42 0-104.681 11.813-136.142 35.436-32.846 24.663-42.327 62.996-3.161 115.156l3.907 5.201-6.01 2.517c-7.548 3.161-13.437 7.626-17.199 12.708-2.955 3.993-4.574 8.347-4.597 12.683-.024 4.299 1.523 8.707 4.893 12.867l1.386 1.592c1.787-3.122 4.283-5.621 7.531-7.172.224-.105.452-.209.682-.306-13.679-12.643 10.941-28.819 31.4-31.014" fill="#FFF"/><g transform="translate(217)"><mask id="d" fill="#fff"><use xlink:href="#c"/></mask><path d="M46.111 6.611C19.694 10.746 1.628 35.515 5.763 61.931c4.134 26.418 28.904 44.484 55.32 40.348 26.417-4.133 44.484-28.903 40.349-55.32C97.297 20.543 72.528 2.476 46.111 6.611" fill="#6DE1FF" mask="url(#d)"/><path d="M10.394 22.94C18.459 11.88 30.746 3.894 45.337 1.611c14.578-2.282 28.71 1.566 39.767 9.63 11.059 8.067 19.045 20.353 21.328 34.944l.078.529c2.11 14.391-1.742 28.314-9.709 39.238-8.066 11.059-20.351 19.045-34.941 21.328l-.531.079c-14.391 2.108-28.315-1.743-39.238-9.71C11.032 89.583 3.045 77.297.763 62.708l-.079-.53c-2.108-14.392 1.742-28.315 9.71-39.238zm36.492-11.329c-11.826 1.851-21.783 8.32-28.319 17.281-6.538 8.963-9.655 20.429-7.803 32.265l.007.048c1.858 11.803 8.324 21.743 17.273 28.27 8.963 6.538 20.429 9.656 32.263 7.804l.092-.014c11.787-1.868 21.709-8.328 28.228-17.266 6.54-8.964 9.657-20.429 7.805-32.264l-.008-.045C94.565 35.884 88.1 25.943 79.151 19.415c-8.965-6.538-20.43-9.656-32.265-7.804z" fill="#1B1038" mask="url(#d)"/></g><path d="M308.243 43.092c3.795 24.253-12.791 46.995-37.045 50.79a44.237 44.237 0 01-23.816-2.815 43.21 43.21 0 0029.925 6.212l.092-.014c11.787-1.868 21.709-8.328 28.228-17.266 6.54-8.964 9.657-20.429 7.805-32.264l-.008-.045c-1.75-11.11-7.578-20.568-15.718-27.085a44.25 44.25 0 0110.537 22.487" fill="#FFF"/><path fill="#1B1038" d="M265.517 128.733h10.159v-24.925h-10.159z"/><path d="M338.848 287.822c-12.053 0-22.967 4.887-30.865 12.785-7.899 7.897-12.785 18.809-12.785 30.863 0 12.054 4.886 22.968 12.785 30.862 7.898 7.899 18.812 12.785 30.865 12.785 12.053 0 22.963-4.885 30.861-12.785 7.899-7.894 12.786-18.808 12.786-30.862 0-12.054-4.887-22.966-12.786-30.863-7.898-7.898-18.808-12.785-30.861-12.785m-136.501 0c12.053 0 22.966 4.887 30.864 12.785 7.898 7.897 12.785 18.809 12.785 30.863 0 12.054-4.887 22.968-12.785 30.862-7.898 7.899-18.811 12.785-30.864 12.785-12.054 0-22.964-4.885-30.863-12.785-7.898-7.894-12.784-18.808-12.784-30.862 0-12.054 4.886-22.966 12.784-30.863 7.899-7.898 18.809-12.785 30.863-12.785" fill="#6DE1FF"/><path fill="#1B1038" d="M260.441 336.551h21.794v-10.16h-21.794z"/><path d="M252.127 392.207c-27.189 30.383 64.125 30.383 36.938 0-9.693 4.604-27.244 4.604-36.938 0" fill="#FF917D"/><path d="M246.77 413.035c-6.376-5.707-7.648-13.789 1.322-23.972a5.12 5.12 0 016.22-1.481c4.139 1.965 10.159 2.949 16.285 2.949 6.124 0 12.144-.984 16.284-2.949a5.13 5.13 0 015.991 1.221c9.22 10.304 7.982 18.476 1.55 24.232-5.277 4.723-14.654 7.086-23.827 7.086-9.175 0-18.55-2.363-23.825-7.086zm7.036-14.676c-2.117 3.295-1.857 5.606-.226 7.065 3.307 2.959 10.065 4.441 17.015 4.441 6.95 0 13.708-1.482 17.017-4.441 1.633-1.459 1.89-3.772-.225-7.065-4.969 1.618-10.916 2.43-16.79 2.43-5.878 0-11.823-.812-16.791-2.43zm-69.696-77.407a5.122 5.122 0 01-4.065-5.99 5.122 5.122 0 015.99-4.065c7.508 1.447 14.779 3.679 21.813 6.623 6.999 2.925 13.797 6.574 20.398 10.871a5.115 5.115 0 011.504 7.072 5.114 5.114 0 01-7.072 1.502c-6.055-3.941-12.306-7.295-18.757-9.991-6.413-2.683-13.015-4.712-19.811-6.022" fill="#1B1038"/><path d="M186.757 351.424a5.12 5.12 0 01-5.207-8.813c6.579-3.916 13.489-7.084 20.689-9.558 7.183-2.469 14.686-4.267 22.462-5.444a5.124 5.124 0 111.522 10.137c-7.161 1.084-14.059 2.736-20.657 5.004-6.587 2.264-12.87 5.141-18.809 8.674m168.398-40.527a5.121 5.121 0 015.99 4.065 5.122 5.122 0 01-4.064 5.99c-6.797 1.31-13.399 3.339-19.811 6.022-6.451 2.696-12.699 6.05-18.758 9.991a5.111 5.111 0 11-5.568-8.574c6.605-4.299 13.398-7.946 20.398-10.871 7.033-2.944 14.305-5.176 21.813-6.623" fill="#1B1038"/><path d="M359.641 342.611a5.12 5.12 0 011.803 7.01 5.12 5.12 0 01-7.01 1.803c-5.939-3.533-12.223-6.41-18.807-8.674-6.601-2.268-13.498-3.92-20.66-5.004a5.122 5.122 0 01-4.306-5.828 5.124 5.124 0 015.828-4.309c7.777 1.177 15.279 2.975 22.465 5.444 7.199 2.474 14.107 5.642 20.687 9.558" fill="#1B1038"/><path d="M270.598 517.106a5.086 5.086 0 110-10.172 5.086 5.086 0 010 10.172zm0-20.348a5.086 5.086 0 110-10.172 5.086 5.086 0 010 10.172zm-71.07-5.365c-1.187 10.328-1.455 20.646-.717 30.798H339.27c.738-10.152.469-20.47-.717-30.798-1.176-10.219-3.246-20.42-6.131-30.461-2.349.57-4.771 1.105-7.267 1.601-.022 3.963-.498 7.653-1.434 10.973-1.691 6.006-4.867 10.848-9.551 14.043-4.64 3.164-10.587 4.6-17.832 3.81-7.095-.769-15.548-3.714-25.344-9.337l-.396.002a39.53 39.53 0 01-3.28-.135c-9.895 5.711-18.424 8.695-25.577 9.47-7.243.79-13.19-.646-17.831-3.81-4.684-3.195-7.86-8.037-9.552-14.043-.985-3.502-1.461-7.412-1.433-11.619a173.196 173.196 0 01-7.057-1.686c-2.993 10.276-5.137 20.725-6.34 31.192z" fill="#FFF"/><path d="M127.202 494.986c31.918-38.175 46.708-40.353 52.185-24.683 4.083 11.685-.422 37.283-6.283 62.939 2.411 10.184 2.314 18.879.472 26.096a259.209 259.209 0 0036.554 11.574c-4.073-11.055-7.017-23.912-8.46-38.562h-7.499a5.08 5.08 0 01-5.076-4.924c-1.239-12.279-1.076-24.748.353-37.184 1.266-11.017 3.534-22.047 6.71-32.92-37.057-12.392-52.61-34.97-57.912-59.42a17.647 17.647 0 01-6.812 1.362c-4.874 0-9.305-1.979-12.53-5.182l-.049-.049c-3.221-3.226-5.211-7.67-5.211-12.558 0-3.76 1.177-7.256 3.186-10.139a42.393 42.393 0 01-2.793-5.398c-3.106-7.2-4.412-15.498-3.637-22.664-2.313-1.917-4.297-3.918-5.968-5.981-4.928-6.086-7.191-12.707-7.155-19.299.035-6.555 2.351-12.961 6.581-18.676 3.783-5.11 9.122-9.682 15.723-13.291-39.263-55.509-27.603-97.013 8.804-124.351 32.258-24.222 84.459-36.71 137.132-37.465v-16.52c-9.697-.918-18.794-4.476-26.426-10.042-11.059-8.065-19.045-20.353-21.328-34.941l-.079-.53a55.63 55.63 0 01-.184-1.381c-50.847 10.498-96.293 35.768-131.651 71.125-47.28 47.282-76.524 112.602-76.524 184.75S38.569 454.141 85.849 501.42a262.588 262.588 0 0017.066 15.625 23.732 23.732 0 0114.515-8.268c2.73-4.63 5.978-9.253 9.772-13.791m275.746-97.082c-5.436 25.065-21.647 48.166-60.76 60.338 3.037 10.574 5.213 21.291 6.445 32 1.444 12.557 1.594 25.151.315 37.545a5.068 5.068 0 01-5.039 4.551v.012h-7.498c-1.479 14.998-4.528 28.115-8.752 39.345a259.366 259.366 0 0037.146-11.25c-2.125-7.431-2.363-16.492.172-27.203-5.861-25.656-10.367-51.254-6.283-62.939 5.476-15.67 20.265-13.492 52.185 24.683 3.795 4.538 7.041 9.161 9.772 13.791a23.734 23.734 0 0115.724 9.85 262.92 262.92 0 0018.971-17.207c47.281-47.279 76.526-112.6 76.526-184.748s-29.245-137.47-76.526-184.75c-35.353-35.354-80.797-60.624-131.638-71.123a53.458 53.458 0 01-9.907 25.153c-8.066 11.059-20.353 19.045-34.941 21.327l-.531.08c-.885.13-1.77.236-2.653.322v16.53c52.674.754 104.877 13.243 137.135 37.463 36.406 27.338 48.068 68.842 8.803 124.352 6.601 3.609 11.939 8.181 15.722 13.292 4.231 5.715 6.545 12.122 6.582 18.676.036 6.592-2.228 13.213-7.156 19.299-1.67 2.063-3.654 4.064-5.969 5.979.776 7.168-.529 15.466-3.634 22.666a42.779 42.779 0 01-2.785 5.386 17.73 17.73 0 013.177 10.151c0 4.912-1.992 9.359-5.211 12.578l-.328.303c-3.201 3.043-7.515 4.908-12.25 4.908a17.69 17.69 0 01-6.814-1.36" fill="#FF917D"/></g></svg>