<svg width="582" height="604" xmlns="http://www.w3.org/2000/svg" xmlns:xlink="http://www.w3.org/1999/xlink"><defs><path id="a" d="M.347.258h73.066v73.067H.347z"/><path id="c" d="M0 .551h581.762V382H0z"/></defs><g fill="none" fill-rule="evenodd"><path d="M290.878 448.639c21.915 0 39.684 1.014 39.684 2.264 0 1.248-17.769 2.26-39.684 2.26-21.917 0-39.686-1.012-39.686-2.26 0-1.25 17.769-2.264 39.686-2.264M417.08 89.714c-32.297-32.295-76.916-52.271-126.199-52.271-49.282 0-93.901 19.976-126.197 52.271-32.296 32.297-52.273 76.917-52.273 126.198 0 49.283 19.977 93.903 52.273 126.196 32.296 32.297 76.915 52.274 126.197 52.274 49.283 0 93.902-19.977 126.199-52.274 32.293-32.293 52.271-76.913 52.271-126.196 0-49.284-19.978-93.903-52.271-126.198zM290.881 31.072c51.042 0 97.256 20.69 130.704 54.138 33.444 33.448 54.135 79.659 54.135 130.702 0 51.042-20.691 97.255-54.135 130.702-33.451 33.447-79.662 54.139-130.704 54.139s-97.254-20.692-130.701-54.139c-33.448-33.447-54.137-79.66-54.137-130.702 0-51.041 20.689-97.253 54.137-130.702 33.447-33.448 79.659-54.138 130.701-54.138z" fill="#1B1038"/><path d="M207.363 225.792a3.455 3.455 0 01-3.876 5.719c-5.584-3.797-9.362-4.53-11.671-3.428-1.992.952-3.121 3.53-3.473 6.713-.411 3.75.295 8.159 1.965 12.028.799 1.854 1.823 3.568 3.047 4.984l-5.672 4.055c-1.502-1.863-2.756-4.006-3.745-6.299-2.122-4.917-3.013-10.585-2.483-15.482a29.108 29.108 0 01-4.078-4.084c-3.365-4.157-4.911-8.681-4.886-13.182.022-4.478 1.605-8.854 4.493-12.756 2.585-3.493 6.232-6.615 10.742-9.081-26.821-37.917-18.856-66.267 6.013-84.941 22.743-17.077 59.999-25.616 97.142-25.616 37.145 0 74.4 8.539 97.142 25.615 24.869 18.673 32.835 47.024 6.015 84.942 4.508 2.464 8.154 5.588 10.738 9.081 2.89 3.902 4.473 8.278 4.497 12.756.023 4.501-1.522 9.025-4.889 13.182a29.09 29.09 0 01-4.076 4.084c.53 4.895-.361 10.565-2.483 15.482-.901 2.09-2.022 4.055-3.352 5.798l-5.567-4.159c1.006-1.289 1.859-2.781 2.548-4.379 1.671-3.869 2.378-8.278 1.963-12.028-.351-3.183-1.478-5.761-3.47-6.713-2.31-1.1-6.088-.369-11.671 3.428a3.458 3.458 0 01-4.8-.922 3.457 3.457 0 01.922-4.797c7.953-5.407 14.109-6.079 18.53-3.971 2.216 1.06 3.919 2.765 5.142 4.898.335-.358.652-.721.947-1.086 2.301-2.842 3.36-5.854 3.343-8.79-.015-2.96-1.122-5.935-3.14-8.663-2.569-3.471-6.592-6.521-11.748-8.681l-4.105-1.719 2.666-3.552c26.756-35.631 20.279-61.816-2.157-78.662-21.491-16.137-57.187-24.206-92.995-24.206-35.807 0-71.506 8.071-92.994 24.208-22.437 16.846-28.913 43.03-2.16 78.66l2.669 3.552-4.105 1.719c-5.157 2.16-9.179 5.21-11.749 8.681-2.018 2.728-3.124 5.703-3.14 8.663-.016 2.937 1.04 5.948 3.341 8.79.296.364.612.729.948 1.086 1.221-2.132 2.925-3.838 5.144-4.898 4.42-2.108 10.576-1.436 18.528 3.971m62.706 192.226c-13.505-9.199-24.352-28.56-26.548-57.994l-.279-3.724h93.15l-.28 3.724c-2.195 29.434-13.043 48.795-26.547 57.994-6.206 4.229-12.969 6.34-19.749 6.34-6.778 0-13.541-2.111-19.747-6.34zm-19.305-54.781c2.591 24.996 11.851 41.326 23.208 49.063 5.013 3.414 10.438 5.121 15.844 5.121 5.409 0 10.835-1.707 15.847-5.121 11.356-7.737 20.617-24.067 23.207-49.063h-78.106z" fill="#1B1038"/><path d="M289.816 363.237h-51.139a3.473 3.473 0 01-3.469-3.363c-.845-8.387-.733-16.907.242-25.399.999-8.696 2.913-17.404 5.638-25.943l5.399 1.653 11.614 2.242c-4.744.054-8.589.119-11.04.198-2.251 7.445-3.851 15.034-4.727 22.633-.81 7.057-.993 14.104-.488 21.042h95.944c.502-6.938.32-13.985-.49-21.042-.877-7.599-2.474-15.188-4.725-22.633l6.385-2.769c2.508 8.115 4.276 16.37 5.224 24.619.985 8.575 1.092 17.18.218 25.647a3.467 3.467 0 01-3.444 3.107v.008h-51.142m65.601 19.814c-1.619-5.191-1.873-11.585-.066-19.205-4.008-17.523-7.082-35.009-4.293-42.994 3.74-10.702 13.844-9.217 35.647 16.864 6.041 7.224 10.048 14.759 12.295 21.959 2.289 7.335 2.759 14.345 1.688 20.355-1.124 6.303-3.937 11.564-8.134 15.074a19.56 19.56 0 01-6.756 3.688c-4.267 1.33-9.002 1.461-13.469.33-3.681-.934-7.21-2.729-10.179-5.412-2.97-2.684-5.35-6.229-6.733-10.659zm6.854-18.334c-1.684 6.651-1.558 12.049-.239 16.274.997 3.193 2.678 5.719 4.753 7.596 2.078 1.877 4.582 3.142 7.224 3.81 3.246.822 6.665.736 9.732-.221a12.593 12.593 0 004.37-2.386c2.926-2.446 4.912-6.268 5.747-10.953.886-4.979.474-10.868-1.472-17.104-1.988-6.373-5.573-13.088-10.994-19.572-15.984-19.119-22.433-22.95-23.801-19.03-2.277 6.518.83 23.188 4.694 39.975l.188.817-.202.794z" fill="#1B1038"/><path d="M392.784 350.54c6.986 1.092 11.765 7.644 10.671 14.631-1.095 6.986-7.646 11.761-14.632 10.671-6.986-1.095-11.763-7.646-10.671-14.632 1.096-6.987 7.646-11.762 14.632-10.67" fill="#6DE1FF"/><path d="M398.357 357.678a9.31 9.31 0 00-6.103-3.722 9.325 9.325 0 00-6.962 1.681 9.318 9.318 0 00-3.723 6.102 9.345 9.345 0 007.749 10.68l.035.006a9.344 9.344 0 0010.682-7.745l.004-.039a9.335 9.335 0 00-1.682-6.963zm-5.043-10.554a16.214 16.214 0 0110.626 6.488 16.194 16.194 0 012.983 11.713l-.054.375a16.215 16.215 0 01-6.487 10.627 16.19 16.19 0 01-11.709 2.984l-.377-.056a16.215 16.215 0 01-10.629-6.485 16.2 16.2 0 01-2.928-12.09 16.225 16.225 0 016.485-10.627 16.217 16.217 0 0112.09-2.929z" fill="#1B1038"/><path d="M220.726 363.876c6.586 26.027-12.4 35.81-25.86 31.609-15.775-4.924-19.085-31.861.721-55.549 37.79-45.195 33.095-10.635 25.139 23.94" fill="#D1D4E3"/><path d="M217.604 380.991c1.316-4.225 1.444-9.623-.24-16.274l-.2-.794.188-.817c3.861-16.787 6.97-33.457 4.692-39.975-1.368-3.917-7.817-.089-23.801 19.03-5.421 6.484-9.003 13.199-10.994 19.572-1.945 6.236-2.357 12.125-1.472 17.104.836 4.685 2.824 8.507 5.747 10.953a12.611 12.611 0 004.372 2.386c3.063.957 6.484 1.043 9.73.221 2.642-.668 5.149-1.933 7.224-3.81 2.076-1.877 3.756-4.403 4.754-7.596zm6.681-17.145c1.804 7.62 1.552 14.014-.068 19.205-1.383 4.43-3.763 7.975-6.731 10.659-2.969 2.683-6.496 4.478-10.179 5.412-4.468 1.131-9.203 1-13.471-.33a19.57 19.57 0 01-6.756-3.688c-4.197-3.51-7.009-8.771-8.133-15.074-1.071-6.01-.6-13.02 1.688-20.355 2.245-7.2 6.255-14.735 12.295-21.959 21.804-26.077 31.905-27.566 35.647-16.864 2.79 7.985-.288 25.471-4.292 42.994z" fill="#1B1038"/><path d="M186.852 350.54c-6.987 1.092-11.764 7.644-10.671 14.631 1.092 6.986 7.644 11.761 14.63 10.671 6.986-1.095 11.764-7.646 10.67-14.632-1.093-6.987-7.644-11.762-14.629-10.67" fill="#6DE1FF"/><path d="M175.694 353.612a16.222 16.222 0 0110.629-6.488 16.209 16.209 0 0112.086 2.929 16.212 16.212 0 016.487 10.627 16.197 16.197 0 01-2.929 12.09 16.21 16.21 0 01-10.628 6.485 16.194 16.194 0 01-12.086-2.928 16.224 16.224 0 01-6.488-10.629 16.191 16.191 0 012.929-12.086zm11.687.344a9.315 9.315 0 00-6.103 3.722 9.33 9.33 0 00-1.682 6.963 9.322 9.322 0 003.724 6.104 9.327 9.327 0 006.963 1.68 9.305 9.305 0 006.102-3.723 9.331 9.331 0 001.681-6.963 9.309 9.309 0 00-3.724-6.102 9.32 9.32 0 00-6.961-1.681zm-.152-102.372a12.118 12.118 0 018.592-3.559c2.598 0 5.006.816 6.982 2.206l-.603 9.45 2.023 9.261a12.112 12.112 0 01-16.959-.153l-.035-.032a12.127 12.127 0 01-3.56-8.58c0-3.234 1.275-6.181 3.354-8.368l.206-.225zm8.592 3.38a5.208 5.208 0 00-3.686 1.527l-.144.137a5.19 5.19 0 00-1.383 3.549c0 1.45.578 2.752 1.514 3.686l.013.013a5.185 5.185 0 003.686 1.514 5.187 5.187 0 003.686-1.514v-.013a5.197 5.197 0 001.527-3.686 5.197 5.197 0 00-1.527-3.686 5.205 5.205 0 00-3.686-1.527zm193.805 1.527a5.207 5.207 0 00-7.371 0h-.012a5.184 5.184 0 00-1.515 3.686c0 1.45.579 2.752 1.515 3.686l.012.013a5.187 5.187 0 003.687 1.514 5.183 5.183 0 003.549-1.383l.135-.144a5.19 5.19 0 001.528-3.686 5.19 5.19 0 00-1.528-3.686zm-3.684-8.466c3.354 0 6.391 1.362 8.59 3.559a12.11 12.11 0 013.561 8.593c0 3.355-1.36 6.394-3.561 8.592l-.224.206a12.106 12.106 0 01-8.366 3.354c-3.204 0-6.127-1.25-8.304-3.293l2.583-10.886-1.274-7.912a12.097 12.097 0 016.995-2.213z" fill="#1B1038"/><path d="M269.229 317.801c-64.618-6.195-72.525-41.422-69.909-71.539.742-8.535 2.347-16.563 3.703-23.352.516-2.584.997-4.989 1.359-7.055a3.467 3.467 0 013.598-2.867l-3.095 13.933 2.388 11.337a136.862 136.862 0 00-1.042 8.6c-2.276 26.213 4.535 56.774 59.231 63.554a26.703 26.703 0 01-1.307-8.279 3.469 3.469 0 016.939 0 19.733 19.733 0 005.796 13.994 19.729 19.729 0 0013.991 5.794 19.725 19.725 0 0013.991-5.794 19.729 19.729 0 005.796-13.994 3.47 3.47 0 016.94 0c0 2.891-.459 5.674-1.31 8.279 54.698-6.78 61.51-37.341 59.233-63.554-.33-3.796-.845-7.52-1.434-11.085l1.59-3.73 3.34-7.693c1.289 6.473 2.727 13.974 3.416 21.912 2.616 30.117-5.291 65.344-69.909 71.539a26.56 26.56 0 01-2.754 3.231c-4.838 4.836-11.521 7.828-18.899 7.828a26.644 26.644 0 01-18.898-7.828c-1.001-1-1.921-2.08-2.754-3.231" fill="#1B1038"/><path d="M269.171 201.112c-6.374-6.374-15.183-10.318-24.91-10.318-9.728 0-18.535 3.944-24.908 10.318-6.375 6.374-10.317 15.181-10.317 24.908 0 9.728 3.942 18.535 10.317 24.909 6.373 6.374 15.18 10.318 24.908 10.318 9.727 0 18.536-3.944 24.91-10.318 6.373-6.374 10.318-15.181 10.318-24.909 0-9.727-3.945-18.534-10.318-24.908zm-24.91-17.257c11.644 0 22.187 4.721 29.816 12.351 7.629 7.63 12.351 18.171 12.351 29.814s-4.722 22.186-12.351 29.815c-7.629 7.631-18.172 12.351-29.816 12.351-11.643 0-22.184-4.72-29.815-12.351-7.631-7.629-12.351-18.172-12.351-29.815 0-11.641 4.72-22.184 12.351-29.814 7.631-7.63 18.172-12.351 29.815-12.351zm63.423 12.351c7.631-7.63 18.172-12.351 29.817-12.351 11.641 0 22.186 4.721 29.817 12.351 7.627 7.63 12.348 18.171 12.348 29.814s-4.721 22.186-12.348 29.815c-7.631 7.631-18.176 12.351-29.817 12.351-11.645 0-22.186-4.72-29.817-12.351-7.63-7.629-12.35-18.172-12.35-29.815s4.72-22.184 12.35-29.814zm29.817-5.412c-9.729 0-18.537 3.944-24.911 10.318-6.374 6.374-10.314 15.181-10.314 24.908 0 9.728 3.94 18.535 10.314 24.909 6.374 6.374 15.182 10.318 24.911 10.318 9.725 0 18.534-3.944 24.908-10.318 6.374-6.374 10.317-15.181 10.317-24.909 0-9.727-3.943-18.534-10.317-24.908-6.374-6.374-15.183-10.318-24.908-10.318z" fill="#1B1038"/><path d="M226.813 191.946c1.329-5.031 1.961-11.128 1.751-18.515a3.461 3.461 0 013.659-3.663l1.291.065 1.287.008c4.72 0 9.248-.776 13.456-2.205a41.63 41.63 0 008.549-4.036 49.157 49.157 0 01-6.255-7.473 3.456 3.456 0 015.719-3.878 41.99 41.99 0 008.157 8.903c.089.063.174.132.258.206a41.902 41.902 0 006.643 4.374c5.827 3.085 12.482 4.833 19.553 4.833 7.072 0 13.725-1.748 19.552-4.833a41.929 41.929 0 006.646-4.374c.082-.074.167-.143.257-.206a42.038 42.038 0 008.156-8.903 3.455 3.455 0 015.72 3.878 49.221 49.221 0 01-6.256 7.473 41.606 41.606 0 008.549 4.036 41.77 41.77 0 0013.457 2.205l1.286-.008 1.293-.065a3.461 3.461 0 013.657 3.659c-.218 7.716.482 14.027 1.932 19.185l-7.738-2.789c-.722-3.883-1.115-8.213-1.144-13.048a48.664 48.664 0 01-14.965-2.579 48.62 48.62 0 01-11.848-5.938 48.517 48.517 0 01-28.554 9.247 48.602 48.602 0 01-28.556-9.247 48.528 48.528 0 01-26.809 8.517c-.028 4.37-.353 8.328-.946 11.913l-7.757 3.258m64.068 146.979a3.475 3.475 0 10.002-6.95 3.475 3.475 0 00-.002 6.95m0 13.898a3.473 3.473 0 100-6.947 3.471 3.471 0 00-3.473 3.472 3.475 3.475 0 003.473 3.475" fill="#1B1038"/><path d="M290.881 91.36c-35.807 0-71.506 8.071-92.994 24.208-22.437 16.846-28.913 43.03-2.16 78.66l2.669 3.552-4.105 1.719c-5.157 2.16-9.179 5.21-11.749 8.681-2.018 2.728-3.124 5.703-3.14 8.663-.016 2.937 1.04 5.948 3.341 8.79l.948 1.086c1.221-2.132 2.925-3.838 5.144-4.898 3.414-1.629 7.866-1.598 13.381.993.78-10.364 5.307-19.685 12.23-26.608a42.208 42.208 0 0113.36-9.018c.636-4 .905-8.559.758-13.757a3.461 3.461 0 013.659-3.663l1.291.065 1.287.008c4.72 0 9.248-.776 13.456-2.205a41.63 41.63 0 008.549-4.036 49.157 49.157 0 01-6.255-7.473 3.456 3.456 0 015.719-3.878 41.99 41.99 0 008.157 8.903l.258.206a41.902 41.902 0 006.643 4.374c5.827 3.085 12.482 4.833 19.553 4.833 7.072 0 13.725-1.748 19.552-4.833a41.929 41.929 0 006.646-4.374l.257-.206a42.038 42.038 0 008.156-8.903 3.455 3.455 0 015.72 3.878 49.221 49.221 0 01-6.256 7.473 41.606 41.606 0 008.549 4.036 41.77 41.77 0 0013.457 2.205l1.286-.008 1.293-.065a3.461 3.461 0 013.657 3.659c-.148 5.199.124 9.76.759 13.761a42.234 42.234 0 0113.361 9.018c6.92 6.923 11.449 16.244 12.229 26.608 5.515-2.591 9.964-2.622 13.381-.993 2.216 1.06 3.919 2.765 5.142 4.898l.947-1.086c2.301-2.842 3.36-5.854 3.343-8.79-.015-2.96-1.122-5.935-3.14-8.663-2.569-3.471-6.592-6.521-11.748-8.681l-4.105-1.719 2.666-3.552c26.756-35.631 20.279-61.816-2.157-78.662-21.491-16.137-57.187-24.206-92.995-24.206" fill="#D1D4E3"/><path d="M278.095 265.502h25.573a3.47 3.47 0 013.469 3.471c0 4.488-1.821 8.554-4.761 11.493a16.206 16.206 0 01-11.495 4.763c-4.472 0-8.533-1.82-11.481-4.763l-.025-.023c-2.935-2.948-4.75-7.004-4.75-11.47a3.47 3.47 0 013.47-3.471zm35.564-93.645a48.517 48.517 0 01-22.778 5.648 48.602 48.602 0 01-28.556-9.247 48.528 48.528 0 01-26.809 8.517 81.437 81.437 0 01-.431 8.081 42.29 42.29 0 019.176-1.001c11.644 0 22.187 4.721 29.816 12.351 7.629 7.63 12.351 18.171 12.351 29.814s-4.722 22.186-12.351 29.815c-7.629 7.631-18.172 12.351-29.816 12.351-11.643 0-22.184-4.72-29.815-12.351a42.278 42.278 0 01-8.005-11.153c-.076.722-.147 1.448-.21 2.176-2.276 26.213 4.535 56.774 59.231 63.554a26.703 26.703 0 01-1.307-8.279 3.469 3.469 0 016.939 0 19.733 19.733 0 005.796 13.994 19.729 19.729 0 0013.991 5.794 19.725 19.725 0 0013.991-5.794 19.729 19.729 0 005.796-13.994 3.47 3.47 0 016.94 0c0 2.891-.459 5.674-1.31 8.279 54.698-6.78 61.51-37.341 59.233-63.554a117.87 117.87 0 00-.209-2.176 42.388 42.388 0 01-8.004 11.153c-7.631 7.631-18.176 12.351-29.817 12.351-11.645 0-22.186-4.72-29.817-12.351-7.63-7.629-12.35-18.172-12.35-29.815s4.72-22.184 12.35-29.814c7.631-7.63 18.172-12.351 29.817-12.351 3.152 0 6.221.345 9.176 1.001a82.088 82.088 0 01-.429-8.081 48.664 48.664 0 01-14.965-2.579 48.62 48.62 0 01-11.848-5.938 48.497 48.497 0 01-5.776 3.599z" fill="#FBD0A1"/><path d="M337.501 190.794c-9.729 0-18.537 3.944-24.911 10.318-6.374 6.374-10.314 15.181-10.314 24.908 0 9.728 3.94 18.535 10.314 24.909 6.374 6.374 15.182 10.318 24.911 10.318 9.725 0 18.534-3.944 24.908-10.318 6.374-6.374 10.317-15.181 10.317-24.909 0-9.727-3.943-18.534-10.317-24.908-6.374-6.374-15.183-10.318-24.908-10.318m-58.012 35.226c0-9.727-3.945-18.534-10.318-24.908-6.374-6.374-15.183-10.318-24.91-10.318-9.728 0-18.535 3.944-24.908 10.318-6.375 6.374-10.317 15.181-10.317 24.908 0 9.728 3.942 18.535 10.317 24.909 6.373 6.374 15.18 10.318 24.908 10.318 9.727 0 18.536-3.944 24.91-10.318 6.373-6.374 10.318-15.181 10.318-24.909" fill="#FFF"/><path d="M289.754 272.443h-7.527a9.283 9.283 0 002.052 3.118l.013.013a9.285 9.285 0 006.589 2.714 9.288 9.288 0 006.589-2.727 9.364 9.364 0 002.06-3.118h-9.776zm-11.659-6.941h25.573a3.47 3.47 0 013.469 3.471c0 4.488-1.821 8.554-4.761 11.493a16.206 16.206 0 01-11.495 4.763c-4.472 0-8.533-1.82-11.481-4.763l-.025-.023c-2.935-2.948-4.75-7.004-4.75-11.47a3.47 3.47 0 013.47-3.471z" fill="#1B1038"/><path d="M299.53 272.443h-17.303a9.283 9.283 0 002.052 3.118l.013.013a9.285 9.285 0 006.589 2.714 9.288 9.288 0 006.589-2.727 9.364 9.364 0 002.06-3.118" fill="#FF917D"/><path d="M380.177 230.295c.915 4.964 1.778 10.356 2.266 15.967.064.739.121 1.48.171 2.225a12.094 12.094 0 013.328-.462c1.587 0 3.104.306 4.497.859.367-.659.709-1.349 1.015-2.06 1.671-3.869 2.378-8.278 1.963-12.028-.351-3.183-1.478-5.761-3.47-6.713-2.036-.971-5.217-.516-9.77 2.212M199.32 246.262c.487-5.611 1.348-11.004 2.266-15.969-4.554-2.726-7.733-3.182-9.77-2.21-1.992.952-3.121 3.53-3.473 6.713-.411 3.75.295 8.159 1.965 12.028.306.711.646 1.401 1.017 2.06a12.14 12.14 0 014.496-.859c1.154 0 2.269.16 3.327.462.05-.745.107-1.486.172-2.225" fill="#FBD0A1"/><path d="M198.898 255.969a5.208 5.208 0 00-6.763.522l-.144.137a5.19 5.19 0 00-1.383 3.549c0 1.45.578 2.752 1.514 3.686l.013.013a5.185 5.185 0 003.686 1.514 5.207 5.207 0 003.496-1.331 82.427 82.427 0 01-.419-8.09m183.966 0a81.842 81.842 0 01-.418 8.09 5.195 5.195 0 003.496 1.331 5.183 5.183 0 003.549-1.383l.135-.144a5.19 5.19 0 001.528-3.686 5.19 5.19 0 00-1.528-3.686 5.2 5.2 0 00-3.684-1.527c-1.15 0-2.216.374-3.078 1.005" fill="#6DE1FF"/><path d="M258.548 312.516c-.298 3.266-.105 6.2.587 8.655.714 2.537 1.966 4.519 3.759 5.744 1.822 1.242 4.329 1.787 7.544 1.439 3.558-.388 7.872-1.846 12.966-4.596l4.895 2.262 1.517-.332v2.387c-7.259 4.355-13.479 6.6-18.647 7.162-4.946.539-9.009-.441-12.178-2.604-3.2-2.183-5.369-5.489-6.526-9.591-.969-3.446-1.217-7.469-.752-11.848l6.835 1.322m62.538 0c.297 3.266.106 6.2-.586 8.655-.714 2.537-1.968 4.519-3.76 5.744-1.822 1.242-4.329 1.787-7.542 1.439-3.559-.388-7.873-1.846-12.967-4.596l-4.897 2.262-1.518-.332v2.387c7.263 4.355 13.481 6.6 18.648 7.162 4.947.539 9.011-.441 12.181-2.604 3.199-2.183 5.367-5.489 6.523-9.591.972-3.446 1.219-7.469.754-11.848l-6.836 1.322" fill="#1B1038"/><path d="M262.894 326.915c1.822 1.242 4.329 1.787 7.544 1.439 2.435-.265 5.222-1.029 8.372-2.369a26.797 26.797 0 01-9.581-8.184 163.792 163.792 0 01-10.796-1.38c.065 1.728.298 3.32.702 4.75.714 2.537 1.966 4.519 3.759 5.744" fill="#FFF"/><path d="M272.149 328.094c2.006-.382 4.225-1.076 6.661-2.109a26.797 26.797 0 01-9.581-8.184 166.589 166.589 0 01-8.545-1.033c.094 1.477.316 2.849.668 4.096.715 2.537 1.967 4.52 3.761 5.745 1.724 1.177 4.063 1.728 7.036 1.485m37.631-7.062a26.808 26.808 0 01-7.804 5.424c2.684 1.047 5.088 1.666 7.222 1.898 3.213.348 5.72-.197 7.542-1.439 1.792-1.225 3.046-3.207 3.76-5.744.377-1.339.604-2.82.686-4.417-2.764.409-5.646.762-8.652 1.047a26.56 26.56 0 01-2.754 3.231" fill="#FF917D"/><path d="M293.292 349.348a3.475 3.475 0 01-6.95 0 3.471 3.471 0 013.474-3.472 3.473 3.473 0 013.476 3.472zm0-13.896a3.475 3.475 0 11-6.95-.004 3.475 3.475 0 016.95.004zm27.353-2.819c-3.17 2.163-7.234 3.143-12.181 2.604-4.846-.527-10.62-2.537-17.312-6.379-.091.002-.182.002-.271.002-.755 0-1.502-.033-2.24-.092-6.759 3.901-12.585 5.94-17.472 6.469-4.946.539-9.009-.441-12.178-2.604-3.2-2.183-5.369-5.489-6.526-9.591-.674-2.393-.998-5.065-.979-7.936a119.48 119.48 0 01-4.819-1.151c-2.046 7.018-3.51 14.155-4.333 21.303-.81 7.057-.993 14.104-.488 21.042h95.944c.502-6.938.32-13.985-.49-21.042-.802-6.978-2.218-13.947-4.187-20.806-1.607.389-3.26.757-4.964 1.096-.018 2.707-.342 5.225-.981 7.494-1.156 4.102-3.324 7.408-6.523 9.591z" fill="#FFF"/><path d="M328.87 363.237h-6.76a147.144 147.144 0 01-1.857 11.336 173.484 173.484 0 01-3.596 14.396 3.475 3.475 0 01-2.74 2.44c-17.803 3.062-30.397 3.062-48.201 0a3.475 3.475 0 01-2.738-2.44 172.693 172.693 0 01-3.596-14.396 148.134 148.134 0 01-1.859-11.336h-6.759c2.591 24.996 11.851 41.326 23.208 49.063 5.013 3.414 10.438 5.121 15.844 5.121 5.409 0 10.835-1.707 15.847-5.121 11.356-7.737 20.617-24.067 23.207-49.063" fill="#6DE1FF"/><path d="M203.069 392.856c-5.778-1.969-9.824-6.939-11.596-13.621-.044.008-.09.014-.134.02a16.15 16.15 0 01-5.498-.079c.869 4.532 2.832 8.231 5.683 10.614a12.611 12.611 0 004.372 2.386c2.268.707 4.729.94 7.173.68m-9.042-45.076c.847.287 1.666.645 2.451 1.062 2.018-3.818 4.575-7.648 7.712-11.4 5.656-6.766 10.359-11.746 14.243-15.203-3.577 1.656-9.912 7.627-20.19 19.922a65.106 65.106 0 00-4.216 5.619" fill="#FFF"/><path d="M357.591 323.131c-2.277 6.518.83 23.188 4.694 39.975l.188.817-.202.794c-1.684 6.651-1.558 12.049-.239 16.274.997 3.193 2.678 5.719 4.753 7.596 2.078 1.877 4.582 3.142 7.224 3.81 3.246.822 6.665.736 9.732-.221a12.593 12.593 0 004.37-2.386c2.851-2.383 4.814-6.082 5.682-10.614a16.104 16.104 0 01-5.12.135l-.377-.056a16.215 16.215 0 01-10.629-6.485 16.2 16.2 0 01-2.928-12.09 16.225 16.225 0 016.485-10.627 16.454 16.454 0 014.383-2.273 64.479 64.479 0 00-4.215-5.619c-15.984-19.119-22.433-22.95-23.801-19.03" fill="#D1D4E3"/><path d="M362.473 363.923l-.202.794c-1.684 6.651-1.558 12.049-.239 16.274.997 3.193 2.678 5.719 4.753 7.596 2.078 1.877 4.582 3.142 7.224 3.81 3.246.822 6.665.736 9.732-.221.282-.087.559-.187.833-.293a18.343 18.343 0 01-3.714-.253c-2.685-.463-5.282-1.532-7.498-3.241-2.214-1.709-4.085-4.095-5.327-7.203-1.642-4.111-2.186-9.484-1.024-16.244l.141-.81-.252-.799c-5.15-16.434-9.544-32.817-7.775-39.491.294-1.115 1.027-1.666 2.306-1.492-2.131-1.058-3.334-.67-3.84.781-2.277 6.518.83 23.188 4.694 39.975l.188.817" fill="#FFF"/><path d="M257.176 360.106a3.46 3.46 0 016.885-.676 137.15 137.15 0 002.098 13.76 163.308 163.308 0 002.858 11.738c14.825 2.334 26.776 2.334 41.599 0a162.8 162.8 0 002.86-11.738 137.732 137.732 0 002.099-13.76 3.458 3.458 0 116.883.676 143.954 143.954 0 01-2.205 14.467 173.484 173.484 0 01-3.596 14.396 3.475 3.475 0 01-2.74 2.44c-17.803 3.062-30.397 3.062-48.201 0a3.475 3.475 0 01-2.738-2.44 172.693 172.693 0 01-3.596-14.396 143.958 143.958 0 01-2.206-14.467" fill="#1B1038"/><path d="M266.159 373.19a163.308 163.308 0 002.858 11.738c14.825 2.334 26.776 2.334 41.599 0a162.8 162.8 0 002.86-11.738 140.696 140.696 0 001.663-9.953h-50.642c.429 3.32.988 6.637 1.662 9.953" fill="#FF917D"/><path d="M315.139 363.237h-3.22a143.48 143.48 0 01-.903 8.561 165.71 165.71 0 01-2.086 11.904c-6.678 1.504-12.793 2.484-18.887 2.974 6.618-.011 13.245-.593 20.573-1.748a162.8 162.8 0 002.86-11.738 140.696 140.696 0 001.663-9.953M210.75 200.427c-29.525-32.281-36.979-62.482-.617-87.366 22.177-15.179 58.195-21.676 93.968-20.104 18.304.803 36.486 3.715 52.663 8.656-19.325-6.834-42.582-10.253-65.883-10.253-35.807 0-71.506 8.071-92.994 24.208-22.437 16.846-28.913 43.03-2.16 78.66l2.669 3.552-4.105 1.719c-5.157 2.16-9.179 5.21-11.749 8.681-2.018 2.728-3.124 5.703-3.14 8.663-.016 2.937 1.04 5.948 3.341 8.79l.948 1.086c1.221-2.132 2.925-3.838 5.144-4.898.153-.072.309-.143.466-.209-9.343-8.635 7.473-19.686 21.449-21.185" fill="#FFF"/><g transform="translate(254)"><mask id="b" fill="#fff"><use xlink:href="#a"/></mask><path d="M31.767 4.116C13.722 6.941 1.383 23.86 4.207 41.906 7.03 59.949 23.951 72.29 41.993 69.467c18.045-2.826 30.387-19.745 27.562-37.789C66.73 13.633 49.812 1.293 31.767 4.116" fill="#6DE1FF" mask="url(#b)"/><path d="M7.37 15.271C12.879 7.715 21.271 2.262 31.239.702 41.196-.857 50.851 1.771 58.402 7.28c7.554 5.51 13.011 13.901 14.569 23.869l.053.361c1.439 9.829-1.188 19.342-6.633 26.803-5.508 7.554-13.9 13.009-23.865 14.568l-.365.055c-9.829 1.439-19.34-1.192-26.802-6.633C7.806 60.794 2.351 52.401.792 42.434l-.055-.361c-1.441-9.83 1.19-19.341 6.633-26.802zm24.927-7.739c-8.08 1.265-14.88 5.683-19.345 11.804a29.543 29.543 0 00-5.33 22.04l.005.034c1.27 8.061 5.686 14.85 11.798 19.31a29.538 29.538 0 0022.041 5.329l.062-.008a29.519 29.519 0 0019.281-11.795 29.53 29.53 0 005.33-22.038l-.004-.031c-1.271-8.065-5.685-14.854-11.801-19.315a29.538 29.538 0 00-22.037-5.33z" fill="#1B1038" mask="url(#b)"/></g><path d="M316.596 29.037c2.592 16.566-8.738 32.101-25.305 34.694a30.23 30.23 0 01-16.268-1.925 29.509 29.509 0 0020.443 4.243l.062-.008a29.519 29.519 0 0019.281-11.795 29.53 29.53 0 005.33-22.038l-.004-.031a29.49 29.49 0 00-10.738-18.501 30.223 30.223 0 017.199 15.361" fill="#FFF"/><path fill="#1B1038" d="M287.411 87.537h6.94V70.51h-6.94z"/><path d="M337.501 196.206c-8.234 0-15.688 3.338-21.083 8.734-5.396 5.393-8.734 12.846-8.734 21.08 0 8.233 3.338 15.688 8.734 21.082 5.395 5.395 12.849 8.733 21.083 8.733 8.234 0 15.688-3.337 21.082-8.733a29.723 29.723 0 008.731-21.082c0-8.234-3.337-15.687-8.731-21.08-5.394-5.396-12.848-8.734-21.082-8.734" fill="#6DE1FF"/><path d="M360.007 227.055a3.459 3.459 0 01-.097 4.892 3.46 3.46 0 01-4.891-.095 24.408 24.408 0 00-8.014-5.515 24.263 24.263 0 00-9.504-1.917c-3.39 0-6.603.684-9.508 1.917a24.39 24.39 0 00-8.01 5.515 3.46 3.46 0 11-4.988-4.797 31.278 31.278 0 0110.288-7.087 31.15 31.15 0 0112.218-2.487c4.317 0 8.449.885 12.215 2.487a31.317 31.317 0 0110.291 7.087" fill="#1B1038"/><path d="M363.166 219.103a3.46 3.46 0 00-5.678-3.949 18.07 18.07 0 01-3.717 3.902 17.757 17.757 0 01-4.678 2.615c-.22.083-.427.184-.619.305l5.859 4.907a24.855 24.855 0 003.685-2.363 24.936 24.936 0 005.148-5.417m-10.395-6.668a3.462 3.462 0 00-2.072-4.432 3.461 3.461 0 00-4.432 2.072 17.931 17.931 0 01-6.438 8.456 3.327 3.327 0 00-.519.452l6.922 3.238a24.836 24.836 0 006.539-9.786" fill="#1B1038"/><path d="M244.261 196.206c8.232 0 15.688 3.338 21.083 8.734 5.394 5.393 8.733 12.846 8.733 21.08 0 8.233-3.339 15.688-8.733 21.082-5.395 5.395-12.851 8.733-21.083 8.733-8.233 0-15.687-3.337-21.081-8.733-5.395-5.394-8.734-12.849-8.734-21.082 0-8.234 3.339-15.687 8.734-21.08 5.394-5.396 12.848-8.734 21.081-8.734" fill="#6DE1FF"/><path d="M221.756 227.055a3.461 3.461 0 00.094 4.892 3.463 3.463 0 004.894-.095 24.401 24.401 0 018.01-5.515 24.286 24.286 0 019.508-1.917c3.389 0 6.601.684 9.507 1.917a24.401 24.401 0 018.01 5.515 3.46 3.46 0 004.988-4.797 31.32 31.32 0 00-10.288-7.087 31.149 31.149 0 00-12.217-2.487c-4.32 0-8.45.885-12.219 2.487a31.311 31.311 0 00-10.287 7.087" fill="#1B1038"/><path d="M218.595 219.103a3.46 3.46 0 015.68-3.949 18.027 18.027 0 003.713 3.902 17.806 17.806 0 004.681 2.615c.219.083.425.184.618.305l-5.859 4.907a24.68 24.68 0 01-3.683-2.363 24.921 24.921 0 01-5.15-5.417m10.397-6.668a3.46 3.46 0 116.502-2.36 17.963 17.963 0 006.439 8.456c.191.135.363.287.519.452l-6.923 3.238a24.568 24.568 0 01-2.953-3.23 24.938 24.938 0 01-3.584-6.556" fill="#1B1038"/><g transform="translate(0 222)"><mask id="d" fill="#fff"><use xlink:href="#c"/></mask><path fill="#1B1038" mask="url(#d)" d="M283.944 7.49h14.886V.551h-14.886zm241.212 360.251c-4.135 0-7.412 2.994-7.412 7.129s3.277 7.131 7.412 7.131c14.26 0 23.242-9.983 29.515-23.957l26.522-59.885a7.96 7.96 0 00.57-2.994 7.668 7.668 0 00-7.699-7.701c-4.277 0-6.418 2.996-7.129 4.847l-15.685 39.643-15.686-39.643c-.711-1.851-2.852-4.847-7.131-4.847a7.668 7.668 0 00-7.697 7.701 7.96 7.96 0 00.57 2.994l21.959 50.617c-4.705 11.691-8.984 18.965-18.109 18.965zm-30.055-81.133c-9.555 0-15.541 4.42-18.25 8.557a7.67 7.67 0 00-7.703-7.701 7.668 7.668 0 00-7.697 7.701v51.898c0 4.279 3.281 7.416 7.697 7.416 4.424 0 7.703-3.137 7.703-7.416v-31.795c0-8.412 3.563-14.685 14.256-14.685 9.271 0 12.549 5.562 12.549 13.687v32.793c0 4.279 3.136 7.416 7.701 7.416 4.275 0 7.699-3.137 7.699-7.416v-35.644c0-12.405-4.564-24.811-23.955-24.811zm-66.842 0c-9.554 0-15.541 4.42-18.252 8.557a7.669 7.669 0 00-7.701-7.701 7.668 7.668 0 00-7.697 7.701v51.898c0 4.279 3.277 7.416 7.697 7.416 4.424 0 7.701-3.137 7.701-7.416v-31.795c0-8.412 3.565-14.685 14.258-14.685 9.271 0 12.549 5.562 12.549 13.687v32.793c0 4.279 3.137 7.416 7.697 7.416 4.28 0 7.701-3.137 7.701-7.416v-35.644c0-12.405-4.562-24.811-23.953-24.811zm-72.689 55.75c-7.985 0-11.833-3.277-11.833-8.695 0-5.135 3.423-8.129 9.693-8.129h16.683v3.994c0 7.984-6.987 12.83-14.543 12.83zm1.568-42.06c8.272 0 12.975 4.275 12.975 10.693v2.566h-18.678c-12.404 0-23.099 6.846-23.099 20.106 0 12.834 9.268 21.529 23.24 21.529 8.558 0 14.832-2.137 18.681-8.269 0 4.134 3.422 7.556 7.557 7.556s7.557-3.422 7.557-7.556v-36.502c0-15.114-10.553-23.813-28.233-23.813-12.263 0-19.392 4.705-23.383 9.125-1.283 1.428-1.854 3.137-1.854 4.705a6.691 6.691 0 006.7 6.701c1.713 0 2.852-.425 4.279-1.423 3.564-2.567 7.985-5.418 14.258-5.418zm-44.312-44.059c-4.423 0-8.128 3.707-8.128 8.125v56.465l-42.205-61.168c-1.426-2.139-3.708-3.422-6.56-3.422-4.42 0-8.128 3.707-8.128 8.125v81.988c0 4.42 3.708 8.127 8.128 8.127s8.128-3.707 8.128-8.127v-56.177l42.061 60.742c1.427 2.138 3.994 3.562 6.704 3.562 4.42 0 8.128-3.707 8.128-8.127v-81.988c0-4.418-3.708-8.125-8.128-8.125zM212.76 288.606h-3.28a6.39 6.39 0 00-6.417 6.414 6.387 6.387 0 006.417 6.416h3.28v33.655c0 11.261 7.842 19.388 20.532 19.388a6.692 6.692 0 006.702-6.699 6.692 6.692 0 00-6.702-6.701c-2.567 0-5.418-1.854-5.418-5.135v-34.508h6.417a6.387 6.387 0 006.415-6.416 6.39 6.39 0 00-6.415-6.414h-6.417V276.63c0-4.139-3.423-7.559-7.557-7.559-4.136 0-7.557 3.42-7.557 7.559v11.976zm-38.183-1.998c-9.554 0-15.542 4.42-18.251 8.557a7.669 7.669 0 00-7.701-7.701 7.667 7.667 0 00-7.698 7.701v51.898c0 4.279 3.279 7.416 7.698 7.416 4.421 0 7.701-3.137 7.701-7.416v-31.795c0-8.412 3.565-14.685 14.258-14.685 9.268 0 12.548 5.562 12.548 13.687v32.793c0 4.279 3.137 7.416 7.7 7.416 4.277 0 7.699-3.137 7.699-7.416v-35.644c0-12.405-4.562-24.811-23.954-24.811zm-51.301-6.842c5.99 0 9.268-3.424 9.268-8.984 0-6.561-3.278-9.412-9.268-9.412-5.844 0-9.126 2.851-9.126 9.412 0 5.56 3.282 8.984 9.126 8.984zm7.701 15.399a7.67 7.67 0 00-7.701-7.701 7.67 7.67 0 00-7.7 7.701v51.617a7.668 7.668 0 007.7 7.697 7.669 7.669 0 007.701-7.697v-51.617zm-42.604 0a7.669 7.669 0 00-7.7-7.701 7.668 7.668 0 00-7.699 7.701v51.617a7.666 7.666 0 007.699 7.697c4.278 0 7.7-3.422 7.7-7.697v-29.66c0-9.553 5.561-15.826 15.399-15.826 3.993 0 7.272-3.28 7.272-7.272 0-3.994-3.279-7.271-7.272-7.271-5.989 0-12.69 3.562-15.399 9.125v-.713zM34.22 272.21c8.697 0 14.116 4.986 14.116 14.398 0 9.27-5.275 14.545-14.116 14.545H16.54V272.21h17.68zm1.283 43.773c16.968 0 29.944-9.697 29.944-29.375 0-19.961-13.26-29.228-29.944-29.228H8.269c-4.562 0-8.269 3.705-8.269 8.269v80.563c0 4.56 3.707 8.267 8.269 8.267 4.563 0 8.271-3.707 8.271-8.267v-30.229h18.963z"/></g><path d="M254.61 41.13c-34.732 7.171-65.774 24.431-89.925 48.584-32.297 32.297-52.274 76.915-52.274 126.198 0 49.283 19.977 93.903 52.274 126.196a178.909 178.909 0 0011.656 10.674 16.21 16.21 0 019.916-5.647 70.363 70.363 0 016.673-9.419c21.803-26.081 31.905-27.566 35.647-16.864 2.79 7.985-.288 25.467-4.292 42.994 1.648 6.955 1.58 12.893.324 17.825a177.083 177.083 0 0024.968 7.908c-2.781-7.551-4.793-16.332-5.778-26.342h-5.122a3.472 3.472 0 01-3.469-3.363c-.845-8.387-.735-16.907.24-25.399.867-7.527 2.416-15.061 4.585-22.489-25.312-8.464-35.937-23.886-39.558-40.585a12.045 12.045 0 01-4.654.928 12.112 12.112 0 01-8.557-3.54l-.036-.032a12.121 12.121 0 01-1.383-15.506 28.905 28.905 0 01-1.908-3.687c-2.121-4.917-3.012-10.585-2.482-15.48a29.225 29.225 0 01-4.078-4.086c-3.366-4.157-4.913-8.681-4.886-13.184.023-4.476 1.605-8.852 4.493-12.754 2.585-3.491 6.232-6.615 10.742-9.08-26.821-37.916-18.856-66.268 6.013-84.943 22.034-16.543 57.692-25.074 93.673-25.589V73.162a36.48 36.48 0 01-18.053-6.859c-7.552-5.51-13.008-13.902-14.567-23.869l-.055-.359c-.046-.317-.089-.63-.127-.945m133.413 68.907c24.869 18.675 32.835 47.024 6.015 84.942 4.508 2.466 8.154 5.588 10.738 9.081 2.89 3.902 4.473 8.278 4.497 12.754.023 4.503-1.522 9.026-4.889 13.184a29.09 29.09 0 01-4.076 4.084c.53 4.895-.361 10.565-2.483 15.482a29.256 29.256 0 01-1.904 3.68 12.097 12.097 0 012.172 6.933c0 3.355-1.363 6.394-3.561 8.593l-.224.206a12.111 12.111 0 01-8.369 3.353 12.05 12.05 0 01-4.652-.928c-3.714 17.121-14.786 32.899-41.502 41.215 2.072 7.222 3.56 14.543 4.399 21.859.985 8.575 1.092 17.18.218 25.647a3.48 3.48 0 01-3.444 3.115h-5.123c-1.009 10.244-3.089 19.205-5.976 26.875a177.074 177.074 0 0025.372-7.684c-1.45-5.078-1.612-11.265.118-18.582-4.002-17.527-7.08-35.009-4.291-42.994 3.74-10.702 13.84-9.217 35.647 16.864a70.636 70.636 0 016.673 9.419 16.242 16.242 0 0110.565 6.477l.177.25a178.948 178.948 0 0012.96-11.754c32.293-32.293 52.271-76.913 52.271-126.196 0-49.284-19.978-93.903-52.271-126.198-24.152-24.15-55.192-41.412-89.919-48.583a36.551 36.551 0 01-6.77 17.182c-5.508 7.553-13.9 13.009-23.868 14.568l-.362.055c-.606.088-1.21.162-1.81.22v11.292c35.982.515 71.639 9.046 93.672 25.589z" fill="#FF917D"/></g></svg>