<svg width="384" height="459" xmlns="http://www.w3.org/2000/svg"><g fill="#1C1038" fill-rule="evenodd"><path d="M156.843 412.114a190.23 190.23 0 01-40.733-12.284l2.547-6.088a183.212 183.212 0 0034.826 10.992l3.36 7.38zm107.686-11.275a190.235 190.235 0 01-40.995 11.745l2.565-7.161a183.8 183.8 0 0036.743-11.032l1.687 6.448zM156.978 42.036C119.761 49.065 86.487 67.25 60.76 92.975 27.297 126.439 6.599 172.672 6.599 223.734c0 51.065 20.698 97.297 54.161 130.756a185.27 185.27 0 0014.753 13.252l-3.724 5.479a192.042 192.042 0 01-15.696-14.064C21.438 324.504 0 276.621 0 223.734c0-52.883 21.438-100.767 56.093-135.427 26.927-26.926 61.845-45.869 100.885-52.982v6.711zm67.861-6.927c39.535 6.939 74.895 25.993 102.103 53.198 34.654 34.66 56.093 82.54 56.093 135.427 0 52.887-21.439 100.77-56.093 135.423a192.802 192.802 0 01-18.714 16.433l-2.39-6.502a185.807 185.807 0 0016.434-14.598c33.464-33.459 54.162-79.691 54.162-130.756 0-51.062-20.698-97.295-54.162-130.759-26.003-26.006-59.725-44.3-97.433-51.162v-6.704z"/><path d="M104.982 233.972a3.578 3.578 0 11-4.017 5.924c-5.785-3.933-9.7-4.693-12.093-3.549-2.064.985-3.233 3.656-3.596 6.953-.429 3.885.303 8.454 2.035 12.464.828 1.921 1.887 3.695 3.155 5.162l-5.876 4.203c-1.556-1.93-2.856-4.152-3.881-6.528-2.197-5.092-3.122-10.966-2.573-16.041a30.057 30.057 0 01-4.223-4.231c-3.49-4.307-5.091-8.993-5.066-13.658.026-4.64 1.666-9.175 4.659-13.217 2.678-3.62 6.456-6.855 11.128-9.408-27.789-39.288-19.536-68.661 6.231-88.01 23.564-17.694 62.165-26.542 100.652-26.542 38.486 0 77.087 8.848 100.651 26.542 25.767 19.347 34.021 48.722 6.231 88.01 4.673 2.553 8.451 5.788 11.128 9.408 2.992 4.042 4.633 8.577 4.659 13.217.025 4.665-1.579 9.351-5.066 13.658-1.181 1.46-2.587 2.876-4.221 4.231.546 5.072-.377 10.949-2.576 16.041-.934 2.165-2.096 4.204-3.472 6.007l-5.77-4.307c1.042-1.337 1.93-2.882 2.644-4.537 1.731-4.01 2.461-8.579 2.033-12.464-.362-3.297-1.531-5.968-3.598-6.953-2.389-1.142-6.306-.384-12.093 3.549a3.578 3.578 0 01-4.016-5.924c8.24-5.603 14.619-6.3 19.198-4.116 2.299 1.098 4.065 2.867 5.33 5.076.347-.373.674-.748.982-1.126 2.384-2.943 3.479-6.065 3.462-9.108-.015-3.065-1.162-6.147-3.253-8.974-2.663-3.599-6.831-6.757-12.171-8.997l-4.254-1.78 2.763-3.681c27.72-36.918 21.011-64.045-2.236-81.502-22.267-16.718-59.254-25.079-96.355-25.079-37.101 0-74.09 8.361-96.355 25.079-23.247 17.457-29.957 44.586-2.237 81.502l2.763 3.681-4.252 1.78c-5.343 2.24-9.51 5.398-12.172 8.997-2.093 2.827-3.237 5.909-3.255 8.974-.016 3.043 1.079 6.165 3.464 9.108.306.378.633.755.981 1.128 1.265-2.211 3.031-3.98 5.33-5.078 4.579-2.184 10.958-1.487 19.198 4.116m64.97 199.17c-13.991-9.531-25.23-29.591-27.508-60.088l-.287-3.862h96.515l-.286 3.862c-2.279 30.497-13.518 50.557-27.508 60.088-6.43 4.379-13.439 6.569-20.463 6.569-7.023 0-14.032-2.19-20.463-6.569zm-20.002-56.76c2.684 25.9 12.279 42.82 24.047 50.835 5.193 3.536 10.816 5.304 16.418 5.304 5.602 0 11.225-1.768 16.415-5.304 11.769-8.015 21.364-24.935 24.048-50.835H149.95z"/><path d="M190.415 376.382h-52.99a3.595 3.595 0 01-3.592-3.485c-.878-8.691-.762-17.517.25-26.317 1.035-9.01 3.018-18.029 5.842-26.879l5.594 1.711 12.032 2.327c-4.914.054-8.899.121-11.439.202-2.332 7.715-3.989 15.576-4.896 23.452-.84 7.311-1.029 14.615-.506 21.799h99.409c.524-7.184.333-14.488-.506-21.799-.907-7.876-2.564-15.737-4.895-23.452l6.615-2.868c2.599 8.41 4.431 16.962 5.414 25.507 1.021 8.887 1.127 17.801.223 26.573a3.588 3.588 0 01-3.569 3.22v.009h-52.986m75.069 1.534c-1.743 6.891-1.61 12.485-.244 16.862 1.031 3.311 2.772 5.926 4.924 7.868 2.15 1.949 4.746 3.257 7.482 3.951 3.364.85 6.909.761 10.084-.231a13.097 13.097 0 004.529-2.469c3.03-2.533 5.09-6.497 5.955-11.352.311-1.76.47-3.627.46-5.581l5.528-1.832 1.39-2.75c.441 4.045.323 7.886-.3 11.399-1.165 6.532-4.079 11.983-8.427 15.618a20.271 20.271 0 01-7.001 3.82c-4.421 1.382-9.331 1.515-13.959.343-3.814-.966-7.468-2.826-10.546-5.604-3.073-2.784-5.542-6.459-6.976-11.048-1.676-5.377-1.936-12.002-.07-19.895-4.149-18.16-7.338-36.277-4.446-44.547 3.877-11.091 14.342-9.549 36.934 17.47 3.807 4.554 6.837 9.229 9.149 13.871l-7.526 1.095c-1.904-3.464-4.269-6.941-7.125-10.358-16.565-19.81-23.245-23.778-24.663-19.719-2.36 6.755.862 24.028 4.863 41.418l.195.849-.21.822"/><path d="M302.877 370.622a9.647 9.647 0 00-6.323-3.856 9.664 9.664 0 00-7.215 1.741 9.657 9.657 0 00-3.859 6.322 9.674 9.674 0 001.744 7.216 9.65 9.65 0 006.285 3.851l.037.007a9.674 9.674 0 007.216-1.743 9.649 9.649 0 003.851-6.285l.005-.037a9.68 9.68 0 00-1.741-7.216zm-5.229-10.935a16.802 16.802 0 0111.012 6.723 16.771 16.771 0 013.092 12.134l-.056.39a16.806 16.806 0 01-6.722 11.012 16.794 16.794 0 01-12.134 3.091l-.391-.058a16.793 16.793 0 01-11.009-6.722 16.767 16.767 0 01-3.036-12.523 16.811 16.811 0 016.72-11.01 16.793 16.793 0 0112.524-3.037zm-175.133 17.328c1.87 7.893 1.607 14.518-.071 19.895-1.432 4.589-3.898 8.264-6.975 11.048-3.074 2.778-6.731 4.638-10.545 5.604-4.631 1.172-9.535 1.039-13.958-.343a20.285 20.285 0 01-7.002-3.82c-4.347-3.635-7.262-9.086-8.424-15.618-.542-3.043-.708-6.334-.451-9.791l7.103 4.737c.064 1.321.207 2.597.426 3.818.862 4.855 2.925 8.819 5.953 11.352a13.092 13.092 0 004.528 2.469c3.175.992 6.719 1.081 10.081.231 2.737-.694 5.336-2.002 7.487-3.951 2.149-1.942 3.89-4.557 4.924-7.868 1.367-4.377 1.498-9.971-.248-16.862l-.206-.822.192-.849c4-17.39 7.224-34.663 4.862-41.418-1.415-4.059-8.1-.091-24.659 19.719-2.867 3.429-5.24 6.92-7.147 10.392l-7.495-1.157c2.31-4.633 5.337-9.296 9.137-13.843 22.591-27.019 33.06-28.561 36.935-17.47 2.891 8.27-.299 26.387-4.447 44.547"/><path d="M72.169 366.41a16.8 16.8 0 0111.013-6.723 16.793 16.793 0 0112.523 3.037 16.812 16.812 0 016.721 11.01c.72 4.589-.495 9.04-3.036 12.523a16.795 16.795 0 01-11.011 6.722 16.786 16.786 0 01-12.523-3.033 16.807 16.807 0 01-6.723-11.013 16.781 16.781 0 013.036-12.523zm12.107.356a9.642 9.642 0 00-6.322 3.856 9.668 9.668 0 00-1.743 7.216 9.642 9.642 0 003.858 6.322 9.67 9.67 0 007.214 1.743 9.656 9.656 0 006.323-3.858 9.673 9.673 0 001.742-7.216 9.644 9.644 0 00-3.858-6.322 9.661 9.661 0 00-7.214-1.741zm-.156-106.07a12.548 12.548 0 018.902-3.686c2.692 0 5.186.843 7.234 2.284l-.625 9.791 2.096 9.596a12.554 12.554 0 01-8.705 3.509 12.557 12.557 0 01-8.868-3.668l-.034-.034a12.552 12.552 0 01-.213-17.559l.213-.233zm8.902 3.5a5.39 5.39 0 00-3.819 1.584l-.15.142a5.376 5.376 0 00-1.432 3.677c0 1.502.599 2.85 1.568 3.819l.014.014a5.378 5.378 0 003.819 1.569c1.501 0 2.852-.6 3.819-1.569v-.014a5.385 5.385 0 001.583-3.819c0-1.49-.606-2.843-1.583-3.819a5.388 5.388 0 00-3.819-1.584zm200.808 1.584a5.396 5.396 0 00-7.639 0h-.013a5.38 5.38 0 00-1.568 3.819 5.37 5.37 0 001.568 3.819l.013.014a5.379 5.379 0 003.82 1.569 5.38 5.38 0 003.677-1.432l.142-.151a5.386 5.386 0 001.58-3.819c0-1.49-.604-2.843-1.58-3.819zm-3.819-8.77c3.474 0 6.625 1.408 8.902 3.686a12.552 12.552 0 013.69 8.903c0 3.477-1.412 6.625-3.69 8.903l-.232.214a12.561 12.561 0 01-8.67 3.474 12.556 12.556 0 01-8.604-3.412l2.676-11.281-1.318-8.195a12.532 12.532 0 017.246-2.292z"/><path d="M169.081 329.307c-66.951-6.421-75.145-42.92-72.433-74.127.767-8.842 2.431-17.162 3.836-24.196.535-2.675 1.033-5.168 1.408-7.308a3.59 3.59 0 013.73-2.968l-3.209 14.433 2.475 11.745a141.326 141.326 0 00-1.079 8.912c-2.359 27.16 4.699 58.824 61.371 65.851a27.7 27.7 0 01-1.355-8.577 3.596 3.596 0 017.19 0 20.43 20.43 0 006.005 14.495 20.435 20.435 0 0014.497 6.007c5.66 0 10.788-2.297 14.498-6.007a20.434 20.434 0 006.004-14.495 3.595 3.595 0 117.189 0 27.67 27.67 0 01-1.353 8.577c56.669-7.027 63.729-38.691 61.37-65.851-.342-3.933-.876-7.791-1.488-11.486l1.648-3.865 3.462-7.969c1.334 6.706 2.824 14.478 3.54 22.702 2.71 31.207-5.484 67.706-72.437 74.127a27.93 27.93 0 01-2.854 3.344 27.6 27.6 0 01-19.579 8.113 27.597 27.597 0 01-19.58-8.113 27.855 27.855 0 01-2.856-3.344"/><path d="M169.022 208.401c-6.604-6.606-15.731-10.692-25.81-10.692-10.079 0-19.204 4.086-25.808 10.692-6.605 6.602-10.69 15.728-10.69 25.807 0 10.079 4.085 19.205 10.69 25.809 6.604 6.604 15.729 10.691 25.808 10.691s19.206-4.087 25.81-10.691c6.604-6.604 10.69-15.73 10.69-25.809s-4.086-19.205-10.69-25.807zm-25.81-17.882c12.064 0 22.988 4.893 30.894 12.796 7.905 7.907 12.796 18.828 12.796 30.893 0 12.064-4.891 22.987-12.796 30.893-7.906 7.906-18.83 12.796-30.894 12.796-12.065 0-22.986-4.89-30.892-12.796-7.905-7.906-12.796-18.829-12.796-30.893 0-12.065 4.891-22.986 12.796-30.893 7.906-7.903 18.827-12.796 30.892-12.796z"/><path d="M127.22 240.25a3.589 3.589 0 01-5.071.1 3.589 3.589 0 01-.098-5.07 32.448 32.448 0 0110.66-7.344 32.3 32.3 0 0112.659-2.578c4.477 0 8.756.919 12.657 2.578a32.4 32.4 0 0110.661 7.344 3.586 3.586 0 11-5.167 4.97 25.303 25.303 0 00-8.301-5.714 25.142 25.142 0 00-9.85-1.985c-3.512 0-6.84.707-9.851 1.985a25.285 25.285 0 00-8.299 5.714"/><path d="M120.938 223.269a3.583 3.583 0 116.768-2.359 18.698 18.698 0 002.619 4.93 18.55 18.55 0 003.942 3.915c.197.141.373.302.531.473l-7.213 3.267a25.66 25.66 0 01-3.017-3.385 25.857 25.857 0 01-3.63-6.841m-9.923 9.179a3.592 3.592 0 015.671-4.409 18.645 18.645 0 004.047 3.856 18.365 18.365 0 004.983 2.444 3.593 3.593 0 11-2.164 6.852 25.64 25.64 0 01-6.92-3.424 25.796 25.796 0 01-5.617-5.319m97.914-29.133c7.904-7.903 18.829-12.796 30.893-12.796 12.062 0 22.985 4.893 30.891 12.796 7.905 7.907 12.796 18.828 12.796 30.893 0 12.064-4.891 22.987-12.796 30.893-7.906 7.906-18.829 12.796-30.891 12.796-12.064 0-22.989-4.89-30.893-12.796-7.908-7.906-12.799-18.829-12.799-30.893 0-12.065 4.891-22.986 12.799-30.893zm30.893-5.606c-10.079 0-19.205 4.086-25.811 10.692-6.602 6.602-10.688 15.728-10.688 25.807 0 10.079 4.086 19.205 10.688 25.809 6.606 6.604 15.732 10.691 25.811 10.691s19.202-4.087 25.807-10.691c6.606-6.604 10.692-15.73 10.692-25.809s-4.086-19.205-10.692-25.807c-6.605-6.606-15.728-10.692-25.807-10.692z"/><path d="M260.982 235.28a3.588 3.588 0 01-.097 5.07 3.589 3.589 0 01-5.071-.1 25.3 25.3 0 00-8.3-5.714 25.143 25.143 0 00-9.851-1.985c-3.513 0-6.84.707-9.85 1.985a25.27 25.27 0 00-8.298 5.714 3.591 3.591 0 01-5.073.1 3.588 3.588 0 01-.096-5.07 32.396 32.396 0 0110.66-7.344 32.276 32.276 0 0112.657-2.578c4.475 0 8.756.919 12.659 2.578a32.448 32.448 0 0110.66 7.344"/><path d="M255.326 220.91a3.588 3.588 0 014.566-2.206 3.587 3.587 0 012.204 4.565 25.831 25.831 0 01-3.631 6.841 25.538 25.538 0 01-3.629 3.94l-6.516-3.912c.138-.137.286-.267.447-.383a18.605 18.605 0 006.559-8.845m11.021 7.129a3.593 3.593 0 015.672 4.409 25.814 25.814 0 01-5.616 5.319 25.672 25.672 0 01-6.923 3.424 3.595 3.595 0 01-4.509-2.345 3.591 3.591 0 012.345-4.507 18.37 18.37 0 004.984-2.444 18.713 18.713 0 004.047-3.856m-141.213-29.136c1.375-5.214 2.031-11.529 1.814-19.183a3.585 3.585 0 013.791-3.796l1.337.064 1.335.01c4.891 0 9.581-.805 13.942-2.283a43.161 43.161 0 008.857-4.184 50.635 50.635 0 01-6.481-7.743 3.583 3.583 0 01.956-4.972 3.584 3.584 0 014.971.957 43.57 43.57 0 008.45 9.222c.092.067.181.137.267.216a43.569 43.569 0 006.884 4.53c6.037 3.196 12.932 5.01 20.262 5.01 7.327 0 14.221-1.814 20.255-5.01a43.395 43.395 0 006.885-4.53c.084-.079.175-.149.268-.216a43.538 43.538 0 008.449-9.222 3.586 3.586 0 014.973-.957 3.583 3.583 0 01.955 4.972 50.635 50.635 0 01-6.481 7.743 43.136 43.136 0 008.857 4.184 43.363 43.363 0 0013.942 2.283l1.334-.01 1.337-.064a3.584 3.584 0 013.791 3.791c-.225 7.994.498 14.535 2.004 19.877l-8.02-2.89c-.746-4.023-1.152-8.51-1.185-13.519a50.367 50.367 0 01-15.505-2.671 50.297 50.297 0 01-12.274-6.156 50.269 50.269 0 01-29.585 9.582 50.293 50.293 0 01-29.588-9.582 50.386 50.386 0 01-12.274 6.156 50.38 50.38 0 01-15.508 2.671c-.027 4.528-.364 8.628-.978 12.345l-8.037 3.375m66.383 152.288a3.6 3.6 0 10-3.6-3.598 3.598 3.598 0 003.6 3.598m0 14.401a3.6 3.6 0 10-.001-7.199 3.6 3.6 0 00.001 7.199m-1.168-83.285h-7.801a9.601 9.601 0 002.129 3.231l.013.014a9.613 9.613 0 006.827 2.812 9.621 9.621 0 006.827-2.826 9.654 9.654 0 002.134-3.231h-10.129zm-12.08-7.19h26.495a3.596 3.596 0 013.596 3.594c0 4.651-1.885 8.863-4.935 11.911a16.787 16.787 0 01-11.908 4.935c-4.635 0-8.842-1.888-11.897-4.935l-.023-.025c-3.043-3.053-4.924-7.255-4.924-11.886a3.594 3.594 0 013.596-3.594zm-20.253 48.713c-.308 3.384-.11 6.425.608 8.966.738 2.629 2.037 4.683 3.895 5.952 1.886 1.288 4.484 1.851 7.816 1.488 3.687-.4 8.154-1.908 13.434-4.76l5.072 2.342 1.574-.342v2.474c-7.525 4.512-13.969 6.839-19.322 7.422-5.126.556-9.335-.458-12.619-2.698-3.317-2.262-5.565-5.689-6.76-9.94-1.006-3.568-1.262-7.738-.781-12.276l7.083 1.372"/><path d="M222.813 323.83c.307 3.384.11 6.425-.606 8.966-.739 2.629-2.041 4.683-3.895 5.952-1.891 1.288-4.487 1.851-7.819 1.488-3.685-.4-8.156-1.908-13.432-4.76l-5.073 2.342-1.573-.342v2.474c7.523 4.512 13.968 6.839 19.32 7.422 5.126.556 9.336-.458 12.62-2.698 3.316-2.262 5.564-5.689 6.76-9.94 1.005-3.568 1.261-7.738.781-12.276l-7.083 1.372m-66.22 49.31a3.585 3.585 0 017.135-.703 142.163 142.163 0 002.173 14.257 170.763 170.763 0 002.961 12.164c15.36 2.417 27.742 2.417 43.104 0 1.147-4.07 2.14-8.127 2.961-12.164.967-4.75 1.701-9.503 2.176-14.257a3.58 3.58 0 013.916-3.216 3.581 3.581 0 013.214 3.919c-.492 4.99-1.268 9.99-2.285 14.988a178.662 178.662 0 01-3.725 14.916 3.597 3.597 0 01-2.836 2.529c-18.448 3.171-31.497 3.171-49.945 0a3.6 3.6 0 01-2.837-2.529 180.253 180.253 0 01-3.726-14.916 149.21 149.21 0 01-2.286-14.988m4.345-357.296c5.708-7.829 14.406-13.478 24.733-15.096 10.318-1.615 20.32 1.109 28.144 6.815 7.827 5.709 13.478 14.406 15.096 24.734l.056.374c1.492 10.183-1.235 20.04-6.872 27.77-5.709 7.827-14.405 13.478-24.733 15.096l-.374.056c-10.186 1.492-20.04-1.235-27.77-6.873-7.827-5.709-13.481-14.406-15.096-24.731l-.056-.375c-1.493-10.183 1.234-20.039 6.872-27.77zm25.829-8.018c-8.371 1.309-15.418 5.889-20.042 12.23a30.6 30.6 0 00-5.524 22.835l.004.036c1.316 8.354 5.893 15.387 12.226 20.007a30.59 30.59 0 0022.835 5.523l.065-.01c8.34-1.32 15.364-5.892 19.979-12.22a30.593 30.593 0 005.523-22.834l-.005-.032c-1.315-8.354-5.892-15.39-12.227-20.012a30.605 30.605 0 00-22.834-5.523z"/><path d="M187.921 90.721h7.191V73.078h-7.191zm3.594 363.59c22.707 0 41.115 1.049 41.115 2.343 0 1.295-18.408 2.346-41.115 2.346-22.71 0-41.12-1.051-41.12-2.346 0-1.294 18.41-2.343 41.12-2.343"/></g></svg>