<?xml version="1.0" encoding="utf-8"?>
<svg xmlns="http://www.w3.org/2000/svg" xmlns:xlink="http://www.w3.org/1999/xlink" style="margin: auto; background: none; display: block; shape-rendering: auto;" width="200px" height="200px" viewBox="0 0 100 100" preserveAspectRatio="xMidYMid">
<g transform="rotate(0 50 50)">
  <rect x="47" y="24" rx="3" ry="6" width="6" height="12" fill="#ffb6bb">
    <animate attributeName="opacity" values="1;0" keyTimes="0;1" dur="1.4705882352941175s" begin="-1.3480392156862744s" repeatCount="indefinite"></animate>
  </rect>
</g><g transform="rotate(30 50 50)">
  <rect x="47" y="24" rx="3" ry="6" width="6" height="12" fill="#ffb6bb">
    <animate attributeName="opacity" values="1;0" keyTimes="0;1" dur="1.4705882352941175s" begin="-1.2254901960784315s" repeatCount="indefinite"></animate>
  </rect>
</g><g transform="rotate(60 50 50)">
  <rect x="47" y="24" rx="3" ry="6" width="6" height="12" fill="#ffb6bb">
    <animate attributeName="opacity" values="1;0" keyTimes="0;1" dur="1.4705882352941175s" begin="-1.1029411764705883s" repeatCount="indefinite"></animate>
  </rect>
</g><g transform="rotate(90 50 50)">
  <rect x="47" y="24" rx="3" ry="6" width="6" height="12" fill="#ffb6bb">
    <animate attributeName="opacity" values="1;0" keyTimes="0;1" dur="1.4705882352941175s" begin="-0.9803921568627451s" repeatCount="indefinite"></animate>
  </rect>
</g><g transform="rotate(120 50 50)">
  <rect x="47" y="24" rx="3" ry="6" width="6" height="12" fill="#ffb6bb">
    <animate attributeName="opacity" values="1;0" keyTimes="0;1" dur="1.4705882352941175s" begin="-0.8578431372549019s" repeatCount="indefinite"></animate>
  </rect>
</g><g transform="rotate(150 50 50)">
  <rect x="47" y="24" rx="3" ry="6" width="6" height="12" fill="#ffb6bb">
    <animate attributeName="opacity" values="1;0" keyTimes="0;1" dur="1.4705882352941175s" begin="-0.7352941176470588s" repeatCount="indefinite"></animate>
  </rect>
</g><g transform="rotate(180 50 50)">
  <rect x="47" y="24" rx="3" ry="6" width="6" height="12" fill="#ffb6bb">
    <animate attributeName="opacity" values="1;0" keyTimes="0;1" dur="1.4705882352941175s" begin="-0.6127450980392157s" repeatCount="indefinite"></animate>
  </rect>
</g><g transform="rotate(210 50 50)">
  <rect x="47" y="24" rx="3" ry="6" width="6" height="12" fill="#ffb6bb">
    <animate attributeName="opacity" values="1;0" keyTimes="0;1" dur="1.4705882352941175s" begin="-0.49019607843137253s" repeatCount="indefinite"></animate>
  </rect>
</g><g transform="rotate(240 50 50)">
  <rect x="47" y="24" rx="3" ry="6" width="6" height="12" fill="#ffb6bb">
    <animate attributeName="opacity" values="1;0" keyTimes="0;1" dur="1.4705882352941175s" begin="-0.3676470588235294s" repeatCount="indefinite"></animate>
  </rect>
</g><g transform="rotate(270 50 50)">
  <rect x="47" y="24" rx="3" ry="6" width="6" height="12" fill="#ffb6bb">
    <animate attributeName="opacity" values="1;0" keyTimes="0;1" dur="1.4705882352941175s" begin="-0.24509803921568626s" repeatCount="indefinite"></animate>
  </rect>
</g><g transform="rotate(300 50 50)">
  <rect x="47" y="24" rx="3" ry="6" width="6" height="12" fill="#ffb6bb">
    <animate attributeName="opacity" values="1;0" keyTimes="0;1" dur="1.4705882352941175s" begin="-0.12254901960784313s" repeatCount="indefinite"></animate>
  </rect>
</g><g transform="rotate(330 50 50)">
  <rect x="47" y="24" rx="3" ry="6" width="6" height="12" fill="#ffb6bb">
    <animate attributeName="opacity" values="1;0" keyTimes="0;1" dur="1.4705882352941175s" begin="0s" repeatCount="indefinite"></animate>
  </rect>
</g>
<!-- [ldio] generated by https://loading.io/ --></svg>