<svg xmlns="http://www.w3.org/2000/svg" style="margin:auto;background:0 0" width="200" height="200" viewBox="0 0 100 100" preserveAspectRatio="xMidYMid" display="block"><rect x="47" y="24" rx="3" ry="6" width="6" height="12" fill="#ffb6bb"><animate attributeName="opacity" values="1;0" keyTimes="0;1" dur="1.4705882352941175s" begin="-1.3480392156862744s" repeatCount="indefinite"/></rect><rect x="47" y="24" rx="3" ry="6" width="6" height="12" fill="#ffb6bb" transform="rotate(30 50 50)"><animate attributeName="opacity" values="1;0" keyTimes="0;1" dur="1.4705882352941175s" begin="-1.2254901960784315s" repeatCount="indefinite"/></rect><rect x="47" y="24" rx="3" ry="6" width="6" height="12" fill="#ffb6bb" transform="rotate(60 50 50)"><animate attributeName="opacity" values="1;0" keyTimes="0;1" dur="1.4705882352941175s" begin="-1.1029411764705883s" repeatCount="indefinite"/></rect><rect x="47" y="24" rx="3" ry="6" width="6" height="12" fill="#ffb6bb" transform="rotate(90 50 50)"><animate attributeName="opacity" values="1;0" keyTimes="0;1" dur="1.4705882352941175s" begin="-0.9803921568627451s" repeatCount="indefinite"/></rect><rect x="47" y="24" rx="3" ry="6" width="6" height="12" fill="#ffb6bb" transform="rotate(120 50 50)"><animate attributeName="opacity" values="1;0" keyTimes="0;1" dur="1.4705882352941175s" begin="-0.8578431372549019s" repeatCount="indefinite"/></rect><rect x="47" y="24" rx="3" ry="6" width="6" height="12" fill="#ffb6bb" transform="rotate(150 50 50)"><animate attributeName="opacity" values="1;0" keyTimes="0;1" dur="1.4705882352941175s" begin="-0.7352941176470588s" repeatCount="indefinite"/></rect><rect x="47" y="24" rx="3" ry="6" width="6" height="12" fill="#ffb6bb" transform="rotate(180 50 50)"><animate attributeName="opacity" values="1;0" keyTimes="0;1" dur="1.4705882352941175s" begin="-0.6127450980392157s" repeatCount="indefinite"/></rect><rect x="47" y="24" rx="3" ry="6" width="6" height="12" fill="#ffb6bb" transform="rotate(210 50 50)"><animate attributeName="opacity" values="1;0" keyTimes="0;1" dur="1.4705882352941175s" begin="-0.49019607843137253s" repeatCount="indefinite"/></rect><rect x="47" y="24" rx="3" ry="6" width="6" height="12" fill="#ffb6bb" transform="rotate(240 50 50)"><animate attributeName="opacity" values="1;0" keyTimes="0;1" dur="1.4705882352941175s" begin="-0.3676470588235294s" repeatCount="indefinite"/></rect><rect x="47" y="24" rx="3" ry="6" width="6" height="12" fill="#ffb6bb" transform="rotate(270 50 50)"><animate attributeName="opacity" values="1;0" keyTimes="0;1" dur="1.4705882352941175s" begin="-0.24509803921568626s" repeatCount="indefinite"/></rect><rect x="47" y="24" rx="3" ry="6" width="6" height="12" fill="#ffb6bb" transform="rotate(300 50 50)"><animate attributeName="opacity" values="1;0" keyTimes="0;1" dur="1.4705882352941175s" begin="-0.12254901960784313s" repeatCount="indefinite"/></rect><rect x="47" y="24" rx="3" ry="6" width="6" height="12" fill="#ffb6bb" transform="rotate(330 50 50)"><animate attributeName="opacity" values="1;0" keyTimes="0;1" dur="1.4705882352941175s" begin="0s" repeatCount="indefinite"/></rect></svg>