<?xml version="1.0" encoding="UTF-8"?>
<svg width="273px" height="59px" viewBox="0 0 273 59" version="1.1" xmlns="http://www.w3.org/2000/svg" xmlns:xlink="http://www.w3.org/1999/xlink">
    <title>Fill 62</title>
    <g id="Page-1" stroke="none" stroke-width="1" fill="none" fill-rule="evenodd">
        <g id="logo-white" transform="translate(-8.000000, -3.000000)" fill="#FFFFFF">
            <path d="M254.473344,55.3630219 C252.535638,55.3630219 251,56.7569735 251,58.6810455 C251,60.605583 252.535638,62 254.473344,62 C261.155735,62 265.364798,57.3541153 268.304394,50.8497837 L280.732892,22.9777336 C280.866446,22.6463501 281,22.1813893 281,21.5842474 C281,19.5936194 279.396414,18 277.392165,18 C275.387916,18 274.38462,19.394417 274.051438,20.2563864 L266.701276,38.7068132 L259.350646,20.2563864 C259.017464,19.394417 258.014168,18 256.008982,18 C254.00567,18 252.402084,19.5936194 252.402084,21.5842474 C252.402084,22.1813893 252.535638,22.6463501 252.669192,22.9777336 L262.959418,46.5366788 C260.754604,51.9779769 258.749418,55.3630219 254.473344,55.3630219 Z M239.772068,17 C235.293551,17 232.487857,19.0839534 231.218123,21.0340057 C231.218123,19.0174743 229.613263,17.4031177 227.607656,17.4031177 C225.603923,17.4031177 224,19.0174743 224,21.0340057 L224,45.5034846 C224,47.5209589 225.537835,49 227.607656,49 C229.681226,49 231.218123,47.5209589 231.218123,45.5034846 L231.218123,30.5126932 C231.218123,26.546581 232.888135,23.5884988 237.900043,23.5884988 C242.245447,23.5884988 243.781877,26.2113568 243.781877,30.0421535 L243.781877,45.5034846 C243.781877,47.5209589 245.251749,49 247.391407,49 C249.395139,49 251,47.5209589 251,45.5034846 L251,28.6974849 C251,22.8492139 248.860811,17 239.772068,17 Z M208.772616,17 C204.294412,17 201.488152,19.0839534 200.217437,21.0340057 C200.217437,19.0174743 198.613458,17.4031177 196.607781,17.4031177 C194.603979,17.4031177 193,19.0174743 193,21.0340057 L193,45.5034846 C193,47.5209589 194.536014,49 196.607781,49 C198.681423,49 200.217437,47.5209589 200.217437,45.5034846 L200.217437,30.5126932 C200.217437,26.546581 201.888443,23.5884988 206.900526,23.5884988 C211.246081,23.5884988 212.782563,26.2113568 212.782563,30.0421535 L212.782563,45.5034846 C212.782563,47.5209589 214.252956,49 216.390344,49 C218.39649,49 220,47.5209589 220,45.5034846 L220,28.6974849 C220,22.8492139 217.861674,17 208.772616,17 Z M174.38353,43 C170.750682,43 169,41.6361961 169,39.3820505 C169,37.2460624 170.557325,36 173.409918,36 L181,36 L181,37.66211 C181,40.9838336 177.821201,43 174.38353,43 Z M175.63468,23.387029 C179.550592,23.387029 181.776962,25.3816634 181.776962,28.376181 L181.776962,29.5738948 L172.934917,29.5738948 C167.062944,29.5738948 162,32.7681092 162,38.9545083 C162,44.9426105 166.387411,49 173.001666,49 C177.052967,49 180.023038,48.0029161 181.84513,45.1413741 C181.84513,47.070687 183.465083,48.6673277 185.422565,48.6673277 C187.380047,48.6673277 189,47.070687 189,45.1413741 L189,28.1102298 C189,21.0587892 184.004278,17 175.63468,17 C169.829456,17 166.454633,19.1952642 164.56532,21.2575528 C163.957956,21.923364 163.687648,22.7207512 163.687648,23.452817 C163.687648,25.1833664 165.104515,26.5793771 166.859385,26.5793771 C167.670308,26.5793771 168.209503,26.3806136 168.885036,25.9149656 C170.57221,24.7177184 172.665083,23.387029 175.63468,23.387029 Z M154.222067,3 C152.166236,3 150.444135,4.73622011 150.444135,6.80441974 L150.444135,33.2433811 L130.827052,4.60230454 C130.16424,3.60121538 129.103556,3 127.777933,3 C125.723496,3 124,4.73622011 124,6.80441974 L124,45.1946438 C124,47.2642481 125.723496,49 127.777933,49 C129.83237,49 131.555865,47.2642481 131.555865,45.1946438 L131.555865,18.8900663 L151.106016,47.3316741 C151.769293,48.3332315 152.962447,49 154.222067,49 C156.276504,49 158,47.2642481 158,45.1946438 L158,6.80441974 C158,4.73622011 156.276504,3 154.222067,3 Z M106.636878,18.1490259 L105.068459,18.1490259 C103.36376,18.1490259 102,19.4842638 102,21.1529599 C102,22.8239978 103.36376,24.1578306 105.068459,24.1578306 L106.636878,24.1578306 L106.636878,39.9193518 C106.636878,45.1937992 110.386739,49 116.454799,49 C118.227878,49 119.659538,47.5987261 119.659538,45.8621206 C119.659538,44.1255152 118.227878,42.7237729 116.454799,42.7237729 C115.22732,42.7237729 113.864038,41.8559386 113.864038,40.3193143 L113.864038,24.1578306 L116.932497,24.1578306 C118.63624,24.1578306 120,22.8239978 120,21.1529599 C120,19.4842638 118.63624,18.1490259 116.932497,18.1490259 L113.864038,18.1490259 L113.864038,12.5397152 C113.864038,10.6012552 112.22724,9 110.250458,9 C108.27272,9 106.636878,10.6012552 106.636878,12.5397152 L106.636878,18.1490259 Z M89.7723422,17 C85.2942157,17 82.4875356,19.0839534 81.21778,21.0340057 C81.21778,19.0174743 79.6138289,17.4031177 77.6081869,17.4031177 C75.6034824,17.4031177 74,19.0174743 74,21.0340057 L74,45.5034846 C74,47.5209589 75.5369245,49 77.6081869,49 C79.6803868,49 81.21778,47.5209589 81.21778,45.5034846 L81.21778,30.5126932 C81.21778,26.546581 82.8887577,23.5884988 87.9007534,23.5884988 C92.2448267,23.5884988 93.78222,26.2113568 93.78222,30.0421535 L93.78222,45.5034846 C93.78222,47.5209589 95.2525866,49 97.3913444,49 C99.3960489,49 101,47.5209589 101,45.5034846 L101,28.6974849 C101,22.8492139 98.861711,17 89.7723422,17 Z M65.9691204,13 C68.5743177,13 70,11.5110616 70,9.09284122 C70,6.24020221 68.5743177,5 65.9691204,5 C63.427422,5 62,6.24020221 62,9.09284122 C62,11.5110616 63.427422,13 65.9691204,13 Z M69,21.5622986 C69,19.5838606 67.4437374,18 65.4997727,18 C63.5558081,18 62,19.5838606 62,21.5622986 L62,45.4390892 C62,47.4170646 63.5558081,49 65.4997727,49 C67.4437374,49 69,47.4170646 69,45.4390892 L69,21.5622986 Z M49.2808511,20.9745449 C49.2808511,18.953726 47.6628842,17.3359369 45.6401891,17.3359369 C43.6174941,17.3359369 42,18.953726 42,20.9745449 L42,45.3628095 C42,47.3831559 43.6174941,49 45.6401891,49 C47.6628842,49 49.2808511,47.3831559 49.2808511,45.3628095 L49.2808511,31.3489007 C49.2808511,26.8357228 51.9101655,23.8713512 56.5617021,23.8713512 C58.4496454,23.8713512 60,22.3220724 60,20.4359118 C60,18.5483338 58.4496454,17 56.5617021,17 C53.7300236,17 50.5617021,18.6834645 49.2808511,21.3114268 L49.2808511,20.9745449 Z M23.3406718,10 C27.4435464,10 30,12.4121752 30,16.9646904 C30,21.4480376 27.5114794,24 23.3406718,24 L15,24 L15,10 L23.3406718,10 Z M24.2740844,31.1594233 C32.051981,31.1594233 38,26.6649846 38,17.5458805 C38,8.29515963 31.9217993,4 24.2740844,4 L11.7903953,4 C9.69923755,4 8,5.71704428 8,7.83264676 L8,45.1682801 C8,47.2820288 9.69923755,49 11.7903953,49 C13.8820114,49 15.5817073,47.2820288 15.5817073,45.1682801 L15.5817073,31.1594233 L24.2740844,31.1594233 L24.2740844,31.1594233 Z" id="Fill-62"></path>
        </g>
    </g>
</svg>