<svg width="273" height="59" xmlns="http://www.w3.org/2000/svg"><path d="M246.473 52.363c-1.937 0-3.473 1.394-3.473 3.318 0 1.925 1.536 3.319 3.473 3.319 6.683 0 10.892-4.646 13.831-11.15l12.429-27.872a3.68 3.68 0 00.267-1.394A3.582 3.582 0 00269.392 15c-2.004 0-3.007 1.394-3.34 2.256l-7.35 18.45-7.351-18.45c-.334-.862-1.337-2.256-3.342-2.256a3.581 3.581 0 00-3.607 3.584c0 .597.134 1.062.267 1.394l10.29 23.559c-2.204 5.441-4.21 8.826-8.486 8.826zM231.773 14c-4.48 0-7.285 2.084-8.555 4.034a3.606 3.606 0 00-3.61-3.63 3.605 3.605 0 00-3.608 3.63v24.47c0 2.017 1.538 3.496 3.608 3.496 2.073 0 3.61-1.479 3.61-3.497v-14.99c0-3.966 1.67-6.925 6.682-6.925 4.345 0 5.882 2.623 5.882 6.454v15.461c0 2.018 1.47 3.497 3.61 3.497 2.003 0 3.608-1.479 3.608-3.497V25.697C243 19.85 240.86 14 231.772 14zm-31 0c-4.479 0-7.285 2.084-8.556 4.034a3.605 3.605 0 00-3.61-3.63 3.605 3.605 0 00-3.607 3.63v24.47c0 2.017 1.536 3.496 3.608 3.496 2.073 0 3.61-1.479 3.61-3.497v-14.99c0-3.966 1.67-6.925 6.683-6.925 4.345 0 5.882 2.623 5.882 6.454v15.461c0 2.018 1.47 3.497 3.607 3.497 2.006 0 3.61-1.479 3.61-3.497V25.697C212 19.85 209.862 14 200.773 14zm-34.39 26c-3.632 0-5.383-1.364-5.383-3.618 0-2.136 1.557-3.382 4.41-3.382H173v1.662c0 3.322-3.179 5.338-6.616 5.338zm1.252-19.613c3.916 0 6.142 1.995 6.142 4.99v1.197h-8.842c-5.872 0-10.935 3.194-10.935 9.38C154 41.944 158.387 46 165.002 46c4.051 0 7.021-.997 8.843-3.859 0 1.93 1.62 3.526 3.578 3.526 1.957 0 3.577-1.596 3.577-3.526v-17.03C181 18.058 176.004 14 167.635 14c-5.806 0-9.18 2.195-11.07 4.258a3.268 3.268 0 00-.877 2.195c0 1.73 1.417 3.126 3.171 3.126.811 0 1.35-.198 2.026-.664 1.687-1.197 3.78-2.528 6.75-2.528zM146.222 0c-2.056 0-3.778 1.736-3.778 3.804v26.44L122.827 1.601c-.663-1-1.723-1.602-3.05-1.602C117.724 0 116 1.736 116 3.804v38.39c0 2.07 1.723 3.806 3.778 3.806 2.054 0 3.778-1.736 3.778-3.805V15.89l19.55 28.442A3.794 3.794 0 00146.222 46c2.055 0 3.778-1.736 3.778-3.805V3.805C150 1.735 148.277 0 146.222 0zM98.637 15.149h-1.569c-1.704 0-3.068 1.335-3.068 3.004 0 1.671 1.364 3.005 3.068 3.005h1.569v15.761c0 5.275 3.75 9.081 9.818 9.081 1.773 0 3.205-1.401 3.205-3.138 0-1.736-1.432-3.138-3.205-3.138-1.228 0-2.591-.868-2.591-2.405V21.158h3.068c1.704 0 3.068-1.334 3.068-3.005 0-1.669-1.364-3.004-3.068-3.004h-3.068v-5.61c0-1.938-1.637-3.539-3.614-3.539-1.977 0-3.613 1.601-3.613 3.54v5.609zM81.772 14c-4.478 0-7.284 2.084-8.554 4.034a3.605 3.605 0 00-3.61-3.63A3.605 3.605 0 0066 18.033v24.47C66 44.52 67.537 46 69.608 46c2.072 0 3.61-1.479 3.61-3.497v-14.99c0-3.966 1.67-6.925 6.683-6.925 4.344 0 5.881 2.623 5.881 6.454v15.461c0 2.018 1.47 3.497 3.61 3.497C91.395 46 93 44.521 93 42.503V25.697C93 19.85 90.862 14 81.772 14zM57.97 10C60.574 10 62 8.511 62 6.093 62 3.24 60.574 2 57.97 2 55.426 2 54 3.24 54 6.093 54 8.51 55.427 10 57.97 10zM61 18.562C61 16.584 59.444 15 57.5 15S54 16.584 54 18.562V42.44c0 1.977 1.556 3.56 3.5 3.56s3.5-1.583 3.5-3.56V18.561zm-19.72-.587a3.625 3.625 0 00-3.64-3.64 3.624 3.624 0 00-3.64 3.64v24.388A3.624 3.624 0 0037.64 46a3.624 3.624 0 003.64-3.637V28.349c0-4.513 2.63-7.478 7.282-7.478A3.451 3.451 0 0052 17.436 3.45 3.45 0 0048.562 14c-2.832 0-6 1.683-7.281 4.311v-.336zM15.34 7C19.445 7 22 9.412 22 13.965 22 18.448 19.511 21 15.34 21H7V7h8.34zm.934 21.16C24.052 28.16 30 23.664 30 14.545 30 5.296 23.922 1 16.274 1H3.79C1.7 1 0 2.717 0 4.833v37.335C0 44.282 1.7 46 3.79 46c2.092 0 3.792-1.718 3.792-3.832V28.16h8.692z" fill="#FFF" fill-rule="evenodd"/></svg>