<svg width="784" height="265" xmlns="http://www.w3.org/2000/svg" xmlns:xlink="http://www.w3.org/1999/xlink"><defs><path id="a" d="M.16.658h45.98V2.94H.16z"/></defs><g fill="none" fill-rule="evenodd"><g transform="translate(85 262)"><mask id="b" fill="#fff"><use xlink:href="#a"/></mask><path d="M23.15.658c12.698 0 22.99.523 22.99 1.17C46.14 2.474 35.849 3 23.15 3 10.454 3 .16 2.474.16 1.828c0-.647 10.293-1.17 22.99-1.17" fill="#1C1038" mask="url(#b)"/></g><path d="M181.737 52.265C162.866 33.394 136.797 21.722 108 21.722c-28.796 0-54.866 11.672-73.737 30.543C15.393 71.135 3.721 97.205 3.721 126s11.673 54.865 30.542 73.736c18.871 18.87 44.94 30.542 73.737 30.542 28.795 0 54.865-11.673 73.737-30.542 18.87-18.871 30.542-44.94 30.542-73.736 0-28.796-11.673-54.867-30.542-73.736zM108 18c29.823 0 56.825 12.089 76.369 31.633C203.91 69.175 216 96.177 216 126c0 29.822-12.089 56.824-31.631 76.368C164.825 221.91 137.822 234 108 234c-29.823 0-56.825-12.089-76.369-31.631C12.09 182.825 0 155.823 0 126s12.089-56.825 31.631-76.368C51.175 30.089 78.177 18 108 18z" fill="#1C1038"/><path d="M59.233 132.46a2.014 2.014 0 01.538 2.798 2.019 2.019 0 01-2.8.539c-3.262-2.216-5.468-2.643-6.817-2-1.163.555-1.821 2.058-2.027 3.915-.241 2.187.17 4.76 1.147 7.016.467 1.082 1.064 2.081 1.78 2.908L47.74 150c-.876-1.086-1.608-2.337-2.185-3.674-1.239-2.867-1.76-6.174-1.45-9.03a17.024 17.024 0 01-2.382-2.383c-1.965-2.423-2.868-5.063-2.854-7.689.014-2.611.939-5.164 2.626-7.44 1.51-2.036 3.638-3.858 6.271-5.296-15.66-22.118-11.01-38.655 3.512-49.547C64.556 54.981 86.312 50 108 50c21.687 0 43.443 4.98 56.721 14.941 14.522 10.892 19.174 27.43 3.513 49.546 2.632 1.438 4.76 3.26 6.27 5.297 1.687 2.276 2.61 4.829 2.626 7.44.014 2.626-.89 5.264-2.854 7.69a17.024 17.024 0 01-2.381 2.382c.309 2.855-.211 6.163-1.45 9.03a16.148 16.148 0 01-1.956 3.382l-3.252-2.426a11.597 11.597 0 001.488-2.554c.976-2.257 1.388-4.83 1.147-7.016-.205-1.857-.863-3.36-2.027-3.915-1.348-.643-3.554-.216-6.815 2a2.02 2.02 0 01-2.802-.539 2.014 2.014 0 01.538-2.798c4.643-3.153 8.239-3.545 10.82-2.316 1.295.617 2.289 1.613 3.003 2.856.196-.208.38-.42.552-.632 1.345-1.659 1.962-3.414 1.953-5.128-.01-1.727-.655-3.462-1.834-5.053-1.5-2.025-3.85-3.803-6.86-5.064l-2.397-1.001 1.559-2.073c15.621-20.783 11.838-36.057-1.261-45.883-12.55-9.412-33.393-14.119-54.301-14.119s-41.753 4.708-54.302 14.12c-13.1 9.826-16.881 25.1-1.26 45.882l1.558 2.073-2.397 1.001c-3.01 1.261-5.359 3.04-6.86 5.064-1.179 1.59-1.825 3.326-1.834 5.053-.009 1.714.608 3.47 1.953 5.128.172.212.356.425.552.633.713-1.244 1.708-2.24 3.004-2.857 2.58-1.23 6.175-.837 10.819 2.316" fill="#1C1038"/><path d="M82 210c3.55 48 46.45 48 50 0H82" fill="#FFF"/><path d="M95.551 244.272c-7.829-5.405-14.117-16.784-15.39-34.081L80 208h54l-.161 2.19c-1.273 17.298-7.561 28.677-15.391 34.082C114.85 246.756 110.93 248 107 248c-3.93 0-7.851-1.242-11.449-3.728zm-11.192-32.194c1.502 14.69 6.872 24.287 13.455 28.834 2.906 2.006 6.052 3.008 9.186 3.008 3.134 0 6.281-1.003 9.185-3.008 6.584-4.547 11.953-14.144 13.454-28.834H84.36z" fill="#1C1038"/><path d="M107 213H77.342a2.02 2.02 0 01-2.011-1.967c-.492-4.907-.427-9.89.139-14.86.579-5.085 1.689-10.177 3.27-15.173l3.13.965 6.736 1.313c-2.752.03-4.98.069-6.403.115a76.138 76.138 0 00-2.74 13.241c-.47 4.127-.575 8.25-.284 12.307h55.642c.293-4.058.186-8.18-.284-12.307a76.14 76.14 0 00-2.742-13.24l3.706-1.62c1.453 4.747 2.48 9.577 3.03 14.4.57 5.018.631 10.05.124 15.003a2.013 2.013 0 01-1.997 1.818V213H107m38.18 11.129c-.948-3.043-1.095-6.793-.039-11.26-2.344-10.275-4.146-20.525-2.512-25.206 2.189-6.277 8.103-5.405 20.866 9.884 3.536 4.236 5.883 8.656 7.198 12.876 1.339 4.301 1.613 8.411.987 11.933-.657 3.697-2.303 6.782-4.76 8.84a11.427 11.427 0 01-3.955 2.16c-2.498.783-5.27.857-7.886.194a13.963 13.963 0 01-5.958-3.172c-1.737-1.573-3.13-3.653-3.94-6.25zm4.013-10.749c-.986 3.9-.912 7.065-.14 9.542.584 1.873 1.567 3.352 2.782 4.453 1.216 1.102 2.682 1.842 4.228 2.234 1.9.483 3.903.43 5.696-.129a7.401 7.401 0 002.558-1.4c1.712-1.432 2.876-3.675 3.365-6.422.519-2.92.278-6.37-.862-10.028-1.164-3.736-3.26-7.675-6.436-11.475-9.356-11.21-13.13-13.455-13.931-11.157-1.334 3.821.486 13.596 2.746 23.436l.111.48-.117.466z" fill="#1C1038"/><path d="M167.66 205.091a7.5 7.5 0 11-2.32 14.818 7.5 7.5 0 012.32-14.818" fill="#7ED2EF"/><path d="M170.913 209.28a5.439 5.439 0 00-3.566-2.175 5.452 5.452 0 00-4.067.984 5.438 5.438 0 00-2.175 3.564 5.448 5.448 0 00.983 4.066 5.438 5.438 0 003.543 2.172l.022.004a5.45 5.45 0 004.066-.982 5.438 5.438 0 002.172-3.544l.004-.02a5.454 5.454 0 00-.982-4.068zm-2.947-6.165a9.475 9.475 0 016.208 3.79 9.46 9.46 0 011.742 6.842l-.031.22a9.466 9.466 0 01-3.79 6.206 9.451 9.451 0 01-6.84 1.743l-.22-.03a9.476 9.476 0 01-6.21-3.79 9.465 9.465 0 01-1.71-7.06 9.474 9.474 0 013.79-6.209 9.463 9.463 0 017.06-1.712z" fill="#1C1038"/><path d="M66.774 212.821c3.86 15.337-7.267 21.102-15.156 18.625-9.244-2.9-11.184-18.774.423-32.733 22.146-26.632 19.394-6.267 14.733 14.108" fill="#D1D4E2"/><path d="M64.948 222.922c.771-2.477.846-5.643-.14-9.542l-.118-.467.11-.479c2.261-9.841 4.08-19.615 2.747-23.436-.801-2.298-4.576-.052-13.931 11.156-3.174 3.801-5.272 7.74-6.436 11.476-1.139 3.657-1.38 7.108-.862 10.028.489 2.747 1.653 4.99 3.365 6.422a7.411 7.411 0 002.558 1.4c1.794.56 3.796.612 5.696.13 1.546-.393 3.014-1.133 4.228-2.235 1.217-1.101 2.2-2.58 2.783-4.453zm3.911-10.053c1.056 4.467.91 8.217-.04 11.26-.81 2.596-2.202 4.676-3.94 6.25a13.956 13.956 0 01-5.958 3.171c-2.615.663-5.387.59-7.885-.193a11.427 11.427 0 01-3.956-2.161c-2.456-2.058-4.102-5.143-4.76-8.84-.626-3.522-.352-7.632.988-11.933 1.314-4.22 3.662-8.64 7.197-12.876 12.764-15.288 18.677-16.16 20.867-9.884 1.632 4.68-.169 14.93-2.513 25.206z" fill="#1C1038"/><path d="M47.34 205.091a7.5 7.5 0 102.32 14.818 7.5 7.5 0 00-2.32-14.818" fill="#7ED2EF"/><path d="M40.826 206.905a9.478 9.478 0 016.208-3.79 9.462 9.462 0 017.062 1.712 9.473 9.473 0 013.789 6.208 9.464 9.464 0 01-1.71 7.06 9.474 9.474 0 01-6.21 3.79 9.46 9.46 0 01-7.06-1.713 9.465 9.465 0 01-3.79-6.207 9.464 9.464 0 011.71-7.06zm6.827.2a5.436 5.436 0 00-3.565 2.176 5.449 5.449 0 00-.983 4.067 5.456 5.456 0 006.242 4.546 5.434 5.434 0 003.565-2.175 5.447 5.447 0 00.983-4.067 5.43 5.43 0 00-2.176-3.563 5.448 5.448 0 00-4.066-.984zm-.574-60.055a7.122 7.122 0 015.016-2.05 7.13 7.13 0 014.076 1.27l-.352 5.445L57 157.05a7.12 7.12 0 01-4.905 1.95 7.13 7.13 0 01-4.997-2.038l-.02-.02a6.93 6.93 0 01-2.078-4.94 6.92 6.92 0 011.958-4.821l.12-.13zm5.016 1.947a3.06 3.06 0 00-2.152.879l-.084.08a2.965 2.965 0 00-.808 2.045c0 .834.337 1.583.884 2.123l.008.007a3.049 3.049 0 002.152.872c.846 0 1.607-.334 2.152-.872v-.007a2.978 2.978 0 000-4.248 3.06 3.06 0 00-2.152-.88zm113.938.879a3.085 3.085 0 00-2.163-.88c-.844 0-1.609.338-2.162.88h-.008a2.968 2.968 0 00-.887 2.125c0 .834.339 1.583.887 2.123l.008.007a3.075 3.075 0 002.162.872c.81 0 1.542-.302 2.083-.797l.08-.082a2.97 2.97 0 000-4.248zM163.87 145a7.18 7.18 0 015.042 2.05 6.917 6.917 0 012.088 4.951 6.916 6.916 0 01-2.088 4.948l-.133.12A7.177 7.177 0 01163.87 159a7.179 7.179 0 01-4.87-1.896l1.515-6.271-.747-4.558A7.185 7.185 0 01163.87 145z" fill="#1C1038"/><path d="M94.906 186.512c-37.583-3.637-42.183-24.31-40.66-41.985.43-5.007 1.363-9.719 2.153-13.702.3-1.517.58-2.928.791-4.14a2.02 2.02 0 012.093-1.682l-1.8 8.176 1.388 6.652a81.425 81.425 0 00-.606 5.048c-1.323 15.382 2.638 33.316 34.451 37.294a15.771 15.771 0 01-.76-4.858c0-1.123.903-2.036 2.017-2.036 1.115 0 2.018.913 2.018 2.036a11.63 11.63 0 003.37 8.212c2.082 2.1 4.96 3.4 8.14 3.4 3.176 0 6.055-1.3 8.137-3.4a11.626 11.626 0 003.37-8.212c0-1.123.903-2.036 2.018-2.036a2.03 2.03 0 012.019 2.036c0 1.696-.268 3.33-.76 4.858 31.812-3.978 35.773-21.912 34.449-37.294a85.576 85.576 0 00-.834-6.506l.924-2.189 1.943-4.514c.75 3.798 1.586 8.2 1.987 12.857 1.522 17.674-3.078 38.348-40.66 41.985a15.862 15.862 0 01-1.603 1.894c-2.813 2.837-6.7 4.594-10.99 4.594-4.294 0-8.18-1.757-10.992-4.594a15.767 15.767 0 01-1.603-1.894" fill="#1C1038"/><path d="M94.973 118.027a20.41 20.41 0 00-14.473-5.994 20.408 20.408 0 00-14.473 5.994 20.406 20.406 0 00-5.995 14.473c0 5.652 2.291 10.77 5.995 14.473a20.403 20.403 0 0014.473 5.994c5.651 0 10.769-2.29 14.473-5.994a20.402 20.402 0 005.995-14.473 20.406 20.406 0 00-5.995-14.473zM80.5 108a24.43 24.43 0 0117.324 7.176A24.425 24.425 0 01105 132.5a24.43 24.43 0 01-7.176 17.325A24.429 24.429 0 0180.5 157a24.422 24.422 0 01-17.324-7.175A24.423 24.423 0 0156 132.5a24.42 24.42 0 017.176-17.324A24.428 24.428 0 0180.5 108zm37.675 7.176A24.431 24.431 0 01135.501 108c6.764 0 12.89 2.744 17.322 7.176A24.425 24.425 0 01160 132.5c0 6.766-2.743 12.89-7.177 17.325A24.422 24.422 0 01135.501 157a24.43 24.43 0 01-17.326-7.175A24.428 24.428 0 01111 132.5c0-6.764 2.742-12.89 7.175-17.324zm17.326-3.143a20.411 20.411 0 00-14.475 5.994 20.406 20.406 0 00-5.996 14.473c0 5.652 2.292 10.77 5.996 14.473a20.407 20.407 0 0014.475 5.994c5.65 0 10.769-2.29 14.472-5.994a20.402 20.402 0 005.995-14.473 20.406 20.406 0 00-5.995-14.473 20.406 20.406 0 00-14.472-5.994z" fill="#1C1038"/><path d="M70 112.618c.776-2.883 1.146-6.377 1.024-10.61a2.033 2.033 0 01-.001-.235c.065-1.095 1.024-1.929 2.14-1.865l.754.037.753.006c2.758 0 5.404-.445 7.864-1.264a24.587 24.587 0 004.996-2.313 28.3 28.3 0 01-3.655-4.284 1.956 1.956 0 01.538-2.749 2.045 2.045 0 012.805.527 24.223 24.223 0 004.768 5.102 24.53 24.53 0 004.033 2.625 24.729 24.729 0 0011.429 2.77 24.72 24.72 0 0011.427-2.77 24.479 24.479 0 004.034-2.625 24.247 24.247 0 004.767-5.102 2.045 2.045 0 012.805-.527 1.955 1.955 0 01.538 2.749 28.304 28.304 0 01-3.654 4.284 24.559 24.559 0 004.996 2.313 24.855 24.855 0 007.863 1.264l.753-.006.756-.037c1.114-.064 2.072.77 2.138 1.865.004.078.004.156 0 .232-.129 4.423.281 8.04 1.129 10.995l-4.524-1.599c-.42-2.225-.65-4.706-.668-7.477a28.917 28.917 0 01-8.747-1.478 28.597 28.597 0 01-6.923-3.403 28.612 28.612 0 01-3.377 2.062 28.803 28.803 0 01-13.313 3.237c-4.805 0-9.336-1.17-13.315-3.237a28.36 28.36 0 01-3.376-2.062 28.605 28.605 0 01-6.924 3.403 28.923 28.923 0 01-8.747 1.478c-.016 2.504-.206 4.772-.552 6.828L70 112.618M108 198a2 2 0 10.001-3.999A2 2 0 00108 198m0 8a2 2 0 10.001-3.999A2 2 0 00108 206" fill="#1C1038"/><path d="M108 54c-20.976 0-41.89 4.71-54.48 14.127-13.143 9.833-16.936 25.115-1.263 45.91l1.562 2.073-2.404 1.003c-3.022 1.26-5.378 3.04-6.883 5.066-1.182 1.592-1.83 3.328-1.84 5.057-.009 1.714.61 3.47 1.958 5.13l.555.634c.716-1.245 1.714-2.241 3.013-2.859 2-.95 4.609-.932 7.84.58.456-6.049 3.11-11.49 7.165-15.53a24.738 24.738 0 017.826-5.263c.372-2.335.53-4.995.444-8.029a2.026 2.026 0 012.143-2.139l.757.039.755.004c2.764 0 5.416-.453 7.882-1.286a24.59 24.59 0 005.008-2.355 28.64 28.64 0 01-3.664-4.363 2.013 2.013 0 01.54-2.8 2.028 2.028 0 012.81.537 24.571 24.571 0 004.778 5.195l.15.122A24.479 24.479 0 00108 100.226a24.478 24.478 0 0015.347-5.373l.15-.122a24.512 24.512 0 004.779-5.195 2.03 2.03 0 012.81-.538 2.013 2.013 0 01.54 2.8 28.706 28.706 0 01-3.664 4.364 24.523 24.523 0 005.008 2.355 24.59 24.59 0 007.883 1.286l.754-.004.756-.039a2.026 2.026 0 012.145 2.136c-.086 3.035.07 5.696.442 8.032a24.743 24.743 0 017.827 5.263c4.056 4.04 6.71 9.481 7.166 15.53 3.23-1.512 5.838-1.53 7.838-.58 1.3.618 2.298 1.614 3.013 2.858l.555-.634c1.35-1.658 1.968-3.416 1.96-5.13-.011-1.728-.658-3.464-1.842-5.056-1.504-2.025-3.861-3.806-6.881-5.066l-2.405-1.003 1.563-2.074c15.673-20.794 11.878-36.077-1.264-45.909C149.89 58.71 128.977 54 108 54" fill="#D1D4E2"/><path d="M100.055 155.956h14.89c1.115 0 2.02.91 2.02 2.032 0 2.63-1.06 5.011-2.773 6.733a9.41 9.41 0 01-13.376 0l-.015-.014a9.531 9.531 0 01-2.765-6.719c0-1.122.905-2.032 2.02-2.032zm20.707-54.848a28.107 28.107 0 01-13.262 3.308c-4.785 0-9.3-1.196-13.262-3.308A28.128 28.128 0 0190.875 99a28.15 28.15 0 01-15.61 4.988 48.124 48.124 0 01-.25 4.734 24.522 24.522 0 015.343-.587c6.778 0 12.916 2.766 17.358 7.234a24.695 24.695 0 017.191 17.462 24.7 24.7 0 01-7.19 17.464c-4.443 4.468-10.581 7.233-17.36 7.233-6.778 0-12.915-2.764-17.358-7.233a24.793 24.793 0 01-4.661-6.533 76.38 76.38 0 00-.122 1.274c-1.324 15.353 2.64 33.252 34.486 37.223a15.699 15.699 0 01-.762-4.849c0-1.12.904-2.032 2.02-2.032s2.02.911 2.02 2.032c0 3.2 1.29 6.1 3.374 8.196A11.453 11.453 0 00107.5 189c3.18 0 6.062-1.298 8.146-3.394a11.586 11.586 0 003.374-8.196c0-1.12.904-2.032 2.02-2.032 1.115 0 2.02.911 2.02 2.032a15.76 15.76 0 01-.76 4.85c31.844-3.972 35.81-21.871 34.483-37.224a76.388 76.388 0 00-.121-1.274 24.793 24.793 0 01-4.662 6.533c-4.44 4.469-10.58 7.233-17.357 7.233-6.78 0-12.917-2.765-17.36-7.233a24.7 24.7 0 01-7.19-17.464 24.694 24.694 0 017.19-17.462c4.443-4.468 10.58-7.234 17.36-7.234 1.834 0 3.621.203 5.342.587a48.143 48.143 0 01-.25-4.734A28.144 28.144 0 01124.124 99a28.377 28.377 0 01-3.363 2.108z" fill="#FACFA0"/><path d="M135.501 112a20.441 20.441 0 00-14.496 6.004A20.44 20.44 0 00115 132.5a20.435 20.435 0 006.005 14.496A20.437 20.437 0 00135.5 153a20.43 20.43 0 0014.494-6.004A20.435 20.435 0 00156 132.5a20.44 20.44 0 00-6.005-14.496A20.436 20.436 0 00135.501 112M101 132.5a20.44 20.44 0 00-6.005-14.496A20.44 20.44 0 0080.5 112a20.439 20.439 0 00-14.495 6.004A20.44 20.44 0 0060 132.5a20.435 20.435 0 006.005 14.496A20.434 20.434 0 0080.5 153c5.66 0 10.786-2.294 14.495-6.004A20.435 20.435 0 00101 132.5" fill="#FFF"/><path d="M106.841 159.222h-4.398a5.628 5.628 0 001.2 1.896l.007.009a5.322 5.322 0 003.85 1.652 5.316 5.316 0 003.85-1.661 5.677 5.677 0 001.205-1.896h-5.714zM100.027 155h14.946c1.12 0 2.027.945 2.027 2.11 0 2.731-1.063 5.205-2.783 6.993-1.719 1.79-4.094 2.897-6.716 2.897-2.615 0-4.988-1.107-6.71-2.897l-.015-.014A10.077 10.077 0 0198 157.11c0-1.165.909-2.11 2.027-2.11z" fill="#1C1038"/><path d="M113 160h-10a4.722 4.722 0 001.186 1.599l.007.008c.97.86 2.317 1.393 3.809 1.393 1.487 0 2.833-.535 3.807-1.401.51-.452.917-.994 1.191-1.599" fill="#F58F7E"/><path d="M160 135.511c.55 2.801 1.066 5.843 1.357 9.008.04.417.074.836.104 1.256a7.75 7.75 0 014.685.225c.222-.373.425-.76.608-1.163 1.002-2.183 1.424-4.67 1.177-6.786-.21-1.796-.885-3.25-2.08-3.788-1.22-.548-3.124-.29-5.851 1.248m-105.356 9.008c.292-3.165.806-6.208 1.356-9.008-2.727-1.538-4.632-1.796-5.852-1.247-1.193.537-1.868 1.991-2.079 3.787-.247 2.115.175 4.603 1.177 6.786.183.402.386.79.607 1.163a7.728 7.728 0 014.687-.224c.03-.421.065-.84.104-1.257" fill="#FACFA0"/><path d="M53.76 149.578a2.985 2.985 0 00-3.883.3l-.083.08a2.991 2.991 0 00-.794 2.043c0 .833.332 1.582.87 2.12l.007.008a2.973 2.973 0 002.116.871c.775 0 1.48-.29 2.007-.767a47.08 47.08 0 01-.24-4.655m107.48 0a47.41 47.41 0 01-.24 4.655 2.978 2.978 0 002.006.767c.792 0 1.51-.302 2.039-.796l.079-.082a2.998 2.998 0 00.876-2.12 2.997 2.997 0 00-2.994-3.002 2.98 2.98 0 00-1.765.578" fill="#7ED2EF"/><path d="M89.054 182.764c-.172 1.891-.06 3.59.335 5.01.411 1.468 1.13 2.617 2.159 3.324 1.045.72 2.484 1.035 4.329.833 2.043-.224 4.518-1.068 7.442-2.66l2.808 1.31.873-.19v1.379c-4.167 2.521-7.737 3.822-10.703 4.146-2.84.312-5.17-.256-6.99-1.507-1.837-1.264-3.082-3.177-3.745-5.552-.557-1.994-.699-4.323-.431-6.857l3.923.764m36.892 0c.172 1.891.06 3.59-.336 5.01-.41 1.468-1.129 2.617-2.158 3.324-1.046.72-2.484 1.035-4.33.833-2.042-.224-4.517-1.068-7.441-2.66l-2.81 1.31-.871-.19v1.379c4.167 2.521 7.737 3.822 10.702 4.146 2.84.312 5.172-.256 6.991-1.507 1.836-1.264 3.081-3.177 3.745-5.552.557-1.994.699-4.323.431-6.857l-3.923.764" fill="#1C1038"/><path d="M91.628 191.103c1.072.723 2.549 1.04 4.442.837 1.434-.154 3.076-.6 4.93-1.378a15.745 15.745 0 01-5.642-4.758A99.735 99.735 0 0189 185c.039 1.003.175 1.931.413 2.763.422 1.475 1.16 2.63 2.215 3.34" fill="#FFF"/><path d="M96.959 191.966c1.217-.237 2.563-.663 4.041-1.299a16.243 16.243 0 01-4.142-3.045 16.506 16.506 0 01-1.673-1.985c-1.8-.176-3.527-.389-5.185-.637.057.908.192 1.752.406 2.52.433 1.56 1.193 2.78 2.282 3.531 1.046.725 2.466 1.063 4.271.915m22.508-4.406a15.323 15.323 0 01-4.467 3.242c1.535.629 2.912.997 4.133 1.136 1.842.209 3.277-.117 4.32-.86 1.027-.731 1.745-1.919 2.153-3.436.216-.8.346-1.685.394-2.642a92.796 92.796 0 01-4.955.629 16.04 16.04 0 01-1.578 1.93" fill="#F58F7E"/><path d="M109.016 204.898c0 1.132-.903 2.05-2.016 2.05s-2.017-.918-2.017-2.05c0-1.134.904-2.052 2.017-2.052s2.016.918 2.016 2.052zm0-8.206c0 1.133-.903 2.05-2.016 2.05s-2.017-.917-2.017-2.05c0-1.133.904-2.052 2.017-2.052s2.016.919 2.016 2.052zm15.872-1.664c-1.84 1.276-4.196 1.856-7.068 1.538-2.813-.31-6.163-1.498-10.045-3.766h-.158c-.438 0-.87-.017-1.3-.055-3.922 2.304-7.303 3.508-10.138 3.82-2.871.319-5.228-.26-7.068-1.537-1.857-1.288-3.116-3.24-3.786-5.662-.39-1.413-.58-2.99-.568-4.686a68.35 68.35 0 01-2.798-.68 77.278 77.278 0 00-2.512 12.58c-.47 4.164-.576 8.325-.285 12.42h55.675c.293-4.095.186-8.256-.284-12.42a77.34 77.34 0 00-2.43-12.286c-.93.23-1.891.446-2.881.647-.008 1.598-.197 3.085-.567 4.425-.672 2.422-1.93 4.374-3.787 5.662z" fill="#FFF"/><path d="M130 212h-3.98a86.583 86.583 0 01-1.095 6.694 102.652 102.652 0 01-2.117 8.504 2.048 2.048 0 01-1.613 1.44c-10.486 1.81-17.903 1.81-28.389 0a2.044 2.044 0 01-1.612-1.44 102.209 102.209 0 01-2.118-8.504A86.583 86.583 0 0187.982 212H84c1.526 14.763 6.98 24.408 13.669 28.977C100.62 242.993 103.816 244 107 244c3.184 0 6.38-1.008 9.33-3.023 6.69-4.57 12.143-14.214 13.669-28.977" fill="#7ED2EF"/><path d="M57 229.94c-3.353-1.141-5.702-4.027-6.73-7.907l-.078.013A9.425 9.425 0 0147 222c.505 2.63 1.644 4.777 3.3 6.161a7.353 7.353 0 002.537 1.386c1.316.41 2.746.544 4.163.393m-5-26.578c.486.173.955.386 1.405.638a39.618 39.618 0 014.425-6.857c3.245-4.068 5.942-7.062 8.17-9.143-2.051.996-5.686 4.588-11.581 11.981A39.232 39.232 0 0052 203.362" fill="#FFF"/><path d="M146.46 188.816c-1.355 3.844.495 13.677 2.792 23.576l.113.482-.12.47c-1.002 3.922-.926 7.106-.142 9.597.594 1.885 1.593 3.373 2.828 4.48 1.236 1.109 2.726 1.854 4.297 2.248 1.932.485 3.967.433 5.79-.13a7.53 7.53 0 002.6-1.408c1.697-1.406 2.865-3.588 3.382-6.26a9.73 9.73 0 01-3.048.078l-.223-.03a9.664 9.664 0 01-6.324-3.827 9.493 9.493 0 01-1.742-7.129 9.554 9.554 0 013.859-6.268 9.748 9.748 0 012.607-1.341 38.588 38.588 0 00-2.508-3.315c-9.51-11.276-13.346-13.535-14.16-11.223" fill="#D1D4E2"/><path d="M150.26 212.874l-.116.47c-.97 3.922-.897 7.106-.138 9.598.576 1.884 1.543 3.372 2.74 4.48a9.675 9.675 0 004.163 2.247c1.872.485 3.844.433 5.61-.13a6.85 6.85 0 00.481-.173 10.26 10.26 0 01-2.141-.152 9.643 9.643 0 01-4.321-1.91c-1.278-1.008-2.355-2.415-3.072-4.249-.946-2.424-1.26-5.592-.59-9.58l.08-.477-.144-.472c-2.97-9.693-5.5-19.354-4.483-23.29.17-.66.593-.983 1.33-.881-1.226-.625-1.921-.396-2.213.46-1.314 3.845.48 13.678 2.705 23.577l.109.482" fill="#FFF"/><path d="M88.01 210.235a2.03 2.03 0 011.806-2.225 2.019 2.019 0 012.2 1.826 81.724 81.724 0 001.22 8.095 97.25 97.25 0 001.663 6.907c8.624 1.373 15.577 1.373 24.202 0a97.236 97.236 0 001.662-6.907 81.399 81.399 0 001.222-8.095 2.018 2.018 0 012.2-1.826 2.03 2.03 0 011.805 2.225 85.305 85.305 0 01-1.283 8.509 102.95 102.95 0 01-2.092 8.47 2.03 2.03 0 01-1.593 1.435c-10.358 1.801-17.686 1.801-28.044 0a2.025 2.025 0 01-1.592-1.435 102.505 102.505 0 01-2.093-8.47 85.633 85.633 0 01-1.283-8.51" fill="#1C1038"/><path d="M92.984 217.944a98.462 98.462 0 001.694 7.01c8.781 1.394 15.861 1.394 24.644 0a98.45 98.45 0 001.693-7.01c.4-1.98.731-3.961.985-5.944H92a84.75 84.75 0 00.984 5.944" fill="#F58F7E"/><path d="M122 212h-1.924a83.851 83.851 0 01-.541 5.114 97.413 97.413 0 01-1.246 7.108c-3.992.898-7.646 1.484-11.289 1.778 3.956-.008 7.917-.356 12.298-1.044a97.731 97.731 0 001.708-7.012c.403-1.98.738-3.961.994-5.944m-61.051-94.346c-17.199-18.838-21.54-36.466-.36-50.989 12.919-8.859 33.899-12.65 54.737-11.734 10.66.47 21.253 2.17 30.674 5.052C134.744 55.994 121.198 54 107.625 54c-20.857 0-41.651 4.71-54.17 14.127-13.069 9.833-16.84 25.115-1.257 45.91l1.554 2.074-2.391 1.002c-3.003 1.262-5.346 3.04-6.843 5.066-1.176 1.592-1.82 3.328-1.83 5.057-.009 1.714.607 3.47 1.948 5.13l.551.634c.711-1.245 1.704-2.241 2.997-2.859.088-.042.18-.083.272-.122-5.444-5.04 4.352-11.489 12.493-12.365" fill="#FFF"/><path d="M105.228 2.854c-10.54 1.65-17.748 11.533-16.098 22.07 1.65 10.54 11.532 17.748 22.07 16.099 10.54-1.65 17.747-11.532 16.098-22.071-1.65-10.539-11.531-17.747-22.07-16.098" fill="#7ED2EF"/><path d="M90.978 9.369a21.274 21.274 0 0113.94-8.51 21.26 21.26 0 0115.866 3.843 21.274 21.274 0 018.509 13.942l.031.21a21.26 21.26 0 01-3.874 15.654 21.27 21.27 0 01-13.94 8.51l-.212.03a21.256 21.256 0 01-15.654-3.873 21.267 21.267 0 01-8.509-13.94l-.032-.211a21.263 21.263 0 013.875-15.655zm14.558-4.52a17.245 17.245 0 00-11.298 6.894 17.252 17.252 0 00-3.113 12.873l.003.02a17.242 17.242 0 006.89 11.278 17.251 17.251 0 0012.874 3.114l.036-.006a17.237 17.237 0 0011.261-6.888 17.25 17.25 0 003.114-12.872l-.003-.02a17.236 17.236 0 00-6.891-11.28 17.251 17.251 0 00-12.873-3.113z" fill="#1C1038"/><path d="M122.68 17.03c1.54 9.738-5.186 18.87-15.022 20.393-3.388.526-6.704.08-9.658-1.13a17.668 17.668 0 0012.137 2.495l.036-.006a17.546 17.546 0 0011.448-6.933 17.231 17.231 0 003.165-12.955l-.004-.02c-.708-4.46-3.072-8.258-6.374-10.874a17.683 17.683 0 014.272 9.03" fill="#FFF"/><path fill="#1C1038" d="M106 52h4V42h-4z"/><path d="M135.501 115c-4.833 0-9.208 1.96-12.375 5.127A17.441 17.441 0 00118 132.5c0 4.833 1.96 9.209 5.126 12.374A17.447 17.447 0 00135.5 150c4.832 0 9.206-1.96 12.373-5.126A17.442 17.442 0 00153 132.5c0-4.832-1.96-9.207-5.126-12.373A17.444 17.444 0 00135.501 115" fill="#7ED2EF"/><path d="M148.444 132.583a2.038 2.038 0 01-.054 2.853 1.971 1.971 0 01-2.815-.054 14.042 14.042 0 00-4.607-3.217 13.788 13.788 0 00-5.468-1.119c-1.95 0-3.798.399-5.468 1.119a14.046 14.046 0 00-4.608 3.217 1.971 1.971 0 01-2.814.054 2.04 2.04 0 01-.055-2.853 18.033 18.033 0 015.919-4.132A17.702 17.702 0 01135.5 127c2.484 0 4.86.517 7.027 1.45 2.24.965 4.25 2.38 5.917 4.133" fill="#1C1038"/><path d="M150.636 128.291c.64-.95.414-2.255-.508-2.916a1.997 1.997 0 00-2.83.523c-.604.891-1.34 1.69-2.184 2.364a10.397 10.397 0 01-2.75 1.584c-.13.049-.25.11-.364.183l3.445 2.971a14.432 14.432 0 002.164-1.43 14.954 14.954 0 003.027-3.279m-6.758-3.717c.381-.997-.161-2.097-1.212-2.459-1.05-.36-2.212.154-2.593 1.15a9.88 9.88 0 01-1.514 2.62 10.206 10.206 0 01-2.255 2.068c-.112.075-.214.16-.304.25l4.051 1.797a13.65 13.65 0 003.827-5.426" fill="#1C1038"/><path d="M80.5 115c4.832 0 9.207 1.96 12.374 5.127A17.441 17.441 0 0198 132.5c0 4.833-1.96 9.209-5.126 12.374A17.446 17.446 0 0180.5 150a17.45 17.45 0 01-12.374-5.126A17.442 17.442 0 0163 132.5c0-4.832 1.96-9.207 5.126-12.373A17.447 17.447 0 0180.5 115" fill="#7ED2EF"/><path d="M67.556 132.583a2.039 2.039 0 00.054 2.853 1.971 1.971 0 002.814-.054 14.046 14.046 0 014.609-3.217 13.778 13.778 0 015.467-1.119c1.949 0 3.797.399 5.467 1.119a14.03 14.03 0 014.608 3.217 1.972 1.972 0 002.815.054c.791-.772.817-2.05.054-2.853a18.021 18.021 0 00-5.918-4.132A17.702 17.702 0 0080.5 127c-2.484 0-4.86.517-7.027 1.45-2.24.965-4.25 2.38-5.917 4.133" fill="#1C1038"/><path d="M65.364 128.291c-.64-.95-.413-2.255.507-2.916a1.997 1.997 0 012.831.523 10.82 10.82 0 002.182 2.364 10.41 10.41 0 002.753 1.584c.13.049.25.11.363.183L70.555 133a14.433 14.433 0 01-2.164-1.43 14.954 14.954 0 01-3.027-3.279m6.758-3.717c-.381-.997.161-2.097 1.213-2.459 1.05-.36 2.212.154 2.593 1.15.36.934.87 1.82 1.513 2.62.633.786 1.39 1.486 2.254 2.068a2 2 0 01.305.25L75.949 130a13.956 13.956 0 01-1.728-1.79 13.66 13.66 0 01-2.1-3.636M104 134h9v-4h-9zm628.43 53.96c-3.766 0-6.755 2.739-6.755 6.52 0 3.782 2.989 6.52 6.755 6.52 12.99 0 21.174-9.128 26.891-21.905l24.159-54.762a7.3 7.3 0 00.52-2.738c0-3.911-3.119-7.04-7.014-7.04-3.896 0-5.847 2.737-6.495 4.432l-14.288 36.247-14.289-36.247c-.65-1.695-2.6-4.432-6.496-4.432-3.896 0-7.015 3.129-7.015 7.04a7.3 7.3 0 00.52 2.738l20.003 46.286c-4.286 10.693-8.182 17.341-16.496 17.341zm-27.381-74.188c-8.703 0-14.159 4.04-16.626 7.823 0-3.911-3.119-7.04-7.015-7.04a7 7 0 00-7.017 7.04v47.46c0 3.911 2.99 6.78 7.017 6.78 4.026 0 7.015-2.869 7.015-6.78V139.98c0-7.693 3.248-13.43 12.99-13.43 8.442 0 11.43 5.086 11.43 12.517v29.99c0 3.91 2.858 6.779 7.014 6.779 3.896 0 7.015-2.869 7.015-6.78v-32.597c0-11.343-4.157-22.686-21.823-22.686zm-60.897 0c-8.702 0-14.158 4.04-16.626 7.823 0-3.911-3.116-7.04-7.014-7.04-3.896 0-7.015 3.129-7.015 7.04v47.46c0 3.911 2.989 6.78 7.015 6.78 4.028 0 7.014-2.869 7.014-6.78V139.98c0-7.693 3.248-13.43 12.991-13.43 8.442 0 11.43 5.086 11.43 12.517v29.99c0 3.91 2.859 6.779 7.014 6.779 3.898 0 7.017-2.869 7.017-6.78v-32.597c0-11.343-4.16-22.686-21.826-22.686zm-66.22 50.98c-7.273 0-10.78-3-10.78-7.953 0-4.694 3.116-7.432 8.832-7.432h15.2v3.65c0 7.303-6.365 11.735-13.251 11.735zm1.43-38.464c7.535 0 11.821 3.912 11.821 9.78v2.346h-17.016c-11.304 0-21.045 6.258-21.045 18.385 0 11.735 8.444 19.688 21.174 19.688 7.794 0 13.51-1.956 17.017-7.563 0 3.782 3.118 6.91 6.885 6.91 3.766 0 6.883-3.128 6.883-6.91v-33.377c0-13.821-9.611-21.775-25.719-21.775-11.172 0-17.666 4.302-21.304 8.344-1.169 1.304-1.688 2.869-1.688 4.304 0 3.39 2.728 6.127 6.104 6.127 1.56 0 2.597-.391 3.898-1.304 3.249-2.346 7.274-4.955 12.99-4.955zM538.992 86c-4.029 0-7.404 3.39-7.404 7.431v51.633l-38.452-55.935c-1.299-1.956-3.377-3.129-5.974-3.129-4.03 0-7.405 3.39-7.405 7.431v74.971c0 4.043 3.376 7.433 7.405 7.433 4.025 0 7.403-3.39 7.403-7.433v-51.37l38.32 55.544c1.3 1.955 3.639 3.259 6.106 3.259 4.027 0 7.405-3.39 7.405-7.433v-74.97c0-4.042-3.378-7.432-7.405-7.432zm-91.164 29.597h-2.986a5.833 5.833 0 00-5.846 5.867 5.832 5.832 0 005.846 5.867h2.986v30.772c0 10.3 7.144 17.732 18.707 17.732 3.377 0 6.105-2.738 6.105-6.128s-2.728-6.128-6.105-6.128c-2.34 0-4.937-1.695-4.937-4.694V127.33h5.845a5.832 5.832 0 005.847-5.867 5.833 5.833 0 00-5.847-5.867h-5.845v-10.953c0-3.78-3.117-6.91-6.886-6.91-3.766 0-6.884 3.13-6.884 6.91v10.953zm-34.785-1.825c-8.702 0-14.159 4.04-16.626 7.823 0-3.911-3.119-7.04-7.015-7.04-3.898 0-7.014 3.129-7.014 7.04v47.46c0 3.911 2.989 6.78 7.014 6.78 4.027 0 7.015-2.869 7.015-6.78V139.98c0-7.693 3.248-13.43 12.99-13.43 8.442 0 11.431 5.086 11.431 12.517v29.99c0 3.91 2.858 6.779 7.014 6.779 3.896 0 7.014-2.869 7.014-6.78v-32.597c0-11.343-4.155-22.686-21.823-22.686zm-46.735-6.26c5.456 0 8.444-3.128 8.444-8.213 0-5.998-2.988-8.606-8.444-8.606-5.326 0-8.315 2.608-8.315 8.606 0 5.085 2.99 8.214 8.315 8.214zm7.014 14.083c0-3.911-3.117-7.04-7.014-7.04-3.899 0-7.015 3.129-7.015 7.04v47.2c0 3.91 3.116 7.04 7.015 7.04 3.897 0 7.014-3.13 7.014-7.04v-47.2zm-38.812 0c0-3.911-3.117-7.04-7.014-7.04-3.898 0-7.016 3.129-7.016 7.04v47.2c0 3.91 3.118 7.04 7.016 7.04 3.897 0 7.014-3.13 7.014-7.04v-27.12c0-8.737 5.066-14.474 14.03-14.474 3.637 0 6.624-2.999 6.624-6.65 0-3.65-2.987-6.649-6.625-6.649-5.456 0-11.561 3.26-14.029 8.345v-.652zm-49.335-20.993c7.924 0 12.86 4.564 12.86 13.17 0 8.475-4.806 13.299-12.86 13.299h-16.107v-26.469h16.107zm1.17 40.03c15.458 0 27.279-8.867 27.279-26.86 0-18.255-12.08-26.729-27.28-26.729h-24.81c-4.157 0-7.534 3.39-7.534 7.562v73.667c0 4.173 3.377 7.563 7.534 7.563 4.156 0 7.534-3.39 7.534-7.563v-27.64h17.276z" fill="#1C1038"/><path d="M106 43.662a21.263 21.263 0 01-10.521-3.998 21.212 21.212 0 01-8.492-13.904l-.031-.21c-.026-.184-.05-.368-.073-.55-20.244 4.177-38.338 14.233-52.416 28.305C15.644 72.119 4 98.114 4 126.825c0 28.712 11.644 54.705 30.467 73.52a104.798 104.798 0 006.795 6.218 9.452 9.452 0 015.78-3.29 41.164 41.164 0 013.89-5.489c12.708-15.19 18.596-16.058 20.776-9.822 1.626 4.652-.168 14.837-2.502 25.047.96 4.053.922 7.512.188 10.385A103.36 103.36 0 0083.95 228c-1.622-4.399-2.794-9.516-3.37-15.346h-2.984a2.02 2.02 0 01-2.02-1.96c-.495-4.886-.43-9.849.139-14.798a78.839 78.839 0 012.672-13.099c-14.754-4.931-20.946-13.916-23.057-23.647a7.07 7.07 0 01-7.701-1.52l-.02-.02a7.055 7.055 0 01-.806-9.031 16.913 16.913 0 01-1.112-2.15c-1.236-2.863-1.756-6.165-1.448-9.018a16.999 16.999 0 01-2.376-2.38c-1.962-2.42-2.864-5.058-2.849-7.68.014-2.608.937-5.158 2.621-7.431 1.507-2.034 3.631-3.854 6.26-5.29-15.633-22.09-10.99-38.607 3.505-49.486C64.246 55.506 85.029 50.536 106 50.236v-6.574m19.178-9.619c-3.211 4.416-8.103 7.605-13.911 8.516l-.212.032c-.352.052-.704.094-1.055.128v6.601c20.97.302 41.755 5.288 54.597 14.96 14.495 10.915 19.138 27.488 3.506 49.653 2.627 1.44 4.752 3.266 6.26 5.308 1.682 2.28 2.605 4.84 2.62 7.457.014 2.63-.888 5.275-2.85 7.705a17.027 17.027 0 01-2.376 2.388c.309 2.862-.21 6.177-1.447 9.05-.323.75-.693 1.47-1.11 2.152a7.082 7.082 0 011.267 4.054c0 1.96-.794 3.736-2.075 5.02l-.132.122a7.05 7.05 0 01-7.59 1.417c-2.163 10.008-8.618 19.232-24.19 24.093a79.216 79.216 0 012.566 12.776c.574 5.015.635 10.044.125 14.994a2.019 2.019 0 01-2.006 1.816v.005h-2.986c-.588 5.989-1.802 11.226-3.483 15.71a103.17 103.17 0 0014.788-4.49c-.846-2.968-.94-6.586.07-10.863-2.334-10.245-4.129-20.465-2.502-25.132 2.18-6.258 8.068-5.389 20.777 9.855a41.2 41.2 0 013.89 5.507 9.449 9.449 0 016.156 3.787l.105.147a105.269 105.269 0 007.553-6.87C200.356 181.06 212 154.978 212 126.17c0-28.81-11.644-54.893-30.467-73.771-14.076-14.118-32.168-24.209-52.41-28.4a21.376 21.376 0 01-3.945 10.043" fill="#F58F7E"/></g></svg>