<svg width="542" height="664" xmlns="http://www.w3.org/2000/svg" xmlns:xlink="http://www.w3.org/1999/xlink"><defs><path id="a" d="M.06.073h541.136V618H.06z"/><path id="c" d="M.114.96h106.967v106.968H.114z"/></defs><g fill="none" fill-rule="evenodd"><g transform="translate(0 46)"><mask id="b" fill="#fff"><use xlink:href="#a"/></mask><path d="M270.594 611.377c32.085 0 58.095 1.482 58.095 3.312 0 1.826-26.01 3.311-58.095 3.311-32.088 0-58.098-1.485-58.098-3.311 0-1.83 26.01-3.312 58.098-3.312M455.347 85.921c-47.28-47.279-112.6-76.524-184.749-76.524S133.129 38.642 85.849 85.921c-47.28 47.282-76.525 112.602-76.525 184.75 0 72.149 29.245 137.469 76.525 184.748 47.28 47.28 112.6 76.526 184.749 76.526 72.147 0 137.467-29.246 184.749-76.526 47.28-47.279 76.525-112.599 76.525-184.748 0-72.149-29.245-137.47-76.525-184.75zM270.598.073c74.724 0 142.378 30.288 191.343 79.254 48.966 48.966 79.255 116.619 79.255 191.344 0 74.723-30.289 142.377-79.255 191.342-48.967 48.967-116.621 79.256-191.343 79.256-74.724 0-142.377-30.289-191.343-79.256C30.289 413.048 0 345.394 0 270.671c0-74.723 30.289-142.376 79.255-191.344C128.221 30.361 195.874.073 270.598.073z" fill="#1C1038" mask="url(#b)"/></g><path d="M148.331 331.134a5.058 5.058 0 01-5.675 8.373c-8.175-5.559-13.706-6.631-17.087-5.018-2.917 1.393-4.569 5.168-5.082 9.826-.605 5.491.429 11.944 2.875 17.612 1.17 2.713 2.669 5.221 4.46 7.295l-8.303 5.936c-2.199-2.727-4.034-5.865-5.483-9.223-3.105-7.197-4.411-15.496-3.636-22.662-2.313-1.917-4.297-3.918-5.968-5.981-4.928-6.086-7.192-12.707-7.155-19.299.035-6.556 2.352-12.961 6.581-18.676 3.783-5.11 9.121-9.682 15.723-13.291-39.263-55.509-27.603-97.014 8.804-124.351 33.295-25.001 87.836-37.501 142.213-37.501 54.377 0 108.919 12.5 142.213 37.499 36.406 27.338 48.067 68.842 8.803 124.352 6.601 3.609 11.939 8.181 15.722 13.292 4.23 5.715 6.546 12.122 6.582 18.676.036 6.592-2.228 13.213-7.155 19.299-1.671 2.063-3.656 4.064-5.968 5.979.774 7.168-.529 15.467-3.637 22.664-1.319 3.061-2.961 5.94-4.905 8.488l-8.152-6.088c1.471-1.886 2.723-4.07 3.732-6.408 2.446-5.668 3.48-12.121 2.875-17.612-.514-4.658-2.165-8.433-5.083-9.826-3.38-1.611-8.911-.541-17.086 5.018a5.058 5.058 0 01-5.675-8.373c11.641-7.916 20.656-8.901 27.125-5.813 3.248 1.551 5.741 4.047 7.53 7.172.491-.527.955-1.056 1.387-1.592 3.368-4.16 4.917-8.568 4.894-12.867-.024-4.336-1.642-8.691-4.6-12.683-3.76-5.082-9.648-9.547-17.197-12.708l-6.008-2.517 3.904-5.201c39.167-52.161 29.685-90.494-3.16-115.156-31.461-23.624-83.721-35.436-136.141-35.436-52.421 0-104.681 11.813-136.142 35.436-32.846 24.663-42.327 62.996-3.161 115.156l3.906 5.201-6.009 2.517c-7.549 3.161-13.437 7.626-17.199 12.708-2.955 3.992-4.575 8.347-4.597 12.683-.024 4.299 1.523 8.707 4.893 12.867.433.534.895 1.067 1.386 1.592 1.787-3.123 4.283-5.621 7.531-7.172 6.469-3.088 15.483-2.103 27.125 5.813" fill="#1C1038"/><path d="M206.323 527.271c8.903 119.307 116.531 119.307 125.434 0H206.323" fill="#FFF"/><path d="M240.129 612.546c-19.771-13.464-35.65-41.808-38.865-84.898l-.407-5.457h136.367l-.408 5.457c-3.214 43.09-19.094 71.434-38.865 84.898-9.085 6.188-18.985 9.284-28.911 9.284-9.925 0-19.825-3.094-28.911-9.284zm-28.261-80.195c3.792 36.592 17.349 60.498 33.976 71.822 7.338 4.998 15.281 7.498 23.196 7.498 7.916 0 15.859-2.5 23.196-7.498 16.627-11.324 30.184-35.23 33.976-71.822H211.868z" fill="#1C1038"/><path d="M269.04 532.351h-74.868a5.08 5.08 0 01-5.076-4.926c-1.24-12.277-1.077-24.75.352-37.183 1.463-12.731 4.264-25.475 8.255-37.977l7.903 2.416 17.002 3.287c-6.945.076-12.574.172-16.162.287-3.297 10.901-5.638 22.008-6.919 33.137-1.186 10.328-1.454 20.645-.716 30.799H339.27c.737-10.154.469-20.471-.717-30.799-1.281-11.129-3.622-22.236-6.919-33.137l9.351-4.052c3.669 11.881 6.26 23.966 7.647 36.039 1.444 12.556 1.596 25.15.316 37.545a5.068 5.068 0 01-5.04 4.55v.014H269.04m96.036 29.006c-2.371-7.598-2.739-16.963-.098-28.115-5.863-25.657-10.368-51.254-6.284-62.94 5.476-15.67 20.265-13.492 52.186 24.684 8.842 10.576 14.712 21.611 18.001 32.148 3.35 10.741 4.037 21.004 2.471 29.799-1.646 9.229-5.763 16.932-11.907 22.069a28.65 28.65 0 01-9.89 5.398c-6.249 1.949-13.182 2.137-19.722.482-5.391-1.365-10.556-3.99-14.9-7.922-4.346-3.927-7.832-9.121-9.857-15.603zm10.033-26.84c-2.463 9.736-2.278 17.641-.349 23.824 1.461 4.676 3.92 8.373 6.959 11.121 3.039 2.748 6.708 4.598 10.574 5.579 4.753 1.201 9.761 1.076 14.246-.325a18.525 18.525 0 006.399-3.492c4.28-3.58 7.191-9.178 8.413-16.037 1.298-7.289.695-15.908-2.154-25.039-2.913-9.33-8.158-19.162-16.094-28.654-23.402-27.987-32.84-33.596-34.845-27.858-3.335 9.541 1.218 33.949 6.871 58.52l.276 1.197-.296 1.164z" fill="#1C1038"/><path d="M419.779 513.761c10.228 1.602 17.223 11.192 15.621 21.418-1.599 10.229-11.189 17.223-21.418 15.621-10.226-1.599-17.221-11.189-15.621-21.418 1.601-10.226 11.192-17.22 21.418-15.621" fill="#7ED2EF"/><path d="M427.938 524.212a13.629 13.629 0 00-8.933-5.451 13.674 13.674 0 00-10.193 2.463 13.633 13.633 0 00-5.451 8.934c-.585 3.74.4 7.365 2.463 10.193a13.636 13.636 0 008.881 5.442l.054.007c3.74.586 7.364-.398 10.191-2.461a13.633 13.633 0 005.443-8.88l.007-.053a13.662 13.662 0 00-2.462-10.194zm-7.384-15.451a23.744 23.744 0 0115.558 9.498c3.49 4.784 5.205 10.856 4.367 17.147l-.078.551c-1.016 6.494-4.574 11.964-9.498 15.556-4.782 3.489-10.854 5.205-17.144 4.367l-.551-.08c-6.494-1.013-11.966-4.57-15.558-9.496-3.588-4.922-5.304-11.211-4.29-17.695a23.755 23.755 0 019.498-15.559c4.923-3.59 11.211-5.304 17.696-4.289z" fill="#1C1038"/><path d="M167.893 533.287c9.642 38.101-18.153 52.423-37.859 46.271-23.093-7.209-27.939-46.64 1.056-81.318 55.323-66.164 48.449-15.572 36.803 35.047" fill="#D1D4E2"/><path d="M163.321 558.341c1.929-6.183 2.116-14.088-.349-23.824l-.295-1.164.275-1.197c5.653-24.572 10.205-48.977 6.871-58.52-2.005-5.736-11.445-.129-34.844 27.858-7.937 9.492-13.183 19.324-16.095 28.654-2.849 9.131-3.452 17.75-2.154 25.039 1.222 6.859 4.133 12.457 8.414 16.037a18.511 18.511 0 006.398 3.492c4.485 1.401 9.493 1.526 14.246.325 3.866-.981 7.536-2.831 10.574-5.579 3.04-2.748 5.498-6.445 6.959-11.121zm9.783-25.099c2.641 11.152 2.272 20.517-.1 28.115-2.024 6.482-5.51 11.676-9.856 15.603-4.344 3.932-9.509 6.557-14.899 7.922-6.541 1.655-13.473 1.467-19.722-.482a28.646 28.646 0 01-9.891-5.398c-6.144-5.137-10.261-12.84-11.906-22.069-1.567-8.795-.88-19.058 2.47-29.799 3.289-10.537 9.159-21.572 18.001-32.148 31.92-38.176 46.709-40.354 52.186-24.684 4.083 11.686-.422 37.283-6.283 62.94z" fill="#1C1038"/><path d="M118.302 513.761c-10.228 1.602-17.223 11.192-15.622 21.418 1.601 10.229 11.19 17.223 21.419 15.621 10.227-1.599 17.221-11.189 15.621-21.418-1.601-10.226-11.191-17.22-21.418-15.621" fill="#7ED2EF"/><path d="M101.968 518.259c3.593-4.924 9.064-8.482 15.56-9.498 6.484-1.015 12.772.699 17.695 4.289a23.754 23.754 0 019.497 15.559c1.015 6.484-.699 12.773-4.289 17.695-3.592 4.926-9.064 8.483-15.558 9.496-6.485 1.016-12.774-.697-17.695-4.287a23.742 23.742 0 01-9.499-15.558c-1.014-6.487.699-12.774 4.289-17.696zm17.108.502a13.634 13.634 0 00-8.933 5.451 13.662 13.662 0 00-2.463 10.194 13.631 13.631 0 005.451 8.933 13.659 13.659 0 0010.193 2.461 13.626 13.626 0 008.933-5.449 13.665 13.665 0 002.463-10.193 13.636 13.636 0 00-5.45-8.934 13.677 13.677 0 00-10.194-2.463zm-.222-149.867a17.744 17.744 0 0112.58-5.211c3.803 0 7.328 1.195 10.22 3.231l-.883 13.836 2.961 13.556c-3.206 3.071-7.541 4.959-12.298 4.959-4.874 0-9.305-1.98-12.53-5.183l-.05-.049c-3.22-3.227-5.211-7.67-5.211-12.559 0-4.734 1.867-9.049 4.91-12.25l.301-.33zm12.58 4.949a7.615 7.615 0 00-5.397 2.235l-.213.199a7.608 7.608 0 00-2.022 5.197c0 2.119.846 4.028 2.216 5.397l.019.019a7.595 7.595 0 005.397 2.215 7.605 7.605 0 005.396-2.215v-.019a7.613 7.613 0 002.235-5.397 7.612 7.612 0 00-2.235-5.396 7.614 7.614 0 00-5.396-2.235zm283.724 2.235a7.616 7.616 0 00-5.396-2.235 7.615 7.615 0 00-5.397 2.235h-.019a7.596 7.596 0 00-2.216 5.396c0 2.119.847 4.028 2.216 5.397l.019.019a7.597 7.597 0 005.397 2.215 7.611 7.611 0 005.196-2.021l.2-.213a7.613 7.613 0 002.235-5.397 7.612 7.612 0 00-2.235-5.396zm-5.396-12.395c4.912 0 9.36 1.994 12.579 5.211a17.742 17.742 0 015.211 12.58c0 4.912-1.993 9.36-5.211 12.578l-.33.303c-3.199 3.043-7.515 4.91-12.249 4.91-4.689 0-8.967-1.832-12.157-4.822l3.783-15.938-1.865-11.582a17.728 17.728 0 0110.239-3.24z" fill="#1C1038"/><path d="M238.898 465.835c-94.597-9.07-106.173-60.642-102.343-104.734 1.085-12.495 3.435-24.248 5.421-34.186.755-3.783 1.46-7.305 1.989-10.328a5.076 5.076 0 015.269-4.195l-4.532 20.396 3.495 16.596c-.619 4.096-1.153 8.313-1.523 12.59-3.333 38.377 6.639 83.115 86.711 93.043a39.099 39.099 0 01-1.913-12.121 5.08 5.08 0 0110.159 0c0 8 3.242 15.244 8.482 20.484 5.242 5.241 12.486 8.485 20.485 8.485 7.999 0 15.242-3.244 20.483-8.485a28.877 28.877 0 008.483-20.484 5.08 5.08 0 015.081-5.078 5.079 5.079 0 015.079 5.078 39.1 39.1 0 01-1.914 12.121c80.072-9.928 90.044-54.666 86.711-93.043-.483-5.555-1.235-11.008-2.1-16.227l2.326-5.461 4.892-11.262c1.886 9.475 3.992 20.457 5.001 32.077 3.831 44.092-7.745 95.664-102.344 104.734a39.292 39.292 0 01-4.032 4.727c-7.08 7.08-16.866 11.461-27.666 11.461-10.805 0-20.586-4.381-27.666-11.461a39.309 39.309 0 01-4.034-4.727" fill="#1C1038"/><path d="M238.814 295.003c-9.331-9.331-22.226-15.104-36.466-15.104-14.241 0-27.135 5.773-36.466 15.104-9.332 9.332-15.104 22.225-15.104 36.467 0 14.24 5.772 27.135 15.104 36.465 9.331 9.332 22.225 15.104 36.466 15.104 14.24 0 27.135-5.774 36.466-15.104 9.331-9.33 15.104-22.225 15.104-36.465 0-14.242-5.773-27.135-15.104-36.467zm-36.466-25.262c17.045 0 32.479 6.91 43.648 18.08 11.17 11.17 18.082 26.604 18.082 43.649 0 17.043-6.912 32.477-18.082 43.647-11.169 11.17-26.603 18.082-43.648 18.082-17.046 0-32.478-6.91-43.648-18.082-11.171-11.17-18.081-26.602-18.081-43.647 0-17.045 6.91-32.479 18.081-43.649 11.17-11.17 26.602-18.08 43.648-18.08zm92.85 18.08c11.17-11.17 26.604-18.08 43.649-18.08s32.478 6.91 43.648 18.08c11.17 11.17 18.081 26.604 18.081 43.649s-6.911 32.477-18.081 43.647c-11.17 11.172-26.604 18.082-43.648 18.082-17.045 0-32.479-6.912-43.649-18.082-11.17-11.17-18.081-26.604-18.081-43.647 0-17.045 6.911-32.479 18.081-43.649zm43.649-7.922c-14.241 0-27.135 5.773-36.466 15.104-9.331 9.332-15.105 22.225-15.105 36.467 0 14.24 5.774 27.135 15.105 36.465 9.331 9.33 22.225 15.104 36.466 15.104s27.134-5.772 36.466-15.104c9.331-9.33 15.104-22.225 15.104-36.465 0-14.242-5.773-27.135-15.104-36.467-9.332-9.331-22.225-15.104-36.466-15.104z" fill="#1C1038"/><path d="M176.804 281.585c1.944-7.365 2.87-16.291 2.564-27.104a5.069 5.069 0 015.356-5.364l1.889.094 1.886.014a61.19 61.19 0 0019.698-3.229 60.894 60.894 0 0012.515-5.909 71.84 71.84 0 01-9.156-10.941 5.057 5.057 0 018.373-5.675 61.471 61.471 0 0011.94 13.031c.131.094.256.195.378.304a61.412 61.412 0 009.726 6.402c8.529 4.517 18.271 7.077 28.625 7.077s20.095-2.56 28.625-7.077a61.403 61.403 0 009.725-6.402c.121-.109.247-.21.377-.304a61.507 61.507 0 0011.942-13.031 5.057 5.057 0 018.373 5.675 71.92 71.92 0 01-9.158 10.941 60.926 60.926 0 0012.516 5.909 61.19 61.19 0 0019.698 3.229l1.885-.014 1.89-.094a5.067 5.067 0 015.356 5.356c-.319 11.297.703 20.537 2.828 28.087l-11.331-4.084c-1.051-5.683-1.629-12.023-1.675-19.1a71.243 71.243 0 01-21.906-3.776 71.125 71.125 0 01-17.342-8.694 71.042 71.042 0 01-41.803 13.538 71.043 71.043 0 01-41.805-13.538 71.1 71.1 0 01-17.341 8.694 71.25 71.25 0 01-21.908 3.776c-.04 6.396-.517 12.19-1.384 17.44l-11.356 4.769m93.794 215.172a5.087 5.087 0 100-10.174 5.087 5.087 0 000 10.174zm0 20.348a5.087 5.087 0 100-10.17 5.087 5.087 0 000 10.17z" fill="#1C1038"/><path d="M270.598 134.333c-52.421 0-104.681 11.813-136.142 35.436-32.846 24.663-42.327 62.996-3.161 115.156l3.906 5.201-6.009 2.517c-7.549 3.161-13.437 7.626-17.199 12.708-2.955 3.992-4.575 8.347-4.597 12.683-.024 4.299 1.523 8.707 4.893 12.867l1.386 1.592c1.787-3.123 4.283-5.621 7.531-7.172 4.999-2.384 11.515-2.34 19.589 1.453 1.141-15.171 7.769-28.818 17.905-38.953a61.824 61.824 0 0119.558-13.202c.93-5.854 1.325-12.529 1.11-20.138a5.069 5.069 0 015.356-5.364l1.889.094 1.886.014a61.19 61.19 0 0019.698-3.229 60.894 60.894 0 0012.515-5.909 71.84 71.84 0 01-9.156-10.941 5.057 5.057 0 018.373-5.675 61.471 61.471 0 0011.94 13.031l.378.304a61.412 61.412 0 009.726 6.402c8.529 4.517 18.271 7.077 28.625 7.077s20.095-2.56 28.625-7.077a61.403 61.403 0 009.725-6.402l.377-.304a61.507 61.507 0 0011.942-13.031 5.057 5.057 0 018.373 5.675 71.92 71.92 0 01-9.158 10.941 60.926 60.926 0 0012.516 5.909 61.19 61.19 0 0019.698 3.229l1.885-.014 1.89-.094a5.067 5.067 0 015.356 5.356c-.215 7.612.18 14.289 1.11 20.146a61.846 61.846 0 0119.558 13.202c10.135 10.135 16.764 23.78 17.905 38.953 8.074-3.793 14.59-3.837 19.589-1.453 3.248 1.551 5.741 4.047 7.53 7.172l1.387-1.592c3.368-4.16 4.917-8.568 4.894-12.867-.024-4.336-1.642-8.691-4.6-12.683-3.76-5.082-9.648-9.547-17.197-12.708l-6.008-2.517 3.904-5.201c39.167-52.161 29.685-90.494-3.16-115.156-31.461-23.624-83.721-35.436-136.141-35.436" fill="#D1D4E2"/><path d="M303.944 252.176a71.042 71.042 0 01-33.346 8.268 71.043 71.043 0 01-41.805-13.538 71.1 71.1 0 01-17.341 8.694 71.25 71.25 0 01-21.908 3.776c-.026 4.197-.24 8.136-.63 11.831a61.86 61.86 0 0113.434-1.466c17.045 0 32.479 6.91 43.648 18.08 11.17 11.17 18.082 26.604 18.082 43.649 0 17.043-6.912 32.477-18.082 43.647-11.169 11.17-26.603 18.082-43.648 18.082-17.046 0-32.478-6.91-43.648-18.082a61.862 61.862 0 01-11.721-16.326c-.11 1.056-.213 2.119-.305 3.183-3.333 38.377 6.639 83.115 86.711 93.043a39.099 39.099 0 01-1.913-12.121 5.08 5.08 0 0110.159 0c0 8 3.242 15.244 8.482 20.484 5.242 5.241 12.486 8.485 20.485 8.485 7.999 0 15.242-3.244 20.483-8.485a28.877 28.877 0 008.483-20.484 5.08 5.08 0 015.081-5.078 5.079 5.079 0 015.079 5.078 39.1 39.1 0 01-1.914 12.121c80.072-9.928 90.044-54.666 86.711-93.043a164.863 164.863 0 00-.307-3.183 61.878 61.878 0 01-11.719 16.326c-11.17 11.172-26.604 18.082-43.648 18.082-17.045 0-32.479-6.912-43.649-18.082-11.17-11.17-18.081-26.604-18.081-43.647 0-17.045 6.911-32.479 18.081-43.649 11.17-11.17 26.604-18.08 43.649-18.08 4.613 0 9.109.505 13.433 1.466-.388-3.697-.603-7.634-.631-11.831a71.243 71.243 0 01-21.906-3.776 71.125 71.125 0 01-17.342-8.694 71.185 71.185 0 01-8.457 5.27" fill="#FACFA0"/><path d="M338.847 279.899c-14.241 0-27.135 5.773-36.466 15.104-9.331 9.332-15.105 22.225-15.105 36.467 0 14.24 5.774 27.135 15.105 36.465 9.331 9.33 22.225 15.104 36.466 15.104s27.134-5.772 36.466-15.104c9.331-9.33 15.104-22.225 15.104-36.465 0-14.242-5.773-27.135-15.104-36.467-9.332-9.331-22.225-15.104-36.466-15.104m-84.929 51.571c0-14.242-5.773-27.135-15.104-36.467-9.331-9.331-22.226-15.104-36.466-15.104-14.241 0-27.135 5.773-36.466 15.104-9.332 9.332-15.104 22.225-15.104 36.467 0 14.24 5.772 27.135 15.104 36.465 9.331 9.332 22.225 15.104 36.466 15.104 14.24 0 27.135-5.774 36.466-15.104 9.331-9.33 15.104-22.225 15.104-36.465" fill="#FFF"/><path d="M401.321 337.726c1.344 7.267 2.605 15.162 3.319 23.375.093 1.082.178 2.168.253 3.258 1.546-.44 3.18-.676 4.869-.676 2.325 0 4.547.447 6.583 1.26a32.731 32.731 0 001.488-3.016c2.446-5.668 3.48-12.121 2.875-17.612-.514-4.658-2.165-8.433-5.083-9.826-2.981-1.422-7.636-.756-14.304 3.237m-264.766 23.375c.714-8.213 1.973-16.108 3.318-23.377-6.667-3.991-11.322-4.659-14.304-3.235-2.917 1.393-4.569 5.168-5.082 9.826-.605 5.491.429 11.944 2.875 17.612a32.472 32.472 0 001.487 3.016 17.725 17.725 0 016.585-1.26c1.688 0 3.321.236 4.869.676.074-1.09.158-2.176.252-3.258" fill="#FACFA0"/><path d="M135.937 375.312a7.598 7.598 0 00-4.503-1.469 7.615 7.615 0 00-5.397 2.235l-.213.199a7.608 7.608 0 00-2.022 5.197c0 2.119.846 4.028 2.216 5.397l.019.019a7.595 7.595 0 005.397 2.215 7.608 7.608 0 005.116-1.949 120.469 120.469 0 01-.613-11.844m269.321 0a120.5 120.5 0 01-.613 11.844 7.597 7.597 0 005.117 1.949 7.611 7.611 0 005.196-2.021l.2-.213a7.613 7.613 0 002.235-5.397 7.612 7.612 0 00-2.235-5.396 7.616 7.616 0 00-5.396-2.235 7.6 7.6 0 00-4.504 1.469" fill="#7ED2EF"/><path d="M223.264 458.095c-.436 4.783-.155 9.08.858 12.67 1.045 3.715 2.879 6.619 5.503 8.41 2.668 1.821 6.338 2.618 11.045 2.106 5.209-.567 11.522-2.699 18.981-6.731l7.166 3.315 2.223-.483v3.493c-10.63 6.373-19.735 9.664-27.299 10.484-7.243.789-13.19-.647-17.831-3.811-4.684-3.195-7.86-8.037-9.552-14.043-1.42-5.043-1.781-10.935-1.102-17.343l10.008 1.933" fill="#1C1038"/><path d="M314.816 458.095c.436 4.783.155 9.08-.857 12.67-1.046 3.715-2.88 6.619-5.504 8.41-2.668 1.821-6.338 2.618-11.045 2.106-5.209-.567-11.522-2.699-18.981-6.731l-7.166 3.315-2.223-.483v3.493c10.63 6.373 19.734 9.664 27.299 10.484 7.244.789 13.19-.647 17.831-3.811 4.684-3.195 7.86-8.037 9.552-14.043 1.42-5.043 1.781-10.935 1.101-17.343l-10.007 1.933" fill="#1C1038"/><path d="M229.625 479.175c2.668 1.821 6.338 2.618 11.045 2.106 3.564-.387 7.643-1.508 12.255-3.467a39.24 39.24 0 01-9.993-7.252 39.309 39.309 0 01-4.034-4.727 241.302 241.302 0 01-15.804-2.023c.095 2.527.437 4.859 1.028 6.953 1.045 3.715 2.879 6.619 5.503 8.41" fill="#FFF"/><path d="M243.175 480.902c2.936-.561 6.185-1.574 9.75-3.088a39.24 39.24 0 01-9.993-7.252 39.309 39.309 0 01-4.034-4.727 247.385 247.385 0 01-12.507-1.513c.138 2.16.463 4.17.978 5.996 1.046 3.715 2.88 6.619 5.504 8.41 2.526 1.723 5.949 2.527 10.302 2.174m55.089-10.34a39.27 39.27 0 01-11.423 7.94c3.926 1.537 7.446 2.439 10.569 2.779 4.707.512 8.377-.285 11.045-2.106 2.624-1.791 4.458-4.695 5.504-8.41.552-1.957.886-4.125 1.006-6.467a244.41 244.41 0 01-12.669 1.537 39.292 39.292 0 01-4.032 4.727" fill="#F58F7E"/><path d="M326.212 532.351h-9.897a214.483 214.483 0 01-2.718 16.592c-1.436 7.059-3.207 14.086-5.265 21.078a5.082 5.082 0 01-4.008 3.572c-26.065 4.481-44.502 4.481-70.568 0a5.082 5.082 0 01-4.008-3.572c-2.058-6.992-3.829-14.019-5.264-21.078a214.01 214.01 0 01-2.719-16.592h-9.897c3.792 36.592 17.349 60.498 33.976 71.822 7.338 4.998 15.281 7.498 23.196 7.498 7.916 0 15.859-2.5 23.196-7.498 16.627-11.324 30.184-35.23 33.976-71.822" fill="#7ED2EF"/><path d="M142.042 575.709c-8.457-2.879-14.381-10.157-16.973-19.94a23.75 23.75 0 01-8.246-.082c1.272 6.631 4.144 12.045 8.321 15.537a18.511 18.511 0 006.398 3.492c3.319 1.036 6.924 1.375 10.5.993m-13.235-65.987c1.239.42 2.439.94 3.586 1.553 2.956-5.586 6.7-11.199 11.293-16.691 8.28-9.903 15.165-17.19 20.851-22.252-5.237 2.421-14.512 11.166-29.558 29.162a95.357 95.357 0 00-6.172 8.228" fill="#FFF"/><path d="M368.258 473.636c-3.335 9.541 1.218 33.949 6.871 58.52l.276 1.197-.296 1.164c-2.463 9.736-2.278 17.641-.349 23.824 1.461 4.676 3.92 8.373 6.959 11.121 3.039 2.748 6.708 4.598 10.574 5.579 4.753 1.201 9.761 1.076 14.246-.325a18.525 18.525 0 006.399-3.492c4.175-3.492 7.048-8.906 8.321-15.537-2.416.451-4.94.533-7.5.193l-.551-.08c-6.494-1.013-11.966-4.57-15.558-9.496-3.588-4.922-5.304-11.211-4.29-17.695a23.755 23.755 0 019.498-15.559 23.911 23.911 0 016.416-3.328 95.547 95.547 0 00-6.171-8.228c-23.402-27.987-32.84-33.596-34.845-27.858" fill="#D1D4E2"/><path d="M375.405 533.353l-.296 1.164c-2.463 9.736-2.278 17.641-.349 23.824 1.461 4.676 3.92 8.373 6.959 11.121 3.039 2.748 6.708 4.598 10.574 5.579 4.753 1.201 9.761 1.076 14.246-.325.415-.129.821-.273 1.222-.427a26.905 26.905 0 01-5.439-.375c-3.93-.676-7.733-2.237-10.974-4.743-3.244-2.503-5.982-5.998-7.8-10.546-2.403-6.016-3.2-13.881-1.498-23.78l.204-1.183-.367-1.172c-7.541-24.061-13.971-48.039-11.386-57.813.432-1.633 1.506-2.435 3.378-2.183-3.115-1.551-4.878-.983-5.621 1.142-3.335 9.541 1.218 33.949 6.871 58.52l.276 1.197" fill="#FFF"/><path d="M221.254 527.767a5.067 5.067 0 014.544-5.537 5.067 5.067 0 015.536 4.545c.666 6.719 1.707 13.434 3.071 20.144a239.276 239.276 0 004.185 17.188c21.702 3.414 39.198 3.414 60.9 0a239.81 239.81 0 004.185-17.188c1.364-6.71 2.404-13.425 3.071-20.144a5.068 5.068 0 015.535-4.545 5.066 5.066 0 014.544 5.537c-.699 7.055-1.793 14.115-3.228 21.176-1.436 7.059-3.207 14.086-5.265 21.078a5.082 5.082 0 01-4.008 3.572c-26.065 4.481-44.502 4.481-70.568 0a5.082 5.082 0 01-4.008-3.572c-2.058-6.992-3.829-14.019-5.264-21.078-1.437-7.061-2.53-14.121-3.23-21.176" fill="#1C1038"/><path d="M234.405 546.919a239.276 239.276 0 004.185 17.188c21.702 3.414 39.198 3.414 60.9 0a239.81 239.81 0 004.185-17.188c.986-4.853 1.804-9.71 2.433-14.568h-74.136a206.088 206.088 0 002.433 14.568" fill="#F58F7E"/><path d="M306.108 532.351h-4.711c-.311 4.17-.756 8.348-1.326 12.533a239.822 239.822 0 01-3.05 17.424c-9.778 2.203-18.729 3.639-27.65 4.36 9.69-.02 19.391-.874 30.119-2.561a239.81 239.81 0 004.185-17.188c.986-4.853 1.804-9.71 2.433-14.568m-152.82-238.35c-43.223-47.256-54.136-91.471-.903-127.902 32.467-22.221 85.196-31.729 137.565-29.431 26.797 1.177 53.417 5.44 77.098 12.672-28.291-10.005-62.337-15.007-96.45-15.007-52.421 0-104.681 11.813-136.142 35.436-32.846 24.663-42.327 62.996-3.161 115.156l3.906 5.201-6.009 2.517c-7.549 3.161-13.437 7.626-17.199 12.708-2.955 3.992-4.575 8.347-4.597 12.683-.024 4.299 1.523 8.707 4.893 12.867l1.386 1.592c1.787-3.123 4.283-5.621 7.531-7.172.224-.105.451-.209.682-.306-13.679-12.643 10.941-28.819 31.4-31.014" fill="#FFF"/><g transform="translate(217)"><mask id="d" fill="#fff"><use xlink:href="#c"/></mask><path d="M46.111 6.61C19.694 10.745 1.628 35.514 5.763 61.93c4.134 26.418 28.904 44.484 55.32 40.348 26.417-4.133 44.483-28.903 40.349-55.32C97.297 20.542 72.527 2.475 46.111 6.61" fill="#7ED2EF" mask="url(#d)"/><path d="M10.394 22.938C18.458 11.879 30.746 3.893 45.338 1.61c14.577-2.282 28.71 1.566 39.766 9.63 11.059 8.067 19.044 20.353 21.328 34.944l.079.529c2.108 14.391-1.743 28.314-9.709 39.238-8.067 11.059-20.353 19.045-34.943 21.328l-.531.079c-14.39 2.108-28.314-1.743-39.238-9.71C11.032 89.582 3.045 77.296.763 62.707l-.079-.53c-2.108-14.392 1.742-28.315 9.71-39.239zM46.885 11.61c-11.825 1.851-21.782 8.32-28.318 17.281-6.538 8.963-9.656 20.429-7.804 32.265l.008.048c1.858 11.803 8.324 21.743 17.273 28.27 8.963 6.538 20.429 9.656 32.264 7.804l.091-.014c11.786-1.868 21.709-8.328 28.229-17.266 6.538-8.964 9.655-20.429 7.804-32.264l-.007-.046c-1.86-11.805-8.324-21.746-17.275-28.274-8.963-6.538-20.428-9.656-32.265-7.804z" fill="#1C1038" mask="url(#d)"/></g><path d="M308.242 43.091c3.796 24.253-12.791 46.995-37.044 50.79a44.233 44.233 0 01-23.815-2.815 43.21 43.21 0 0029.925 6.212l.091-.014c11.786-1.868 21.709-8.328 28.229-17.266 6.538-8.964 9.655-20.429 7.804-32.264l-.007-.046c-1.75-11.109-7.578-20.567-15.719-27.084a44.241 44.241 0 0110.536 22.487" fill="#FFF"/><path fill="#1C1038" d="M265.518 128.732h10.159v-24.925h-10.159z"/><path d="M338.848 287.822c-12.054 0-22.967 4.886-30.865 12.784-7.898 7.897-12.785 18.809-12.785 30.862 0 12.055 4.887 22.969 12.785 30.864 7.898 7.898 18.811 12.785 30.865 12.785 12.052 0 22.964-4.885 30.862-12.785 7.897-7.895 12.784-18.809 12.784-30.864 0-12.053-4.887-22.965-12.784-30.862-7.898-7.898-18.81-12.784-30.862-12.784m-136.501 0c12.053 0 22.966 4.886 30.864 12.784 7.898 7.897 12.785 18.809 12.785 30.862 0 12.055-4.887 22.969-12.785 30.864-7.898 7.898-18.811 12.785-30.864 12.785s-22.965-4.885-30.863-12.785c-7.898-7.895-12.784-18.809-12.784-30.864 0-12.053 4.886-22.965 12.784-30.862 7.898-7.898 18.81-12.784 30.863-12.784" fill="#7ED2EF"/><path fill="#1C1038" d="M260.441 336.55h21.792v-10.16h-21.792z"/><path d="M202.347 353.06c-47.595-20.733-19.026-51.645 0-30.061 19.025-21.584 47.594 9.328 0 30.061" fill="#F58F7E"/><path d="M181.619 328.829c1.16 5.469 7.045 12.285 20.728 18.625 13.682-6.34 19.568-13.156 20.728-18.625.44-2.078.1-3.873-.766-5.203-.853-1.307-2.253-2.248-3.949-2.639-3.423-.789-7.959.623-12.166 5.397l-.463.461a5.125 5.125 0 01-7.231-.461c-4.206-4.774-8.743-6.186-12.167-5.397-1.693.391-3.095 1.332-3.948 2.639-.867 1.33-1.206 3.125-.766 5.203zm18.684 28.921c-18.718-8.153-26.895-18.278-28.702-26.8-1.038-4.906-.084-9.371 2.21-12.892 2.309-3.543 5.947-6.057 10.24-7.047 5.534-1.278 12.196-.031 18.298 4.898 6.102-4.929 12.757-6.176 18.294-4.898 4.297.992 7.931 3.504 10.24 7.047 2.294 3.521 3.252 7.984 2.21 12.892-1.807 8.522-9.985 18.647-28.702 26.8a5.111 5.111 0 01-4.088 0z" fill="#1C1038"/><path d="M338.845 353.06c-47.595-20.733-19.025-51.645 0-30.061 19.025-21.584 47.595 9.328 0 30.061" fill="#F58F7E"/><path d="M318.117 328.829c1.16 5.469 7.046 12.285 20.728 18.625 13.683-6.34 19.568-13.156 20.728-18.625.441-2.078.101-3.873-.766-5.203-.852-1.307-2.253-2.248-3.948-2.639-3.424-.789-7.96.623-12.167 5.397l-.462.461a5.126 5.126 0 01-7.232-.461c-4.205-4.774-8.742-6.186-12.166-5.397-1.693.391-3.096 1.332-3.948 2.639-.867 1.33-1.207 3.125-.767 5.203zm18.685 28.921c-18.718-8.153-26.896-18.278-28.702-26.8-1.039-4.906-.084-9.371 2.21-12.892 2.308-3.543 5.946-6.057 10.24-7.047 5.534-1.278 12.195-.031 18.297 4.898 6.102-4.929 12.757-6.176 18.295-4.898 4.296.992 7.931 3.504 10.24 7.047 2.293 3.521 3.252 7.984 2.209 12.892-1.807 8.522-9.985 18.647-28.701 26.8a5.111 5.111 0 01-4.088 0zm-86.998 44.705a5.112 5.112 0 015.688-8.493 26.938 26.938 0 007.199 3.422 27.194 27.194 0 007.905 1.147c2.797 0 5.45-.403 7.902-1.147a26.93 26.93 0 007.2-3.422 5.113 5.113 0 017.091 1.403 5.113 5.113 0 01-1.402 7.09 37.118 37.118 0 01-9.923 4.705 37.354 37.354 0 01-10.868 1.629c-3.735 0-7.387-.571-10.869-1.629a37.09 37.09 0 01-9.923-4.705" fill="#1C1038"/><path d="M275.685 491.671a5.087 5.087 0 11-10.174-.002 5.087 5.087 0 0110.174.002zm-5.087 25.434a5.087 5.087 0 11.002-10.174 5.087 5.087 0 01-.002 10.174zm-71.071-25.713c-1.186 10.328-1.454 20.647-.716 30.799H339.27c.737-10.152.469-20.471-.717-30.799-1.176-10.219-3.246-20.42-6.13-30.461-2.35.571-4.773 1.106-7.268 1.602-.022 3.963-.499 7.652-1.433 10.972-1.692 6.006-4.868 10.848-9.552 14.043-4.641 3.164-10.588 4.6-17.831 3.811-7.097-.77-15.549-3.715-25.345-9.338l-.396.002a39.53 39.53 0 01-3.28-.135c-9.895 5.711-18.425 8.696-25.577 9.471-7.243.789-13.19-.647-17.831-3.811-4.684-3.195-7.86-8.037-9.552-14.043-.985-3.502-1.462-7.412-1.433-11.619a173.612 173.612 0 01-7.057-1.685c-2.993 10.275-5.137 20.724-6.341 31.191z" fill="#FFF"/><path d="M127.201 494.986c31.92-38.176 46.709-40.354 52.186-24.684 4.083 11.686-.422 37.283-6.283 62.94 2.411 10.185 2.313 18.879.473 26.095a258.987 258.987 0 0036.553 11.575c-4.073-11.055-7.017-23.912-8.46-38.563h-7.498a5.077 5.077 0 01-5.076-4.924c-1.241-12.279-1.077-24.748.352-37.183 1.266-11.018 3.535-22.047 6.71-32.92-37.057-12.393-52.611-34.971-57.912-59.42a17.643 17.643 0 01-6.812 1.361c-4.874 0-9.305-1.978-12.53-5.181l-.05-.049c-3.22-3.227-5.211-7.67-5.211-12.559a17.68 17.68 0 013.187-10.139 42.394 42.394 0 01-2.794-5.398c-3.106-7.199-4.411-15.498-3.636-22.664-2.313-1.917-4.297-3.918-5.968-5.981-4.928-6.086-7.192-12.707-7.155-19.299.035-6.556 2.352-12.961 6.58-18.676 3.785-5.11 9.122-9.682 15.724-13.291-39.263-55.51-27.602-97.013 8.803-124.351 32.258-24.222 84.461-36.71 137.134-37.465v-16.52c-9.699-.918-18.795-4.476-26.428-10.042-11.059-8.065-19.045-20.353-21.327-34.941l-.079-.53a51.262 51.262 0 01-.184-1.381c-50.847 10.498-96.294 35.769-131.651 71.125-47.28 47.282-76.525 112.602-76.525 184.75 0 72.149 29.245 137.469 76.525 184.748a262.564 262.564 0 0017.066 15.625 23.73 23.73 0 0114.515-8.267c2.73-4.631 5.977-9.254 9.771-13.791m275.748-97.082c-5.435 25.064-21.647 48.166-60.761 60.338 3.037 10.574 5.213 21.291 6.444 32 1.443 12.556 1.596 25.15.316 37.545a5.068 5.068 0 01-5.04 4.55v.012h-7.499c-1.476 14.998-4.527 28.115-8.751 39.346a259.546 259.546 0 0037.147-11.25c-2.124-7.43-2.364-16.492.174-27.203-5.864-25.657-10.369-51.254-6.285-62.94 5.477-15.67 20.264-13.492 52.186 24.684 3.794 4.537 7.041 9.16 9.771 13.791a23.74 23.74 0 0115.725 9.85 262.7 262.7 0 0018.971-17.208c47.279-47.279 76.525-112.599 76.525-184.748 0-72.149-29.246-137.47-76.525-184.75-35.355-35.354-80.797-60.624-131.639-71.123a53.456 53.456 0 01-9.906 25.153c-8.067 11.059-20.353 19.045-34.943 21.327l-.53.08c-.887.13-1.77.236-2.652.322v16.53c52.674.754 104.876 13.243 137.134 37.463 36.406 27.338 48.067 68.842 8.803 124.352 6.601 3.609 11.939 8.181 15.722 13.292 4.23 5.715 6.545 12.122 6.582 18.676.036 6.592-2.228 13.213-7.155 19.299-1.671 2.063-3.655 4.064-5.968 5.979.775 7.168-.529 15.467-3.636 22.666a42.405 42.405 0 01-2.786 5.387 17.71 17.71 0 013.179 10.15c0 4.912-1.993 9.36-5.211 12.578l-.33.303c-3.2 3.043-7.515 4.908-12.25 4.908-2.409 0-4.711-.482-6.812-1.359" fill="#F58F7E"/></g></svg>