<svg width="542" height="664" xmlns="http://www.w3.org/2000/svg" xmlns:xlink="http://www.w3.org/1999/xlink"><defs><path id="a" d="M.06.074h541.136V618H.06z"/><path id="c" d="M.113.961h106.969v106.968H.113z"/></defs><g fill="none" fill-rule="evenodd"><g transform="translate(0 46)"><mask id="b" fill="#fff"><use xlink:href="#a"/></mask><path d="M270.593 611.377c32.085 0 58.097 1.482 58.097 3.312 0 1.826-26.012 3.311-58.097 3.311-32.087 0-58.098-1.485-58.098-3.311 0-1.83 26.011-3.312 58.098-3.312M455.346 85.922C408.067 38.643 342.747 9.398 270.596 9.398c-72.147 0-137.468 29.245-184.747 76.524-47.28 47.282-76.525 112.602-76.525 184.75S38.569 408.14 85.849 455.419c47.279 47.28 112.6 76.526 184.747 76.526 72.149 0 137.469-29.246 184.75-76.526 47.281-47.279 76.526-112.599 76.526-184.747 0-72.149-29.245-137.47-76.526-184.75zM270.596.074c74.727 0 142.379 30.288 191.346 79.254 48.965 48.966 79.254 116.619 79.254 191.344 0 74.722-30.289 142.376-79.254 191.341-48.969 48.967-116.621 79.256-191.346 79.256-74.722 0-142.376-30.289-191.341-79.256C30.289 413.048 0 345.394 0 270.672c0-74.723 30.289-142.376 79.255-191.344C128.22 30.362 195.874.074 270.596.074z" fill="#1B1038" mask="url(#b)"/></g><path d="M148.33 331.134a5.058 5.058 0 11-5.674 8.373c-8.175-5.558-13.706-6.63-17.087-5.017-2.917 1.392-4.569 5.168-5.082 9.826-.605 5.49.429 11.943 2.875 17.611 1.17 2.713 2.668 5.221 4.46 7.295l-8.303 5.936c-2.199-2.727-4.034-5.865-5.483-9.223-3.106-7.197-4.411-15.496-3.636-22.662-2.313-1.916-4.297-3.918-5.968-5.98-4.929-6.084-7.192-12.707-7.155-19.299.034-6.555 2.351-12.961 6.581-18.676 3.783-5.11 9.121-9.682 15.723-13.291-39.264-55.509-27.603-97.014 8.803-124.351 33.295-25.001 87.837-37.501 142.213-37.501 54.378 0 108.919 12.5 142.214 37.499 36.406 27.338 48.066 68.842 8.803 124.352 6.601 3.609 11.939 8.181 15.722 13.292 4.231 5.715 6.545 12.122 6.582 18.676.038 6.592-2.228 13.213-7.154 19.299-1.672 2.062-3.656 4.064-5.969 5.978.774 7.168-.529 15.467-3.636 22.664-1.321 3.061-2.961 5.94-4.907 8.488l-8.152-6.087c1.473-1.887 2.725-4.071 3.733-6.409 2.447-5.668 3.48-12.121 2.875-17.611-.512-4.658-2.165-8.434-5.083-9.826-3.38-1.612-8.912-.541-17.085 5.017a5.06 5.06 0 01-7.026-1.349 5.062 5.062 0 011.35-7.024c11.642-7.914 20.656-8.899 27.127-5.812 3.246 1.551 5.74 4.049 7.527 7.172.492-.528.955-1.057 1.389-1.592 3.367-4.16 4.916-8.568 4.892-12.867-.023-4.336-1.64-8.69-4.599-12.683-3.758-5.082-9.649-9.547-17.198-12.708l-6.007-2.517 3.904-5.201c39.168-52.161 29.685-90.494-3.16-115.156-31.461-23.624-83.721-35.436-136.142-35.436-52.42 0-104.68 11.813-136.142 35.436-32.846 24.663-42.326 62.996-3.16 115.156l3.906 5.201-6.009 2.517c-7.549 3.161-13.437 7.626-17.199 12.708-2.955 3.993-4.575 8.347-4.598 12.683-.023 4.299 1.523 8.707 4.894 12.867.432.535.895 1.066 1.386 1.592 1.787-3.121 4.283-5.621 7.53-7.172 6.47-3.087 15.484-2.102 27.125 5.812" fill="#1B1038"/><path d="M206.323 527.271c8.903 119.307 116.531 119.307 125.435 0H206.323" fill="#FFF"/><path d="M240.128 612.546c-19.77-13.464-35.649-41.808-38.864-84.898l-.407-5.457h136.366l-.406 5.457c-3.217 43.09-19.096 71.434-38.865 84.898-9.086 6.188-18.987 9.284-28.912 9.284-9.924 0-19.825-3.094-28.912-9.284zm-28.26-80.195c3.792 36.592 17.349 60.498 33.976 71.822 7.338 4.998 15.281 7.498 23.196 7.498 7.916 0 15.859-2.5 23.197-7.498 16.627-11.324 30.183-35.23 33.976-71.822H211.868z" fill="#1B1038"/><path d="M269.04 532.351h-74.869a5.08 5.08 0 01-5.076-4.926c-1.239-12.277-1.077-24.75.353-37.183 1.463-12.731 4.264-25.475 8.255-37.977l7.903 2.416 17.001 3.287c-6.944.076-12.573.172-16.161.287-3.297 10.901-5.638 22.008-6.919 33.137-1.186 10.328-1.454 20.645-.717 30.799h140.46c.738-10.154.469-20.471-.717-30.799-1.281-11.129-3.623-22.236-6.918-33.137l9.35-4.052c3.67 11.881 6.26 23.966 7.648 36.039 1.444 12.556 1.594 25.15.315 37.545a5.068 5.068 0 01-5.039 4.55v.014H269.04m96.037 29.006c-2.371-7.598-2.741-16.963-.1-28.115-5.861-25.656-10.367-51.254-6.283-62.94 5.476-15.67 20.265-13.492 52.185 24.684 8.844 10.576 14.713 21.611 18.002 32.148 3.35 10.741 4.037 21.004 2.471 29.799-1.646 9.229-5.764 16.932-11.906 22.069a28.664 28.664 0 01-9.891 5.398c-6.25 1.949-13.181 2.137-19.722.482-5.391-1.365-10.555-3.99-14.901-7.921-4.346-3.928-7.83-9.122-9.855-15.604zm10.033-26.84c-2.465 9.736-2.279 17.641-.35 23.824 1.461 4.676 3.92 8.373 6.959 11.121 3.039 2.749 6.707 4.598 10.574 5.579 4.752 1.201 9.76 1.076 14.247-.325a18.529 18.529 0 006.398-3.492c4.281-3.58 7.191-9.178 8.412-16.037 1.299-7.289.695-15.908-2.152-25.039-2.914-9.33-8.158-19.162-16.096-28.654-23.4-27.987-32.84-33.596-34.844-27.858-3.336 9.541 1.217 33.95 6.871 58.52l.276 1.197-.295 1.164z" fill="#1B1038"/><path d="M419.78 513.761c10.228 1.602 17.222 11.192 15.621 21.418-1.6 10.229-11.19 17.223-21.418 15.621-10.227-1.599-17.221-11.189-15.621-21.418 1.601-10.226 11.191-17.22 21.418-15.621" fill="#6DE1FF"/><path d="M427.94 524.212a13.638 13.638 0 00-8.936-5.451 13.676 13.676 0 00-10.193 2.463 13.631 13.631 0 00-5.449 8.934 13.652 13.652 0 002.463 10.193 13.634 13.634 0 008.881 5.442l.052.007a13.654 13.654 0 0010.192-2.461 13.637 13.637 0 005.443-8.88l.008-.053a13.674 13.674 0 00-2.461-10.194zm-7.387-15.451c6.496 1.016 11.967 4.575 15.561 9.498 3.488 4.784 5.203 10.856 4.367 17.147l-.08.551c-1.016 6.494-4.574 11.964-9.498 15.556a23.703 23.703 0 01-17.145 4.367l-.549-.08c-6.496-1.013-11.966-4.57-15.558-9.496-3.59-4.922-5.305-11.211-4.289-17.695a23.745 23.745 0 019.496-15.559c4.924-3.589 11.211-5.304 17.695-4.289z" fill="#1B1038"/><path d="M167.892 533.287c9.643 38.101-18.152 52.424-37.858 46.271-23.093-7.209-27.939-46.64 1.056-81.318 55.323-66.164 48.449-15.572 36.802 35.047" fill="#D1D4E3"/><path d="M163.321 558.341c1.929-6.183 2.115-14.088-.35-23.824l-.294-1.164.275-1.197c5.652-24.572 10.205-48.977 6.871-58.52-2.005-5.736-11.446-.129-34.844 27.858-7.938 9.492-13.183 19.324-16.095 28.654-2.849 9.131-3.452 17.75-2.154 25.039 1.222 6.859 4.133 12.457 8.414 16.037a18.511 18.511 0 006.398 3.492c4.485 1.401 9.493 1.526 14.246.325 3.866-.981 7.536-2.83 10.574-5.579 3.039-2.748 5.498-6.445 6.959-11.121zm9.782-25.099c2.641 11.152 2.272 20.517-.099 28.115-2.025 6.482-5.51 11.676-9.856 15.604-4.345 3.931-9.51 6.556-14.9 7.921-6.54 1.655-13.473 1.467-19.722-.482a28.65 28.65 0 01-9.89-5.398c-6.144-5.137-10.261-12.84-11.907-22.069-1.566-8.795-.879-19.058 2.471-29.799 3.289-10.537 9.158-21.572 18.001-32.148 31.919-38.176 46.709-40.354 52.185-24.684 4.084 11.686-.422 37.284-6.283 62.94z" fill="#1B1038"/><path d="M118.302 513.761c-10.228 1.602-17.223 11.192-15.623 21.418 1.601 10.229 11.191 17.223 21.419 15.621 10.227-1.599 17.222-11.189 15.622-21.418-1.601-10.226-11.191-17.22-21.418-15.621" fill="#6DE1FF"/><path d="M101.968 518.259a23.752 23.752 0 0115.56-9.498c6.484-1.015 12.771.7 17.694 4.289a23.751 23.751 0 019.498 15.559c1.015 6.484-.7 12.773-4.289 17.695-3.593 4.926-9.064 8.483-15.558 9.496-6.485 1.016-12.774-.697-17.695-4.287a23.742 23.742 0 01-9.499-15.558c-1.015-6.487.699-12.774 4.289-17.696zm17.108.502a13.633 13.633 0 00-8.934 5.451 13.666 13.666 0 00-2.463 10.194 13.629 13.629 0 005.452 8.933 13.659 13.659 0 0010.193 2.461 13.626 13.626 0 008.933-5.449 13.665 13.665 0 002.462-10.193 13.632 13.632 0 00-5.45-8.934 13.674 13.674 0 00-10.193-2.463zm-.222-149.867a17.744 17.744 0 0112.579-5.211c3.803 0 7.329 1.195 10.221 3.231l-.884 13.836 2.961 13.556c-3.205 3.071-7.54 4.959-12.298 4.959-4.873 0-9.305-1.98-12.529-5.183l-.05-.049c-3.22-3.227-5.211-7.67-5.211-12.559 0-4.734 1.867-9.049 4.91-12.25l.301-.33zm12.579 4.949a7.614 7.614 0 00-5.396 2.235l-.213.199a7.608 7.608 0 00-2.022 5.197 7.6 7.6 0 002.215 5.397l.02.019a7.595 7.595 0 005.396 2.215c2.12 0 4.029-.848 5.397-2.215v-.019a7.612 7.612 0 002.234-5.397 7.611 7.611 0 00-2.234-5.396 7.616 7.616 0 00-5.397-2.235zm283.726 2.235a7.62 7.62 0 00-5.397-2.235 7.612 7.612 0 00-5.396 2.235h-.02a7.591 7.591 0 00-2.215 5.396 7.6 7.6 0 002.215 5.397l.02.019a7.591 7.591 0 005.396 2.215 7.61 7.61 0 005.196-2.021l.201-.213a7.612 7.612 0 002.234-5.397 7.611 7.611 0 00-2.234-5.396zm-5.397-12.395a17.74 17.74 0 0112.578 5.211 17.738 17.738 0 015.211 12.58c0 4.912-1.992 9.36-5.211 12.578l-.328.303c-3.201 3.043-7.517 4.91-12.25 4.91-4.689 0-8.967-1.832-12.156-4.822l3.781-15.938-1.863-11.582a17.723 17.723 0 0110.238-3.24z" fill="#1B1038"/><path d="M238.898 465.836c-94.598-9.071-106.174-60.643-102.343-104.735 1.085-12.494 3.435-24.248 5.421-34.185.755-3.782 1.46-7.305 1.989-10.328a5.076 5.076 0 015.269-4.195l-4.532 20.396 3.495 16.595c-.619 4.096-1.153 8.313-1.524 12.59-3.333 38.377 6.64 83.115 86.712 93.043a39.1 39.1 0 01-1.914-12.121 5.08 5.08 0 0110.159 0c0 8 3.243 15.244 8.484 20.484a28.878 28.878 0 0020.483 8.485c7.999 0 15.243-3.244 20.484-8.485a28.874 28.874 0 008.484-20.484 5.077 5.077 0 015.078-5.078 5.078 5.078 0 015.08 5.078 39.1 39.1 0 01-1.914 12.121c80.072-9.928 90.045-54.666 86.713-93.043-.482-5.555-1.236-11.008-2.1-16.226l2.327-5.461 4.89-11.262c1.887 9.475 3.992 20.457 5 32.076 3.832 44.092-7.744 95.664-102.342 104.735a39.294 39.294 0 01-4.035 4.726c-7.078 7.08-16.863 11.461-27.665 11.461-10.804 0-20.586-4.381-27.666-11.461a39.368 39.368 0 01-4.033-4.726" fill="#1B1038"/><path d="M238.814 295.004c-9.331-9.33-22.226-15.104-36.466-15.104-14.242 0-27.135 5.774-36.466 15.104-9.332 9.332-15.104 22.225-15.104 36.466s5.772 27.135 15.104 36.465c9.331 9.332 22.224 15.104 36.466 15.104 14.24 0 27.135-5.774 36.466-15.104 9.331-9.33 15.104-22.224 15.104-36.465 0-14.241-5.773-27.134-15.104-36.466zm-36.466-25.262c17.045 0 32.479 6.91 43.648 18.08 11.17 11.17 18.081 26.604 18.081 43.648 0 17.043-6.911 32.477-18.081 43.647-11.169 11.17-26.603 18.082-43.648 18.082-17.046 0-32.479-6.91-43.648-18.082-11.171-11.17-18.081-26.602-18.081-43.647 0-17.044 6.91-32.478 18.081-43.648 11.169-11.17 26.602-18.08 43.648-18.08zm92.85 18.08c11.17-11.17 26.603-18.08 43.65-18.08 17.043 0 32.477 6.91 43.647 18.08 11.17 11.17 18.082 26.604 18.082 43.648 0 17.045-6.912 32.477-18.082 43.647-11.17 11.172-26.604 18.082-43.647 18.082-17.047 0-32.48-6.912-43.65-18.082-11.17-11.17-18.08-26.604-18.08-43.647 0-17.044 6.91-32.478 18.08-43.648zm43.65-7.922c-14.242 0-27.137 5.774-36.467 15.104-9.332 9.332-15.105 22.225-15.105 36.466s5.773 27.135 15.105 36.465c9.33 9.33 22.225 15.104 36.467 15.104 14.24 0 27.133-5.772 36.465-15.104 9.33-9.33 15.104-22.224 15.104-36.465 0-14.241-5.774-27.134-15.104-36.466-9.332-9.33-22.225-15.104-36.465-15.104z" fill="#1B1038"/><path d="M176.804 281.586c1.943-7.365 2.87-16.291 2.564-27.104a5.068 5.068 0 015.356-5.364l1.889.094 1.886.014a61.19 61.19 0 0019.698-3.229 60.894 60.894 0 0012.515-5.909 71.84 71.84 0 01-9.156-10.941 5.057 5.057 0 118.373-5.675 61.445 61.445 0 0011.94 13.031c.131.094.256.195.377.304a61.457 61.457 0 009.726 6.402c8.529 4.517 18.272 7.077 28.626 7.077 10.356 0 20.096-2.56 28.625-7.077a61.403 61.403 0 009.725-6.402c.121-.109.248-.21.377-.304a61.423 61.423 0 0011.941-13.031 5.059 5.059 0 018.373 5.675 71.965 71.965 0 01-9.156 10.941 60.935 60.935 0 0012.514 5.909 61.2 61.2 0 0019.699 3.229l1.885-.014 1.89-.094a5.07 5.07 0 015.358 5.356c-.321 11.298.701 20.537 2.828 28.087l-11.332-4.084c-1.051-5.683-1.629-12.024-1.676-19.1a71.238 71.238 0 01-21.906-3.776 71.089 71.089 0 01-17.342-8.694 71.042 71.042 0 01-41.803 13.538 71.047 71.047 0 01-41.805-13.538 71.1 71.1 0 01-17.341 8.694 71.25 71.25 0 01-21.908 3.776c-.041 6.397-.517 12.189-1.384 17.439l-11.356 4.77m93.792 215.171a5.086 5.086 0 10.003-10.173 5.086 5.086 0 00-.003 10.173m0 20.348a5.085 5.085 0 100-10.172 5.085 5.085 0 000 10.172" fill="#1B1038"/><path d="M270.597 134.334c-52.42 0-104.68 11.813-136.142 35.436-32.846 24.663-42.326 62.996-3.16 115.156l3.906 5.201-6.009 2.517c-7.549 3.161-13.437 7.626-17.199 12.708-2.955 3.993-4.575 8.347-4.598 12.683-.023 4.299 1.523 8.707 4.894 12.867l1.386 1.592c1.787-3.121 4.283-5.621 7.53-7.172 4.999-2.384 11.516-2.34 19.589 1.455 1.141-15.173 7.77-28.82 17.906-38.955a61.833 61.833 0 0119.557-13.203c.931-5.853 1.326-12.528 1.111-20.137a5.068 5.068 0 015.356-5.364l1.889.094 1.886.014a61.19 61.19 0 0019.698-3.229 60.894 60.894 0 0012.515-5.909 71.84 71.84 0 01-9.156-10.941 5.057 5.057 0 118.373-5.675 61.445 61.445 0 0011.94 13.031l.377.304a61.457 61.457 0 009.726 6.402c8.529 4.517 18.272 7.077 28.626 7.077 10.356 0 20.096-2.56 28.625-7.077a61.403 61.403 0 009.725-6.402l.377-.304a61.423 61.423 0 0011.941-13.031 5.059 5.059 0 018.373 5.675 71.965 71.965 0 01-9.156 10.941 60.935 60.935 0 0012.514 5.909 61.2 61.2 0 0019.699 3.229l1.885-.014 1.89-.094a5.07 5.07 0 015.358 5.356c-.217 7.612.177 14.29 1.107 20.145a61.853 61.853 0 0119.559 13.203c10.134 10.135 16.765 23.78 17.906 38.955 8.072-3.795 14.59-3.839 19.59-1.455 3.246 1.551 5.74 4.049 7.527 7.172l1.389-1.592c3.367-4.16 4.916-8.568 4.892-12.867-.023-4.336-1.64-8.69-4.599-12.683-3.758-5.082-9.649-9.547-17.198-12.708l-6.007-2.517 3.904-5.201c39.168-52.161 29.685-90.494-3.16-115.156-31.461-23.624-83.721-35.436-136.142-35.436" fill="#D1D4E3"/><path d="M303.944 252.177a71.042 71.042 0 01-33.346 8.268 71.047 71.047 0 01-41.805-13.538 71.1 71.1 0 01-17.341 8.694 71.25 71.25 0 01-21.908 3.776c-.026 4.197-.241 8.136-.63 11.83a61.922 61.922 0 0113.434-1.465c17.045 0 32.479 6.91 43.648 18.08 11.17 11.17 18.081 26.604 18.081 43.648 0 17.043-6.911 32.477-18.081 43.647-11.169 11.17-26.603 18.082-43.648 18.082-17.046 0-32.479-6.91-43.648-18.082a61.862 61.862 0 01-11.721-16.326c-.11 1.056-.213 2.119-.306 3.183-3.333 38.377 6.64 83.115 86.712 93.043a39.1 39.1 0 01-1.914-12.121 5.08 5.08 0 0110.159 0c0 8 3.243 15.244 8.484 20.484a28.878 28.878 0 0020.483 8.485c7.999 0 15.243-3.244 20.484-8.485a28.874 28.874 0 008.484-20.484 5.077 5.077 0 015.078-5.078 5.078 5.078 0 015.08 5.078 39.1 39.1 0 01-1.914 12.121c80.072-9.928 90.045-54.666 86.713-93.043a164.853 164.853 0 00-.309-3.183 61.852 61.852 0 01-11.718 16.326c-11.17 11.172-26.604 18.082-43.647 18.082-17.047 0-32.48-6.912-43.65-18.082-11.17-11.17-18.08-26.604-18.08-43.647 0-17.044 6.91-32.478 18.08-43.648 11.17-11.17 26.603-18.08 43.65-18.08 4.613 0 9.108.505 13.432 1.465-.389-3.695-.604-7.633-.631-11.83a71.238 71.238 0 01-21.906-3.776 71.089 71.089 0 01-17.342-8.694 71.266 71.266 0 01-8.457 5.27" fill="#FBD0A1"/><path d="M338.848 279.9c-14.242 0-27.137 5.774-36.467 15.104-9.332 9.332-15.105 22.225-15.105 36.466s5.773 27.135 15.105 36.465c9.33 9.33 22.225 15.104 36.467 15.104 14.24 0 27.133-5.772 36.465-15.104 9.33-9.33 15.104-22.224 15.104-36.465 0-14.241-5.774-27.134-15.104-36.466-9.332-9.33-22.225-15.104-36.465-15.104m-84.93 51.57c0-14.241-5.773-27.134-15.104-36.466-9.331-9.33-22.226-15.104-36.466-15.104-14.242 0-27.135 5.774-36.466 15.104-9.332 9.332-15.104 22.225-15.104 36.466s5.772 27.135 15.104 36.465c9.331 9.332 22.224 15.104 36.466 15.104 14.24 0 27.135-5.774 36.466-15.104 9.331-9.33 15.104-22.224 15.104-36.465" fill="#FFF"/><path d="M401.321 337.726c1.344 7.268 2.605 15.162 3.318 23.375.094 1.082.18 2.168.254 3.258 1.547-.44 3.18-.676 4.869-.676 2.324 0 4.547.447 6.582 1.26a32.738 32.738 0 001.489-3.016c2.447-5.668 3.48-12.121 2.875-17.611-.512-4.658-2.165-8.434-5.083-9.826-2.982-1.422-7.636-.756-14.304 3.236m-264.766 23.375c.713-8.213 1.973-16.107 3.317-23.377-6.666-3.99-11.321-4.658-14.303-3.234-2.917 1.392-4.569 5.168-5.082 9.826-.605 5.49.429 11.943 2.875 17.611a32.472 32.472 0 001.487 3.016 17.724 17.724 0 016.584-1.26c1.689 0 3.322.236 4.869.676.074-1.09.158-2.176.253-3.258" fill="#FBD0A1"/><path d="M135.937 375.312a7.601 7.601 0 00-4.504-1.469 7.614 7.614 0 00-5.396 2.235l-.213.199a7.608 7.608 0 00-2.022 5.197 7.6 7.6 0 002.215 5.397l.02.019a7.595 7.595 0 005.396 2.215 7.61 7.61 0 005.117-1.949 120.469 120.469 0 01-.613-11.844m269.321 0a120.81 120.81 0 01-.613 11.844 7.597 7.597 0 005.117 1.949 7.61 7.61 0 005.196-2.021l.201-.213a7.612 7.612 0 002.234-5.397 7.611 7.611 0 00-2.234-5.396 7.62 7.62 0 00-5.397-2.235 7.601 7.601 0 00-4.504 1.469" fill="#6DE1FF"/><path d="M223.264 458.095c-.436 4.783-.155 9.08.857 12.67 1.046 3.715 2.88 6.619 5.504 8.41 2.668 1.821 6.337 2.618 11.045 2.106 5.208-.567 11.522-2.699 18.981-6.731l7.166 3.315 2.223-.483v3.493c-10.63 6.373-19.735 9.664-27.299 10.484-7.243.789-13.191-.647-17.831-3.811-4.684-3.195-7.86-8.037-9.552-14.043-1.42-5.043-1.782-10.935-1.102-17.343l10.008 1.933m91.553 0c.435 4.783.154 9.08-.858 12.67-1.044 3.715-2.88 6.619-5.503 8.41-2.668 1.821-6.338 2.618-11.045 2.106-5.209-.567-11.524-2.699-18.983-6.731l-7.166 3.315-2.222-.483v3.493c10.63 6.373 19.734 9.664 27.298 10.484 7.245.789 13.192-.647 17.832-3.811 4.684-3.195 7.86-8.037 9.551-14.043 1.42-5.043 1.781-10.935 1.104-17.343l-10.008 1.933" fill="#1B1038"/><path d="M229.625 479.175c2.668 1.821 6.337 2.618 11.045 2.106 3.564-.387 7.643-1.508 12.255-3.467a39.368 39.368 0 01-14.027-11.978 241.88 241.88 0 01-15.804-2.024c.095 2.527.437 4.859 1.027 6.953 1.046 3.715 2.88 6.619 5.504 8.41" fill="#FFF"/><path d="M243.174 480.902c2.937-.561 6.186-1.574 9.751-3.088a39.368 39.368 0 01-14.027-11.978 248.416 248.416 0 01-12.508-1.514c.139 2.16.464 4.17.979 5.996 1.045 3.715 2.88 6.619 5.504 8.41 2.525 1.723 5.949 2.527 10.301 2.174m55.088-10.34a39.198 39.198 0 01-11.422 7.94c3.926 1.537 7.448 2.439 10.571 2.779 4.707.512 8.377-.285 11.045-2.106 2.623-1.791 4.459-4.695 5.503-8.41.551-1.957.885-4.125 1.006-6.467a245.577 245.577 0 01-12.668 1.538 39.294 39.294 0 01-4.035 4.726" fill="#FF917D"/><path d="M326.213 532.351h-9.898a214.972 214.972 0 01-2.719 16.592c-1.435 7.059-3.205 14.086-5.263 21.078a5.087 5.087 0 01-4.008 3.572c-26.067 4.481-44.503 4.481-70.569 0a5.082 5.082 0 01-4.008-3.572c-2.058-6.992-3.829-14.019-5.264-21.078a214.496 214.496 0 01-2.72-16.592h-9.896c3.792 36.592 17.349 60.498 33.976 71.822 7.338 4.998 15.281 7.498 23.196 7.498 7.916 0 15.859-2.5 23.197-7.498 16.627-11.324 30.183-35.23 33.976-71.822" fill="#6DE1FF"/><path d="M142.042 575.709c-8.458-2.879-14.381-10.157-16.973-19.94a23.75 23.75 0 01-8.246-.082c1.271 6.631 4.144 12.045 8.321 15.537a18.511 18.511 0 006.398 3.492c3.319 1.036 6.924 1.375 10.5.993m-13.235-65.987c1.239.42 2.438.94 3.585 1.553 2.956-5.586 6.701-11.199 11.294-16.691 8.279-9.903 15.165-17.19 20.851-22.252-5.237 2.421-14.512 11.166-29.558 29.162a95.357 95.357 0 00-6.172 8.228" fill="#FFF"/><path d="M368.258 473.636c-3.336 9.541 1.217 33.95 6.871 58.52l.276 1.197-.295 1.164c-2.465 9.736-2.279 17.641-.35 23.824 1.461 4.676 3.92 8.373 6.959 11.121 3.039 2.749 6.707 4.598 10.574 5.579 4.752 1.201 9.76 1.076 14.247-.325a18.529 18.529 0 006.398-3.492c4.176-3.492 7.049-8.906 8.32-15.537a23.762 23.762 0 01-7.5.193l-.549-.08c-6.496-1.013-11.966-4.57-15.558-9.496-3.59-4.922-5.305-11.211-4.289-17.695a23.745 23.745 0 019.496-15.559 23.896 23.896 0 016.416-3.328 95.563 95.563 0 00-6.172-8.228c-23.4-27.987-32.84-33.596-34.844-27.858" fill="#D1D4E3"/><path d="M375.405 533.353l-.295 1.164c-2.465 9.736-2.279 17.641-.35 23.824 1.461 4.676 3.92 8.373 6.959 11.121 3.039 2.749 6.707 4.598 10.574 5.579 4.752 1.201 9.76 1.076 14.247-.325.414-.129.822-.273 1.222-.427a26.89 26.89 0 01-5.439-.375c-3.932-.676-7.733-2.237-10.975-4.743-3.244-2.503-5.982-5.998-7.801-10.546-2.402-6.016-3.199-13.881-1.498-23.78l.205-1.183-.367-1.172c-7.541-24.061-13.97-48.039-11.387-57.813.434-1.633 1.506-2.435 3.379-2.183-3.115-1.551-4.879-.983-5.621 1.142-3.336 9.541 1.217 33.95 6.871 58.52l.276 1.197" fill="#FFF"/><path d="M221.254 527.767a5.067 5.067 0 014.544-5.537 5.066 5.066 0 015.535 4.545c.667 6.719 1.708 13.434 3.072 20.144a239.799 239.799 0 004.184 17.188c21.703 3.414 39.199 3.414 60.902 0a239.254 239.254 0 004.183-17.188c1.366-6.71 2.405-13.425 3.073-20.144a5.066 5.066 0 015.535-4.545 5.065 5.065 0 014.543 5.537c-.7 7.055-1.793 14.115-3.229 21.176-1.435 7.059-3.205 14.086-5.263 21.078a5.087 5.087 0 01-4.008 3.572c-26.067 4.481-44.503 4.481-70.569 0a5.082 5.082 0 01-4.008-3.572c-2.058-6.992-3.829-14.019-5.264-21.078-1.437-7.061-2.53-14.121-3.23-21.176" fill="#1B1038"/><path d="M234.405 546.919a239.799 239.799 0 004.184 17.188c21.703 3.414 39.199 3.414 60.902 0a239.254 239.254 0 004.183-17.188c.987-4.853 1.805-9.71 2.434-14.568h-74.136a205.514 205.514 0 002.433 14.568" fill="#FF917D"/><path d="M306.108 532.351h-4.711c-.311 4.17-.756 8.348-1.324 12.533a239.215 239.215 0 01-3.053 17.424c-9.777 2.203-18.728 3.639-27.649 4.36 9.69-.02 19.391-.874 30.12-2.561a239.254 239.254 0 004.183-17.188c.987-4.853 1.805-9.71 2.434-14.568m-152.82-238.349c-43.223-47.256-54.136-91.471-.903-127.902 32.467-22.221 85.196-31.729 137.565-29.431 26.797 1.177 53.418 5.44 77.097 12.672-28.291-10.005-62.336-15.007-96.45-15.007-52.42 0-104.68 11.813-136.142 35.436-32.846 24.663-42.326 62.996-3.16 115.156l3.906 5.201-6.009 2.517c-7.549 3.161-13.437 7.626-17.199 12.708-2.955 3.993-4.575 8.347-4.598 12.683-.023 4.299 1.523 8.707 4.894 12.867l1.386 1.592c1.787-3.121 4.283-5.621 7.53-7.172.224-.106.452-.209.683-.307-13.68-12.642 10.941-28.818 31.4-31.013" fill="#FFF"/><g transform="translate(217)"><mask id="d" fill="#fff"><use xlink:href="#c"/></mask><path d="M46.111 6.611C19.694 10.746 1.628 35.515 5.763 61.931c4.133 26.418 28.904 44.484 55.321 40.348 26.416-4.133 44.483-28.903 40.348-55.32C97.297 20.543 72.528 2.476 46.111 6.611" fill="#6DE1FF" mask="url(#d)"/><path d="M10.393 22.94C18.458 11.88 30.746 3.894 45.337 1.611c14.578-2.282 28.71 1.566 39.767 9.63 11.059 8.067 19.045 20.353 21.328 34.944l.08.529c2.108 14.391-1.744 28.314-9.711 39.238-8.066 11.059-20.351 19.045-34.941 21.328l-.531.079c-14.391 2.108-28.316-1.743-39.239-9.71C11.031 89.583 3.045 77.297.763 62.708l-.08-.53c-2.107-14.392 1.743-28.315 9.71-39.238zm36.492-11.329c-11.826 1.851-21.783 8.32-28.318 17.281-6.538 8.963-9.656 20.429-7.804 32.265l.007.048c1.859 11.803 8.324 21.743 17.273 28.27 8.964 6.538 20.429 9.656 32.264 7.804l.092-.014c11.787-1.868 21.709-8.328 28.228-17.266 6.54-8.964 9.657-20.429 7.805-32.264l-.008-.045C94.565 35.884 88.1 25.943 79.151 19.415c-8.963-6.538-20.43-9.656-32.266-7.804z" fill="#1B1038" mask="url(#d)"/></g><path d="M308.243 43.092c3.795 24.253-12.791 46.995-37.046 50.79a44.235 44.235 0 01-23.815-2.815 43.21 43.21 0 0029.925 6.212l.092-.014c11.787-1.868 21.709-8.328 28.228-17.266 6.54-8.964 9.657-20.429 7.805-32.264l-.008-.045c-1.75-11.11-7.578-20.568-15.718-27.085a44.25 44.25 0 0110.537 22.487" fill="#FFF"/><path fill="#1B1038" d="M265.517 128.733h10.159v-24.925h-10.159z"/><path d="M202.346 287.822c12.053 0 22.967 4.887 30.865 12.785 7.898 7.897 12.785 18.809 12.785 30.863 0 12.053-4.887 22.967-12.785 30.862-7.898 7.898-18.812 12.785-30.865 12.785-12.053 0-22.964-4.885-30.862-12.785-7.898-7.895-12.785-18.809-12.785-30.862 0-12.054 4.887-22.966 12.785-30.863 7.898-7.898 18.809-12.785 30.862-12.785" fill="#6DE1FF"/><path fill="#1B1038" d="M260.441 336.55h21.794v-10.16h-21.794zm-10.638 65.901a5.112 5.112 0 015.689-8.492 26.957 26.957 0 007.2 3.421c2.45.745 5.105 1.149 7.903 1.149 2.798 0 5.452-.404 7.904-1.149 2.574-.779 5-1.945 7.199-3.421a5.114 5.114 0 017.092 1.402 5.112 5.112 0 01-1.403 7.09 37.02 37.02 0 01-9.924 4.705 37.34 37.34 0 01-10.868 1.629c-3.734 0-7.387-.571-10.868-1.629a37.05 37.05 0 01-9.924-4.705"/><path d="M338.848 287.822c-12.053 0-22.967 4.887-30.865 12.785-7.899 7.897-12.785 18.809-12.785 30.863 0 12.053 4.886 22.967 12.785 30.862 7.898 7.898 18.812 12.785 30.865 12.785 12.053 0 22.965-4.885 30.861-12.785 7.899-7.895 12.786-18.809 12.786-30.862 0-12.054-4.887-22.966-12.786-30.863-7.896-7.898-18.808-12.785-30.861-12.785" fill="#6DE1FF"/><path d="M374.733 285.546c.406.458.781.949 1.125 1.47l.016-.012a12.972 12.972 0 012.039 5.271c.24 1.584.177 3.251-.184 5.008l-.135.582c-.371 1.547-.927 2.909-1.654 4.092a12.918 12.918 0 01-3.936 4.053 12.956 12.956 0 01-5.283 2.033c-1.582.246-3.252.186-5.004-.177l-16.818-3.456c-1.5-.363-2.854-.917-4.053-1.652l-.703-.471a12.765 12.765 0 01-3.389-3.465c-.224-.34-.423-.689-.601-1.045a12.809 12.809 0 01-1.434-4.273c-.232-1.569-.174-3.232.184-4.971.301-1.458.771-2.782 1.41-3.963a13.397 13.397 0 012.875-3.658l2.557-2.254a13.568 13.568 0 01-1.12-1.459l-.015.011c-1.774-2.673-2.432-5.722-1.979-9.132a9.705 9.705 0 01.493-2.412c.919-3.304 2.718-5.838 5.386-7.599.358-.234.721-.445 1.096-.628 2.41-1.287 5.096-1.74 8.039-1.349a9.772 9.772 0 012.029.373l15.407 3.148.648.155a14.07 14.07 0 014.01 1.663l.015-.026a12.948 12.948 0 014.053 3.937 12.92 12.92 0 012.031 5.271c.245 1.577.182 3.255-.177 5.012l-.143.604a14.108 14.108 0 01-1.266 3.359 13.311 13.311 0 01-2.916 3.66l-2.603 2.3" fill="#1B1038"/><path d="M365.196 290.832c1.156.236 2.002.758 2.531 1.563.533.798.68 1.779.443 2.939-.236 1.153-.755 1.998-1.558 2.529-.811.534-1.791.68-2.944.444l-16.234-3.319c-1.158-.236-2.004-.756-2.533-1.558-.527-.804-.676-1.787-.44-2.944.198-.961.608-1.718 1.229-2.269l14.803-13.026-9.125-1.864c-2.491-.509-3.483-2.011-2.975-4.503.51-2.49 2.012-3.481 4.504-2.972l16.232 3.318c1.155.236 2 .758 2.532 1.562.533.799.677 1.781.441 2.94-.197.961-.607 1.719-1.228 2.269l-14.762 13.034 9.084 1.857" fill="#FFF"/><path d="M181.555 351.64a5.111 5.111 0 015.688-8.492 26.959 26.959 0 007.2 3.422c2.451.744 5.106 1.146 7.904 1.146 2.797 0 5.451-.402 7.903-1.146a26.93 26.93 0 007.2-3.422 5.112 5.112 0 017.091 1.402 5.112 5.112 0 01-1.403 7.09 37.134 37.134 0 01-9.923 4.705 37.387 37.387 0 01-10.868 1.627c-3.734 0-7.387-.57-10.868-1.627a37.14 37.14 0 01-9.924-4.705m136.5 0a5.11 5.11 0 015.688-8.492 26.91 26.91 0 007.199 3.422c2.451.744 5.105 1.146 7.904 1.146 2.797 0 5.451-.402 7.903-1.146a26.95 26.95 0 007.201-3.422 5.111 5.111 0 017.09 1.402 5.112 5.112 0 01-1.403 7.09 37.112 37.112 0 01-9.924 4.705 37.37 37.37 0 01-10.867 1.627c-3.734 0-7.387-.57-10.869-1.627a37.1 37.1 0 01-9.922-4.705m43.324-201.217a17.11 17.11 0 013.93 1.146c2.117.908 3.973 2.252 5.549 4.009l.017-.016a15.706 15.706 0 013.399 6.024c.59 1.946.814 4.057.687 6.33-.125 2.251-.595 4.316-1.4 6.19l-.012.031c-.9 2.124-2.24 3.98-4.013 5.569l-.022.016.022.023c-1.707 1.518-3.707 2.626-6.002 3.325v.039c-1.944.587-4.049.817-6.321.69l-30.986-1.753c-2.17-.153-4.154-.612-5.935-1.378l-.793-.384a15.73 15.73 0 01-4.77-3.644l-.016-.02-.023.02a15.839 15.839 0 01-3.354-5.994c-.587-1.943-.816-4.052-.689-6.325.102-1.865.459-3.63 1.061-5.276l.013-.034c.637-1.777 1.6-3.418 2.865-4.921v-.037l11.059-13.034c-3.973-.63-7.189-2.324-9.648-5.074-2.914-3.262-4.237-7.411-3.955-12.435.281-5.041 2.056-9.018 5.314-11.929 3.268-2.919 7.418-4.236 12.436-3.954l30.681 1.727c2.213.128 4.293.607 6.221 1.44l.014-.034c2.115.91 3.966 2.249 5.544 4.008l.02-.017a15.751 15.751 0 013.395 6.023c.585 1.937.818 4.055.691 6.332-.104 1.864-.459 3.627-1.063 5.275l-.011.034c-.639 1.777-1.602 3.418-2.866 4.921v.038l-11.039 13.049" fill="#1B1038"/><path d="M358.543 159.918c2.186.123 3.879.853 5.067 2.185 1.193 1.324 1.724 3.086 1.601 5.277-.123 2.18-.849 3.869-2.179 5.06-1.344 1.198-3.104 1.729-5.283 1.607l-30.684-1.728c-2.191-.123-3.883-.849-5.07-2.179-1.184-1.334-1.719-3.098-1.596-5.283.101-1.817.65-3.318 1.643-4.496l23.666-27.882-17.247-.971c-4.709-.265-6.933-2.753-6.668-7.463.264-4.709 2.754-6.932 7.463-6.667l30.682 1.728c2.186.123 3.879.854 5.066 2.186 1.194 1.323 1.725 3.085 1.602 5.276-.104 1.818-.652 3.318-1.645 4.496l-23.587 27.887 17.169.967" fill="#FFF"/><path d="M400.231 225.706a13.14 13.14 0 013.424 3.081l.316.431a13.134 13.134 0 012.178 4.76l.008-.002c.392 1.672.476 3.401.26 5.182l-.006.035c-.217 1.807-.715 3.471-1.491 4.989a9.213 9.213 0 01-.705 1.168 13.16 13.16 0 01-2.994 3.288 13.202 13.202 0 01-5.201 2.507c-1.682.394-3.42.477-5.211.258l-20.221-2.474-.455-.067c-1.646-.247-3.158-.725-4.539-1.428a13.21 13.21 0 01-4.457-3.699l-.033-.041a13.21 13.21 0 01-2.467-5.195 14.826 14.826 0 01-.258-5.175c.184-1.493.569-2.91 1.161-4.248a13.663 13.663 0 012.671-3.973l4.975-5.137a12.947 12.947 0 01-3.445-3.095c-2.278-2.912-3.166-6.407-2.668-10.482.498-4.081 2.207-7.262 5.125-9.542 2.91-2.275 6.406-3.167 10.482-2.667l20.219 2.473c1.744.213 3.412.726 4.99 1.533a13.25 13.25 0 014.459 3.665l.307.419a13.082 13.082 0 012.195 4.772c.391 1.681.479 3.423.258 5.218a14.976 14.976 0 01-1.158 4.245 13.761 13.761 0 01-2.674 3.975l-5.045 5.226" fill="#1B1038"/><path d="M393.079 232.84c1.439.176 2.527.733 3.255 1.665.731.928 1.006 2.116.831 3.56-.176 1.437-.731 2.522-1.661 3.252-.941.735-2.129 1.01-3.566.835l-20.221-2.474c-1.443-.177-2.531-.73-3.259-1.662-.725-.933-1.002-2.124-.827-3.563.147-1.199.575-2.167 1.282-2.903l16.865-17.417-11.367-1.39c-3.104-.38-4.467-2.121-4.086-5.225.379-3.104 2.123-4.466 5.226-4.087l20.219 2.474c1.439.177 2.529.733 3.256 1.666.732.927 1.008 2.115.83 3.559-.147 1.198-.574 2.167-1.281 2.903l-16.813 17.423 11.317 1.384" fill="#FFF"/><path d="M85.849 131.922c-47.28 47.282-76.524 112.602-76.524 184.75S38.569 454.14 85.849 501.419a262.304 262.304 0 0017.066 15.625 23.73 23.73 0 0114.515-8.267c2.73-4.631 5.977-9.254 9.771-13.791 31.92-38.176 46.709-40.354 52.185-24.684 4.084 11.686-.422 37.284-6.283 62.94 2.412 10.185 2.314 18.879.473 26.095a259.04 259.04 0 0036.554 11.575c-4.073-11.055-7.018-23.912-8.461-38.563h-7.498a5.079 5.079 0 01-5.076-4.924c-1.239-12.279-1.077-24.748.352-37.183 1.267-11.018 3.536-22.047 6.711-32.92-37.057-12.393-52.611-34.971-57.912-59.42a17.648 17.648 0 01-6.813 1.361c-4.873 0-9.305-1.978-12.529-5.181l-.05-.049c-3.221-3.227-5.211-7.67-5.211-12.559 0-3.76 1.178-7.256 3.187-10.138a42.473 42.473 0 01-2.794-5.399c-3.106-7.199-4.411-15.498-3.636-22.664-2.313-1.916-4.297-3.918-5.969-5.98-4.928-6.086-7.191-12.707-7.154-19.299.035-6.555 2.351-12.961 6.581-18.676 3.783-5.11 9.121-9.682 15.723-13.291-39.264-55.51-27.603-97.013 8.803-124.351 32.259-24.222 84.46-36.71 137.133-37.465v-16.52c-9.698-.918-18.795-4.476-26.427-10.042-11.058-8.065-19.045-20.353-21.327-34.941l-.08-.53a51.242 51.242 0 01-.183-1.381c-50.847 10.498-96.294 35.768-131.651 71.125m326.962 29.752c36.406 27.338 48.066 68.842 8.803 124.352 6.601 3.609 11.939 8.181 15.722 13.292 4.231 5.715 6.545 12.122 6.582 18.676.038 6.592-2.228 13.213-7.154 19.299-1.672 2.062-3.656 4.064-5.969 5.978.774 7.168-.529 15.467-3.636 22.666a42.53 42.53 0 01-2.785 5.387 17.715 17.715 0 013.177 10.15c0 4.912-1.992 9.36-5.211 12.578l-.33.303c-3.199 3.043-7.515 4.908-12.248 4.908-2.41 0-4.713-.482-6.812-1.359-5.436 25.064-21.649 48.166-60.762 60.338 3.037 10.574 5.215 21.291 6.445 32 1.442 12.556 1.594 25.15.315 37.545a5.067 5.067 0 01-5.039 4.55v.012h-7.498c-1.477 14.998-4.53 28.115-8.752 39.346a259.572 259.572 0 0037.146-11.25c-2.123-7.43-2.363-16.492.172-27.203-5.861-25.656-10.367-51.254-6.283-62.94 5.476-15.67 20.264-13.492 52.185 24.684 3.795 4.537 7.041 9.16 9.772 13.791a23.742 23.742 0 0115.724 9.85 262.73 262.73 0 0018.973-17.208c47.279-47.279 76.524-112.599 76.524-184.747 0-72.149-29.245-137.47-76.524-184.75-35.355-35.354-80.799-60.624-131.64-71.123a53.437 53.437 0 01-9.907 25.153c-8.066 11.059-20.351 19.045-34.941 21.327l-.531.08c-.885.13-1.77.236-2.651.322v16.53c12.242.176 24.459.985 36.406 2.428a21.625 21.625 0 01-.042-3.129c.281-5.041 2.056-9.019 5.314-11.929 3.268-2.919 7.418-4.236 12.436-3.954l30.681 1.727c2.213.129 4.291.607 6.221 1.44l.015-.035c2.114.911 3.965 2.25 5.543 4.009l.02-.017a15.751 15.751 0 013.395 6.023c.585 1.938.818 4.055.691 6.331-.104 1.865-.459 3.627-1.063 5.276l-.011.034c-.639 1.777-1.6 3.418-2.866 4.921v.037l-2.056 2.433c16.183 5.719 30.65 13.009 42.449 21.868" fill="#FF917D"/></g></svg>