<svg width="542" height="664" xmlns="http://www.w3.org/2000/svg" xmlns:xlink="http://www.w3.org/1999/xlink"><defs><path id="a" d="M.06.073h541.135V618H.06z"/><path id="c" d="M.114.96H107.08v106.968H.114z"/></defs><g fill="none" fill-rule="evenodd"><g transform="translate(0 46)"><mask id="b" fill="#fff"><use xlink:href="#a"/></mask><path d="M270.593 611.377c32.085 0 58.096 1.482 58.096 3.312 0 1.826-26.011 3.311-58.096 3.311-32.086 0-58.098-1.485-58.098-3.311 0-1.83 26.012-3.312 58.098-3.312M455.346 85.921c-47.28-47.279-112.6-76.524-184.749-76.524-72.148 0-137.468 29.245-184.748 76.524-47.28 47.282-76.525 112.602-76.525 184.75 0 72.149 29.245 137.469 76.525 184.748 47.28 47.28 112.6 76.526 184.748 76.526 72.147 0 137.467-29.246 184.749-76.526 47.281-47.279 76.525-112.599 76.525-184.748 0-72.149-29.244-137.47-76.525-184.75zM270.597.073c74.725 0 142.378 30.288 191.344 79.254 48.965 48.966 79.254 116.619 79.254 191.344 0 74.723-30.289 142.377-79.254 191.342-48.968 48.967-116.621 79.256-191.344 79.256S128.221 510.98 79.255 462.013C30.289 413.048 0 345.394 0 270.671c0-74.723 30.289-142.376 79.255-191.344C128.221 30.361 195.874.073 270.597.073z" fill="#1C1038" mask="url(#b)"/></g><path d="M148.331 331.134a5.058 5.058 0 01-5.675 8.373c-8.175-5.559-13.705-6.631-17.086-5.018-2.918 1.393-4.57 5.168-5.083 9.826-.604 5.491.429 11.944 2.875 17.612 1.17 2.713 2.669 5.221 4.46 7.295l-8.303 5.936c-2.199-2.727-4.034-5.865-5.483-9.223-3.105-7.197-4.411-15.496-3.636-22.662-2.313-1.917-4.297-3.918-5.968-5.981-4.928-6.085-7.192-12.707-7.155-19.299.035-6.555 2.351-12.961 6.581-18.675 3.783-5.111 9.121-9.683 15.723-13.292-39.264-55.509-27.603-97.014 8.804-124.351 33.295-25.001 87.836-37.501 142.213-37.501 54.375 0 108.918 12.5 142.213 37.499 36.406 27.338 48.066 68.842 8.802 124.352 6.602 3.608 11.94 8.181 15.723 13.293 4.228 5.714 6.545 12.121 6.582 18.675.035 6.592-2.229 13.213-7.156 19.299-1.67 2.063-3.655 4.064-5.967 5.979.773 7.168-.529 15.467-3.637 22.664-1.32 3.061-2.961 5.94-4.906 8.488l-8.152-6.088c1.472-1.886 2.724-4.07 3.732-6.408 2.447-5.668 3.481-12.121 2.875-17.612-.514-4.658-2.164-8.433-5.082-9.826-3.381-1.611-8.912-.541-17.086 5.018a5.057 5.057 0 01-7.023-1.35 5.056 5.056 0 011.347-7.023c11.641-7.915 20.657-8.9 27.125-5.812 3.248 1.55 5.742 4.047 7.53 7.171.492-.527.955-1.056 1.388-1.592 3.367-4.16 4.916-8.568 4.893-12.867-.024-4.335-1.643-8.69-4.6-12.683-3.76-5.082-9.648-9.547-17.197-12.708l-6.008-2.516 3.904-5.202c39.168-52.161 29.686-90.494-3.16-115.156-31.461-23.624-83.72-35.436-136.14-35.436-52.42 0-104.681 11.813-136.142 35.436-32.846 24.663-42.327 62.996-3.161 115.156l3.906 5.202-6.009 2.516c-7.549 3.161-13.437 7.626-17.199 12.708-2.955 3.993-4.575 8.348-4.597 12.683-.024 4.299 1.523 8.707 4.893 12.867.433.535.895 1.067 1.386 1.592 1.787-3.122 4.283-5.621 7.53-7.171 6.471-3.088 15.484-2.103 27.126 5.812" fill="#1C1038"/><path d="M206.323 527.271c8.904 119.307 116.531 119.307 125.433 0H206.323" fill="#FFF"/><path d="M240.129 612.546c-19.771-13.464-35.65-41.808-38.865-84.898l-.407-5.457h136.366l-.407 5.457c-3.214 43.09-19.095 71.434-38.865 84.898-9.086 6.188-18.986 9.284-28.911 9.284-9.924 0-19.825-3.094-28.911-9.284zm-28.261-80.195c3.792 36.592 17.349 60.498 33.976 71.822 7.338 4.998 15.281 7.498 23.196 7.498 7.915 0 15.858-2.5 23.196-7.498 16.627-11.324 30.184-35.23 33.977-71.822H211.868z" fill="#1C1038"/><path d="M269.04 532.351h-74.868a5.08 5.08 0 01-5.077-4.926c-1.239-12.277-1.076-24.75.353-37.183 1.463-12.731 4.264-25.475 8.255-37.977l7.903 2.416 17.002 3.287c-6.945.076-12.574.172-16.162.287-3.297 10.901-5.638 22.008-6.919 33.137-1.186 10.328-1.454 20.645-.716 30.799H339.27c.738-10.154.468-20.471-.717-30.799-1.282-11.129-3.623-22.236-6.92-33.137l9.351-4.052c3.67 11.881 6.26 23.966 7.647 36.039 1.445 12.556 1.596 25.15.316 37.545a5.067 5.067 0 01-5.039 4.55v.014H269.04m96.036 29.006c-2.371-7.598-2.74-16.963-.099-28.115-5.862-25.657-10.368-51.254-6.284-62.94 5.477-15.67 20.266-13.492 52.186 24.684 8.844 10.576 14.713 21.611 18.002 32.148 3.349 10.741 4.037 21.004 2.471 29.799-1.647 9.229-5.764 16.932-11.907 22.069a28.66 28.66 0 01-9.89 5.398c-6.25 1.949-13.182 2.137-19.723.482-5.391-1.365-10.555-3.99-14.9-7.922-4.346-3.927-7.83-9.121-9.856-15.603zm10.033-26.84c-2.464 9.736-2.279 17.641-.349 23.824 1.461 4.676 3.92 8.373 6.959 11.121 3.039 2.748 6.707 4.598 10.574 5.579 4.752 1.201 9.76 1.076 14.246-.325a18.534 18.534 0 006.399-3.492c4.279-3.58 7.191-9.178 8.412-16.037 1.298-7.289.695-15.908-2.153-25.039-2.914-9.33-8.158-19.162-16.095-28.654-23.401-27.987-32.84-33.596-34.844-27.858-3.336 9.541 1.217 33.949 6.871 58.52l.275 1.197-.295 1.164z" fill="#1C1038"/><path d="M419.779 513.761c10.227 1.602 17.223 11.192 15.621 21.418-1.599 10.229-11.189 17.223-21.418 15.621-10.226-1.599-17.222-11.189-15.621-21.418 1.6-10.226 11.192-17.22 21.418-15.621" fill="#7ED2EF"/><path d="M427.938 524.212a13.631 13.631 0 00-8.934-5.451 13.676 13.676 0 00-10.193 2.463 13.628 13.628 0 00-5.45 8.934 13.656 13.656 0 002.463 10.193 13.636 13.636 0 008.881 5.442l.053.007c3.74.586 7.365-.398 10.191-2.461a13.634 13.634 0 005.444-8.88l.007-.053a13.666 13.666 0 00-2.462-10.194zm-7.385-15.451a23.742 23.742 0 0115.558 9.498 23.707 23.707 0 014.368 17.147l-.079.551c-1.015 6.494-4.574 11.964-9.498 15.556a23.7 23.7 0 01-17.144 4.367l-.551-.08c-6.494-1.013-11.965-4.57-15.559-9.496-3.587-4.922-5.302-11.211-4.289-17.695a23.763 23.763 0 019.498-15.559c4.924-3.59 11.211-5.304 17.696-4.289z" fill="#1C1038"/><path d="M167.893 533.287c9.642 38.101-18.153 52.423-37.859 46.271-23.093-7.209-27.939-46.64 1.056-81.318 55.323-66.164 48.449-15.572 36.803 35.047" fill="#D1D4E2"/><path d="M163.321 558.341c1.929-6.183 2.116-14.088-.349-23.824l-.295-1.164.275-1.197c5.653-24.572 10.205-48.977 6.871-58.52-2.005-5.736-11.445-.129-34.844 27.858-7.937 9.492-13.182 19.324-16.095 28.654-2.848 9.131-3.452 17.75-2.154 25.039 1.222 6.859 4.133 12.457 8.414 16.037a18.52 18.52 0 006.398 3.492c4.485 1.401 9.493 1.526 14.246.325 3.866-.981 7.536-2.831 10.574-5.579 3.04-2.748 5.498-6.445 6.959-11.121zm9.783-25.099c2.641 11.152 2.272 20.517-.099 28.115-2.025 6.482-5.51 11.676-9.857 15.603-4.344 3.932-9.509 6.557-14.899 7.922-6.541 1.655-13.474 1.467-19.722-.482a28.655 28.655 0 01-9.891-5.398c-6.144-5.137-10.261-12.84-11.906-22.069-1.567-8.795-.88-19.058 2.47-29.799 3.289-10.537 9.159-21.572 18.001-32.148 31.92-38.176 46.709-40.354 52.186-24.684 4.083 11.686-.422 37.283-6.283 62.94z" fill="#1C1038"/><path d="M118.302 513.761c-10.228 1.602-17.223 11.192-15.622 21.418 1.6 10.229 11.191 17.223 21.419 15.621 10.227-1.599 17.221-11.189 15.621-21.418-1.601-10.226-11.191-17.22-21.418-15.621" fill="#7ED2EF"/><path d="M101.968 518.259c3.593-4.924 9.064-8.482 15.56-9.498 6.484-1.015 12.771.699 17.695 4.289a23.754 23.754 0 019.497 15.559c1.015 6.484-.699 12.773-4.289 17.695-3.592 4.926-9.064 8.483-15.558 9.496-6.485 1.016-12.774-.697-17.695-4.287a23.745 23.745 0 01-9.499-15.558c-1.014-6.487.699-12.774 4.289-17.696zm17.108.502a13.631 13.631 0 00-8.933 5.451 13.662 13.662 0 00-2.463 10.194 13.631 13.631 0 005.451 8.933 13.66 13.66 0 0010.194 2.461 13.627 13.627 0 008.932-5.449 13.665 13.665 0 002.463-10.193 13.632 13.632 0 00-5.45-8.934 13.677 13.677 0 00-10.194-2.463zm-.222-149.867a17.744 17.744 0 0112.579-5.211c3.804 0 7.329 1.195 10.221 3.231l-.883 13.836 2.96 13.556c-3.205 3.071-7.539 4.959-12.298 4.959-4.873 0-9.305-1.98-12.529-5.183l-.05-.049c-3.22-3.227-5.211-7.67-5.211-12.559 0-4.734 1.867-9.049 4.91-12.25l.301-.33zm12.579 4.949a7.612 7.612 0 00-5.396 2.235l-.213.199a7.608 7.608 0 00-2.022 5.197c0 2.119.846 4.028 2.216 5.397l.019.019a7.595 7.595 0 005.396 2.215 7.604 7.604 0 005.397-2.215v-.019a7.612 7.612 0 002.234-5.397 7.611 7.611 0 00-2.234-5.396 7.616 7.616 0 00-5.397-2.235zm283.725 2.235a7.62 7.62 0 00-5.396-2.235 7.613 7.613 0 00-5.397 2.235h-.019a7.593 7.593 0 00-2.217 5.396c0 2.119.848 4.028 2.217 5.397l.019.019a7.594 7.594 0 005.397 2.215 7.609 7.609 0 005.195-2.021l.201-.213a7.613 7.613 0 002.235-5.397 7.612 7.612 0 00-2.235-5.396zm-5.396-12.395c4.912 0 9.359 1.994 12.578 5.211a17.738 17.738 0 015.211 12.58c0 4.912-1.992 9.36-5.211 12.578l-.33.303c-3.199 3.043-7.514 4.91-12.248 4.91-4.69 0-8.967-1.832-12.157-4.822l3.782-15.938-1.864-11.582a17.726 17.726 0 0110.239-3.24z" fill="#1C1038"/><path d="M238.898 465.835c-94.597-9.07-106.173-60.642-102.342-104.734 1.085-12.495 3.434-24.248 5.42-34.186.755-3.782 1.46-7.305 1.989-10.328a5.075 5.075 0 015.27-4.195l-4.533 20.396 3.495 16.596c-.619 4.096-1.153 8.312-1.523 12.59-3.333 38.377 6.639 83.115 86.711 93.043a39.099 39.099 0 01-1.913-12.121 5.079 5.079 0 0110.158 0c0 8 3.243 15.244 8.484 20.484 5.241 5.241 12.485 8.485 20.484 8.485 7.998 0 15.242-3.244 20.482-8.485a28.874 28.874 0 008.484-20.484 5.079 5.079 0 015.081-5.078 5.078 5.078 0 015.078 5.078 39.1 39.1 0 01-1.914 12.121c80.072-9.928 90.045-54.666 86.712-93.043-.484-5.555-1.236-11.008-2.101-16.227l2.326-5.461 4.893-11.261c1.886 9.474 3.992 20.456 5 32.076 3.832 44.092-7.744 95.664-102.344 104.734a39.284 39.284 0 01-4.031 4.727c-7.08 7.08-16.866 11.461-27.666 11.461-10.805 0-20.587-4.381-27.666-11.461a39.4 39.4 0 01-4.034-4.727" fill="#1C1038"/><path d="M238.814 295.003c-9.331-9.331-22.226-15.104-36.466-15.104-14.241 0-27.135 5.773-36.466 15.104-9.332 9.332-15.104 22.225-15.104 36.466s5.772 27.136 15.104 36.466c9.331 9.332 22.225 15.104 36.466 15.104 14.24 0 27.135-5.774 36.466-15.104 9.331-9.33 15.104-22.225 15.104-36.466s-5.773-27.134-15.104-36.466zm-36.466-25.262c17.046 0 32.479 6.91 43.649 18.08 11.17 11.17 18.081 26.603 18.081 43.648 0 17.044-6.911 32.478-18.081 43.648-11.17 11.17-26.603 18.082-43.649 18.082s-32.478-6.91-43.648-18.082c-11.171-11.17-18.081-26.602-18.081-43.648 0-17.044 6.91-32.478 18.081-43.648 11.17-11.17 26.602-18.08 43.648-18.08zm92.849 18.08c11.17-11.17 26.604-18.08 43.649-18.08s32.478 6.91 43.648 18.08c11.17 11.17 18.082 26.603 18.082 43.648 0 17.046-6.912 32.478-18.082 43.648-11.17 11.172-26.603 18.082-43.648 18.082s-32.479-6.912-43.649-18.082c-11.17-11.17-18.08-26.604-18.08-43.648 0-17.045 6.91-32.478 18.08-43.648zm43.649-7.922c-14.241 0-27.135 5.773-36.465 15.104-9.332 9.332-15.106 22.225-15.106 36.466s5.774 27.136 15.106 36.466c9.33 9.33 22.224 15.104 36.465 15.104 14.242 0 27.134-5.772 36.467-15.104 9.33-9.33 15.103-22.225 15.103-36.466s-5.773-27.134-15.103-36.466c-9.333-9.331-22.225-15.104-36.467-15.104z" fill="#1C1038"/><path d="M176.804 281.585c1.944-7.365 2.87-16.291 2.564-27.104a5.069 5.069 0 015.356-5.364l1.89.094 1.885.014a61.19 61.19 0 0019.698-3.229 60.894 60.894 0 0012.515-5.909 71.84 71.84 0 01-9.156-10.941 5.057 5.057 0 018.373-5.675 61.45 61.45 0 0011.941 13.031c.13.094.255.195.377.304a61.457 61.457 0 009.726 6.402c8.529 4.517 18.272 7.077 28.626 7.077 10.352 0 20.094-2.56 28.624-7.077a61.44 61.44 0 009.724-6.402c.121-.109.248-.21.377-.304a61.48 61.48 0 0011.942-13.031 5.057 5.057 0 018.373 5.675 71.972 71.972 0 01-9.157 10.941 60.926 60.926 0 0012.516 5.909 61.18 61.18 0 0019.697 3.229l1.885-.014 1.891-.094a5.066 5.066 0 015.355 5.356c-.318 11.297.703 20.537 2.83 28.087l-11.332-4.084c-1.051-5.683-1.629-12.023-1.676-19.1a71.243 71.243 0 01-21.906-3.776 71.125 71.125 0 01-17.342-8.694 71.037 71.037 0 01-41.801 13.538 71.051 71.051 0 01-41.806-13.538 71.082 71.082 0 01-17.341 8.694 71.25 71.25 0 01-21.908 3.776c-.04 6.396-.517 12.19-1.384 17.44l-11.356 4.769m93.793 215.172a5.087 5.087 0 100-10.174 5.087 5.087 0 000 10.174m0 20.348a5.086 5.086 0 10.003-10.173 5.086 5.086 0 00-.003 10.173" fill="#1C1038"/><path d="M270.598 134.333c-52.42 0-104.681 11.813-136.142 35.436-32.846 24.663-42.327 62.996-3.161 115.156l3.906 5.202-6.009 2.516c-7.549 3.161-13.437 7.626-17.199 12.708-2.955 3.993-4.575 8.348-4.597 12.683-.024 4.299 1.523 8.707 4.893 12.867l1.386 1.592c1.787-3.122 4.283-5.621 7.53-7.171 5-2.385 11.517-2.34 19.59 1.453 1.141-15.173 7.769-28.819 17.905-38.954a61.824 61.824 0 0119.558-13.202c.93-5.854 1.325-12.529 1.11-20.138a5.069 5.069 0 015.356-5.364l1.89.094 1.885.014a61.19 61.19 0 0019.698-3.229 60.894 60.894 0 0012.515-5.909 71.84 71.84 0 01-9.156-10.941 5.057 5.057 0 018.373-5.675 61.45 61.45 0 0011.941 13.031l.377.304a61.457 61.457 0 009.726 6.402c8.529 4.517 18.272 7.077 28.626 7.077 10.352 0 20.094-2.56 28.624-7.077a61.44 61.44 0 009.724-6.402l.377-.304a61.48 61.48 0 0011.942-13.031 5.057 5.057 0 018.373 5.675 71.972 71.972 0 01-9.157 10.941 60.926 60.926 0 0012.516 5.909 61.18 61.18 0 0019.697 3.229l1.885-.014 1.891-.094a5.066 5.066 0 015.355 5.356c-.215 7.612.18 14.289 1.11 20.146a61.835 61.835 0 0119.558 13.202c10.135 10.135 16.764 23.78 17.906 38.954 8.073-3.793 14.59-3.838 19.588-1.453 3.248 1.55 5.742 4.047 7.53 7.171l1.388-1.592c3.367-4.16 4.916-8.568 4.893-12.867-.024-4.335-1.643-8.69-4.6-12.683-3.76-5.082-9.648-9.547-17.197-12.708l-6.008-2.516 3.904-5.202c39.168-52.161 29.686-90.494-3.16-115.156-31.461-23.624-83.72-35.436-136.14-35.436" fill="#D1D4E2"/><path d="M303.943 252.177a71.048 71.048 0 01-33.344 8.267c-12.032 0-23.383-2.989-33.348-8.267a71.372 71.372 0 01-8.459-5.27 71.087 71.087 0 01-17.339 8.694 71.296 71.296 0 01-21.908 3.775c-.026 4.197-.241 8.136-.631 11.83a61.927 61.927 0 0113.433-1.466c17.047 0 32.48 6.911 43.649 18.082 11.171 11.169 18.082 26.602 18.082 43.647 0 17.044-6.911 32.48-18.082 43.648-11.169 11.17-26.602 18.082-43.649 18.082-17.045 0-32.477-6.91-43.647-18.082a61.895 61.895 0 01-11.721-16.326c-.11 1.056-.212 2.119-.306 3.183-3.332 38.375 6.64 83.115 86.713 93.045a39.122 39.122 0 01-1.915-12.123 5.08 5.08 0 0110.159 0 28.889 28.889 0 008.483 20.484 28.884 28.884 0 0020.484 8.483 28.873 28.873 0 0020.483-8.483 28.885 28.885 0 008.483-20.484 5.08 5.08 0 0110.16 0 39.18 39.18 0 01-1.912 12.123c80.07-9.93 90.044-54.67 86.709-93.045a157.3 157.3 0 00-.305-3.183 61.895 61.895 0 01-11.721 16.326c-11.17 11.172-26.603 18.082-43.648 18.082s-32.477-6.912-43.649-18.082c-11.17-11.168-18.082-26.604-18.082-43.648 0-17.045 6.912-32.478 18.082-43.647 11.172-11.171 26.604-18.082 43.649-18.082 4.615 0 9.109.506 13.433 1.466-.388-3.696-.601-7.633-.631-11.83a71.283 71.283 0 01-21.906-3.775 71.16 71.16 0 01-17.342-8.694 71.105 71.105 0 01-8.457 5.27" fill="#FACFA0"/><path d="M338.846 279.899c-14.241 0-27.135 5.773-36.465 15.104-9.332 9.332-15.106 22.225-15.106 36.466s5.774 27.136 15.106 36.466c9.33 9.33 22.224 15.104 36.465 15.104 14.242 0 27.134-5.772 36.467-15.104 9.33-9.33 15.103-22.225 15.103-36.466s-5.773-27.134-15.103-36.466c-9.333-9.331-22.225-15.104-36.467-15.104m-84.928 51.57c0-14.241-5.773-27.134-15.104-36.466-9.331-9.331-22.226-15.104-36.466-15.104-14.241 0-27.135 5.773-36.466 15.104-9.332 9.332-15.104 22.225-15.104 36.466s5.772 27.136 15.104 36.466c9.331 9.332 22.225 15.104 36.466 15.104 14.24 0 27.135-5.774 36.466-15.104 9.331-9.33 15.104-22.225 15.104-36.466" fill="#FFF"/><path d="M401.32 337.726c1.344 7.267 2.606 15.162 3.319 23.375.095 1.082.179 2.168.254 3.258a17.761 17.761 0 014.869-.676c2.324 0 4.547.447 6.582 1.26a32.479 32.479 0 001.488-3.016c2.447-5.668 3.481-12.121 2.875-17.612-.514-4.658-2.164-8.433-5.082-9.826-2.982-1.422-7.637-.756-14.305 3.237m-264.764 23.375c.713-8.213 1.972-16.108 3.317-23.377-6.667-3.991-11.322-4.659-14.303-3.235-2.918 1.393-4.57 5.168-5.083 9.826-.604 5.491.429 11.944 2.875 17.612a32.23 32.23 0 001.488 3.016 17.715 17.715 0 016.583-1.26c1.689 0 3.322.236 4.869.676.075-1.09.159-2.176.254-3.258" fill="#FACFA0"/><path d="M135.937 375.312a7.6 7.6 0 00-4.504-1.469 7.612 7.612 0 00-5.396 2.235l-.213.199a7.608 7.608 0 00-2.022 5.197c0 2.119.846 4.028 2.216 5.397l.019.019a7.595 7.595 0 005.396 2.215 7.608 7.608 0 005.117-1.949 120.469 120.469 0 01-.613-11.844m269.321 0c-.018 3.941-.207 7.9-.613 11.844a7.593 7.593 0 005.117 1.949 7.609 7.609 0 005.195-2.021l.201-.213a7.613 7.613 0 002.235-5.397 7.612 7.612 0 00-2.235-5.396 7.62 7.62 0 00-5.396-2.235 7.6 7.6 0 00-4.504 1.469" fill="#7ED2EF"/><path d="M223.264 458.095c-.436 4.783-.155 9.08.858 12.67 1.045 3.715 2.879 6.619 5.503 8.41 2.668 1.821 6.338 2.618 11.045 2.106 5.209-.567 11.522-2.699 18.981-6.731l7.166 3.315 2.223-.483v3.493c-10.63 6.373-19.735 9.664-27.299 10.484-7.243.789-13.19-.647-17.831-3.811-4.684-3.195-7.86-8.037-9.552-14.043-1.42-5.043-1.781-10.935-1.102-17.343l10.008 1.933" fill="#1C1038"/><path d="M314.816 458.095c.436 4.783.155 9.08-.857 12.67-1.047 3.715-2.881 6.619-5.504 8.41-2.668 1.821-6.338 2.618-11.045 2.106-5.209-.567-11.523-2.699-18.982-6.731l-7.165 3.315-2.223-.483v3.493c10.63 6.373 19.733 9.664 27.298 10.484 7.244.789 13.191-.647 17.832-3.811 4.684-3.195 7.859-8.037 9.551-14.043 1.42-5.043 1.781-10.935 1.101-17.343l-10.006 1.933" fill="#1C1038"/><path d="M229.625 479.175c2.668 1.821 6.338 2.618 11.045 2.106 3.564-.387 7.643-1.508 12.255-3.467a39.24 39.24 0 01-9.993-7.252 39.4 39.4 0 01-4.034-4.727 241.302 241.302 0 01-15.804-2.023c.095 2.527.437 4.859 1.028 6.953 1.045 3.715 2.879 6.619 5.503 8.41" fill="#FFF"/><path d="M243.175 480.902c2.936-.561 6.185-1.574 9.75-3.088a39.24 39.24 0 01-9.993-7.252 39.4 39.4 0 01-4.034-4.727 247.385 247.385 0 01-12.507-1.513c.138 2.16.463 4.17.978 5.996 1.046 3.715 2.88 6.619 5.504 8.41 2.526 1.723 5.949 2.527 10.302 2.174m55.089-10.34a39.26 39.26 0 01-11.424 7.94c3.926 1.537 7.447 2.439 10.57 2.779 4.707.512 8.377-.285 11.045-2.106 2.623-1.791 4.457-4.695 5.504-8.41.551-1.957.885-4.125 1.006-6.467-4.049.602-8.27 1.116-12.67 1.537a39.284 39.284 0 01-4.031 4.727" fill="#F58F7E"/><path d="M326.213 532.351h-9.899a214.483 214.483 0 01-2.718 16.592c-1.436 7.059-3.207 14.086-5.264 21.078a5.085 5.085 0 01-4.008 3.572c-26.066 4.481-44.502 4.481-70.568 0a5.08 5.08 0 01-4.007-3.572c-2.059-6.992-3.83-14.019-5.265-21.078a214.01 214.01 0 01-2.719-16.592h-9.897c3.792 36.592 17.349 60.498 33.976 71.822 7.338 4.998 15.281 7.498 23.196 7.498 7.915 0 15.858-2.5 23.196-7.498 16.627-11.324 30.184-35.23 33.977-71.822" fill="#7ED2EF"/><path d="M142.042 575.709c-8.457-2.879-14.381-10.157-16.973-19.94a23.75 23.75 0 01-8.246-.082c1.272 6.631 4.145 12.045 8.321 15.537a18.52 18.52 0 006.398 3.492c3.319 1.036 6.924 1.375 10.5.993m-13.234-65.987c1.239.42 2.437.94 3.585 1.553 2.956-5.586 6.7-11.199 11.293-16.691 8.28-9.903 15.165-17.19 20.851-22.252-5.237 2.421-14.512 11.166-29.558 29.162a95.135 95.135 0 00-6.171 8.228" fill="#FFF"/><path d="M368.258 473.636c-3.336 9.541 1.217 33.949 6.871 58.52l.275 1.197-.295 1.164c-2.464 9.736-2.279 17.641-.349 23.824 1.461 4.676 3.92 8.373 6.959 11.121 3.039 2.748 6.707 4.598 10.574 5.579 4.752 1.201 9.76 1.076 14.246-.325a18.534 18.534 0 006.399-3.492c4.175-3.492 7.048-8.906 8.32-15.537-2.416.451-4.94.533-7.5.193l-.551-.08c-6.494-1.013-11.965-4.57-15.559-9.496-3.587-4.922-5.302-11.211-4.289-17.695a23.763 23.763 0 019.498-15.559 23.926 23.926 0 016.416-3.328 95.341 95.341 0 00-6.171-8.228c-23.401-27.987-32.84-33.596-34.844-27.858" fill="#D1D4E2"/><path d="M375.404 533.353l-.295 1.164c-2.464 9.736-2.279 17.641-.349 23.824 1.461 4.676 3.92 8.373 6.959 11.121 3.039 2.748 6.707 4.598 10.574 5.579 4.752 1.201 9.76 1.076 14.246-.325.414-.129.82-.273 1.221-.427a26.89 26.89 0 01-5.438-.375c-3.931-.676-7.734-2.237-10.974-4.743-3.244-2.503-5.983-5.998-7.801-10.546-2.402-6.016-3.199-13.881-1.498-23.78l.205-1.183-.367-1.172c-7.541-24.061-13.971-48.039-11.387-57.813.432-1.633 1.506-2.435 3.379-2.183-3.115-1.551-4.879-.983-5.621 1.142-3.336 9.541 1.217 33.949 6.871 58.52l.275 1.197" fill="#FFF"/><path d="M221.254 527.767a5.067 5.067 0 014.545-5.537 5.067 5.067 0 015.535 4.545c.666 6.719 1.707 13.434 3.071 20.144a239.81 239.81 0 004.185 17.188c21.702 3.414 39.197 3.414 60.9 0a240.335 240.335 0 004.184-17.188c1.365-6.71 2.404-13.425 3.072-20.144a5.067 5.067 0 015.535-4.545 5.068 5.068 0 014.545 5.537c-.701 7.055-1.795 14.115-3.23 21.176-1.436 7.059-3.207 14.086-5.264 21.078a5.085 5.085 0 01-4.008 3.572c-26.066 4.481-44.502 4.481-70.568 0a5.08 5.08 0 01-4.007-3.572c-2.059-6.992-3.83-14.019-5.265-21.078-1.436-7.061-2.529-14.121-3.23-21.176" fill="#1C1038"/><path d="M234.405 546.919a239.81 239.81 0 004.185 17.188c21.702 3.414 39.197 3.414 60.9 0a240.335 240.335 0 004.184-17.188c.986-4.853 1.805-9.71 2.433-14.568h-74.135a206.088 206.088 0 002.433 14.568" fill="#F58F7E"/><path d="M306.107 532.351h-4.711a205.28 205.28 0 01-1.326 12.533 238.205 238.205 0 01-3.05 17.424c-9.778 2.203-18.729 3.639-27.649 4.36 9.69-.02 19.391-.874 30.119-2.561a240.335 240.335 0 004.184-17.188c.986-4.853 1.805-9.71 2.433-14.568m-152.819-238.35c-43.223-47.256-54.136-91.471-.903-127.902 32.467-22.221 85.196-31.729 137.564-29.431 26.797 1.177 53.416 5.44 77.098 12.672-28.291-10.005-62.336-15.007-96.449-15.007-52.42 0-104.681 11.813-136.142 35.436-32.846 24.663-42.327 62.996-3.161 115.156l3.906 5.202-6.009 2.516c-7.549 3.161-13.437 7.626-17.199 12.708-2.955 3.993-4.575 8.348-4.597 12.683-.024 4.299 1.523 8.707 4.893 12.867l1.386 1.592c1.787-3.122 4.283-5.621 7.53-7.171.225-.107.452-.209.683-.307-13.679-12.642 10.941-28.819 31.4-31.014" fill="#FFF"/><g transform="translate(217)"><mask id="d" fill="#fff"><use xlink:href="#c"/></mask><path d="M46.111 6.61C19.694 10.745 1.628 35.514 5.763 61.93c4.134 26.418 28.904 44.484 55.319 40.348 26.418-4.133 44.484-28.903 40.35-55.32C97.297 20.542 72.527 2.475 46.111 6.61" fill="#7ED2EF" mask="url(#d)"/><path d="M10.394 22.938C18.458 11.879 30.746 3.893 45.337 1.61c14.577-2.282 28.71 1.566 39.767 9.63 11.058 8.067 19.044 20.353 21.328 34.944l.078.529c2.109 14.391-1.742 28.314-9.709 39.238-8.067 11.059-20.352 19.045-34.942 21.328l-.531.079c-14.39 2.108-28.314-1.743-39.237-9.71C11.031 89.582 3.045 77.296.763 62.707l-.079-.53c-2.108-14.392 1.742-28.315 9.71-39.239zM46.885 11.61c-11.825 1.851-21.782 8.32-28.318 17.281-6.538 8.963-9.656 20.429-7.803 32.265l.007.048c1.858 11.803 8.324 21.743 17.273 28.27 8.963 6.538 20.428 9.656 32.263 7.804l.091-.014c11.788-1.868 21.709-8.328 28.229-17.266 6.539-8.964 9.656-20.429 7.805-32.264l-.008-.046C94.564 35.883 88.1 25.942 79.15 19.414c-8.964-6.538-20.429-9.656-32.265-7.804z" fill="#1C1038" mask="url(#d)"/></g><path d="M308.242 43.091c3.795 24.253-12.791 46.995-37.044 50.79a44.237 44.237 0 01-23.816-2.815 43.21 43.21 0 0029.925 6.212l.091-.014c11.788-1.868 21.709-8.328 28.229-17.266 6.539-8.964 9.656-20.429 7.805-32.264l-.008-.046c-1.75-11.109-7.578-20.567-15.717-27.084a44.256 44.256 0 0110.535 22.487" fill="#FFF"/><path fill="#1C1038" d="M265.517 128.732h10.159v-24.925h-10.159z"/><path d="M338.848 287.822c-12.055 0-22.967 4.887-30.866 12.785-7.898 7.895-12.785 18.809-12.785 30.862 0 12.054 4.887 22.968 12.785 30.863 7.899 7.898 18.811 12.785 30.866 12.785 12.052 0 22.963-4.885 30.861-12.785 7.898-7.895 12.785-18.809 12.785-30.863 0-12.053-4.887-22.967-12.785-30.862-7.898-7.898-18.809-12.785-30.861-12.785m-136.501 0c12.052 0 22.966 4.887 30.864 12.785 7.898 7.895 12.785 18.809 12.785 30.862 0 12.054-4.887 22.968-12.785 30.863-7.898 7.898-18.812 12.785-30.864 12.785-12.054 0-22.965-4.885-30.863-12.785-7.898-7.895-12.785-18.809-12.785-30.863 0-12.053 4.887-22.967 12.785-30.862 7.898-7.898 18.809-12.785 30.863-12.785" fill="#7ED2EF"/><path fill="#1C1038" d="M260.441 336.55h21.791v-10.161h-21.791z"/><path d="M270.595 420.783c-11.296-.231-14.632-5.244-15.273-12.225-.795-8.658 3.484-21.889 15.273-21.92 11.79.031 16.069 13.262 15.274 21.92-.642 6.981-3.978 11.994-15.274 12.225" fill="#F58F7E"/><path d="M262.427 413.455c1.416 1.308 3.957 2.121 8.168 2.216 4.194-.095 6.733-.906 8.147-2.216h.022c1.242-1.153 1.804-3.049 2.015-5.358.047-.515.073-1.037.073-1.549.007-3.277-.799-7.046-2.579-10.05-1.488-2.514-3.726-4.428-6.797-4.707a15.215 15.215 0 00-1.761-.002c-3.073.283-5.309 2.195-6.799 4.711-1.781 3.002-2.585 6.771-2.577 10.048 0 .512.026 1.034.072 1.549.211 2.309.772 4.205 2.016 5.358zm8.068 12.435c-7.025-.14-11.773-1.955-14.998-4.943-3.403-3.151-4.835-7.26-5.264-11.93a28.034 28.034 0 01-.11-2.469c-.013-4.912 1.229-10.619 3.98-15.255 3.039-5.133 7.828-9.051 14.691-9.68h.02c.565-.051 1.157-.08 1.761-.082h.041c.604.002 1.195.031 1.759.082h.021c6.862.627 11.653 4.549 14.692 9.678 2.748 4.642 3.988 10.345 3.978 15.257a28.398 28.398 0 01-.109 2.469c-.43 4.664-1.857 8.768-5.254 11.92-3.213 2.998-7.969 4.811-15.007 4.953h-.201z" fill="#1C1038"/><path d="M202.347 298.953c15.392 0 27.87 14.557 27.87 32.516 0 17.958-12.478 32.517-27.87 32.517-15.393 0-27.87-14.559-27.87-32.517 0-17.959 12.477-32.516 27.87-32.516" fill="#FFF"/><path d="M218.168 311.802c-4.087-4.768-9.686-7.72-15.821-7.72-6.136 0-11.734 2.954-15.822 7.72-4.272 4.987-6.92 11.939-6.92 19.667 0 7.727 2.648 14.68 6.92 19.667 4.088 4.767 9.686 7.721 15.822 7.721 6.135 0 11.734-2.954 15.821-7.721 4.273-4.987 6.921-11.94 6.921-19.667 0-7.728-2.648-14.68-6.921-19.667zm-15.821-17.977c9.255 0 17.597 4.332 23.594 11.327 5.809 6.777 9.405 16.088 9.405 26.317s-3.596 19.54-9.405 26.317c-5.997 6.995-14.339 11.327-23.594 11.327s-17.597-4.332-23.594-11.327c-5.81-6.777-9.405-16.088-9.405-26.317s3.595-19.54 9.405-26.317c5.997-6.995 14.339-11.327 23.594-11.327z" fill="#1C1038"/><path d="M202.347 321.271c4.827 0 8.741 4.565 8.741 10.198 0 5.632-3.914 10.198-8.741 10.198s-8.741-4.566-8.741-10.198c0-5.633 3.914-10.198 8.741-10.198" fill="#1C1038"/><path d="M338.846 298.953c15.392 0 27.869 14.557 27.869 32.516 0 17.958-12.477 32.517-27.869 32.517-15.393 0-27.871-14.559-27.871-32.517 0-17.959 12.478-32.516 27.871-32.516" fill="#FFF"/><path d="M354.666 311.802c-4.088-4.768-9.686-7.72-15.82-7.72-6.137 0-11.735 2.954-15.823 7.72-4.271 4.987-6.919 11.939-6.919 19.667 0 7.727 2.648 14.68 6.919 19.667 4.088 4.767 9.686 7.721 15.823 7.721 6.134 0 11.732-2.954 15.82-7.721 4.273-4.987 6.92-11.94 6.92-19.667 0-7.728-2.647-14.68-6.92-19.667zm-15.82-17.977c9.254 0 17.595 4.332 23.593 11.327 5.809 6.777 9.405 16.088 9.405 26.317s-3.596 19.54-9.405 26.317c-5.998 6.995-14.339 11.327-23.593 11.327-9.256 0-17.598-4.332-23.596-11.327-5.809-6.777-9.404-16.088-9.404-26.317s3.595-19.54 9.404-26.317c5.998-6.995 14.34-11.327 23.596-11.327z" fill="#1C1038"/><path d="M338.846 321.271c4.826 0 8.74 4.565 8.74 10.198 0 5.632-3.914 10.198-8.74 10.198-4.828 0-8.742-4.566-8.742-10.198 0-5.633 3.914-10.198 8.742-10.198" fill="#1C1038"/><path d="M270.597 517.105a5.086 5.086 0 11.003-10.173 5.086 5.086 0 01-.003 10.173zm0-20.348a5.086 5.086 0 11.001-10.173 5.086 5.086 0 01-.001 10.173zm-71.069-5.365c-1.187 10.328-1.456 20.647-.718 30.799h140.46c.738-10.152.468-20.471-.719-30.799-1.174-10.219-3.244-20.42-6.129-30.461a176.39 176.39 0 01-7.268 1.602c-.021 3.963-.498 7.652-1.433 10.972-1.692 6.006-4.867 10.848-9.551 14.043-4.641 3.164-10.588 4.6-17.83 3.811-7.098-.77-15.549-3.715-25.346-9.338l-.396.002a39.53 39.53 0 01-3.28-.135c-9.895 5.711-18.424 8.696-25.577 9.471-7.244.789-13.19-.647-17.831-3.811-4.684-3.195-7.86-8.037-9.551-14.043-.987-3.502-1.463-7.412-1.434-11.619a172.764 172.764 0 01-7.056-1.685c-2.994 10.275-5.138 20.724-6.341 31.191z" fill="#FFF"/><path d="M114.036 365.937c-3.105-7.199-4.411-15.498-3.636-22.664-2.313-1.917-4.297-3.918-5.968-5.981-4.928-6.085-7.191-12.707-7.155-19.299.035-6.555 2.351-12.961 6.581-18.675 3.783-5.111 9.122-9.683 15.723-13.292-39.264-55.51-27.603-97.013 8.804-124.351 32.258-24.222 84.46-36.71 137.133-37.465v-16.52c-9.698-.918-18.796-4.476-26.428-10.042-11.058-8.065-19.045-20.353-21.327-34.941l-.079-.53a47.53 47.53 0 01-.184-1.381c-50.847 10.498-96.294 35.769-131.651 71.125-47.28 47.282-76.524 112.602-76.524 184.75 0 72.149 29.244 137.469 76.524 184.748a263.165 263.165 0 0017.066 15.627 23.723 23.723 0 0114.516-8.269c2.729-4.631 5.976-9.254 9.77-13.791 31.92-38.176 46.709-40.354 52.185-24.684 4.084 11.686-.421 37.283-6.283 62.94 2.412 10.185 2.314 18.879.473 26.095a259.04 259.04 0 0036.554 11.575c-4.072-11.055-7.017-23.912-8.46-38.563h-7.498a5.08 5.08 0 01-5.077-4.924c-1.239-12.279-1.076-24.748.353-37.183 1.266-11.018 3.535-22.047 6.71-32.92-37.057-12.393-52.61-34.971-57.912-59.42a17.648 17.648 0 01-6.813 1.361c-4.873 0-9.305-1.978-12.528-5.181l-.051-.049c-3.219-3.227-5.211-7.67-5.211-12.559a17.68 17.68 0 013.187-10.139 42.523 42.523 0 01-2.794-5.398m307.577-79.912c6.602 3.609 11.94 8.181 15.723 13.293 4.228 5.714 6.545 12.121 6.58 18.675.039 6.592-2.227 13.213-7.154 19.299-1.67 2.063-3.655 4.064-5.967 5.979.773 7.168-.529 15.467-3.637 22.666a42.53 42.53 0 01-2.785 5.387 17.723 17.723 0 013.178 10.15c0 4.912-1.992 9.36-5.211 12.578l-.33.303a17.728 17.728 0 01-12.25 4.908c-2.408 0-4.711-.482-6.813-1.359-5.435 25.064-21.646 48.166-60.759 60.338 3.037 10.574 5.212 21.291 6.445 32 1.443 12.556 1.594 25.15.314 37.545a5.067 5.067 0 01-5.039 4.55v.012h-7.5c-1.476 14.998-4.527 28.115-8.75 39.346a259.52 259.52 0 0037.145-11.25c-2.121-7.43-2.362-16.492.174-27.203-5.862-25.657-10.368-51.254-6.284-62.94 5.477-15.67 20.266-13.492 52.186 24.684 3.795 4.537 7.041 9.16 9.771 13.791a23.752 23.752 0 0115.725 9.85 262.277 262.277 0 0018.971-17.208c47.281-47.279 76.525-112.599 76.525-184.748 0-72.149-29.244-137.47-76.525-184.75-35.354-35.354-80.797-60.624-131.639-71.123a53.446 53.446 0 01-9.906 25.153c-8.067 11.059-20.352 19.045-34.942 21.327l-.531.08c-.885.13-1.769.236-2.652.322v16.53c52.674.755 104.877 13.243 137.135 37.463 36.406 27.338 48.066 68.842 8.802 124.352" fill="#F58F7E"/></g></svg>